<?xml version="1.0" standalone="no"?>
<!DOCTYPE svg PUBLIC "-//W3C//DTD SVG 20010904//EN"
 "http://www.w3.org/TR/2001/REC-SVG-20010904/DTD/svg10.dtd">
<svg version="1.0" xmlns="http://www.w3.org/2000/svg"
 width="800.000000pt" height="905.000000pt" viewBox="0 0 800.000000 905.000000"
 preserveAspectRatio="xMidYMid meet">
<metadata>
Created by potrace 1.16, written by Peter Selinger 2001-2019
</metadata>
<g transform="translate(0.000000,905.000000) scale(0.100000,-0.100000)"
fill="#000000" stroke="none">
<path d="M0 6475 c0 -1416 2 -2575 4 -2575 2 0 16 20 32 45 15 25 32 45 37 45
4 0 5 -4 2 -10 -8 -13 50 -13 75 0 16 9 20 4 34 -44 9 -30 16 -57 16 -61 0 -4
10 -15 21 -24 19 -16 21 -21 10 -52 -7 -23 -21 -39 -42 -48 -19 -8 -28 -18
-25 -27 3 -9 -2 -14 -14 -14 -13 0 -18 -5 -13 -15 3 -9 -3 -25 -12 -35 -17
-19 -17 -21 8 -43 28 -24 57 -85 50 -104 -3 -7 2 -13 11 -13 24 0 19 -19 -6
-29 -15 -5 -26 -4 -31 3 -4 6 -5 -1 -3 -16 3 -20 0 -29 -15 -33 -10 -3 -18
-12 -16 -18 1 -7 -11 -13 -27 -15 -23 -3 -28 0 -23 12 8 21 -7 21 -24 0 -7 -8
-21 -13 -31 -11 -10 3 -18 1 -18 -4 0 -5 5 -9 10 -9 6 0 10 -16 8 -35 -1 -19
-6 -35 -10 -35 -14 0 -8 -38 7 -44 19 -7 19 -30 0 -50 -12 -12 -13 -20 -4 -40
12 -26 33 -27 22 -1 -3 10 2 15 16 15 12 0 21 5 21 10 0 6 5 10 10 10 6 0 10
-7 10 -15 0 -8 12 -29 27 -45 27 -31 49 -40 41 -18 -3 7 4 21 14 31 14 13 18
14 18 3 0 -8 -5 -18 -10 -21 -12 -8 -13 -52 -1 -59 11 -7 26 59 22 98 -2 20 1
26 9 21 7 -4 16 -2 20 5 11 19 57 4 63 -20 3 -11 11 -20 17 -20 8 0 9 6 4 18
-4 9 -9 36 -12 59 -3 34 0 44 13 49 10 4 12 9 6 13 -6 4 -7 12 0 21 8 12 15 9
39 -20 l29 -35 26 30 c18 20 34 29 50 27 15 -2 29 6 44 25 11 15 30 38 42 49
29 29 19 59 -21 62 -16 1 -30 -2 -30 -8 0 -5 -4 -10 -8 -10 -11 0 -15 82 -4
89 4 3 15 24 23 46 12 34 20 40 46 43 22 2 37 -3 51 -19 11 -11 26 -19 33 -17
9 3 5 13 -14 32 -25 25 -38 54 -18 42 5 -3 14 1 21 9 19 23 31 19 71 -26 33
-37 38 -39 43 -21 7 21 49 37 68 26 6 -4 23 -8 38 -9 36 -3 80 -33 80 -55 0
-10 9 -22 20 -25 11 -3 20 -13 20 -21 0 -19 -38 -56 -50 -49 -6 4 -10 -2 -10
-11 0 -9 -11 -32 -26 -51 -23 -31 -22 -47 3 -22 25 25 80 -33 68 -72 -9 -26
20 -59 44 -52 11 3 22 0 26 -7 9 -14 30 25 46 83 11 44 25 67 40 67 5 0 6 -8
4 -18 -3 -9 1 -3 9 14 14 29 43 51 53 40 3 -3 6 -16 7 -30 0 -14 7 -26 14 -26
7 0 12 -12 12 -29 0 -20 8 -34 25 -45 14 -9 25 -12 25 -6 0 5 -4 10 -9 10 -5
0 -12 8 -15 17 -4 10 -4 14 0 10 4 -4 12 1 19 10 12 16 40 9 30 -8 -4 -5 12
-9 34 -9 27 0 44 6 51 18 6 9 13 12 16 7 2 -6 19 -9 38 -7 27 3 34 0 39 -17 4
-15 16 -22 46 -27 34 -5 41 -10 41 -30 0 -30 20 -42 35 -21 7 10 20 14 33 10
23 -5 26 -21 15 -61 -4 -18 -8 -20 -14 -10 -7 10 -9 10 -9 1 0 -7 -8 -13 -17
-13 -15 0 -15 -1 2 -13 17 -13 17 -14 -6 -22 -20 -6 -21 -8 -6 -12 9 -2 17 -8
17 -13 0 -4 -9 -6 -20 -3 -14 4 -20 0 -20 -11 0 -9 -6 -16 -14 -16 -8 0 -17
-6 -19 -12 -4 -9 -6 -8 -6 2 -1 9 4 21 11 28 9 9 9 15 0 24 -9 9 -12 9 -12 0
0 -7 -10 -12 -23 -12 -13 0 -33 -9 -45 -20 -12 -11 -28 -20 -37 -20 -10 0 -15
-9 -15 -27 0 -33 -9 -47 -32 -56 -10 -3 -19 0 -22 9 -6 16 -76 16 -88 -1 -12
-16 -9 -25 7 -25 8 0 15 -4 15 -9 0 -5 -9 -7 -21 -4 -16 5 -20 1 -19 -13 4
-32 1 -36 -16 -20 -14 15 -17 14 -35 -8 -23 -29 -24 -36 -3 -36 12 0 15 -6 10
-24 -6 -24 9 -47 16 -25 7 20 68 0 68 -22 0 -10 4 -19 9 -19 5 0 7 9 4 21 -4
15 0 22 16 26 11 3 19 9 16 13 -3 5 5 6 17 2 17 -4 20 -2 15 12 -10 25 18 31
49 11 14 -9 37 -15 50 -12 19 3 31 -5 61 -44 38 -50 52 -59 54 -36 1 6 3 23 4
37 3 31 13 58 36 90 16 22 17 31 7 67 -10 34 -9 47 2 68 7 14 19 25 25 25 7 0
18 7 25 15 7 8 23 15 36 15 12 0 35 5 51 12 15 6 37 12 48 13 11 1 37 6 59 10
l38 8 -7 -109 c-14 -234 -60 -820 -71 -903 -6 -45 -10 -47 -74 -30 -11 3 -14
-3 -12 -19 l4 -24 -182 4 c-147 2 -183 6 -190 18 -8 12 -10 11 -10 -7 0 -22 3
-23 86 -23 l85 0 102 -66 c63 -40 101 -71 99 -80 -2 -8 2 -14 8 -14 5 0 10 4
10 9 0 5 12 6 28 2 22 -6 27 -12 25 -37 -2 -16 -10 -109 -19 -208 -8 -98 -13
-184 -10 -191 2 -7 2 -16 -2 -19 -7 -8 -9 -21 -17 -103 -3 -35 -9 -84 -14
-110 -5 -27 -9 -59 -8 -73 0 -14 0 -45 -2 -70 -3 -39 -4 -41 -11 -20 -5 15 -8
18 -9 9 -2 -33 -70 -41 -78 -9 -3 11 -11 20 -19 20 -7 0 -11 6 -8 14 3 9 -3
17 -15 21 -22 7 -18 35 4 35 21 0 48 31 36 43 -5 5 -7 16 -4 25 5 12 1 14 -20
10 -19 -4 -27 0 -30 14 -3 10 -11 18 -17 18 -10 0 -10 -3 0 -15 7 -9 8 -15 2
-15 -5 0 -13 8 -16 17 -6 15 -8 15 -17 3 -6 -10 -9 2 -7 40 3 45 6 54 20 52 9
-1 19 2 23 8 4 6 -4 10 -19 10 -31 0 -40 -24 -38 -103 1 -32 -2 -56 -7 -53 -5
3 -12 -2 -15 -11 -6 -15 -10 -14 -29 8 -12 13 -19 20 -14 15 12 -17 8 -26 -13
-26 -11 0 -20 5 -20 11 0 6 -6 25 -14 42 -13 32 -37 85 -44 100 -2 4 23 7 56
7 l60 0 10 -37 c5 -21 10 -29 11 -18 0 11 -5 31 -12 45 -12 23 -17 25 -72 22
-33 -2 -62 -6 -64 -8 -4 -3 7 -33 46 -122 8 -18 13 -38 10 -45 -2 -7 2 -16 10
-22 16 -12 103 -211 103 -236 0 -16 -11 -18 -105 -18 l-106 -1 17 30 c10 16
28 30 40 32 21 3 22 5 8 28 -14 23 -14 23 -9 3 5 -18 3 -22 -9 -17 -8 3 -22
-3 -32 -15 -13 -15 -20 -17 -25 -9 -5 7 -11 9 -16 5 -4 -4 -2 -16 4 -26 10
-16 8 -17 -15 -14 -24 3 -25 2 -7 -7 15 -7 -1 -9 -58 -7 -42 1 -77 -1 -77 -5
0 -5 -9 -8 -21 -8 -11 0 -17 4 -14 10 3 6 -5 10 -19 10 -32 0 -76 17 -76 29 0
12 52 9 61 -3 4 -4 7 3 7 18 0 14 -3 25 -7 24 -28 -3 -51 4 -51 17 0 9 6 12
15 9 8 -3 21 1 30 9 13 14 11 16 -15 26 -17 5 -30 15 -30 22 0 7 -8 4 -18 -7
-16 -16 -16 -21 -4 -33 7 -8 11 -23 8 -35 -3 -12 -6 -31 -6 -43 0 -16 -7 -23
-27 -26 l-28 -4 28 -2 c21 -1 27 -6 27 -23 0 -19 -2 -20 -10 -8 -5 8 -10 11
-10 5 0 -7 -3 -7 -8 0 -4 6 -52 9 -120 7 -111 -3 -113 -4 -106 -25 9 -24 9
-27 6 -144 -2 -85 -11 -101 -38 -65 -13 16 -13 16 -14 -3 0 -15 -2 -17 -9 -7
-7 11 -9 10 -15 -3 -3 -9 -11 -13 -17 -10 -6 4 -67 6 -136 6 -76 -1 -123 2
-119 7 7 12 -18 35 -27 25 -4 -3 -7 1 -7 10 0 9 9 21 20 27 16 9 20 8 20 -5 0
-9 5 -13 11 -10 7 5 2 16 -12 31 -20 22 -21 26 -8 51 22 45 22 46 11 39 -13
-8 -18 11 -27 99 -3 33 -8 74 -11 90 -3 17 -5 99 -4 182 1 87 -2 153 -7 153
-5 0 -10 -87 -12 -197 -1 -108 -7 -204 -12 -213 -6 -10 -8 -4 -3 21 4 24 2 39
-7 44 -8 6 -10 4 -4 -5 5 -9 2 -10 -12 -6 -15 5 -25 0 -37 -18 -13 -20 -21
-24 -39 -17 -12 4 -26 17 -32 27 -6 12 -23 20 -45 22 -19 2 -41 9 -47 14 -13
10 -17 1 -14 -28 1 -7 -6 -15 -16 -18 -14 -6 -15 -9 -4 -16 11 -6 5 -12 -21
-23 l-36 -15 -2 -266 c0 -159 3 -266 9 -266 9 0 149 54 279 107 83 34 88 25 6
-11 -45 -20 -61 -32 -52 -38 8 -5 2 -6 -15 -2 -21 5 -27 3 -27 -11 0 -14 7
-16 38 -12 20 3 50 9 66 13 21 5 27 4 22 -5 -4 -6 -1 -11 6 -11 9 0 9 -3 -2
-10 -8 -6 -28 -7 -45 -4 -19 3 -25 2 -17 -4 17 -12 -89 -55 -113 -46 -13 5
-16 4 -11 -4 5 -8 2 -10 -8 -6 -16 6 -23 26 -9 22 15 -3 63 26 63 38 0 26 -22
25 -105 -7 l-85 -32 0 -68 0 -68 33 -4 32 -4 -32 -1 c-21 -1 -33 -7 -33 -16 0
-9 7 -13 18 -12 9 2 23 -2 30 -10 11 -12 7 -14 -20 -15 -24 -1 -27 -3 -10 -6
27 -5 29 -23 2 -23 -19 0 -20 -7 -20 -95 l0 -95 1429 0 c1350 0 1430 1 1434
18 4 16 5 16 6 0 1 -16 13 -18 114 -18 105 1 110 2 80 15 -18 8 -33 19 -33 25
0 5 2 10 5 10 10 0 75 -34 75 -39 0 -11 159 -10 166 0 4 6 11 5 21 -2 17 -15
33 2 33 38 0 12 4 25 10 28 14 9 12 27 -2 23 -7 -3 -15 -15 -18 -27 -7 -30
-25 -26 -23 5 2 23 -1 24 -38 19 -61 -8 -79 7 -79 63 0 27 5 53 12 60 9 9 8
12 -4 12 -13 0 -17 18 -23 97 -13 182 -15 197 -24 202 -5 4 -11 22 -14 41 -3
27 -4 23 -5 -17 -1 -30 2 -53 8 -53 6 0 10 -10 9 -22 0 -22 -1 -22 -10 -3 -6
13 -8 -29 -5 -120 l4 -140 -30 65 c-17 36 -34 67 -38 70 -10 8 -30 70 -30 96
0 13 -5 24 -11 24 -16 0 -47 41 -54 72 -4 15 -11 31 -17 35 -8 4 -9 0 -4 -13
17 -39 17 -52 4 -57 -7 -2 -5 -3 5 -1 17 2 43 -38 39 -58 -1 -4 5 -16 13 -25
8 -10 35 -61 60 -113 35 -74 42 -96 30 -98 -12 -3 -73 41 -135 98 -48 44 -86
77 -106 90 -20 14 -21 18 -8 40 10 19 13 21 14 8 0 -22 7 -23 27 -3 19 20 11
28 -27 28 -17 0 -30 4 -30 9 0 5 -8 8 -17 6 -11 -2 -19 6 -24 22 -4 14 -7 20
-8 13 -2 -25 -58 -10 -102 28 -41 35 -43 39 -33 66 6 16 7 40 3 57 -10 36 -5
46 24 47 20 1 20 2 -3 8 -26 7 -32 28 -18 69 4 13 3 22 -2 22 -6 0 -10 33 -10
75 0 42 -4 75 -10 75 -5 0 -7 -6 -4 -14 3 -8 1 -17 -5 -20 -7 -4 -10 7 -9 30
1 20 7 38 15 41 7 3 13 10 13 15 0 6 -7 8 -15 4 -12 -4 -15 6 -15 61 0 36 -3
64 -6 61 -3 -3 -6 -83 -7 -177 -1 -105 -6 -172 -12 -173 -5 -1 -20 14 -33 33
-13 19 -31 44 -42 55 -10 12 -21 31 -25 43 -3 12 -10 21 -15 21 -5 0 -12 9
-15 20 -3 11 -11 20 -16 20 -10 0 24 -55 83 -135 20 -27 39 -61 43 -75 l6 -25
-278 3 c-152 2 -280 7 -283 12 -3 5 -12 5 -20 0 -25 -16 -30 -12 -30 26 0 41
-15 59 -51 62 -29 2 -49 -29 -49 -74 0 -14 -4 -23 -9 -20 -5 3 -7 22 -4 43 4
26 16 46 45 72 22 20 70 65 107 100 36 35 80 75 96 88 64 54 107 95 103 99 -2
2 -23 -14 -47 -36 -34 -32 -48 -39 -75 -36 -25 1 -33 -1 -29 -11 3 -9 -4 -13
-21 -13 -14 0 -26 -4 -26 -9 0 -4 11 -6 25 -3 14 2 25 0 25 -5 0 -12 -78 -83
-91 -83 -5 0 -9 -5 -9 -11 0 -5 -5 -7 -10 -4 -5 3 -10 -1 -10 -9 0 -9 -7 -16
-15 -16 -8 0 -31 -17 -51 -37 -43 -45 -29 -21 43 72 29 37 53 72 53 76 0 5 7
9 15 9 8 0 12 6 10 12 -3 7 11 31 30 53 19 22 38 48 41 58 5 15 16 21 36 18 4
0 5 5 2 12 -2 7 14 34 36 60 42 47 74 59 97 36 9 -9 11 -7 7 8 -4 14 -13 19
-33 17 -25 -2 -28 1 -26 25 2 30 20 27 -199 31 l-128 2 6 31 c3 17 14 40 24
51 11 14 8 13 -12 -4 l-29 -25 17 32 c9 17 20 35 26 38 5 3 15 16 21 28 5 12
-9 1 -31 -25 -58 -66 -68 -63 -63 19 6 122 13 153 31 153 16 1 16 2 0 14 -13
9 -18 27 -18 60 0 76 21 190 36 199 8 4 14 13 14 20 0 8 23 12 75 12 60 0 75
-3 75 -15 0 -13 1 -13 10 0 14 22 100 23 101 1 0 -10 2 -12 6 -3 2 6 14 12 25
12 15 0 19 -5 15 -20 -3 -11 -2 -22 2 -24 4 -3 8 7 9 22 1 14 8 29 15 34 6 4
-22 8 -63 9 -41 1 -79 3 -85 4 -5 2 -43 3 -84 4 -73 1 -73 1 -69 26 3 14 1 25
-3 25 -18 0 -8 22 42 98 27 42 39 64 26 48 -13 -15 -40 -52 -58 -82 -26 -41
-39 -53 -56 -51 -24 1 -31 13 -12 19 7 2 18 90 30 238 10 129 18 236 19 238 0
1 6 1 12 0 7 -2 14 8 16 21 l4 24 105 -7 c59 -3 123 -6 144 -6 38 0 38 -1 32
-32 -4 -22 -3 -29 5 -24 19 11 52 16 52 6 0 -4 6 -10 13 -13 9 -3 12 5 9 29
l-4 34 63 0 c34 0 60 2 57 5 -3 3 -99 8 -214 11 -115 3 -214 7 -220 9 -7 2
-10 17 -8 36 2 18 -1 36 -6 39 -6 4 22 56 68 126 43 65 107 164 142 219 35 55
68 103 74 107 25 17 56 8 71 -21 8 -17 20 -33 26 -36 6 -4 1 11 -10 34 -12 22
-21 50 -21 62 0 20 3 21 81 16 54 -3 84 -9 90 -18 7 -12 12 -7 11 11 0 3 22 6
50 8 50 3 50 3 44 -22 -4 -15 -2 -26 4 -26 6 0 9 -47 7 -125 -1 -69 1 -125 5
-125 4 0 8 12 10 28 l4 27 11 -25 c10 -24 11 -23 10 12 -1 26 -4 34 -12 28 -7
-6 -11 -3 -11 10 0 10 4 16 8 14 13 -8 9 11 -4 25 -11 11 -10 13 2 9 20 -7 23
39 4 46 -8 3 -14 10 -14 15 0 6 6 8 14 5 12 -5 15 33 16 243 1 136 3 300 3
363 l2 115 37 -3 c44 -3 53 8 49 63 -3 41 -31 88 -31 52 0 -9 5 -17 10 -17 6
0 10 -7 10 -15 0 -23 -17 -18 -24 8 -3 12 -6 27 -6 34 0 12 37 12 57 0 17 -10
40 1 58 30 13 19 14 27 4 39 -9 11 -9 18 -1 26 9 9 12 8 12 -5 0 -9 6 -17 14
-17 8 0 17 -6 19 -12 4 -8 8 -5 12 9 4 12 13 19 20 16 14 -5 49 -93 40 -101
-3 -3 -5 -2 -5 2 0 4 -8 2 -18 -3 -13 -7 -18 -20 -17 -41 1 -17 -1 -33 -5 -35
-4 -2 -34 -5 -68 -7 -33 -1 -58 -6 -56 -10 3 -4 5 -32 6 -60 0 -41 2 -48 9
-30 18 48 37 25 74 -88 15 -47 31 -89 36 -94 9 -10 -33 125 -56 181 -8 20 -13
38 -10 41 2 2 0 13 -5 22 -7 13 -6 20 6 24 28 11 89 6 108 -9 14 -10 15 -15 6
-15 -9 0 -6 -6 8 -16 12 -8 19 -20 16 -26 -4 -6 -2 -8 3 -5 12 7 23 -37 23
-90 0 -20 -4 -32 -10 -28 -5 3 -10 1 -10 -4 0 -6 9 -11 20 -11 16 0 19 5 16
23 -7 33 -15 171 -26 462 -6 143 -13 278 -16 301 -5 36 -3 42 15 47 12 3 23 2
26 -3 9 -15 55 -8 56 9 4 47 0 116 -6 118 -4 1 -11 6 -14 11 -4 6 -11 5 -18
-3 -10 -11 -8 -19 7 -38 20 -25 24 -77 7 -77 -5 0 -7 7 -3 15 6 18 -2 45 -15
45 -5 0 -8 -3 -8 -7 4 -24 -2 -53 -11 -53 -6 0 -10 27 -10 60 0 36 -4 60 -11
60 -7 0 -8 -11 -4 -29 3 -16 2 -32 -4 -35 -7 -5 -10 23 -10 79 0 47 4 85 9 85
5 0 8 -14 6 -30 -2 -17 0 -33 5 -36 5 -3 9 15 9 40 0 39 -3 45 -17 40 -17 -5
-17 -5 0 9 16 13 18 41 20 301 2 158 1 289 -2 291 -2 3 -11 -1 -19 -8 -11 -8
-14 -8 -9 0 5 8 -2 13 -20 15 -21 2 -28 9 -29 26 -1 16 2 20 11 12 7 -6 39
-12 71 -13 33 -2 67 -7 77 -11 10 -5 17 -5 16 0 -1 5 -1 19 0 32 1 18 7 22 37
22 24 0 34 4 31 13 -2 7 -16 11 -33 9 -33 -3 -65 14 -49 26 6 4 10 72 10 167
0 145 -2 161 -18 167 -25 11 -10 31 19 25 23 -4 35 8 14 15 -5 2 -10 37 -11
78 -1 42 -7 78 -13 82 -8 6 -7 8 2 8 8 0 12 23 12 80 0 64 -3 80 -15 80 -8 0
-15 4 -15 10 0 6 38 8 100 6 83 -3 100 -1 100 11 0 11 -11 14 -47 12 -30 -2
-47 2 -46 8 1 6 -5 14 -13 17 -12 4 -15 2 -10 -9 3 -9 0 -15 -9 -15 -12 0 -15
23 -16 133 -1 72 -2 158 -3 189 -1 56 0 58 24 58 l26 0 -8 78 c-4 42 -5 88 -2
102 l4 25 -10 -24 c-6 -13 -10 -40 -9 -60 0 -20 -2 -49 -5 -66 -5 -27 -5 -27
3 -5 l9 25 1 -26 c1 -16 -5 -29 -14 -33 -14 -5 -16 10 -15 122 1 70 1 132 1
139 -1 12 -20 11 -53 -2 -14 -5 -18 -2 -18 13 0 19 -32 32 -82 32 -17 0 -18
-3 -8 -15 10 -13 9 -15 -9 -15 -11 0 -24 0 -28 0 -5 0 -8 4 -8 10 0 5 -9 16
-20 24 -19 14 -16 15 35 16 129 0 228 -19 173 -33 -12 -3 -8 -5 9 -6 14 0 29
-7 31 -13 3 -7 6 -2 6 12 1 20 3 22 11 10 8 -12 10 -11 10 7 0 17 -4 21 -17
17 -15 -5 -16 -4 -3 5 8 6 15 16 15 22 0 17 17 21 35 9 13 -9 13 -11 0 -20
-11 -7 5 -10 53 -10 40 0 67 4 67 11 0 5 -3 8 -7 6 -5 -3 -28 -1 -53 3 l-45 7
53 2 52 1 0 65 c0 37 4 65 10 65 6 0 10 -6 10 -12 1 -7 0 -120 0 -250 0 -152
3 -239 10 -243 15 -9 12 -25 -5 -25 -8 0 -15 -4 -15 -10 0 -5 -4 -10 -10 -10
-5 0 -10 7 -10 15 0 8 -4 15 -10 15 -5 0 -10 -24 -11 -52 0 -81 -10 -222 -15
-227 -10 -11 -13 12 -15 121 -1 117 -7 146 -29 133 -6 -4 -17 1 -25 11 -13 17
-14 -4 -15 -156 l0 -175 47 0 48 0 -1 -35 c-1 -19 -5 -52 -9 -72 -7 -37 -7
-38 23 -38 57 0 57 -2 54 -111 -2 -70 0 -99 7 -94 6 3 11 0 11 -9 0 -8 -6 -17
-12 -19 -8 -3 -5 -6 6 -6 12 -1 16 -6 12 -16 -3 -8 0 -15 5 -15 6 0 9 9 6 20
-3 11 -1 23 4 26 6 3 7 14 4 24 -3 10 -6 63 -6 117 -1 184 -1 183 21 183 21 0
24 -21 22 -152 -1 -57 -1 -58 27 -58 29 0 72 39 93 85 14 31 21 31 42 3 9 -14
13 -16 10 -6 -3 9 -1 25 5 35 9 16 10 16 11 -6 0 -23 1 -23 19 -7 19 18 47 14
36 -5 -4 -5 3 -9 14 -9 10 0 22 -6 25 -12 3 -7 3 1 0 19 -4 24 -1 34 13 42 17
10 17 10 1 11 -10 0 -18 4 -18 10 0 5 6 7 14 4 8 -3 17 0 22 7 4 8 3 10 -4 5
-7 -4 -13 -4 -13 1 -6 37 -5 53 5 53 6 0 5 4 -3 9 -17 11 3 25 22 16 6 -4 2 2
-10 13 -15 13 -31 18 -45 15 -13 -4 -19 -2 -15 3 17 18 67 12 79 -10 18 -31
18 -48 2 -42 -8 3 -14 -1 -14 -10 0 -8 4 -13 9 -10 12 8 22 -20 15 -39 -5 -12
2 -15 29 -15 30 0 34 3 31 23 -13 83 -15 115 -7 120 12 8 53 -3 53 -14 0 -5
-7 -6 -15 -3 -12 5 -15 -5 -15 -57 0 -80 -8 -109 -26 -102 -17 6 -17 5 1 -46
18 -51 0 -44 -21 8 -9 24 -21 37 -34 38 -11 1 -18 -2 -15 -8 4 -5 13 -9 21 -9
8 0 13 -4 9 -10 -3 -5 -12 -7 -20 -3 -14 5 -21 -21 -16 -51 1 -6 0 -20 -4 -33
-6 -25 -45 -33 -45 -9 0 8 -6 16 -12 19 -10 4 -10 7 0 18 10 11 12 10 12 -4 0
-9 5 -17 10 -17 6 0 10 6 10 14 0 17 -24 38 -33 29 -4 -3 -7 -1 -7 5 0 19 -24
14 -49 -9 -13 -13 -26 -18 -30 -12 -3 5 -16 12 -28 15 -24 6 -33 -8 -33 -50
l1 -27 23 27 c20 22 25 24 30 12 8 -21 8 -21 -12 -26 -30 -8 -51 -66 -47 -126
2 -30 5 -56 7 -57 2 -2 22 -6 44 -10 l41 -6 -2 71 c-1 39 -5 73 -9 77 -3 3 -6
19 -6 35 0 24 4 28 30 28 26 0 30 -4 30 -26 0 -14 4 -23 9 -19 6 3 9 -3 8 -14
0 -11 -4 -19 -7 -19 -35 3 -39 -2 -34 -58 3 -32 7 -61 10 -65 7 -12 64 -11 64
0 0 5 9 12 20 16 19 6 19 7 3 32 -16 24 -16 25 3 21 10 -2 18 -10 17 -16 -2
-7 8 -12 21 -12 13 0 27 -7 30 -16 5 -13 9 -14 21 -4 21 17 19 30 -5 30 -21 0
-27 15 -10 25 6 4 8 11 5 16 -4 5 -1 9 5 9 7 0 9 -8 5 -20 -5 -15 -3 -18 8
-14 11 4 17 -4 23 -28 4 -18 7 -36 6 -40 -2 -7 17 -12 45 -11 7 0 19 -21 28
-47 11 -33 21 -47 33 -46 12 1 18 -8 20 -26 2 -16 -1 -28 -7 -28 -6 0 -11 9
-11 20 0 11 -5 20 -11 20 -14 0 -1 -42 18 -57 8 -6 12 -16 9 -21 -3 -5 4 -37
15 -71 12 -34 19 -65 15 -68 -3 -3 -52 -7 -109 -7 -93 -1 -103 -3 -94 -17 8
-13 27 -16 101 -14 50 1 96 0 103 -2 8 -3 10 -25 6 -73 -7 -77 2 -140 20 -140
7 0 19 5 27 10 13 9 13 11 0 20 -13 8 -13 10 2 10 14 0 15 5 8 30 -5 17 -5 32
0 35 5 3 5 17 -1 32 -5 14 -6 29 -2 32 4 3 8 45 8 94 0 48 4 87 8 87 5 0 5 4
2 10 -3 5 2 9 12 7 10 -1 19 3 20 8 1 6 -9 9 -23 8 -16 -1 -24 2 -21 10 2 7
25 13 56 13 72 2 78 14 7 14 -64 0 -77 13 -59 60 8 21 7 29 -4 36 -18 11 -22
116 -5 122 7 2 12 17 12 33 0 27 13 39 24 21 2 -4 23 -7 46 -5 40 2 42 1 37
-23 -3 -18 -1 -24 9 -20 7 3 16 1 19 -4 4 -6 -3 -10 -14 -10 -11 0 -23 -5 -26
-10 -4 -6 -10 -8 -15 -5 -5 3 -12 -6 -16 -20 -3 -14 -14 -30 -23 -35 -14 -8
-14 -9 0 -10 8 0 20 5 27 12 9 9 12 9 12 -3 0 -10 10 -15 28 -14 20 0 27 -5
26 -18 -1 -10 3 -16 10 -14 6 2 11 14 10 26 0 15 3 18 10 11 14 -14 29 -13 20
2 -5 8 -2 9 10 5 10 -4 22 -7 27 -7 5 0 1 -9 -8 -20 -10 -11 -27 -20 -39 -20
-12 0 -24 -5 -26 -12 -2 -6 -10 -8 -17 -4 -7 5 -10 14 -7 22 8 22 -9 25 -22 3
-10 -15 -10 -19 0 -19 9 0 8 -3 -2 -10 -11 -7 -1 -10 35 -11 28 -1 72 -2 98
-3 35 -2 51 2 57 13 6 10 10 11 10 4 0 -9 17 -13 50 -13 46 0 63 11 41 25 -6
3 -10 13 -10 23 -3 78 1 117 11 123 9 6 8 10 -4 14 -11 4 -14 13 -10 23 3 9 6
32 5 52 0 19 2 40 5 45 11 17 8 125 -3 125 -5 0 -5 4 2 8 14 9 12 44 -2 55
-14 10 -495 8 -495 -3 0 -5 8 -11 18 -13 16 -4 16 -5 0 -6 -23 -1 -23 -16 1
-55 14 -22 17 -36 11 -46 -10 -16 -11 -14 -14 30 -1 10 -16 17 -41 21 l-40 6
35 2 c32 1 33 3 17 15 -13 10 -14 15 -4 19 9 3 12 21 10 59 l-3 54 270 -1 270
0 -4 -305 c-3 -168 -5 -311 -5 -317 -1 -10 -37 -13 -146 -13 -90 0 -145 -4
-145 -10 0 -16 235 -15 276 0 24 9 24 9 24 -60 0 -40 4 -70 10 -70 6 0 10 20
10 45 0 25 5 45 10 45 6 0 10 7 10 16 0 8 -4 13 -9 10 -5 -4 -3 18 5 46 7 29
14 63 14 75 0 12 6 24 13 26 9 4 9 8 -1 15 -11 7 -11 10 2 15 20 8 16 16 70
-151 l46 -143 2 -832 c1 -458 4 -769 5 -693 3 114 6 141 20 151 11 8 13 14 5
19 -7 4 -12 2 -12 -5 0 -7 -2 -10 -5 -8 -2 3 0 18 4 35 8 24 9 25 10 7 1 -13
5 -23 9 -23 17 0 51 -41 46 -55 -4 -8 -1 -15 5 -15 15 0 14 43 -2 59 -10 10
-9 11 6 6 11 -5 17 -18 17 -36 0 -21 5 -29 18 -29 15 0 15 -2 2 -11 -14 -10 6
-9 74 3 10 2 21 -4 23 -12 4 -13 3 -13 -6 0 -7 10 -11 11 -11 3 0 -7 -7 -10
-15 -7 -8 4 -15 1 -15 -5 0 -6 4 -11 9 -11 5 0 12 -8 14 -17 4 -17 5 -17 6 0
2 39 21 3 21 -40 0 -26 2 -44 4 -42 4 4 12 90 46 499 12 135 25 254 30 265 5
11 10 64 12 117 5 115 17 138 97 181 48 26 61 28 169 28 344 1 446 -18 499
-93 28 -41 28 -43 31 -216 3 -168 -5 -232 -29 -232 -4 0 -11 16 -15 35 -9 49
-16 37 -8 -13 4 -23 10 -39 15 -36 5 3 9 -9 9 -25 0 -17 3 -31 8 -31 4 0 7
-37 7 -82 1 -152 13 -280 27 -290 11 -7 11 -10 0 -17 -10 -6 -12 -21 -8 -52 3
-24 8 -89 11 -144 3 -55 9 -114 14 -131 5 -17 7 -43 4 -58 -9 -46 7 -156 23
-156 16 0 19 16 4 25 -5 3 -10 10 -10 16 0 5 5 9 10 9 6 0 10 -7 10 -16 0 -12
6 -15 23 -11 21 6 21 6 -3 -13 -14 -11 -20 -20 -13 -20 6 0 19 -3 27 -6 12 -5
15 -2 10 12 -6 15 -4 17 6 7 11 -10 10 -17 -4 -38 -15 -23 -15 -26 -1 -32 10
-3 15 -13 12 -24 -3 -11 -2 -21 3 -24 4 -3 10 8 12 25 3 22 0 30 -14 33 -12 3
-11 4 4 3 20 -1 23 -7 26 -43 2 -24 7 -43 13 -43 5 0 9 5 9 11 0 5 5 7 11 3 8
-4 8 -9 0 -17 -18 -18 -13 -27 15 -27 14 0 23 -4 20 -9 -7 -11 42 -44 54 -36
6 3 7 -1 4 -9 -3 -9 -10 -16 -14 -16 -5 0 -8 -12 -7 -27 2 -32 35 -54 68 -46
19 5 21 3 15 -20 -5 -20 -1 -29 16 -41 12 -9 17 -16 10 -16 -6 0 -12 -4 -12
-10 0 -5 7 -7 16 -3 10 4 25 -4 40 -20 30 -32 30 -37 2 -29 -20 5 -21 3 -10
-10 7 -9 23 -14 35 -12 12 2 16 2 10 -2 -20 -9 -15 -22 10 -27 l22 -4 -22 -8
c-13 -4 -23 -11 -23 -17 0 -5 7 -5 18 0 20 11 45 5 36 -9 -3 -5 2 -9 12 -9 13
0 15 -6 11 -29 -5 -24 -3 -28 12 -24 10 3 22 0 25 -6 5 -7 -2 -11 -16 -12
l-23 0 23 -9 c15 -6 22 -18 22 -35 0 -20 5 -25 24 -25 14 0 27 -4 30 -9 4 -5
-3 -7 -14 -4 -23 6 -24 3 -8 -32 8 -19 14 -22 20 -13 6 9 10 7 14 -10 4 -12
11 -22 18 -23 6 0 1 -4 -11 -9 -27 -11 -20 -50 10 -58 20 -5 20 -6 1 -13 -18
-7 -18 -8 2 -8 25 -1 28 -30 5 -48 -14 -11 -13 -12 7 -13 12 0 22 6 22 14 0
19 23 26 57 16 l28 -8 -32 -1 c-36 -1 -57 -21 -21 -21 21 0 21 -1 5 -18 -16
-15 -19 -15 -27 -2 -8 12 -10 11 -10 -7 0 -16 4 -21 15 -17 9 4 15 0 15 -10 0
-9 -7 -16 -15 -16 -8 0 -15 -7 -15 -15 0 -8 8 -15 18 -15 14 0 13 -4 -7 -19
-25 -19 -22 -41 6 -41 9 0 13 -6 9 -15 -3 -10 1 -18 12 -23 13 -5 11 -8 -13
-13 -29 -6 -29 -6 13 -14 23 -4 42 -11 42 -15 0 -4 -11 -5 -24 -3 -17 4 -28
-2 -40 -18 -20 -30 -21 -45 0 -25 8 9 23 16 33 16 10 0 21 3 25 7 10 10 106
11 100 1 -2 -4 5 -9 16 -13 11 -4 18 -10 15 -15 -3 -5 7 -5 22 -1 30 9 56 4
48 -8 -7 -13 24 -47 32 -36 10 12 27 17 72 20 20 1 42 11 50 22 21 25 95 54
118 46 18 -6 73 -60 73 -72 0 -4 10 -8 22 -8 13 -1 27 -8 33 -16 7 -9 23 -12
48 -9 74 9 127 -7 169 -48 42 -43 48 -56 19 -40 -28 15 -33 13 -19 -9 15 -24
45 -33 69 -20 12 6 20 5 25 -2 3 -6 16 -8 27 -5 12 3 29 -2 39 -11 15 -13 23
-14 44 -4 15 6 29 9 32 7 2 -3 15 3 27 12 20 16 72 20 146 13 3 -1 23 -17 45
-36 21 -19 41 -35 45 -35 3 0 5 -16 5 -35 0 -22 -5 -35 -13 -35 -8 0 -13 -12
-13 -29 0 -28 -2 -29 -37 -25 -62 7 -83 14 -124 41 -21 14 -45 23 -53 20 -9
-4 -21 2 -28 12 -30 42 -79 73 -119 75 -25 1 -43 -3 -48 -11 -7 -14 -41 -8
-41 7 0 5 -13 11 -30 15 -16 4 -30 10 -30 15 0 17 -40 21 -55 7 -16 -16 -41
-13 -85 10 -32 17 -45 17 -31 0 11 -14 5 -27 -11 -27 -5 0 -6 5 -3 10 3 6 1
10 -5 10 -7 0 -9 -7 -6 -16 3 -9 6 -23 6 -33 0 -27 24 -53 50 -55 13 0 25 -7
27 -13 5 -14 -14 -15 -104 -7 l-52 5 6 35 c6 36 -11 68 -32 60 -7 -2 -18 1
-24 7 -8 8 -11 8 -11 -1 0 -21 -104 4 -111 27 -5 15 -69 33 -66 19 1 -6 -14
-12 -33 -13 -34 -2 -117 -46 -133 -72 -4 -7 -14 -13 -22 -13 -20 0 -52 -50
-38 -58 7 -5 -1 -20 -21 -42 -34 -36 -56 -48 -56 -30 0 5 -4 10 -8 10 -4 0
-13 -30 -19 -67 -6 -38 -14 -76 -18 -85 -5 -13 -2 -18 9 -18 9 0 16 -8 16 -17
-1 -22 -25 -55 -33 -46 -4 3 -7 1 -7 -6 0 -7 9 -15 20 -18 46 -12 9 -30 -52
-25 -10 1 -18 -3 -18 -8 0 -5 -20 -15 -45 -21 -25 -6 -45 -16 -45 -21 0 -5 -5
-6 -10 -3 -6 4 -13 -7 -16 -24 -4 -17 -10 -31 -15 -31 -4 0 -9 -8 -12 -17 -5
-23 -13 -5 -22 50 -6 37 -6 37 -55 37 -37 0 -50 -4 -50 -14 0 -8 -8 -17 -18
-20 -27 -9 -74 -96 -79 -148 -3 -33 1 -60 16 -93 11 -25 18 -52 15 -60 -4 -8
-1 -15 6 -15 7 0 10 -6 7 -14 -4 -10 2 -16 16 -19 22 -4 22 -4 -1 -6 -14 0
-21 -5 -16 -12 3 -6 2 -14 -3 -18 -5 -3 -13 -21 -16 -38 -5 -28 -2 -35 18 -49
14 -9 25 -20 25 -25 0 -14 -28 -11 -37 4 -9 14 -57 37 -77 37 -11 0 -12 -8 -6
-34 6 -29 5 -33 -10 -29 -20 5 -93 -64 -84 -79 3 -4 0 -8 -6 -8 -7 0 -10 -7
-6 -15 3 -8 0 -15 -6 -15 -7 0 -4 -6 7 -13 12 -10 14 -16 7 -21 -7 -4 -16 -4
-22 -1 -6 3 -7 -1 -4 -9 3 -9 13 -16 21 -16 8 0 13 -7 11 -17 -2 -10 -11 -17
-19 -15 -9 1 -21 -9 -27 -23 -6 -14 -8 -25 -3 -25 5 0 11 6 14 13 2 6 7 9 11
6 3 -3 -3 -18 -15 -33 -19 -24 -27 -27 -55 -21 -26 4 -34 3 -34 -9 0 -9 -9
-20 -20 -26 -17 -9 -18 -14 -8 -30 10 -15 9 -22 -5 -38 -16 -18 -16 -19 8 -32
l26 -14 -43 -20 c-24 -11 -54 -22 -68 -24 -51 -7 -40 -20 24 -27 36 -3 66 -11
66 -17 0 -7 -21 -9 -62 -5 -35 4 -164 11 -288 17 -124 6 -306 15 -405 20 -188
10 -311 13 -304 6 2 -2 74 -7 159 -11 85 -3 195 -10 244 -15 49 -5 92 -8 95
-8 3 1 49 -2 101 -5 52 -4 194 -14 315 -23 121 -8 236 -19 255 -23 l35 -8 -37
-4 c-21 -3 -38 -1 -38 3 0 5 -28 8 -62 7 -53 -2 -65 -6 -82 -26 -16 -21 -24
-24 -52 -18 -28 5 -39 1 -59 -20 -27 -26 -33 -28 -77 -25 -16 1 -28 -4 -28
-10 0 -7 -10 -9 -27 -6 -17 4 -40 0 -57 -9 -15 -8 -36 -15 -46 -15 -10 0 -21
-7 -24 -15 -5 -13 2 -16 37 -15 23 1 53 -1 67 -5 19 -5 48 4 105 31 80 38 125
52 125 37 0 -5 -14 -14 -30 -21 -17 -8 -27 -18 -24 -24 4 -6 3 -8 -3 -5 -11 7
-73 -13 -73 -23 0 -4 15 -5 33 -3 27 3 29 2 14 -7 -10 -6 -32 -12 -50 -12 -18
0 -38 -5 -44 -11 -9 -6 -18 -5 -28 3 -10 9 -15 9 -15 1 0 -6 -4 -11 -10 -11
-5 0 -10 7 -10 15 0 15 -21 19 -87 15 -24 -1 -33 3 -33 14 0 20 -9 20 -47 1
-16 -8 -50 -16 -76 -17 -29 -2 -47 -8 -47 -15 0 -7 -8 -13 -17 -14 -12 0 -13
-2 -5 -6 7 -3 19 1 28 8 11 9 18 9 26 1 15 -15 -41 -24 -119 -19 -38 3 -63 1
-63 -6 0 -5 -12 -7 -29 -4 -17 4 -36 0 -47 -8 -11 -8 -31 -15 -45 -15 -15 0
-32 -7 -40 -16 -13 -16 -34 -15 -117 2 -26 5 -31 3 -27 -9 5 -11 -1 -14 -26
-11 -18 2 -49 -1 -68 -7 -89 -26 -101 -28 -111 -10 -8 13 -10 12 -10 -9 -1
-14 -4 -19 -7 -12 -8 21 -31 13 -37 -13 -4 -16 -11 -23 -18 -19 -9 6 -9 9 0
12 24 8 11 22 -15 16 -22 -4 -25 -3 -13 5 11 8 4 10 -30 9 -29 -1 -35 -2 -17
-5 15 -2 27 -11 27 -19 0 -17 -31 -19 -48 -2 -6 6 -15 8 -19 3 -5 -4 -2 -10 5
-12 6 -3 12 -11 12 -18 0 -11 58 -14 325 -14 184 0 325 4 325 9 0 5 10 12 22
16 13 4 34 14 47 23 13 8 29 16 35 17 6 1 19 5 29 9 11 5 17 3 17 -5 0 -8 7
-5 18 6 17 20 84 56 90 49 8 -8 -12 -28 -42 -41 -26 -11 -28 -13 -8 -14 30 0
28 -16 -3 -24 -14 -4 -25 -10 -25 -15 0 -5 12 -3 28 4 15 8 39 17 55 20 21 6
27 4 27 -10 0 -13 6 -16 25 -13 18 4 23 2 16 -6 -5 -6 -22 -13 -37 -14 -119
-10 140 -12 1364 -12 l1402 0 0 4525 0 4525 -4000 0 -4000 0 0 -2575z m4260
1870 c0 -48 -2 -55 -20 -55 -18 0 -20 6 -19 53 1 28 4 42 6 30 2 -13 9 -23 15
-23 5 0 7 7 4 16 -6 15 0 34 10 34 2 0 4 -25 4 -55z m-600 -39 c0 -2 -7 -9
-15 -16 -12 -10 -15 -10 -15 4 0 9 7 16 15 16 8 0 15 -2 15 -4z m-70 -26 c0
-5 -7 -7 -15 -4 -8 4 -15 8 -15 10 0 2 7 4 15 4 8 0 15 -4 15 -10z m-169 -62
c3 -249 -1 -915 -7 -1089 -7 -231 -4 -263 26 -254 14 5 18 1 17 -15 -1 -21
-12 -26 -22 -10 -15 24 -24 -6 -24 -78 0 -126 0 -129 -16 -129 -15 0 -16 11
-16 147 0 169 4 250 11 250 5 0 5 13 0 29 -6 21 -5 31 3 34 9 3 9 7 1 18 -6 8
-10 39 -8 69 1 30 4 101 6 157 2 57 7 103 12 103 5 0 4 6 -1 13 -6 7 -9 76 -6
172 9 379 8 616 -1 625 -7 7 -4 10 7 10 14 0 17 -10 18 -52z m648 -163 c-1
-132 -5 -215 -11 -215 -6 0 -9 76 -7 203 2 111 0 208 -4 215 -5 8 -2 12 8 12
14 0 15 -24 14 -215z m182 184 c-5 -13 -10 -19 -10 -12 -1 15 10 45 15 40 3
-2 0 -15 -5 -28z m-534 -87 c-19 -21 -22 -37 -5 -26 7 4 8 3 4 -5 -4 -6 -11
-9 -15 -7 -10 6 -76 -62 -179 -187 -45 -53 -82 -93 -82 -89 0 9 41 58 192 230
49 56 92 102 96 102 3 0 -2 -8 -11 -18z m-373 -7 c3 -8 1 -15 -4 -15 -6 0 -10
7 -10 15 0 8 2 15 4 15 2 0 6 -7 10 -15z m427 -4 c8 -10 41 -52 73 -92 82
-102 83 -104 68 -95 -7 4 -38 39 -70 78 -31 38 -68 83 -81 99 -13 16 -19 29
-14 29 6 0 17 -8 24 -19z m479 -15 c0 -6 4 -5 9 3 6 9 8 2 6 -20 -2 -19 -4
-44 -4 -56 -1 -18 -7 -23 -26 -23 -23 0 -25 3 -25 49 0 31 -5 51 -12 54 -7 2
2 4 20 4 17 0 32 -5 32 -11z m-230 -289 c0 -13 -29 12 -42 37 -10 19 -8 18 16
-3 14 -14 26 -29 26 -34z m78 -24 c-2 -10 -9 -17 -14 -16 -6 1 -11 -14 -12
-33 -1 -28 2 -34 18 -34 17 0 19 -3 8 -19 -7 -11 -16 -17 -20 -15 -4 3 -8 -28
-8 -70 0 -50 4 -76 13 -80 8 -3 6 -9 -7 -20 -19 -15 -18 -16 20 -17 21 0 100
-1 174 -2 l135 -2 2 -147 c2 -92 -1 -148 -7 -148 -5 0 -9 -8 -8 -17 1 -10 0
-57 0 -105 -2 -81 -3 -87 -24 -91 -20 -4 -19 -4 5 -6 29 -1 32 -7 18 -30 -7
-10 -38 -14 -127 -15 -89 -1 -118 -4 -117 -13 2 -7 -2 -13 -7 -13 -6 0 -10 7
-10 15 0 10 -10 15 -29 15 l-30 0 6 73 c3 39 11 75 17 79 8 5 8 8 0 8 -22 0
-36 142 -41 424 -6 270 -5 289 11 283 10 -4 15 -3 11 3 -3 6 1 10 10 10 10 0
15 -6 13 -17z m-439 -110 c-74 -92 -102 -122 -68 -73 24 35 38 53 93 117 54
63 37 33 -25 -44z m183 -35 c11 -16 16 -28 11 -28 -9 1 -93 103 -106 129 -10
20 67 -63 95 -101z m163 22 c3 -5 1 -10 -4 -10 -6 0 -11 5 -11 10 0 6 2 10 4
10 3 0 8 -4 11 -10z m-365 -120 c0 -5 -9 -10 -21 -10 -11 0 -17 5 -14 10 3 6
13 10 21 10 8 0 14 -4 14 -10z m632 -16 c27 1 48 -2 48 -6 0 -5 18 -8 40 -8
22 0 40 -4 40 -9 0 -5 -41 -8 -91 -8 -87 2 -92 3 -101 26 -6 19 -6 22 4 14 7
-5 34 -9 60 -9z m-783 -59 c-23 -31 -44 -53 -47 -51 -4 5 76 106 84 106 3 0
-14 -25 -37 -55z m-12 39 c-3 -3 -12 -4 -19 -1 -8 3 -5 6 6 6 11 1 17 -2 13
-5z m723 -4 c0 -5 -4 -10 -10 -10 -5 0 -10 5 -10 10 0 6 5 10 10 10 6 0 10 -4
10 -10z m-840 -70 c0 -11 -2 -20 -4 -20 -2 0 -6 9 -9 20 -3 11 -1 20 4 20 5 0
9 -9 9 -20z m190 -6 c0 -8 -4 -14 -10 -14 -5 0 -10 9 -10 21 0 11 5 17 10 14
6 -3 10 -13 10 -21z m465 -4 c3 -5 1 -10 -4 -10 -6 0 -11 5 -11 10 0 6 2 10 4
10 3 0 8 -4 11 -10z m-650 -38 c-7 -8 -35 7 -35 18 0 6 7 6 20 -2 10 -7 17
-14 15 -16z m-718 12 c-3 -3 -12 -4 -19 -1 -8 3 -5 6 6 6 11 1 17 -2 13 -5z
m66 -1 c-7 -2 -21 -2 -30 0 -10 3 -4 5 12 5 17 0 24 -2 18 -5z m825 -13 c4
-12 2 -13 -9 -4 -8 6 -27 10 -42 9 -15 -1 -30 2 -33 7 -3 5 13 7 37 6 27 -2
44 -9 47 -18z m-88 -34 c0 -3 -4 -8 -10 -11 -5 -3 -10 -1 -10 4 0 6 5 11 10
11 6 0 10 -2 10 -4z m150 -3 c-1 -9 -50 -47 -50 -39 0 5 41 46 47 46 2 0 3 -3
3 -7z m-50 -61 c0 -5 -7 -17 -15 -28 -14 -18 -14 -17 -4 9 12 27 19 34 19 19z
m-65 -131 c-21 -43 -29 -39 -8 4 9 19 18 33 21 31 2 -2 -4 -18 -13 -35z m-425
19 c0 -5 -4 -10 -10 -10 -5 0 -10 5 -10 10 0 6 5 10 10 10 6 0 10 -4 10 -10z
m400 -68 c0 -5 -7 -17 -15 -28 -14 -18 -14 -17 -4 9 12 27 19 34 19 19z m124
-92 c14 0 26 5 26 10 0 6 4 10 9 10 5 0 7 -39 4 -87 -4 -83 -4 -86 14 -72 17
13 17 13 3 -5 -9 -12 -17 -52 -21 -110 l-6 -91 -1 98 c-1 62 -6 96 -12 92 -6
-3 -7 1 -4 9 4 12 0 16 -17 17 l-24 1 25 7 c22 6 25 13 28 59 3 52 3 52 -27
52 -17 0 -31 -2 -31 -5 0 -3 12 -24 26 -48 l25 -42 -30 35 -29 35 -5 -40 c-2
-23 -4 -9 -5 35 -1 64 1 73 12 58 7 -10 25 -18 40 -18z m418 -97 c-5 -121 -8
-126 -13 -20 -2 62 0 97 6 97 7 0 9 -29 7 -77z m-248 51 c9 -24 2 -26 -12 -4
-7 11 -8 20 -3 20 5 0 12 -7 15 -16z m-786 -23 c23 -1 42 -5 42 -11 0 -5 -15
-8 -32 -6 -18 2 -48 4 -65 5 -18 0 -33 5 -33 9 0 5 10 8 23 6 12 -1 41 -3 65
-3z m1089 -13 c-3 -8 -6 -5 -6 6 -1 11 2 17 5 13 3 -3 4 -12 1 -19z m-917 2
c0 -5 -24 -10 -54 -10 -30 0 -58 5 -61 10 -4 6 17 10 54 10 34 0 61 -4 61 -10z
m207 -32 c-3 -8 -6 -5 -6 6 -1 11 2 17 5 13 3 -3 4 -12 1 -19z m437 6 c3 -8 2
-12 -4 -9 -6 3 -10 10 -10 16 0 14 7 11 14 -7z m-778 -7 c4 -4 -23 -7 -59 -7
-37 0 -67 4 -67 8 0 10 117 9 126 -1z m484 -3 c0 -2 -12 -4 -27 -4 -21 0 -24
3 -14 9 13 8 41 5 41 -5z m541 -7 c-10 -9 -11 -8 -5 6 3 10 9 15 12 12 3 -3 0
-11 -7 -18z m-911 5 c0 -4 -17 -6 -37 -4 -59 5 -63 10 -10 11 26 1 47 -3 47
-7z m1123 1 c-7 -2 -21 -2 -30 0 -10 3 -4 5 12 5 17 0 24 -2 18 -5z m-706 -55
c-3 -7 -5 -2 -5 12 0 14 2 19 5 13 2 -7 2 -19 0 -25z m515 -9 c-1 -13 -5 -48
-8 -77 -4 -29 -11 -55 -17 -59 -7 -4 -8 5 -4 25 8 39 0 42 -13 6 -8 -21 -7
-29 6 -39 12 -8 14 -14 5 -19 -6 -4 -9 -12 -5 -17 3 -5 3 -23 -1 -39 -6 -26
-11 -30 -39 -30 -24 0 -36 -6 -45 -22 -9 -20 -10 -16 -6 25 4 30 2 47 -4 47
-6 0 -11 5 -11 10 0 6 13 10 29 10 22 0 30 6 34 23 3 12 17 54 32 92 14 39 27
76 27 83 1 7 6 11 12 9 6 -2 10 -15 8 -28z m-515 -31 c-3 -8 -6 -5 -6 6 -1 11
2 17 5 13 3 -3 4 -12 1 -19z m-187 8 c0 -3 -4 -8 -10 -11 -5 -3 -10 -1 -10 4
0 6 5 11 10 11 6 0 10 -2 10 -4z m0 -46 c0 -5 -4 -10 -10 -10 -5 0 -10 5 -10
10 0 6 5 10 10 10 6 0 10 -4 10 -10z m187 -87 c-3 -10 -5 -2 -5 17 0 19 2 27
5 18 2 -10 2 -26 0 -35z m396 10 c-7 -2 -19 -2 -25 0 -7 3 -2 5 12 5 14 0 19
-2 13 -5z m-153 -34 c0 -8 -66 -15 -98 -11 -12 2 -20 7 -17 12 6 9 115 8 115
-1z m120 -7 c0 -15 -11 -21 -27 -15 -12 5 -12 7 -1 14 17 11 28 11 28 1z
m-492 -112 c-2 -54 0 -71 12 -75 13 -5 13 -7 0 -15 -9 -6 -17 -5 -22 3 -5 8
-8 6 -8 -7 0 -11 5 -16 14 -13 10 4 12 -8 9 -59 -3 -40 -1 -70 6 -78 9 -11 9
-15 0 -18 -7 -2 -11 -23 -11 -51 1 -46 -13 -71 -28 -48 -5 9 -6 351 -1 419 1
6 8 12 17 12 13 0 15 -11 12 -70z m129 48 c-3 -8 -6 -5 -6 6 -1 11 2 17 5 13
3 -3 4 -12 1 -19z m-460 -78 c0 -16 -2 -28 -5 -25 -8 8 -11 55 -3 55 4 0 8
-13 8 -30z m730 -2 c-3 -7 -5 -2 -5 12 0 14 2 19 5 13 2 -7 2 -19 0 -25z m133
16 c0 -2 -7 -4 -15 -4 -8 0 -15 4 -15 10 0 5 7 7 15 4 8 -4 15 -8 15 -10z m63
-19 c-3 -9 -8 -14 -10 -11 -3 3 -2 9 2 15 9 16 15 13 8 -4z m-533 -16 c0 -11
-4 -18 -10 -14 -5 3 -7 12 -3 20 7 21 13 19 13 -6z m221 -36 c13 -16 12 -17
-3 -4 -10 7 -18 15 -18 17 0 8 8 3 21 -13z m-221 -203 c-3 -107 -8 -174 -12
-158 -5 14 -5 40 -2 57 4 19 2 37 -6 46 -7 9 -8 15 -2 15 5 0 10 6 9 13 -2 72
5 239 11 227 4 -8 5 -98 2 -200z m50 40 c4 0 10 6 13 13 2 6 7 9 11 6 3 -3 -3
-17 -14 -32 -17 -21 -20 -40 -20 -116 0 -84 1 -91 20 -91 11 0 20 -7 20 -15 0
-9 -9 -15 -24 -15 -36 0 -39 44 -25 365 3 49 4 44 6 -27 2 -49 8 -88 13 -88z
m593 109 c73 -1 189 -2 260 -2 l127 -1 0 -53 c0 -28 5 -55 11 -59 8 -4 8 -9 0
-17 -6 -6 -11 -19 -11 -28 0 -10 -5 -21 -10 -24 -14 -9 -42 21 -39 42 1 10 -1
26 -5 35 -4 9 -3 26 3 37 17 30 -13 41 -108 41 l-81 0 0 -35 0 -35 -47 0 -48
-1 30 -14 30 -13 -32 -1 c-19 -1 -33 4 -33 11 0 6 -3 8 -6 5 -4 -4 -1 -14 7
-23 13 -16 11 -17 -14 -12 -18 4 -30 0 -36 -9 -7 -13 -12 -13 -30 -3 -13 6
-25 9 -29 6 -3 -3 0 -6 6 -6 7 0 12 -5 12 -11 0 -7 -8 -6 -22 4 -13 8 -22 23
-20 33 2 18 2 18 -9 0 -9 -15 -9 -21 -1 -24 14 -4 16 -32 2 -32 -5 0 -14 8
-20 18 -11 16 -11 16 -6 0 7 -22 -2 -23 -24 -3 -14 13 -17 29 -13 88 5 85 14
131 20 105 4 -16 20 -18 136 -19z m-536 2 c-3 -14 0 -17 14 -14 11 3 19 12 19
19 0 8 9 14 19 14 16 0 19 -8 19 -52 l1 -53 -17 28 c-18 30 -34 31 -38 3 -1
-10 -7 -23 -12 -28 -11 -11 -27 76 -17 92 10 17 18 11 12 -9z m113 -30 c0 -9
5 -22 12 -29 7 -7 8 -12 2 -12 -11 0 -34 42 -34 61 0 6 5 7 10 4 6 -3 10 -14
10 -24z m105 9 c3 -5 1 -10 -4 -10 -6 0 -11 5 -11 10 0 6 2 10 4 10 3 0 8 -4
11 -10z m605 -35 c0 -8 -7 -15 -15 -15 -9 0 -15 -9 -15 -21 0 -24 -23 -21 -28
4 -2 10 3 17 12 17 9 0 16 7 16 15 0 8 7 15 15 15 8 0 15 -7 15 -15z m-520
-61 c0 -28 -27 -62 -39 -48 -14 17 -30 62 -24 68 4 3 19 6 35 6 23 0 28 -4 28
-26z m-1127 9 c-7 -2 -19 -2 -25 0 -7 3 -2 5 12 5 14 0 19 -2 13 -5z m935 -23
c5 -13 3 -13 -13 0 -17 13 -18 13 -13 -1 5 -13 2 -16 -13 -12 -16 4 -17 8 -8
20 15 17 41 13 47 -7z m-85 -27 c-3 -7 -9 -13 -14 -13 -5 0 -9 6 -9 13 0 8 6
14 14 14 8 0 12 -6 9 -14z m-525 -27 c14 -15 -15 -20 -91 -17 -85 3 -97 5 -97
22 0 11 177 5 188 -5z m1232 4 c0 -5 -4 -10 -10 -10 -5 0 -10 5 -10 10 0 6 5
10 10 10 6 0 10 -4 10 -10z m90 0 c0 -5 -4 -10 -10 -10 -5 0 -10 5 -10 10 0 6
5 10 10 10 6 0 10 -4 10 -10z m-780 -10 c0 -5 -2 -10 -4 -10 -3 0 -8 5 -11 10
-3 6 -1 10 4 10 6 0 11 -4 11 -10z m-530 -40 c0 -4 -11 -10 -25 -12 -26 -5
-37 16 -12 25 15 5 37 -2 37 -13z m560 -40 l0 -56 -35 4 c-24 3 -39 11 -46 26
-10 21 -10 21 6 1 16 -19 17 -19 10 13 -6 29 -4 32 17 33 22 1 22 2 -4 12 -39
15 -35 22 12 22 l40 1 0 -56z m-630 20 c0 -5 -9 -10 -20 -10 -11 0 -20 5 -20
10 0 6 9 10 20 10 11 0 20 -4 20 -10z m390 -6 c0 -2 -9 -4 -21 -4 -11 0 -18 4
-14 10 5 8 35 3 35 -6z m-50 -38 c0 -3 -4 -8 -10 -11 -5 -3 -10 -1 -10 4 0 6
5 11 10 11 6 0 10 -2 10 -4z m655 -36 c11 -17 -5 -32 -21 -19 -7 6 -11 15 -8
20 7 12 21 11 29 -1z m-568 -62 c-3 -8 -6 -5 -6 6 -1 11 2 17 5 13 3 -3 4 -12
1 -19z m528 12 c-3 -5 1 -26 10 -46 10 -25 12 -41 5 -49 -6 -7 -11 -71 -12
-144 0 -72 -5 -134 -10 -137 -5 -4 -8 63 -7 162 2 117 -1 169 -9 172 -13 4 5
52 20 52 5 0 7 -4 3 -10z m-99 -42 c1 -37 -8 -49 -21 -28 -4 6 -2 17 5 25 9
11 6 14 -16 17 -41 5 -44 30 -3 26 30 -3 33 -6 35 -40z m34 17 c0 -14 -4 -25
-9 -25 -4 0 -6 11 -3 25 2 14 6 25 8 25 2 0 4 -11 4 -25z m-897 -42 c-7 -2
-19 -2 -25 0 -7 3 -2 5 12 5 14 0 19 -2 13 -5z m779 -18 c-3 -11 -7 -14 -10
-7 -6 19 -18 14 -19 -8 -1 -16 5 -20 30 -21 26 0 28 -2 12 -8 -35 -14 -55 -2
-55 33 0 26 4 31 23 31 19 0 23 -4 19 -20z m375 -42 c-9 -9 -20 -13 -24 -9 -4
4 -1 11 7 16 25 16 35 11 17 -7z m-807 -15 c0 -7 -5 -20 -10 -28 -8 -12 -10
-9 -10 13 0 15 5 27 10 27 6 0 10 -6 10 -12z m376 3 c-4 -5 -1 -11 6 -13 8 -3
6 -7 -5 -11 -12 -5 -17 -1 -17 13 0 11 5 20 11 20 5 0 8 -4 5 -9z m163 -5 c-2
-2 -13 -6 -24 -8 -11 -1 -23 -10 -27 -18 -5 -11 -7 -9 -7 8 -1 18 4 22 31 22
17 0 29 -2 27 -4z m481 -78 c0 -18 -2 -20 -9 -8 -6 8 -7 18 -5 22 9 14 14 9
14 -14z m-500 8 c0 -2 -7 -7 -16 -10 -8 -3 -12 -2 -9 4 6 10 25 14 25 6z
m-872 -43 c-9 -2 -19 -16 -21 -31 -4 -24 -4 -24 -6 6 -1 27 2 32 22 31 15 -1
17 -3 5 -6z m1197 -13 c-3 -5 1 -10 9 -10 9 0 16 -4 16 -9 0 -5 -10 -7 -22 -4
-22 4 -23 4 -4 -11 21 -17 11 -22 -13 -7 -10 7 -11 13 -2 30 7 11 14 21 17 21
3 0 2 -4 -1 -10z m-35 -20 c0 -5 -2 -10 -4 -10 -3 0 -8 5 -11 10 -3 6 -1 10 4
10 6 0 11 -4 11 -10z m210 -45 c0 -8 -4 -15 -10 -15 -5 0 -10 7 -10 15 0 8 5
15 10 15 6 0 10 -7 10 -15z m-1603 -11 c-3 -3 -12 -4 -19 -1 -8 3 -5 6 6 6 11
1 17 -2 13 -5z m156 -229 c4 -8 2 -17 -3 -20 -6 -4 -10 -1 -10 4 0 6 -4 11 -9
11 -6 0 -7 -15 -4 -34 3 -22 1 -36 -8 -41 -8 -6 -11 -4 -7 6 3 8 2 23 -2 34
-9 24 5 55 24 55 8 0 16 -7 19 -15z m1094 -27 c-3 -8 -6 -5 -6 6 -1 11 2 17 5
13 3 -3 4 -12 1 -19z m-1767 -48 c0 -5 -5 -10 -11 -10 -5 0 -7 5 -4 10 3 6 8
10 11 10 2 0 4 -4 4 -10z m35 -220 c3 -5 1 -10 -4 -10 -6 0 -11 5 -11 10 0 6
2 10 4 10 3 0 8 -4 11 -10z m3157 -37 c7 -28 13 -33 38 -33 23 0 30 -4 30 -20
0 -18 7 -20 85 -20 72 0 85 -3 85 -16 0 -13 -3 -14 -14 -5 -11 10 -16 8 -21
-8 -6 -20 -22 -26 -54 -22 -7 2 -10 -2 -7 -7 9 -15 -55 -19 -229 -15 -127 3
-162 7 -171 19 -9 12 -13 12 -16 2 -3 -8 -9 -5 -17 11 -20 36 1 46 102 50 17
1 27 7 27 16 0 8 8 15 17 15 23 0 53 29 53 51 0 16 7 18 42 16 38 -2 43 -5 50
-34z m-2792 -63 c0 -5 -4 -10 -10 -10 -5 0 -10 5 -10 10 0 6 5 10 10 10 6 0
10 -4 10 -10z m285 -40 c3 -5 1 -10 -4 -10 -6 0 -11 5 -11 10 0 6 2 10 4 10 3
0 8 -4 11 -10z m12 -132 c-3 -8 -6 -5 -6 6 -1 11 2 17 5 13 3 -3 4 -12 1 -19z
m0 -50 c-3 -8 -6 -5 -6 6 -1 11 2 17 5 13 3 -3 4 -12 1 -19z m3 -28 c0 -5 -5
-10 -11 -10 -5 0 -7 5 -4 10 3 6 8 10 11 10 2 0 4 -4 4 -10z m-3 -62 c-3 -8
-6 -5 -6 6 -1 11 2 17 5 13 3 -3 4 -12 1 -19z m-120 -190 c-3 -8 -6 -5 -6 6
-1 11 2 17 5 13 3 -3 4 -12 1 -19z m-880 -90 c-3 -8 -6 -5 -6 6 -1 11 2 17 5
13 3 -3 4 -12 1 -19z m443 -117 c-6 -12 -15 -21 -21 -21 -5 0 -2 11 8 24 21
28 29 27 13 -3z m517 -83 c-2 -18 -4 -4 -4 32 0 36 2 50 4 33 2 -18 2 -48 0
-65z m-565 20 c-7 -7 -12 -8 -12 -2 0 14 12 26 19 19 2 -3 -1 -11 -7 -17z
m304 -66 c1 -49 0 -58 -5 -32 -4 20 -10 40 -13 45 -5 9 7 55 14 55 2 0 4 -30
4 -68z m-370 -10 c-17 -16 -18 -16 -5 5 7 12 15 20 18 17 3 -2 -3 -12 -13 -22z
m484 -2 c0 -5 -5 -10 -11 -10 -5 0 -7 5 -4 10 3 6 8 10 11 10 2 0 4 -4 4 -10z
m167 -114 c5 -50 6 -106 3 -125 -7 -36 -7 -36 -17 -11 -15 38 -23 100 -12 100
5 0 7 31 5 71 -6 99 10 73 21 -35z m-275 22 c5 -103 5 -151 -3 -133 -6 17 -8
17 -8 3 -1 -10 -6 -18 -12 -18 -7 0 -9 9 -5 23 15 49 19 137 7 137 -7 0 -9 5
-6 10 12 20 25 9 27 -22z m93 -12 c8 -7 11 -16 8 -20 -4 -3 -1 -6 5 -6 7 0 12
-4 12 -10 0 -19 -16 -10 -33 20 -19 32 -15 39 8 16z m-565 -26 c0 -5 -5 -10
-11 -10 -5 0 -7 5 -4 10 3 6 8 10 11 10 2 0 4 -4 4 -10z m675 0 c3 -5 1 -10
-4 -10 -6 0 -11 5 -11 10 0 6 2 10 4 10 3 0 8 -4 11 -10z m2055 -36 c0 -14 -4
-23 -9 -20 -5 3 -7 15 -4 26 7 28 13 25 13 -6z m-90 6 c0 -5 -4 -10 -10 -10
-5 0 -10 5 -10 10 0 6 5 10 10 10 6 0 10 -4 10 -10z m-2689 -28 c-6 -11 -18
-23 -27 -26 -17 -7 -14 0 21 40 15 17 18 9 6 -14z m629 -46 c0 -2 -7 -9 -15
-16 -12 -10 -15 -10 -15 4 0 9 7 16 15 16 8 0 15 -2 15 -4z m-687 -21 c-3 -9
-8 -14 -10 -11 -3 3 -2 9 2 15 9 16 15 13 8 -4z m622 -105 c0 -22 -21 -22 -22
1 -1 12 3 19 10 16 7 -2 12 -10 12 -17z m-165 -10 c0 -5 -5 -10 -11 -10 -5 0
-7 5 -4 10 3 6 8 10 11 10 2 0 4 -4 4 -10z m-196 -45 c-4 -8 -8 -15 -10 -15
-2 0 -4 7 -4 15 0 8 4 15 10 15 5 0 7 -7 4 -15z m196 -2 c0 9 5 17 10 17 6 0
10 -8 10 -18 0 -10 4 -22 9 -27 13 -15 20 -486 7 -482 -6 1 -36 52 -66 112
-40 79 -51 110 -41 113 10 3 10 6 2 12 -9 5 -9 15 -1 36 l10 29 -19 -24 -19
-25 -26 53 c-36 71 -49 104 -36 96 6 -3 10 1 10 9 0 9 5 16 12 16 6 0 4 8 -6
19 -19 21 -14 41 10 41 8 0 13 -4 9 -9 -3 -5 -1 -12 4 -15 14 -9 42 5 34 17
-4 6 -1 7 7 2 21 -13 70 -14 63 -1 -4 6 -8 19 -8 30 -2 18 -1 18 12 1 12 -17
13 -17 13 -2z m-170 -27 c0 -2 -9 -6 -20 -9 -11 -3 -20 -1 -20 4 0 5 9 9 20 9
11 0 20 -2 20 -4z m-383 -93 c-2 -16 -4 -5 -4 22 0 28 2 40 4 28 2 -13 2 -35
0 -50z m399 56 c7 -12 -15 -31 -28 -23 -9 6 1 34 12 34 5 0 12 -5 16 -11z
m-21 -84 c21 -38 69 -131 108 -205 38 -74 74 -139 78 -144 11 -12 11 -57 1
-73 -5 -8 -23 -11 -47 -8 -22 2 -110 5 -195 6 -85 2 -188 5 -228 7 -72 4 -73
4 -70 30 2 22 8 27 33 27 17 0 29 6 28 12 -1 6 2 24 6 41 8 25 7 30 -5 25 -9
-3 -13 -12 -10 -20 6 -15 -14 -53 -28 -53 -5 0 -2 8 7 18 26 28 20 38 -7 13
-20 -19 -24 -20 -30 -6 -3 10 -2 14 5 10 6 -4 9 -1 7 8 -3 16 73 157 85 157 5
0 6 -4 3 -9 -8 -12 3 -41 15 -41 5 0 9 3 9 8 0 4 25 34 55 66 57 60 67 79 38
70 -14 -5 -15 -4 -4 4 8 6 11 17 8 27 -4 9 -3 14 3 10 6 -3 10 -13 10 -21 0
-8 4 -14 8 -14 12 0 47 40 36 40 -5 0 0 7 11 16 15 11 17 17 8 22 -10 6 -9 13
4 29 10 12 18 21 19 20 1 -1 19 -33 39 -72z m-95 -15 c0 -5 -4 -10 -10 -10 -5
0 -10 5 -10 10 0 6 5 10 10 10 6 0 10 -4 10 -10z m-2080 -35 c-7 -9 -15 -13
-19 -10 -3 3 1 10 9 15 21 14 24 12 10 -5z m1787 -22 c-3 -10 -5 -4 -5 12 0
17 2 24 5 18 2 -7 2 -21 0 -30z m199 28 c-4 -5 0 -11 6 -14 7 -2 9 -8 5 -13
-4 -5 -12 -2 -17 6 -8 13 -10 13 -10 1 0 -8 -3 -11 -6 -8 -4 4 -1 13 6 22 14
16 25 21 16 6z m-26 -51 c0 -5 -5 -10 -11 -10 -5 0 -7 5 -4 10 3 6 8 10 11 10
2 0 4 -4 4 -10z m14 -32 c-3 -5 -9 -6 -14 -3 -5 3 -10 -3 -12 -12 -3 -16 -5
-15 -9 3 -5 16 -1 20 17 20 12 0 20 -4 18 -8z m-189 -65 c-4 -38 -8 -79 -11
-91 -3 -16 -1 -21 7 -16 7 4 10 2 7 -6 -2 -8 -9 -15 -15 -17 -11 -4 -9 117 3
175 9 46 14 20 9 -45z m65 -14 c0 -15 -18 -19 -23 -6 -3 8 1 14 9 14 8 0 14
-4 14 -8z m-986 -21 c-3 -4 -9 -8 -15 -8 -5 0 -9 4 -9 8 0 5 7 9 15 9 8 0 12
-4 9 -9z m-13 -31 c-1 -12 -15 -9 -19 4 -3 6 1 10 8 8 6 -3 11 -8 11 -12z
m-35 -63 c8 3 14 1 14 -4 0 -6 -9 -10 -20 -10 -14 0 -20 6 -19 23 1 18 2 18 6
4 3 -11 11 -16 19 -13z m4981 4 c-3 -8 -6 -5 -6 6 -1 11 2 17 5 13 3 -3 4 -12
1 -19z m-4087 -128 c0 -5 -5 -10 -11 -10 -5 0 -7 5 -4 10 3 6 8 10 11 10 2 0
4 -4 4 -10z m251 0 l79 0 -6 -27 c-4 -16 -26 -57 -49 -93 -23 -36 -53 -84 -66
-108 -14 -25 -28 -41 -36 -38 -8 4 -13 -3 -13 -16 0 -11 -19 -51 -43 -87 -24
-36 -52 -80 -62 -98 -19 -32 -43 -49 -53 -38 -3 3 0 54 7 113 13 107 16 161
19 280 2 48 5 62 17 62 8 0 15 -6 15 -14 0 -8 3 -17 8 -19 4 -3 7 14 7 36 0
47 17 59 69 51 16 -2 64 -4 107 -4z m3936 -62 c-3 -8 -6 -5 -6 6 -1 11 2 17 5
13 3 -3 4 -12 1 -19z m240 -250 c-3 -8 -6 -5 -6 6 -1 11 2 17 5 13 3 -3 4 -12
1 -19z m-4067 -318 c0 -5 -2 -10 -4 -10 -3 0 -8 5 -11 10 -3 6 -1 10 4 10 6 0
11 -4 11 -10z m4297 -176 c-3 -3 -12 -4 -19 -1 -8 3 -5 6 6 6 11 1 17 -2 13
-5z m-50 -40 c-3 -3 -12 -4 -19 -1 -8 3 -5 6 6 6 11 1 17 -2 13 -5z m23 -118
c0 -2 -7 -7 -16 -10 -8 -3 -12 -2 -9 4 6 10 25 14 25 6z m-4710 -151 c0 -12
-24 -25 -57 -31 -8 -1 -13 9 -13 25 0 25 3 27 35 23 20 -2 35 -10 35 -17z
m-111 -11 c30 -6 31 -8 27 -51 -3 -25 -7 -47 -9 -49 -5 -5 -157 93 -157 101 0
7 102 6 139 -1z m95 -40 c4 -9 4 -19 1 -22 -3 -3 -5 0 -5 6 0 7 -5 12 -11 12
-5 0 -8 -4 -5 -9 3 -5 -3 -11 -14 -14 -25 -6 -25 -2 -2 22 22 24 28 25 36 5z
m5076 -34 c0 -5 -7 -10 -16 -10 -8 0 -12 5 -9 10 3 6 10 10 16 10 5 0 9 -4 9
-10z m-5070 -40 c0 -5 -9 -10 -19 -10 -11 0 -23 5 -26 10 -4 6 5 10 19 10 14
0 26 -4 26 -10z m6100 -41 c0 -5 -4 -9 -10 -9 -5 0 -10 7 -10 16 0 8 5 12 10
9 6 -3 10 -10 10 -16z m-35 -109 c3 -5 1 -10 -4 -10 -6 0 -11 5 -11 10 0 6 2
10 4 10 3 0 8 -4 11 -10z m-5896 -467 c9 -15 10 -16 11 -2 0 13 11 15 58 13
31 -1 70 -2 86 -3 25 -1 28 -4 21 -28 -6 -25 -92 -143 -104 -143 -3 0 -11 -10
-16 -22 -6 -13 -14 -23 -20 -22 -5 1 -15 -12 -22 -27 -10 -25 -15 -27 -35 -20
-13 5 -23 15 -22 23 1 8 -5 15 -12 15 -10 0 -10 -6 2 -28 8 -15 14 -30 14 -34
0 -3 -25 -5 -56 -5 -46 0 -55 3 -50 15 3 8 1 15 -4 15 -6 0 -10 -5 -10 -11 0
-6 -10 -9 -22 -7 -25 3 -25 3 -16 160 4 64 16 97 25 72 2 -6 11 -20 19 -30 13
-17 14 -16 1 11 -27 56 -7 75 80 75 49 0 64 -4 72 -17z m4098 -30 c-3 -10 -5
-4 -5 12 0 17 2 24 5 18 2 -7 2 -21 0 -30z m-4499 -71 c2 -7 -3 -12 -12 -12
-9 0 -16 7 -16 16 0 17 22 14 28 -4z m-81 -68 c18 -18 16 -24 -7 -24 -13 0
-18 -5 -14 -15 4 -8 4 -15 0 -15 -7 0 -36 56 -36 70 0 14 38 3 57 -16z m63 10
c0 -8 -4 -12 -10 -9 -5 3 -10 10 -10 16 0 5 5 9 10 9 6 0 10 -7 10 -16z m4660
-3 c0 -12 -20 -25 -27 -18 -7 7 6 27 18 27 5 0 9 -4 9 -9z m-4657 -54 c12 12
7 -27 -7 -62 -22 -51 -33 -43 -35 27 -2 60 -1 61 17 45 10 -9 22 -14 25 -10z
m-56 -44 c-3 -10 -5 -2 -5 17 0 19 2 27 5 18 2 -10 2 -26 0 -35z m117 -38 c4
-11 -2 -15 -27 -15 l-32 0 25 14 c14 8 26 14 26 15 1 1 4 -6 8 -14z m66 -11
c0 -25 -6 -25 -38 0 -11 8 -10 11 5 17 29 12 33 10 33 -17z m-1541 0 c2 -2
-10 -4 -27 -4 -17 0 -34 4 -37 10 -5 9 53 3 64 -6z m1737 6 c49 0 55 -11 24
-44 -11 -11 -31 -34 -45 -51 l-25 -30 -2 55 c-1 38 -2 44 -5 20 -6 -53 -12
-65 -25 -52 -8 8 -17 8 -30 1 -10 -5 -18 -6 -18 -1 0 15 28 34 40 27 5 -3 10
1 10 10 0 10 -7 15 -17 13 -13 -2 -19 5 -21 24 -3 21 2 27 20 31 13 2 29 3 36
1 8 -2 34 -4 58 -4z m-1766 -30 c0 -5 -2 -10 -4 -10 -3 0 -8 5 -11 10 -3 6 -1
10 4 10 6 0 11 -4 11 -10z m1440 -37 c0 -22 -2 -25 -10 -13 -13 20 -13 40 0
40 6 0 10 -12 10 -27z m-1430 7 c0 -5 -4 -10 -10 -10 -5 0 -10 5 -10 10 0 6 5
10 10 10 6 0 10 -4 10 -10z m1477 -22 c-3 -8 -6 -5 -6 6 -1 11 2 17 5 13 3 -3
4 -12 1 -19z m-1532 -6 c-3 -3 -11 0 -18 7 -9 10 -8 11 6 5 10 -3 15 -9 12
-12z m1460 8 c3 -5 1 -10 -4 -10 -6 0 -11 5 -11 10 0 6 2 10 4 10 3 0 8 -4 11
-10z m-465 -30 c0 -11 -2 -20 -4 -20 -2 0 -6 9 -9 20 -3 11 -1 20 4 20 5 0 9
-9 9 -20z m-1010 0 c0 -5 -4 -10 -10 -10 -5 0 -10 5 -10 10 0 6 5 10 10 10 6
0 10 -4 10 -10z m981 0 c5 0 9 -5 9 -11 0 -15 -43 -7 -48 10 -3 10 0 12 12 8
10 -4 22 -7 27 -7z m4969 -23 c0 -27 41 -49 77 -42 36 6 62 -9 75 -45 5 -14
-19 -69 -35 -81 -4 -3 -3 -17 4 -32 7 -15 8 -34 4 -44 -5 -10 -7 -21 -7 -25 1
-5 -2 -8 -8 -8 -6 0 -10 7 -10 16 0 14 -3 14 -15 4 -8 -7 -15 -21 -15 -31 0
-11 -6 -19 -12 -19 -7 0 -25 -7 -40 -14 -21 -11 -28 -12 -29 -3 0 7 -5 2 -11
-10 -6 -13 -17 -23 -25 -23 -7 0 -22 -5 -33 -12 -10 -7 -23 -9 -27 -5 -4 5 -2
12 6 16 26 16 1 51 -32 44 -13 -3 -17 -1 -11 4 6 4 15 22 18 40 5 22 14 33 33
38 22 5 24 10 20 35 -5 23 -1 31 19 45 26 17 28 42 2 37 -26 -4 -9 48 19 61
20 9 24 17 21 43 -2 18 0 30 4 28 4 -3 8 -11 8 -17z m-5843 -22 c-15 -16 -22
-11 -13 10 3 9 10 13 16 10 6 -4 5 -11 -3 -20z m113 9 c0 -17 -22 -14 -28 4
-2 7 3 12 12 12 9 0 16 -7 16 -16z m40 -10 c0 -14 -4 -23 -9 -20 -5 3 -7 15
-4 26 7 28 13 25 13 -6z m713 -17 c21 5 21 5 5 -12 -20 -21 -38 -12 -37 18 1
15 3 17 6 6 3 -12 11 -15 26 -12z m680 -2 c1 -6 -57 -11 -155 -13 -99 -1 -158
1 -158 7 0 18 308 24 313 6z m-443 -20 c10 -12 10 -18 0 -30 -14 -17 -20 -18
-39 -6 -16 10 -6 51 13 51 8 0 19 -7 26 -15z m-210 1 c0 -3 -4 -8 -10 -11 -5
-3 -10 -1 -10 4 0 6 5 11 10 11 6 0 10 -2 10 -4z m-47 -257 c-4 -51 -1 -70 11
-82 21 -20 20 -24 -4 -30 -19 -5 -20 0 -21 96 0 56 -1 118 -1 137 -1 19 0 55
2 80 2 32 5 19 10 -45 4 -49 5 -120 3 -156z m813 174 c-10 -10 -19 5 -10 18 6
11 8 11 12 0 2 -7 1 -15 -2 -18z m-771 -13 c3 -5 1 -10 -4 -10 -6 0 -11 5 -11
10 0 6 2 10 4 10 3 0 8 -4 11 -10z m108 -9 c31 -12 82 -122 72 -158 -5 -23 -9
-25 -43 -19 -20 3 -46 6 -57 6 -18 0 -20 8 -23 90 -3 97 -1 101 51 81z m227
-7 c0 -12 -6 -15 -22 -10 -13 3 -48 6 -78 7 -74 1 -37 17 43 18 46 1 57 -2 57
-15z m470 -24 c0 -5 -2 -10 -4 -10 -3 0 -8 5 -11 10 -3 6 -1 10 4 10 6 0 11
-4 11 -10z m119 -32 c-1 -37 -2 -39 -9 -18 -12 36 -12 60 0 60 6 0 10 -19 9
-42z m55 5 c-8 -47 -14 -55 -14 -20 0 14 -3 32 -6 41 -4 11 -1 16 10 16 14 0
16 -7 10 -37z m34 -21 c-3 -49 -10 -66 -39 -101 -32 -40 -36 -41 -79 -36 -25
2 -80 7 -122 11 l-78 6 0 34 c0 38 -7 36 124 34 55 -1 82 3 88 12 8 10 11 10
15 1 6 -17 41 -16 59 1 8 8 14 33 14 55 0 24 5 41 11 41 8 0 10 -19 7 -58z
m56 50 c3 -5 -6 -21 -19 -38 -23 -27 -24 -27 -25 -7 0 12 3 28 6 37 6 17 29
22 38 8z m223 -6 c7 -7 -75 -85 -90 -86 -9 0 -47 81 -42 90 5 8 123 5 132 -4z
m242 -15 c-1 -9 0 -18 1 -21 9 -23 8 -169 -2 -187 -12 -25 -30 -31 -25 -10 1
9 -20 12 -80 12 -67 0 -83 3 -83 15 0 12 -2 13 -9 1 -15 -23 -56 -4 -85 39
-25 38 -35 80 -18 80 4 0 21 12 37 28 39 35 70 42 62 13 -3 -12 -1 -24 4 -27
5 -3 9 -2 8 3 -7 38 2 53 31 53 32 0 80 -19 80 -31 0 -4 9 -10 19 -14 11 -3
18 -12 15 -18 -2 -7 4 -13 15 -14 14 -1 17 3 14 18 -3 10 -10 19 -15 19 -6 0
-23 10 -40 21 -36 26 -24 38 34 37 30 0 38 -4 37 -17z m-1489 -1 c0 -5 -2 -10
-4 -10 -3 0 -8 5 -11 10 -3 6 -1 10 4 10 6 0 11 -4 11 -10z m1114 -47 c30 -26
34 -45 9 -37 -14 4 -15 3 -5 -4 11 -7 5 -17 -25 -46 -21 -20 -46 -39 -55 -42
-10 -3 -18 -10 -18 -15 0 -12 -47 -12 -55 0 -3 5 7 12 22 14 18 2 10 5 -19 6
-27 0 -48 5 -48 10 0 5 17 27 38 49 33 34 42 39 75 37 32 -3 36 -1 26 11 -7 9
-20 12 -33 9 -19 -6 -19 -5 3 13 30 24 53 23 85 -5z m-1230 -40 c3 -7 0 -15
-5 -19 -10 -6 -157 0 -334 13 -176 12 -227 3 -218 -39 4 -21 3 -21 -7 -5 -33
52 15 62 310 62 187 0 251 -3 254 -12z m1301 -46 c42 -69 44 -67 -55 -67 -53
0 -90 4 -90 10 0 6 5 10 10 10 6 0 30 18 52 40 23 22 47 40 53 40 5 0 19 -15
30 -33z m-1890 13 c-3 -5 -11 -10 -16 -10 -6 0 -7 5 -4 10 3 6 11 10 16 10 6
0 7 -4 4 -10z m166 -10 c18 0 9 -39 -10 -45 -11 -3 -22 -14 -24 -23 -3 -9 -5
5 -6 32 -1 40 2 47 15 42 9 -3 20 -6 25 -6z m2119 -37 l22 -28 -22 -3 c-24 -4
-40 12 -40 41 0 25 15 21 40 -10z m3200 2 c0 -16 -25 -26 -45 -19 -12 5 -10
10 8 24 23 19 37 18 37 -5z m-5525 -45 c3 -5 1 -10 -4 -10 -6 0 -11 5 -11 10
0 6 2 10 4 10 3 0 8 -4 11 -10z m45 -4 c0 -2 -7 -7 -16 -10 -8 -3 -12 -2 -9 4
6 10 25 14 25 6z m241 -16 c-24 -11 -47 -20 -53 -20 -5 0 -33 -11 -61 -24 -73
-33 -90 -37 -107 -26 -13 9 -13 11 0 20 8 5 22 10 30 10 13 0 13 -1 0 -10 -13
-9 -13 -10 0 -10 39 0 39 17 0 30 -28 9 -37 16 -28 22 18 11 30 10 23 -2 -9
-14 41 -13 68 2 28 15 80 25 132 27 l40 1 -44 -20z m287 8 c-2 -6 -12 -12 -22
-14 -10 -1 -40 -8 -65 -14 -26 -6 -52 -10 -57 -8 -5 1 -19 -3 -32 -11 -13 -7
-31 -11 -40 -9 -9 2 21 18 68 35 88 33 155 42 148 21z m160 0 c-21 -6 -38 -14
-38 -19 0 -11 3 -11 34 1 35 13 33 -1 -2 -18 -49 -24 -52 -24 -52 -7 0 37 20
55 58 54 l37 -1 -37 -10z m66 -3 c3 -9 0 -15 -9 -15 -8 0 -15 7 -15 15 0 8 4
15 9 15 5 0 11 -7 15 -15z m1371 5 c3 -5 1 -10 -4 -10 -6 0 -11 5 -11 10 0 6
2 10 4 10 3 0 8 -4 11 -10z m145 -10 c-8 -5 -17 -7 -19 -4 -3 3 1 9 9 14 8 5
17 7 19 4 3 -3 -1 -9 -9 -14z m-910 -10 c0 -5 -2 -10 -4 -10 -3 0 -8 5 -11 10
-3 6 -1 10 4 10 6 0 11 -4 11 -10z m135 -1 c3 -4 -19 -7 -50 -8 -30 0 -55 3
-55 7 0 10 95 10 105 1z m-680 -9 c-3 -5 -12 -10 -18 -10 -7 0 -6 4 3 10 19
12 23 12 15 0z m-815 -4 c0 -2 -30 -16 -67 -31 -38 -14 -73 -33 -79 -41 -10
-13 -12 -13 -17 0 -3 8 2 17 11 20 9 3 44 16 77 30 61 25 75 29 75 22z m510
-6 c0 -5 -8 -10 -17 -10 -15 0 -16 2 -3 10 19 12 20 12 20 0z m1800 5 c0 -2
-9 -9 -20 -15 -12 -6 -20 -7 -20 -1 0 5 8 12 18 14 9 3 18 5 20 6 1 0 2 -1 2
-4z m-1717 -42 c-30 -16 -53 -17 -53 -3 0 17 63 41 72 27 3 -6 -5 -16 -19 -24z
m682 -28 c-5 -40 -11 -55 -22 -55 -9 0 -13 6 -9 15 3 9 -1 18 -9 22 -12 4 -13
9 -4 19 6 8 15 12 19 9 5 -3 12 0 16 6 4 8 3 9 -4 5 -8 -5 -12 0 -12 13 0 17
19 34 29 25 2 -2 0 -28 -4 -59z m222 52 c2 -2 -22 -31 -53 -63 -38 -40 -54
-52 -49 -36 4 13 2 22 -4 22 -6 0 -11 -6 -11 -14 0 -8 -7 -16 -15 -20 -8 -3
-15 -1 -15 5 0 6 -7 9 -15 5 -12 -4 -15 3 -15 37 0 46 7 61 30 69 17 6 140 2
147 -5z m113 3 c0 -11 -87 -70 -94 -63 -3 3 -6 2 -6 -4 0 -6 -9 -13 -20 -16
-22 -6 -20 0 16 50 22 30 45 40 87 39 9 0 17 -3 17 -6z m811 -17 c30 -24 181
-154 197 -171 11 -10 11 -16 2 -27 -9 -11 -9 -15 -1 -15 6 0 11 4 11 10 0 16
27 0 37 -23 14 -30 6 -52 -13 -36 -8 6 -12 15 -9 19 3 5 1 11 -4 15 -6 3 -15
-4 -21 -15 -9 -17 -8 -20 10 -20 13 0 20 -5 18 -12 -3 -9 -39 -15 -109 -20
-57 -3 -144 -9 -194 -13 -65 -4 -87 -3 -79 5 6 6 75 15 152 20 141 8 162 12
162 32 0 7 -4 7 -12 1 -7 -6 -25 -13 -40 -17 -23 -5 -27 -4 -21 11 5 15 3 16
-8 5 -7 -6 -28 -12 -46 -12 -29 0 -33 3 -33 26 0 16 -5 24 -12 21 -7 -2 -12
-13 -10 -25 6 -40 -40 -41 -88 -1 l-25 21 25 -6 c24 -5 25 -4 22 44 -2 28 -8
50 -12 50 -4 0 -6 -18 -4 -40 2 -25 0 -39 -6 -35 -16 10 -12 75 5 81 9 4 15
17 14 33 -1 14 6 45 16 69 19 47 40 54 76 25z m-781 -13 c-6 -11 -16 -20 -23
-20 -8 0 -26 -13 -42 -30 -16 -16 -34 -30 -41 -30 -7 0 -15 -6 -17 -12 -4 -10
-6 -10 -6 0 -1 7 6 15 14 18 8 4 36 26 62 50 52 47 70 56 53 24z m-1110 0 c0
-10 -41 -30 -58 -30 -10 1 39 40 49 40 5 0 9 -5 9 -10z m1783 -35 c-35 -104
-60 -115 -62 -26 -1 63 5 69 55 68 19 -1 20 -3 7 -42z m-1943 15 c0 -5 -5 -10
-11 -10 -5 0 -7 5 -4 10 3 6 8 10 11 10 2 0 4 -4 4 -10z m-387 -7 c-7 -2 -19
-2 -25 0 -7 3 -2 5 12 5 14 0 19 -2 13 -5z m2217 -30 c0 -8 -13 -13 -31 -13
-27 0 -30 2 -19 15 7 8 16 12 21 9 5 -3 9 3 9 13 0 15 2 16 10 3 5 -8 10 -21
10 -27z m-2466 2 c3 -8 1 -15 -4 -15 -6 0 -10 7 -10 15 0 8 2 15 4 15 2 0 6
-7 10 -15z m476 -1 c0 -2 -7 -4 -15 -4 -8 0 -15 4 -15 10 0 5 7 7 15 4 8 -4
15 -8 15 -10z m5120 6 c0 -5 -5 -10 -11 -10 -5 0 -7 5 -4 10 3 6 8 10 11 10 2
0 4 -4 4 -10z m-5090 -4 c0 -3 -4 -8 -10 -11 -5 -3 -10 -1 -10 4 0 6 5 11 10
11 6 0 10 -2 10 -4z m60 0 c0 -2 -9 -6 -20 -9 -11 -3 -20 -1 -20 4 0 5 9 9 20
9 11 0 20 -2 20 -4z m4925 -16 c3 -5 -1 -10 -9 -10 -9 0 -16 5 -16 10 0 6 4
10 9 10 6 0 13 -4 16 -10z m57 -12 c-7 -7 -12 -8 -12 -2 0 14 12 26 19 19 2
-3 -1 -11 -7 -17z m-3802 2 c-8 -5 -19 -10 -25 -10 -5 0 -3 5 5 10 8 5 20 10
25 10 6 0 3 -5 -5 -10z m-1843 -16 c-3 -3 -12 -4 -19 -1 -8 3 -5 6 6 6 11 1
17 -2 13 -5z m180 0 c-3 -3 -12 -4 -19 -1 -8 3 -5 6 6 6 11 1 17 -2 13 -5z
m2127 -10 c3 -8 2 -12 -4 -9 -6 3 -10 10 -10 16 0 14 7 11 14 -7z m245 -25
c-6 -4 -8 -12 -5 -18 4 -6 2 -11 -3 -11 -6 0 -11 5 -11 10 0 6 -5 10 -11 10
-7 0 -9 -11 -6 -26 l5 -26 -24 28 c-13 16 -23 31 -24 34 0 4 17 4 38 2 25 -2
33 0 23 6 -8 6 -10 15 -6 22 6 10 11 9 22 -5 9 -14 10 -21 2 -26z m-2049 11
c0 -5 -7 -10 -15 -10 -8 0 -15 5 -15 10 0 6 7 10 15 10 8 0 15 -4 15 -10z
m-433 -22 c-3 -8 -6 -5 -6 6 -1 11 2 17 5 13 3 -3 4 -12 1 -19z m198 13 c90
-2 55 -24 -39 -25 -55 -1 -72 -4 -65 -13 11 -13 -8 -23 -29 -15 -11 4 -11 6 0
13 9 6 7 9 -9 9 -23 0 -38 14 -29 29 3 5 29 7 58 6 29 -1 80 -3 113 -4z m5135
-1 c0 -5 -7 -10 -16 -10 -8 0 -12 5 -9 10 3 6 10 10 16 10 5 0 9 -4 9 -10z
m-4981 -14 c-11 -9 -69 -14 -69 -6 0 6 17 10 37 10 20 0 34 -2 32 -4z m5028
-2 c-3 -3 -12 -4 -19 -1 -8 3 -5 6 6 6 11 1 17 -2 13 -5z m-4882 -14 c-11 -5
-27 -9 -35 -9 -9 0 -8 4 5 9 11 5 27 9 35 9 9 0 8 -4 -5 -9z m-455 -14 c0 -3
-4 -8 -10 -11 -5 -3 -10 -1 -10 4 0 6 5 11 10 11 6 0 10 -2 10 -4z m-80 -26
c0 -5 -4 -10 -10 -10 -5 0 -10 5 -10 10 0 6 5 10 10 10 6 0 10 -4 10 -10z
m5634 -4 c-21 -15 -30 -14 -19 3 3 6 14 11 23 11 13 0 13 -2 -4 -14z m-5544
-6 c0 -5 -4 -10 -10 -10 -5 0 -10 5 -10 10 0 6 5 10 10 10 6 0 10 -4 10 -10z
m5434 -11 c-3 -5 -10 -7 -15 -3 -5 3 -7 10 -3 15 3 5 10 7 15 3 5 -3 7 -10 3
-15z m-5397 5 c-3 -3 -12 -4 -19 -1 -8 3 -5 6 6 6 11 1 17 -2 13 -5z m2298 -4
c-8 -13 1 -13 25 0 13 7 21 6 30 -5 11 -13 8 -15 -18 -15 -43 0 -68 10 -50 21
17 11 20 11 13 -1z m105 0 c0 -5 -7 -7 -15 -4 -8 4 -15 8 -15 10 0 2 7 4 15 4
8 0 15 -4 15 -10z m2960 1 c0 -10 -69 -25 -77 -17 -6 6 7 11 42 19 33 8 35 7
35 -2z m-3170 -41 c0 -5 -4 -10 -10 -10 -5 0 -10 5 -10 10 0 6 5 10 10 10 6 0
10 -4 10 -10z m30 6 c0 -3 -4 -8 -10 -11 -5 -3 -10 -1 -10 4 0 6 5 11 10 11 6
0 10 -2 10 -4z m2888 -12 c55 -7 67 -18 30 -27 -14 -4 -29 0 -40 10 -17 15
-18 15 -18 0 0 -18 -17 -21 -44 -11 -22 8 -20 34 2 34 9 0 41 -3 70 -6z m297
-4 c-3 -5 -13 -10 -21 -10 -8 0 -14 5 -14 10 0 6 9 10 21 10 11 0 17 -4 14
-10z m-215 -4 c0 -3 -4 -8 -10 -11 -5 -3 -10 -1 -10 4 0 6 5 11 10 11 6 0 10
-2 10 -4z m-2313 -37 c2 -16 -1 -19 -9 -11 -5 5 -7 15 -4 21 10 15 12 14 13
-10z m-122 -8 c3 -5 19 -12 35 -16 17 -4 30 -13 30 -20 0 -16 -34 -9 -51 11
-6 8 -20 14 -30 14 -10 0 -21 5 -24 10 -3 6 3 10 14 10 11 0 22 -4 26 -9z m99
-9 c3 -5 -1 -9 -9 -9 -8 0 -12 4 -9 9 3 4 7 8 9 8 2 0 6 -4 9 -8z m166 -1 c0
-5 10 -12 23 -16 l22 -8 -23 -4 c-23 -4 -52 11 -52 28 0 5 7 9 15 9 8 0 15 -4
15 -9z m60 -1 c0 -5 -4 -10 -10 -10 -5 0 -10 5 -10 10 0 6 5 10 10 10 6 0 10
-4 10 -10z m2239 6 c-2 -2 -17 -6 -34 -10 -22 -5 -26 -4 -15 4 14 9 59 15 49
6z m-2919 -62 c0 -11 -22 -1 -47 21 l-28 26 38 -22 c20 -11 37 -23 37 -25z
m490 36 c0 -5 -5 -10 -11 -10 -5 0 -7 5 -4 10 3 6 8 10 11 10 2 0 4 -4 4 -10z
m-250 -19 c0 -6 -4 -13 -10 -16 -5 -3 -10 1 -10 9 0 9 5 16 10 16 6 0 10 -4
10 -9z"/>
<path d="M4230 8320 c0 -11 4 -20 9 -20 5 0 7 9 4 20 -3 11 -7 20 -9 20 -2 0
-4 -9 -4 -20z"/>
<path d="M3395 6689 c-4 -6 -5 -12 -2 -15 2 -3 7 2 10 11 7 17 1 20 -8 4z"/>
<path d="M4220 8055 c0 -8 7 -15 15 -15 8 0 15 7 15 15 0 8 -7 15 -15 15 -8 0
-15 -7 -15 -15z"/>
<path d="M4301 7461 c-26 -26 -26 -46 -1 -71 26 -26 36 -25 56 5 20 30 16 53
-13 72 -19 13 -24 12 -42 -6z"/>
<path d="M4291 7347 c-6 -8 -8 -17 -4 -20 11 -12 19 -7 20 13 2 24 -1 25 -16
7z"/>
<path d="M4315 7340 c-7 -12 -8 -11 28 -14 16 -1 27 3 27 11 0 15 -46 18 -55
3z"/>
<path d="M4230 7250 c0 -5 5 -10 10 -10 6 0 10 5 10 10 0 6 -4 10 -10 10 -5 0
-10 -4 -10 -10z"/>
<path d="M4170 7200 c0 -5 7 -10 15 -10 8 0 15 -7 15 -15 0 -8 7 -15 15 -15 8
0 15 7 15 15 0 8 -7 15 -15 15 -8 0 -15 5 -15 10 0 6 -7 10 -15 10 -8 0 -15
-4 -15 -10z"/>
<path d="M3957 6656 c-4 -10 -5 -21 -2 -24 9 -9 17 6 13 25 -3 17 -4 17 -11
-1z"/>
<path d="M3391 6344 c0 -11 3 -14 6 -6 3 7 2 16 -1 19 -3 4 -6 -2 -5 -13z"/>
<path d="M3991 6373 c-1 -13 4 -23 9 -23 6 0 10 -7 10 -15 0 -8 5 -15 10 -15
6 0 10 7 10 15 0 8 -4 15 -8 15 -5 0 -14 10 -20 23 l-11 22 0 -22z"/>
<path d="M4108 6383 c59 -4 62 -5 62 -29 0 -14 4 -23 9 -20 4 3 6 17 3 31 -4
24 -7 25 -71 23 l-66 -2 63 -3z"/>
<path d="M4046 6333 c-6 -14 -5 -15 5 -6 7 7 10 15 7 18 -3 3 -9 -2 -12 -12z"/>
<path d="M5425 5150 c3 -5 8 -10 11 -10 2 0 4 5 4 10 0 6 -5 10 -11 10 -5 0
-7 -4 -4 -10z"/>
<path d="M5205 5040 c-3 -5 -2 -10 4 -10 5 0 13 5 16 10 3 6 2 10 -4 10 -5 0
-13 -4 -16 -10z"/>
<path d="M5240 5040 c0 -5 7 -10 15 -10 8 0 15 5 15 10 0 6 -7 10 -15 10 -8 0
-15 -4 -15 -10z"/>
<path d="M5290 5040 c0 -5 7 -10 15 -10 8 0 15 5 15 10 0 6 -7 10 -15 10 -8 0
-15 -4 -15 -10z"/>
<path d="M5340 5040 c0 -5 9 -10 21 -10 11 0 17 5 14 10 -3 6 -13 10 -21 10
-8 0 -14 -4 -14 -10z"/>
<path d="M5500 5040 c0 -5 9 -10 21 -10 11 0 17 5 14 10 -3 6 -13 10 -21 10
-8 0 -14 -4 -14 -10z"/>
<path d="M5550 5040 c0 -6 7 -10 15 -10 8 0 15 2 15 4 0 2 -7 6 -15 10 -8 3
-15 1 -15 -4z"/>
<path d="M5595 5040 c-3 -5 -1 -10 4 -10 6 0 11 5 11 10 0 6 -2 10 -4 10 -3 0
-8 -4 -11 -10z"/>
<path d="M5625 5040 c-3 -5 -1 -10 4 -10 6 0 11 5 11 10 0 6 -2 10 -4 10 -3 0
-8 -4 -11 -10z"/>
<path d="M5403 5033 c9 -2 23 -2 30 0 6 3 -1 5 -18 5 -16 0 -22 -2 -12 -5z"/>
<path d="M5458 5033 c6 -2 18 -2 25 0 6 3 1 5 -13 5 -14 0 -19 -2 -12 -5z"/>
<path d="M5240 5010 c0 -5 7 -7 15 -4 8 4 15 8 15 10 0 2 -7 4 -15 4 -8 0 -15
-4 -15 -10z"/>
<path d="M5290 5016 c0 -2 7 -6 15 -10 8 -3 15 -1 15 4 0 6 -7 10 -15 10 -8 0
-15 -2 -15 -4z"/>
<path d="M5340 5016 c0 -2 9 -6 20 -9 11 -3 20 -1 20 4 0 5 -9 9 -20 9 -11 0
-20 -2 -20 -4z"/>
<path d="M5395 5010 c3 -5 13 -10 21 -10 8 0 12 5 9 10 -3 6 -13 10 -21 10 -8
0 -12 -4 -9 -10z"/>
<path d="M5500 5010 c0 -5 10 -10 23 -10 18 0 19 2 7 10 -19 13 -30 13 -30 0z"/>
<path d="M5550 5010 c0 -5 7 -10 16 -10 8 0 12 5 9 10 -3 6 -10 10 -16 10 -5
0 -9 -4 -9 -10z"/>
<path d="M5458 5003 c7 -3 16 -2 19 1 4 3 -2 6 -13 5 -11 0 -14 -3 -6 -6z"/>
<path d="M2510 3679 c0 -5 5 -7 10 -4 6 3 10 8 10 11 0 2 -4 4 -10 4 -5 0 -10
-5 -10 -11z"/>
<path d="M2317 3703 c-4 -3 -7 -11 -7 -17 0 -6 5 -5 12 2 6 6 9 14 7 17 -3 3
-9 2 -12 -2z"/>
<path d="M2310 3638 c-19 -25 -20 -30 -6 -25 10 4 20 7 22 7 2 0 4 7 4 16 0
12 5 11 20 -7 l21 -24 -16 33 c-8 17 -17 32 -18 32 -2 0 -14 -14 -27 -32z"/>
<path d="M2186 3489 c-11 -11 -15 -19 -9 -19 12 0 38 28 32 34 -2 2 -13 -5
-23 -15z"/>
<path d="M2090 3457 c0 -10 -4 -15 -10 -12 -6 4 -7 -1 -3 -11 4 -10 2 -15 -3
-11 -5 3 -19 -12 -31 -34 -26 -47 -21 -50 15 -7 46 54 51 63 41 79 -7 11 -9
11 -9 -4z"/>
<path d="M2145 3450 c-3 -6 1 -7 9 -4 18 7 21 14 7 14 -6 0 -13 -4 -16 -10z"/>
<path d="M2120 3419 c0 -5 5 -7 10 -4 6 3 10 8 10 11 0 2 -4 4 -10 4 -5 0 -10
-5 -10 -11z"/>
<path d="M2100 3359 c0 -5 5 -7 10 -4 6 3 10 8 10 11 0 2 -4 4 -10 4 -5 0 -10
-5 -10 -11z"/>
<path d="M1855 1233 c8 -18 18 -33 20 -33 10 0 4 16 -16 40 l-20 25 16 -32z"/>
<path d="M1890 1170 c6 -11 13 -20 16 -20 2 0 0 9 -6 20 -6 11 -13 20 -16 20
-2 0 0 -9 6 -20z"/>
<path d="M1961 1124 c0 -11 3 -14 6 -6 3 7 2 16 -1 19 -3 4 -6 -2 -5 -13z"/>
<path d="M1860 1003 c0 -24 3 -33 9 -25 7 12 4 62 -5 62 -2 0 -4 -17 -4 -37z"/>
<path d="M5996 854 c-16 -11 -17 -17 -8 -26 9 -9 16 -8 29 5 23 23 5 41 -21
21z"/>
<path d="M6138 813 c7 -3 16 -2 19 1 4 3 -2 6 -13 5 -11 0 -14 -3 -6 -6z"/>
<path d="M2180 619 c0 -5 5 -7 10 -4 6 3 10 8 10 11 0 2 -4 4 -10 4 -5 0 -10
-5 -10 -11z"/>
<path d="M2268 513 c6 -2 18 -2 25 0 6 3 1 5 -13 5 -14 0 -19 -2 -12 -5z"/>
<path d="M2950 184 c0 -11 5 -14 16 -10 9 3 20 6 25 6 5 0 9 5 9 10 0 6 -11
10 -25 10 -16 0 -25 -6 -25 -16z"/>
<path d="M2840 174 c0 -8 5 -12 10 -9 6 3 10 10 10 16 0 5 -4 9 -10 9 -5 0
-10 -7 -10 -16z"/>
<path d="M3172 6873 c3 -15 14 -18 66 -18 52 0 62 3 62 18 0 14 -10 17 -66 17
-57 0 -65 -2 -62 -17z"/>
<path d="M3045 6860 c3 -5 8 -10 11 -10 2 0 4 5 4 10 0 6 -5 10 -11 10 -5 0
-7 -4 -4 -10z"/>
<path d="M3168 6700 l-3 -140 47 0 c40 0 47 3 51 23 l4 22 2 -22 c1 -24 17
-33 18 -10 0 6 3 69 7 140 6 122 5 127 -14 127 -18 0 -20 -7 -22 -67 0 -38 -3
-52 -5 -33 -9 96 -11 100 -48 100 l-34 0 -3 -140z"/>
<path d="M3120 6809 c0 -11 4 -18 10 -14 5 3 7 12 3 20 -7 21 -13 19 -13 -6z"/>
<path d="M4415 6179 c-4 -5 -17 -9 -28 -8 -71 5 -197 -2 -192 -11 8 -13 245
-12 245 1 0 5 -5 9 -11 9 -5 0 -7 5 -4 10 3 6 4 10 1 10 -3 0 -8 -5 -11 -11z"/>
<path d="M3981 6166 c8 -8 108 -10 116 -3 3 4 -22 7 -57 7 -35 0 -61 -2 -59
-4z"/>
<path d="M4118 6163 c6 -2 18 -2 25 0 6 3 1 5 -13 5 -14 0 -19 -2 -12 -5z"/>
<path d="M3170 5958 l0 -168 49 0 c44 0 49 3 53 24 4 20 0 26 -19 31 -22 5
-24 11 -22 48 4 75 -1 148 -10 143 -5 -4 -11 0 -14 6 -3 7 -2 -6 0 -28 3 -23
0 -50 -6 -60 -8 -15 -10 -1 -11 61 0 44 -5 87 -10 95 -6 10 -10 -41 -10 -152z"/>
<path d="M3215 6060 c3 -5 8 -10 11 -10 2 0 4 5 4 10 0 6 -5 10 -11 10 -5 0
-7 -4 -4 -10z"/>
<path d="M3412 5870 c-2 -38 0 -50 12 -50 10 0 15 15 18 50 2 39 0 50 -12 50
-11 0 -16 -14 -18 -50z"/>
<path d="M3606 5905 c4 -8 10 -15 15 -15 4 0 6 7 3 15 -4 8 -10 15 -15 15 -4
0 -6 -7 -3 -15z"/>
<path d="M3483 5845 c0 -33 2 -45 4 -27 2 18 2 45 0 60 -2 15 -4 0 -4 -33z"/>
<path d="M4118 5820 c-18 -21 -13 -26 11 -11 7 5 12 14 10 20 -3 7 -11 3 -21
-9z"/>
<path d="M3415 5778 c4 -37 4 -38 19 -38 10 0 12 7 8 22 -4 17 -2 20 13 14 15
-5 16 -4 5 9 -20 24 -48 19 -45 -7z"/>
<path d="M4076 5782 c-9 -8 -7 -55 3 -71 6 -10 12 -4 21 23 7 21 16 33 22 30
6 -4 8 -2 5 3 -8 13 -44 23 -51 15z"/>
<path d="M3314 5751 c-7 -23 -8 -23 -21 -6 -12 17 -13 17 -13 -11 -1 -16 -7
-56 -15 -89 -22 -92 -20 -110 15 -125 l29 -12 -24 -33 c-29 -37 -32 -50 -10
-41 9 3 18 -1 21 -9 4 -10 19 -15 43 -14 20 0 30 3 24 6 -18 7 -16 33 3 33 8
0 12 5 9 10 -4 6 -10 8 -15 5 -16 -10 -41 26 -34 49 8 25 3 22 38 30 25 6 28
5 23 -13 -3 -12 -1 -24 4 -27 5 -3 9 -17 9 -31 0 -22 3 -25 30 -21 18 3 35 -1
41 -9 9 -10 8 -13 -4 -13 -22 0 -30 -17 -12 -24 10 -4 20 3 27 19 15 33 28 32
29 -2 0 -27 1 -27 9 -5 13 32 17 27 12 -14 -6 -47 10 -38 28 16 7 23 18 44 23
47 6 4 7 1 2 -7 -6 -10 -1 -12 19 -8 14 3 26 1 26 -3 0 -5 -7 -9 -15 -9 -12 0
-13 -3 -3 -19 6 -10 17 -17 23 -14 7 2 15 -6 18 -19 4 -13 2 -24 -3 -26 -5 -2
5 -28 22 -58 29 -52 32 -82 6 -56 -7 7 -20 12 -29 12 -22 0 -109 -111 -109
-139 0 -18 6 -21 40 -21 l40 0 1 73 c1 47 3 63 8 47 5 -16 13 -24 24 -22 9 2
17 -2 17 -8 0 -5 -6 -10 -14 -10 -9 0 -15 -14 -18 -40 -4 -42 1 -45 60 -43 6
1 12 -3 12 -8 0 -5 -18 -9 -41 -9 -22 0 -38 -4 -35 -8 8 -13 77 -7 87 9 5 8 9
27 9 43 0 23 -3 27 -12 18 -19 -19 -45 -15 -43 7 1 17 27 51 39 51 3 0 15 -19
27 -42 12 -24 24 -37 26 -31 3 7 -3 20 -12 29 -17 17 -13 66 7 92 7 8 7 12 0
12 -18 0 -24 51 -7 69 8 10 15 25 15 35 0 11 5 15 13 10 6 -4 5 1 -4 12 -18
21 -19 55 -1 76 6 8 13 25 14 39 2 13 8 27 13 31 6 4 0 8 -12 8 -12 0 -25 5
-29 11 -5 8 1 10 18 6 23 -6 27 -2 41 36 26 67 46 137 39 136 -4 0 -16 -4 -27
-8 -11 -5 -28 -4 -37 1 -23 11 -22 -1 2 -32 21 -27 27 -51 8 -32 -18 18 -28
15 -28 -8 0 -12 -7 -20 -16 -20 -15 0 -15 2 -1 24 14 21 14 26 1 45 -21 29
-62 27 -97 -6 l-29 -28 16 31 15 32 -78 0 c-66 1 -80 -2 -86 -16 -6 -16 -7
-16 -20 1 -16 22 -68 18 -73 -5 -2 -11 5 -14 30 -11 l33 3 -32 -10 c-26 -8
-32 -16 -35 -43 -2 -24 -8 -32 -23 -32 -11 0 -20 7 -20 15 0 8 -6 19 -12 23
-7 4 -13 15 -13 23 0 8 5 12 10 9 6 -3 10 3 10 14 0 12 -4 21 -9 21 -5 0 -14
12 -19 28 l-11 27 -7 -24z m216 -141 c0 -5 -4 -10 -10 -10 -5 0 -10 5 -10 10
0 6 5 10 10 10 6 0 10 -4 10 -10z m90 -1 c0 -7 15 -10 39 -7 22 2 37 0 35 -4
-3 -5 -18 -8 -35 -8 -16 0 -29 -4 -29 -10 0 -5 -5 -10 -10 -10 -6 0 -10 6 -8
13 2 6 -2 12 -7 12 -5 0 -9 -6 -7 -12 2 -7 -6 -13 -18 -13 -11 0 -20 -4 -20
-10 0 -5 6 -7 14 -4 10 4 12 -2 9 -20 -3 -14 -1 -26 5 -26 5 0 10 6 9 13 -1
38 3 44 31 40 15 -2 34 -4 42 -4 36 0 80 -11 80 -19 0 -14 -54 -12 -68 2 -9 9
-12 9 -12 0 0 -7 -11 -12 -25 -12 -20 0 -25 -5 -25 -26 0 -27 0 -27 -62 -20
-34 3 -63 7 -65 9 -1 2 1 18 6 35 10 33 6 38 -18 23 -9 -6 -10 -11 -2 -15 20
-13 12 -23 -14 -18 -14 2 -25 9 -25 14 0 5 5 6 10 3 6 -3 10 -2 10 3 0 16 37
52 53 52 12 0 14 -9 11 -42 -5 -48 6 -43 21 10 12 42 75 85 75 51z m138 -6
c-10 -2 -26 -2 -35 0 -10 3 -2 5 17 5 19 0 27 -2 18 -5z m-364 -34 c-10 -16
-24 -9 -24 12 0 18 2 19 15 9 8 -7 12 -16 9 -21z m346 11 c0 -5 -5 -10 -11
-10 -5 0 -7 5 -4 10 3 6 8 10 11 10 2 0 4 -4 4 -10z m-421 -65 c0 -5 -6 -1
-14 9 -8 11 -15 24 -15 30 0 5 7 1 15 -10 8 -10 14 -23 14 -29z m111 15 c0 -5
-2 -10 -4 -10 -3 0 -8 5 -11 10 -3 6 -1 10 4 10 6 0 11 -4 11 -10z m320 -40
c0 -5 -7 -10 -16 -10 -8 0 -12 5 -9 10 3 6 10 10 16 10 5 0 9 -4 9 -10z m-80
-40 c0 -5 -2 -10 -4 -10 -3 0 -8 5 -11 10 -3 6 -1 10 4 10 6 0 11 -4 11 -10z
m57 -5 c2 -6 -6 -11 -17 -11 -11 0 -20 6 -20 14 0 15 32 13 37 -3z m-27 -140
c0 -18 -2 -18 -20 5 -11 14 -15 29 -10 34 4 4 6 25 4 45 -3 30 -2 28 11 -14 8
-27 15 -59 15 -70z m50 105 c0 -5 -4 -10 -10 -10 -5 0 -10 5 -10 10 0 6 5 10
10 10 6 0 10 -4 10 -10z m2 -62 c-9 -9 -12 -7 -12 12 0 19 3 21 12 12 9 -9 9
-15 0 -24z m-22 -7 c0 -6 -4 -13 -10 -16 -5 -3 -10 1 -10 9 0 9 5 16 10 16 6
0 10 -4 10 -9z m-20 -121 c0 -5 -5 -10 -11 -10 -5 0 -7 5 -4 10 3 6 8 10 11
10 2 0 4 -4 4 -10z m-100 -100 c0 -5 -5 -10 -11 -10 -5 0 -7 5 -4 10 3 6 8 10
11 10 2 0 4 -4 4 -10z"/>
<path d="M3350 5759 c0 -5 5 -7 10 -4 6 3 10 8 10 11 0 2 -4 4 -10 4 -5 0 -10
-5 -10 -11z"/>
<path d="M3827 5763 c-10 -9 -9 -23 1 -23 5 0 9 7 9 15 0 17 -1 18 -10 8z"/>
<path d="M3760 5750 c0 -5 9 -10 21 -10 11 0 17 5 14 10 -3 6 -13 10 -21 10
-8 0 -14 -4 -14 -10z"/>
<path d="M3172 5598 c-1 -75 -5 -143 -8 -152 -5 -12 3 -15 38 -14 48 0 58 10
57 53 -1 17 -3 22 -6 13 -9 -36 -23 -16 -24 35 -1 28 -3 41 -6 27 -9 -59 -13
-69 -28 -64 -11 5 -15 32 -18 122 l-3 117 -2 -137z"/>
<path d="M4106 5684 c-4 -9 -4 -19 -1 -22 2 -3 7 3 11 12 6 15 7 15 19 -1 12
-16 10 -19 -18 -24 l-32 -6 38 -2 c40 -1 46 11 23 42 -17 21 -32 22 -40 1z"/>
<path d="M4548 5611 c-4 -25 -1 -31 14 -31 15 0 18 5 13 23 -12 37 -22 40 -27
8z"/>
<path d="M3918 5605 c2 -14 8 -25 12 -25 10 0 1 38 -10 45 -4 2 -5 -7 -2 -20z"/>
<path d="M4580 5618 c0 -7 5 -20 10 -28 8 -12 10 -9 10 13 0 15 -4 27 -10 27
-5 0 -10 -6 -10 -12z"/>
<path d="M4193 5538 c-2 -5 7 -8 21 -8 14 0 26 -4 26 -9 0 -5 12 -11 28 -13
16 -2 26 -8 24 -16 -2 -9 4 -12 16 -7 14 4 24 -2 35 -18 14 -22 14 -27 1 -46
-14 -19 -13 -21 0 -21 9 0 16 -9 16 -20 0 -13 -7 -20 -20 -20 -18 0 -19 -5
-14 -47 7 -59 18 -73 12 -16 -3 42 0 44 35 15 21 -19 35 -8 17 13 -12 15 -4
20 23 16 4 0 7 6 7 15 0 14 -3 14 -15 4 -13 -11 -15 -7 -15 24 0 29 5 38 30
51 31 16 41 29 16 19 -9 -3 -17 3 -21 15 -3 12 -11 19 -16 16 -5 -4 -9 -1 -9
5 0 8 9 10 27 5 23 -5 25 -4 14 8 -7 9 -8 18 -2 21 5 3 12 0 14 -6 3 -8 6 -6
6 5 1 10 -6 17 -16 18 -120 4 -236 2 -240 -3z m216 -97 c-15 -5 -22 6 -14 19
6 9 10 9 16 -1 5 -8 4 -15 -2 -18z"/>
<path d="M3340 5500 c0 -5 5 -10 11 -10 5 0 7 5 4 10 -3 6 -8 10 -11 10 -2 0
-4 -4 -4 -10z"/>
<path d="M4103 5486 c1 -11 9 -21 17 -23 10 -3 11 -2 4 4 -6 4 -14 15 -17 23
-5 11 -6 9 -4 -4z"/>
<path d="M4270 5449 c0 -5 5 -7 10 -4 6 3 10 8 10 11 0 2 -4 4 -10 4 -5 0 -10
-5 -10 -11z"/>
<path d="M3160 5400 c0 -5 20 -10 45 -10 25 0 45 5 45 10 0 6 -20 10 -45 10
-25 0 -45 -4 -45 -10z"/>
<path d="M3584 5384 c3 -9 6 -21 6 -27 0 -7 5 -4 11 6 11 18 5 37 -13 37 -5 0
-7 -7 -4 -16z"/>
<path d="M4260 5390 c0 -5 7 -10 16 -10 8 0 12 5 9 10 -3 6 -10 10 -16 10 -5
0 -9 -4 -9 -10z"/>
<path d="M3333 5383 c9 -2 23 -2 30 0 6 3 -1 5 -18 5 -16 0 -22 -2 -12 -5z"/>
<path d="M4214 5355 c-3 -8 -3 -18 0 -24 3 -5 0 -12 -6 -14 -7 -3 -2 -6 11 -6
20 -1 21 1 11 14 -10 12 -10 18 0 30 9 11 9 15 1 15 -6 0 -14 -7 -17 -15z"/>
<path d="M4251 5353 c-1 -16 5 -23 19 -23 13 0 18 5 14 15 -4 8 -10 13 -14 10
-5 -3 -11 1 -13 7 -3 7 -6 3 -6 -9z"/>
<path d="M3503 5343 c9 -2 23 -2 30 0 6 3 -1 5 -18 5 -16 0 -22 -2 -12 -5z"/>
<path d="M3324 5318 c-4 -13 -8 -35 -9 -50 -2 -31 -15 -52 -15 -24 0 21 -24
16 -28 -6 -4 -21 52 -111 63 -101 4 5 5 2 1 -4 -4 -7 0 -25 9 -40 13 -23 15
-24 10 -5 -4 12 -2 22 3 22 6 0 10 23 9 50 -1 28 -5 50 -9 50 -5 0 -8 11 -8
25 0 14 5 25 10 25 14 0 12 54 -2 68 -17 17 -26 15 -34 -10z"/>
<path d="M3616 5332 c-4 -7 -11 -10 -16 -7 -20 12 -40 -10 -55 -60 -22 -77
-19 -84 18 -40 17 22 31 43 29 48 -1 5 7 16 19 26 12 10 20 24 17 31 -3 11 -6
11 -12 2z"/>
<path d="M4303 5300 c0 -25 2 -35 4 -22 2 12 2 32 0 45 -2 12 -4 2 -4 -23z"/>
<path d="M4412 5310 c0 -14 2 -19 5 -12 2 6 2 18 0 25 -3 6 -5 1 -5 -13z"/>
<path d="M2997 5313 c-4 -3 -7 -28 -7 -55 0 -46 1 -48 28 -49 l27 -1 -27 -10
c-27 -9 -28 -11 -28 -92 0 -89 -2 -87 53 -77 4 0 7 24 7 53 0 48 -1 51 -15 32
-14 -17 -14 -16 0 13 10 21 15 60 15 113 0 77 -1 80 -23 80 -13 0 -27 -3 -30
-7z"/>
<path d="M3440 5304 c0 -8 5 -12 10 -9 6 3 10 10 10 16 0 5 -4 9 -10 9 -5 0
-10 -7 -10 -16z"/>
<path d="M3480 5306 c0 -8 8 -17 18 -19 15 -4 16 -5 0 -6 -12 -1 -19 -13 -23
-38 -4 -21 -10 -49 -15 -64 -4 -15 -3 -37 5 -55 l12 -29 5 25 c3 14 15 61 27
105 26 99 26 95 -4 95 -15 0 -25 -6 -25 -14z"/>
<path d="M4264 5285 c-1 -14 2 -25 7 -25 5 0 9 11 9 25 0 33 -15 33 -16 0z"/>
<path d="M3172 5163 l-2 -131 31 -7 c30 -7 48 4 49 28 0 11 -25 8 -38 -5 -21
-21 -27 2 -33 125 l-5 122 -2 -132z"/>
<path d="M3433 5273 c-9 -3 -13 -27 -12 -76 l1 -72 9 49 c4 28 6 53 3 57 -2 4
1 9 7 11 6 2 10 11 8 19 -2 9 -10 14 -16 12z"/>
<path d="M4325 5240 c-3 -5 -1 -10 4 -10 6 0 11 5 11 10 0 6 -2 10 -4 10 -3 0
-8 -4 -11 -10z"/>
<path d="M4508 5223 c7 -3 16 -2 19 1 4 3 -2 6 -13 5 -11 0 -14 -3 -6 -6z"/>
<path d="M4346 5204 c-9 -24 -7 -34 8 -34 9 0 13 10 12 25 -1 28 -11 33 -20 9z"/>
<path d="M3922 5189 c2 -6 8 -10 13 -10 5 0 11 4 13 10 2 6 -4 11 -13 11 -9 0
-15 -5 -13 -11z"/>
<path d="M4411 5184 c0 -11 3 -14 6 -6 3 7 2 16 -1 19 -3 4 -6 -2 -5 -13z"/>
<path d="M4600 5190 c0 -5 7 -10 15 -10 8 0 15 5 15 10 0 6 -7 10 -15 10 -8 0
-15 -4 -15 -10z"/>
<path d="M4290 5180 c0 -5 5 -10 10 -10 6 0 10 5 10 10 0 6 -4 10 -10 10 -5 0
-10 -4 -10 -10z"/>
<path d="M3262 5138 c1 -38 2 -39 5 -10 3 22 8 30 16 25 7 -4 6 0 -2 10 -19
24 -21 22 -19 -25z"/>
<path d="M3695 5160 c-3 -5 -2 -10 4 -10 5 0 13 5 16 10 3 6 2 10 -4 10 -5 0
-13 -4 -16 -10z"/>
<path d="M3950 5160 c0 -5 5 -10 10 -10 6 0 10 5 10 10 0 6 -4 10 -10 10 -5 0
-10 -4 -10 -10z"/>
<path d="M4630 5160 c0 -5 5 -10 10 -10 6 0 10 5 10 10 0 6 -4 10 -10 10 -5 0
-10 -4 -10 -10z"/>
<path d="M3295 5104 c-4 -16 -11 -39 -16 -52 -7 -17 -5 -24 7 -29 16 -6 37 15
28 29 -3 4 0 8 6 8 7 0 10 -7 7 -15 -4 -8 -2 -17 3 -20 6 -4 10 -1 10 5 0 6 5
8 10 5 8 -5 -33 78 -46 94 -2 2 -6 -10 -9 -25z"/>
<path d="M4011 5130 c-1 -3 -4 -56 -7 -118 -4 -83 -2 -117 7 -128 9 -11 9 -18
2 -22 -6 -5 -10 -95 -10 -252 -1 -235 9 -260 20 -56 3 42 7 80 11 83 3 3 1 12
-5 20 -9 9 -8 13 0 13 15 0 14 60 -1 60 -8 0 -6 5 4 11 13 7 16 17 11 41 -4
22 -3 29 5 24 7 -4 12 -2 12 3 0 6 -5 11 -11 11 -8 0 -8 4 -2 13 13 15 14 21
20 140 4 94 4 97 -17 97 -12 0 -18 4 -15 10 4 6 11 8 16 5 5 -4 9 -1 9 4 0 6
-9 11 -19 11 -11 0 -22 8 -24 18 -3 9 -5 15 -6 12z"/>
<path d="M3751 5094 c0 -11 3 -14 6 -6 3 7 2 16 -1 19 -3 4 -6 -2 -5 -13z"/>
<path d="M3926 5094 c-9 -24 -7 -31 4 -14 9 13 11 13 20 0 11 -17 13 -10 4 14
-3 9 -10 16 -14 16 -4 0 -11 -7 -14 -16z"/>
<path d="M4490 5105 c0 -19 17 -38 24 -27 4 6 14 8 23 5 15 -6 16 -5 3 9 -11
11 -17 13 -22 4 -6 -8 -11 -7 -18 4 -5 8 -10 11 -10 5z"/>
<path d="M4330 5096 c0 -9 30 -14 35 -6 4 6 -3 10 -14 10 -12 0 -21 -2 -21 -4z"/>
<path d="M3588 5082 c-16 -2 -28 -8 -28 -13 0 -5 12 -9 28 -10 15 0 21 -3 15
-6 -7 -2 -13 -9 -13 -15 0 -6 8 -7 17 -4 9 4 20 1 24 -6 4 -7 11 -10 14 -6 3
3 -1 12 -8 20 -8 8 -16 21 -18 29 -3 9 -14 13 -31 11z"/>
<path d="M3500 5070 c0 -13 20 -13 40 0 12 8 9 10 -12 10 -16 0 -28 -4 -28
-10z"/>
<path d="M3730 5071 c0 -5 5 -11 12 -13 6 -2 8 -10 4 -17 -5 -7 -12 -9 -19 -3
-21 15 -67 13 -67 -3 0 -17 25 -20 35 -5 9 15 35 0 35 -22 0 -11 -4 -28 -10
-38 -9 -16 -7 -17 13 -7 17 8 23 20 25 57 2 35 -2 49 -13 54 -8 3 -15 1 -15
-3z"/>
<path d="M4180 5060 c0 -5 5 -10 10 -10 6 0 10 5 10 10 0 6 -4 10 -10 10 -5 0
-10 -4 -10 -10z"/>
<path d="M4210 5060 c0 -5 5 -10 11 -10 5 0 7 5 4 10 -3 6 -8 10 -11 10 -2 0
-4 -4 -4 -10z"/>
<path d="M4244 5059 c-2 -4 12 -10 31 -13 24 -5 33 -11 28 -21 -3 -8 0 -15 7
-15 9 0 9 -4 -1 -17 -12 -15 -12 -16 4 -10 9 3 17 2 17 -3 0 -6 -5 -10 -10
-10 -7 0 -7 -7 1 -21 6 -12 9 -38 7 -59 -2 -21 0 -36 4 -34 3 2 8 -5 10 -16 2
-12 8 -22 13 -23 6 -1 10 44 11 120 1 97 -2 120 -13 116 -7 -3 -13 -1 -13 4 0
10 -90 12 -96 2z"/>
<path d="M4399 5057 c-4 -50 0 -202 5 -196 2 2 7 36 10 74 4 39 11 72 16 73 6
2 10 12 10 23 0 11 7 19 17 19 27 0 6 13 -27 17 -19 2 -30 -2 -31 -10z"/>
<path d="M3500 5040 c0 -5 5 -10 10 -10 6 0 10 5 10 10 0 6 -4 10 -10 10 -5 0
-10 -4 -10 -10z"/>
<path d="M3560 5040 c0 -5 5 -10 11 -10 5 0 7 5 4 10 -3 6 -8 10 -11 10 -2 0
-4 -4 -4 -10z"/>
<path d="M2991 4920 c-1 -82 0 -90 17 -90 16 0 18 -5 14 -27 -4 -20 -7 -23
-10 -10 -9 43 -20 10 -21 -66 l-2 -83 28 -2 28 -2 3 183 2 183 -29 2 -29 2 -1
-90z"/>
<path d="M3636 5002 c-5 -8 62 -7 71 2 4 3 -10 6 -30 6 -20 0 -38 -3 -41 -8z"/>
<path d="M3495 4960 c-18 -8 -17 -9 8 -9 15 -1 27 4 27 9 0 12 -8 12 -35 0z"/>
<path d="M3600 4960 c0 -5 5 -10 11 -10 5 0 7 5 4 10 -3 6 -8 10 -11 10 -2 0
-4 -4 -4 -10z"/>
<path d="M3550 4945 c0 -10 -11 -15 -35 -15 -34 0 -35 -1 -35 -40 0 -40 0 -40
39 -40 34 0 44 6 71 40 l32 40 -32 6 c-22 5 -28 9 -18 15 10 7 9 9 -4 9 -10 0
-18 -7 -18 -15z"/>
<path d="M3694 4933 c-12 -2 -36 -22 -53 -44 l-32 -39 46 0 c42 0 61 13 33 23
-10 3 -10 7 1 20 7 10 10 17 5 17 -5 1 2 7 16 15 25 14 23 16 -16 8z"/>
<path d="M3732 4909 c-20 -31 -15 -59 11 -59 16 0 18 3 8 9 -9 6 -10 11 -2 15
13 8 15 42 3 50 -4 2 -13 -4 -20 -15z"/>
<path d="M4570 4865 c0 -25 5 -45 10 -45 6 0 10 20 10 45 0 25 -4 45 -10 45
-5 0 -10 -20 -10 -45z"/>
<path d="M3480 4810 c0 -11 6 -20 13 -20 8 0 22 9 32 20 18 20 17 20 -13 20
-25 0 -32 -4 -32 -20z"/>
<path d="M3564 4798 c-16 -18 -38 -43 -48 -55 -19 -23 -19 -23 7 -23 22 0 27
5 27 25 0 14 6 26 13 27 6 0 17 2 22 3 6 2 16 3 23 4 7 0 10 6 6 12 -4 7 -1
10 7 7 8 -3 19 2 26 11 6 9 14 13 18 9 4 -4 -3 -15 -14 -25 -20 -16 -20 -18
-4 -24 10 -3 28 -2 41 2 20 8 23 5 28 -21 4 -16 12 -31 19 -34 8 -3 11 2 8 15
-3 10 0 19 6 19 6 0 11 17 11 40 l0 40 -83 0 c-81 0 -84 -1 -113 -32z"/>
<path d="M4550 4759 c0 -31 4 -48 10 -44 6 3 10 26 10 51 0 24 -4 44 -10 44
-5 0 -10 -23 -10 -51z"/>
<path d="M4338 4775 c13 -20 13 -47 0 -39 -8 5 -8 1 1 -10 12 -14 12 -19 2
-26 -9 -5 -10 -10 -2 -14 6 -4 8 -21 5 -41 -3 -18 0 -36 6 -40 6 -4 10 13 11
47 0 29 1 72 2 95 2 33 -1 41 -15 40 -9 -1 -14 -6 -10 -12z"/>
<path d="M3600 4744 c0 -31 23 -28 28 4 2 15 -2 22 -12 22 -11 0 -16 -9 -16
-26z"/>
<path d="M3169 4743 c-4 -42 -3 -73 4 -73 4 0 7 18 7 40 0 22 -2 40 -5 40 -3
0 -5 -3 -6 -7z"/>
<path d="M3286 4734 c-3 -12 -4 -29 0 -38 10 -26 -4 -19 -21 12 -9 15 -14 19
-11 9 3 -10 6 -25 6 -33 0 -8 9 -14 20 -14 12 0 20 -7 20 -16 0 -11 5 -14 16
-10 9 3 18 6 20 6 2 0 4 4 4 10 0 5 -7 7 -15 4 -15 -6 -22 11 -7 19 4 2 1 2
-7 0 -8 -2 -11 2 -7 12 3 8 2 25 -3 37 -8 23 -8 23 -15 2z"/>
<path d="M3348 4715 c2 -19 6 -35 8 -35 2 0 4 16 4 35 0 19 -4 35 -8 35 -4 0
-6 -16 -4 -35z"/>
<path d="M3490 4692 c0 -11 39 -12 45 -1 4 5 -5 9 -19 9 -14 0 -26 -4 -26 -8z"/>
<path d="M3580 4692 c0 -5 7 -9 15 -9 8 0 15 4 15 9 0 4 -7 8 -15 8 -8 0 -15
-4 -15 -8z"/>
<path d="M3655 4690 c-3 -5 -1 -10 4 -10 6 0 11 5 11 10 0 6 -2 10 -4 10 -3 0
-8 -4 -11 -10z"/>
<path d="M3200 4680 c-11 -7 -7 -10 18 -10 17 0 32 5 32 10 0 13 -30 13 -50 0z"/>
<path d="M3499 4659 c-10 -6 -4 -9 19 -9 17 0 32 2 32 4 0 9 -39 13 -51 5z"/>
<path d="M4573 4631 c4 -57 17 -63 17 -8 0 26 -4 47 -10 47 -5 0 -8 -18 -7
-39z"/>
<path d="M3573 4653 c9 -2 25 -2 35 0 9 3 1 5 -18 5 -19 0 -27 -2 -17 -5z"/>
<path d="M3638 4653 c7 -3 16 -2 19 1 4 3 -2 6 -13 5 -11 0 -14 -3 -6 -6z"/>
<path d="M3108 4633 c7 -3 16 -2 19 1 4 3 -2 6 -13 5 -11 0 -14 -3 -6 -6z"/>
<path d="M3178 4633 c12 -2 32 -2 45 0 12 2 2 4 -23 4 -25 0 -35 -2 -22 -4z"/>
<path d="M3300 4600 c0 -5 5 -10 10 -10 6 0 10 5 10 10 0 6 -4 10 -10 10 -5 0
-10 -4 -10 -10z"/>
<path d="M3264 4569 c0 -13 5 -17 17 -14 10 3 19 -1 23 -10 5 -13 0 -16 -21
-13 -15 2 -28 -2 -30 -9 -3 -9 7 -13 32 -13 32 0 37 3 32 20 -3 11 -1 20 4 20
5 0 9 6 9 14 0 9 -7 12 -20 9 -11 -3 -26 -1 -33 5 -10 8 -13 6 -13 -9z"/>
<path d="M4354 4485 c0 -49 1 -71 3 -48 2 23 2 64 0 90 -2 26 -3 8 -3 -42z"/>
<path d="M4550 4526 c0 -25 5 -48 10 -51 6 -4 10 13 10 44 0 28 -4 51 -10 51
-5 0 -10 -20 -10 -44z"/>
<path d="M3352 4530 c0 -14 2 -19 5 -12 2 6 2 18 0 25 -3 6 -5 1 -5 -13z"/>
<path d="M3444 4542 c3 -5 1 -12 -6 -14 -8 -3 -6 -7 5 -11 20 -7 24 17 5 29
-6 4 -8 3 -4 -4z"/>
<path d="M3560 4535 c0 -8 8 -15 18 -15 13 0 14 2 3 9 -11 7 -11 9 0 14 10 4
9 6 -3 6 -10 1 -18 -6 -18 -14z"/>
<path d="M3480 4522 c0 -4 9 -8 20 -9 11 -1 20 2 20 8 0 5 -9 9 -20 9 -11 0
-20 -4 -20 -8z"/>
<path d="M3660 4518 c0 -4 14 -8 30 -8 17 0 30 2 30 4 0 2 -13 6 -30 8 -16 3
-30 1 -30 -4z"/>
<path d="M5025 4425 c4 -11 27 -76 50 -145 l43 -125 26 55 c24 50 29 48 12 -5
-3 -11 7 7 23 40 35 74 47 110 33 101 -6 -3 -13 -20 -17 -36 -4 -16 -11 -33
-17 -36 -7 -5 -9 0 -5 14 4 12 10 31 13 42 5 16 2 20 -15 20 -37 0 -101 32
-127 64 -17 20 -24 24 -19 11z"/>
<path d="M2961 4414 c0 -11 3 -14 6 -6 3 7 2 16 -1 19 -3 4 -6 -2 -5 -13z"/>
<path d="M2992 4393 c-1 -28 1 -34 8 -23 8 12 10 11 10 -7 0 -12 -4 -25 -10
-28 -5 -3 -10 -13 -10 -21 0 -8 5 -12 10 -9 6 3 10 -1 10 -10 0 -9 -4 -13 -10
-10 -5 3 -10 0 -10 -7 0 -8 11 -14 25 -14 22 0 25 4 25 39 0 23 -4 36 -10 32
-6 -3 -10 5 -10 19 0 14 5 28 10 31 6 3 10 15 10 26 0 13 -7 19 -23 19 -20 0
-24 -5 -25 -37z"/>
<path d="M5009 4345 c-1 -27 -3 -61 -4 -75 -16 -172 -34 -434 -30 -438 6 -6 8
13 6 43 -1 14 1 16 7 8 8 -12 25 20 83 156 22 53 22 54 4 120 -10 36 -24 93
-31 126 -7 33 -17 71 -23 85 -9 22 -10 19 -12 -25z m11 -315 c0 -5 -5 -10 -11
-10 -5 0 -7 5 -4 10 3 6 8 10 11 10 2 0 4 -4 4 -10z m-11 -94 c-12 -42 -22
-49 -13 -8 4 15 6 41 6 57 0 27 0 28 8 8 5 -13 5 -36 -1 -57z"/>
<path d="M5668 4333 c-7 -16 -38 -74 -71 -129 l-58 -102 42 -68 c23 -38 64
-102 91 -142 47 -69 56 -90 32 -74 -11 8 -123 181 -148 230 -14 27 -46 45 -46
26 0 -9 202 -307 223 -329 7 -7 8 -6 3 2 -4 7 -9 61 -12 120 -2 60 -9 186 -14
282 -6 95 -10 182 -10 192 0 28 -19 23 -32 -8z"/>
<path d="M5590 4248 c-34 -57 -71 -115 -81 -130 -10 -15 -15 -30 -10 -33 6 -3
16 6 23 20 7 13 42 72 76 131 35 58 62 107 60 110 -3 2 -33 -42 -68 -98z"/>
<path d="M5492 4315 c0 -16 2 -22 5 -12 2 9 2 23 0 30 -3 6 -5 -1 -5 -18z"/>
<path d="M5520 4316 c0 -13 -7 -29 -15 -36 -11 -9 -15 -33 -15 -89 l0 -76 18
30 c10 17 42 67 70 113 l52 82 -55 0 c-51 0 -55 -2 -55 -24z"/>
<path d="M4352 4310 c0 -14 2 -19 5 -12 2 6 2 18 0 25 -3 6 -5 1 -5 -13z"/>
<path d="M5176 4201 l-39 -91 34 -100 34 -101 8 143 c4 79 6 165 5 192 l-3 49
-39 -92z"/>
<path d="M3005 4230 c-3 -5 -1 -10 4 -10 6 0 11 5 11 10 0 6 -2 10 -4 10 -3 0
-8 -4 -11 -10z"/>
<path d="M4352 4215 c0 -16 2 -22 5 -12 2 9 2 23 0 30 -3 6 -5 -1 -5 -18z"/>
<path d="M5072 4230 c0 -8 8 -37 18 -65 10 -27 18 -43 18 -35 0 8 -8 38 -18
65 -10 28 -18 43 -18 35z"/>
<path d="M3011 4192 c0 -13 -5 -20 -11 -17 -6 3 -7 -1 -4 -10 10 -24 27 -2 21
26 l-4 24 -2 -23z"/>
<path d="M3033 4155 c0 -22 2 -30 4 -17 2 12 2 30 0 40 -3 9 -5 -1 -4 -23z"/>
<path d="M4573 4115 c0 -27 2 -38 4 -22 2 15 2 37 0 50 -2 12 -4 0 -4 -28z"/>
<path d="M2995 4130 c-3 -6 1 -7 9 -4 18 7 21 14 7 14 -6 0 -13 -4 -16 -10z"/>
<path d="M3000 4080 c13 -23 20 -26 20 -6 0 8 -7 16 -15 20 -13 4 -14 2 -5
-14z"/>
<path d="M5119 4069 c5 -19 26 -88 47 -154 31 -95 40 -113 42 -88 2 17 -3 44
-11 60 -8 15 -26 66 -42 113 -28 87 -50 129 -36 69z"/>
<path d="M4728 4058 c9 -11 10 -18 2 -23 -7 -4 -5 -12 5 -22 9 -8 19 -12 23
-9 3 4 2 10 -3 14 -6 4 -10 16 -10 26 0 11 -7 22 -15 24 -13 4 -13 3 -2 -10z"/>
<path d="M5490 3899 l0 -174 115 3 115 3 -17 27 c-10 15 -40 59 -68 97 -28 39
-72 103 -98 144 l-47 75 0 -175z"/>
<path d="M3012 4025 c0 -16 2 -22 5 -12 2 9 2 23 0 30 -3 6 -5 -1 -5 -18z"/>
<path d="M5085 4007 c-10 -23 -36 -78 -57 -121 -41 -86 -43 -90 -28 -81 5 3
18 26 29 51 11 24 27 47 36 50 9 4 14 12 12 18 -3 6 6 12 19 12 l23 2 -25 -25
c-29 -29 -33 -54 -4 -28 11 10 20 14 20 9 0 -5 5 -2 11 6 8 11 9 6 7 -22 -3
-29 -1 -35 9 -26 7 6 14 8 14 4 3 -15 6 -23 22 -56 16 -34 16 -34 11 -5 -3 17
-15 43 -26 59 -12 16 -16 26 -9 22 15 -9 14 -5 -17 91 l-27 83 -20 -43z"/>
<path d="M4552 4000 c0 -19 2 -27 5 -17 2 9 2 25 0 35 -3 9 -5 1 -5 -18z"/>
<path d="M4701 4014 c0 -11 3 -14 6 -6 3 7 2 16 -1 19 -3 4 -6 -2 -5 -13z"/>
<path d="M3012 3905 c0 -16 2 -22 5 -12 2 9 2 23 0 30 -3 6 -5 -1 -5 -18z"/>
<path d="M4572 3870 c0 -19 2 -27 5 -17 2 9 2 25 0 35 -3 9 -5 1 -5 -18z"/>
<path d="M4900 3860 c0 -5 5 -10 11 -10 5 0 7 5 4 10 -3 6 -8 10 -11 10 -2 0
-4 -4 -4 -10z"/>
<path d="M4902 3795 c0 -16 2 -22 5 -12 2 9 2 23 0 30 -3 6 -5 -1 -5 -18z"/>
<path d="M4553 3750 c0 -25 2 -35 4 -22 2 12 2 32 0 45 -2 12 -4 2 -4 -23z"/>
<path d="M5170 3746 c0 -2 7 -6 15 -10 8 -3 15 -1 15 4 0 6 -7 10 -15 10 -8 0
-15 -2 -15 -4z"/>
<path d="M2741 3713 c-1 -6 -4 -20 -7 -30 -5 -17 -5 -17 6 0 6 10 9 23 6 30
-3 9 -5 9 -5 0z"/>
<path d="M12 3698 c-7 -7 -12 -21 -12 -32 0 -20 1 -20 16 2 20 29 48 30 39 0
-6 -18 -4 -20 11 -13 11 4 25 8 32 8 23 1 12 13 -26 30 -46 20 -45 20 -60 5z"/>
<path d="M5181 3674 c0 -11 3 -14 6 -6 3 7 2 16 -1 19 -3 4 -6 -2 -5 -13z"/>
<path d="M5490 3608 c0 -93 7 -102 11 -13 1 33 6 66 12 73 5 6 28 12 51 12 33
-1 38 -3 23 -11 -14 -8 -16 -14 -6 -25 6 -8 18 -14 25 -14 16 0 19 -16 4 -25
-5 -3 -10 -1 -10 4 0 6 -12 10 -27 10 -25 -2 -25 -2 -5 -6 13 -3 26 -11 29
-19 4 -11 9 -12 19 -3 8 6 14 18 14 25 0 8 5 14 11 14 6 0 8 -9 4 -21 -5 -14
-4 -19 4 -15 7 5 8 1 4 -9 -4 -13 -8 -14 -14 -4 -4 8 -12 10 -16 5 -4 -5 -3
-11 4 -13 8 -3 4 -18 -13 -48 -37 -67 -29 -68 12 -1 37 62 84 152 84 161 0 3
-49 5 -110 5 l-110 0 0 -82z m160 44 c0 -15 -2 -15 -10 -2 -13 20 -13 33 0 25
6 -3 10 -14 10 -23z"/>
<path d="M12 3628 c-7 -7 -12 -18 -12 -25 0 -18 29 -16 37 3 8 21 -10 37 -25
22z"/>
<path d="M2978 3583 c5 -59 10 -63 11 -10 1 26 -3 47 -7 47 -4 0 -6 -17 -4
-37z"/>
<path d="M5696 3593 c-6 -14 -5 -15 5 -6 7 7 10 15 7 18 -3 3 -9 -2 -12 -12z"/>
<path d="M5690 3520 c-35 -72 -42 -92 -31 -102 10 -11 11 -9 5 6 -5 13 -4 17
3 13 7 -5 9 0 6 11 -2 11 2 25 9 33 8 8 17 22 21 31 10 29 36 9 40 -30 2 -21
4 -5 5 33 2 106 -8 107 -58 5z m47 25 c0 -17 -13 -20 -21 -6 -4 5 0 12 6 14 7
3 13 6 14 6 0 1 1 -6 1 -14z"/>
<path d="M2680 3534 c0 -8 5 -12 10 -9 6 4 8 11 5 16 -9 14 -15 11 -15 -7z"/>
<path d="M2720 3546 c0 -2 7 -9 15 -16 9 -7 15 -8 15 -2 0 5 -7 12 -15 16 -8
3 -15 4 -15 2z"/>
<path d="M2881 3534 c0 -11 3 -14 6 -6 3 7 2 16 -1 19 -3 4 -6 -2 -5 -13z"/>
<path d="M5645 3500 c-9 -16 -13 -30 -11 -30 3 0 12 14 21 30 9 17 13 30 11
30 -3 0 -12 -13 -21 -30z"/>
<path d="M2981 3504 c0 -11 3 -14 6 -6 3 7 2 16 -1 19 -3 4 -6 -2 -5 -13z"/>
<path d="M2982 3430 c0 -14 2 -19 5 -12 2 6 2 18 0 25 -3 6 -5 1 -5 -13z"/>
<path d="M5741 3424 c0 -11 3 -14 6 -6 3 7 2 16 -1 19 -3 4 -6 -2 -5 -13z"/>
<path d="M2921 3414 c0 -11 3 -14 6 -6 3 7 2 16 -1 19 -3 4 -6 -2 -5 -13z"/>
<path d="M5853 3413 c-16 -6 -17 -33 -1 -33 6 0 8 3 5 7 -4 3 -2 12 4 20 12
14 11 14 -8 6z"/>
<path d="M833 3385 c0 -14 3 -25 8 -25 5 0 9 11 9 25 0 14 -4 25 -9 25 -5 0
-8 -11 -8 -25z"/>
<path d="M5875 3400 c-3 -5 1 -10 9 -10 9 0 16 5 16 10 0 6 -4 10 -9 10 -6 0
-13 -4 -16 -10z"/>
<path d="M800 3379 c0 -11 4 -18 10 -14 5 3 7 12 3 20 -7 21 -13 19 -13 -6z"/>
<path d="M5580 3380 c-6 -11 -8 -20 -6 -20 3 0 10 9 16 20 6 11 8 20 6 20 -3
0 -10 -9 -16 -20z"/>
<path d="M5750 3327 l5 -52 3 44 c2 24 0 47 -5 52 -4 4 -6 -15 -3 -44z"/>
<path d="M5847 3325 c3 -27 7 -52 9 -54 8 -9 2 65 -6 84 -6 13 -7 2 -3 -30z"/>
<path d="M5882 3320 c0 -19 2 -27 5 -17 2 9 2 25 0 35 -3 9 -5 1 -5 -18z"/>
<path d="M564 3235 c5 -18 -1 -36 -20 -65 -15 -22 -30 -37 -35 -35 -4 3 -10 1
-13 -4 -3 -5 -33 -7 -66 -5 -55 4 -76 -5 -50 -21 6 -3 10 -15 10 -25 0 -10 6
-21 13 -24 6 -3 2 -4 -9 -3 -15 1 -37 -14 -67 -46 -29 -31 -47 -44 -52 -37 -4
6 -13 9 -21 6 -9 -3 -14 1 -14 13 0 27 -20 39 -62 38 -27 -1 -40 -6 -43 -18
-7 -22 -45 -35 -55 -20 -3 7 -15 9 -25 5 -17 -7 -17 -6 0 20 22 32 10 50 -27
41 l-25 -7 -2 -183 -1 -184 50 -7 c53 -7 84 -33 96 -80 4 -14 11 -21 20 -17 8
3 17 -3 21 -15 5 -10 23 -32 41 -47 45 -38 61 -73 58 -129 -1 -26 1 -49 6 -52
11 -7 10 -62 -2 -66 -10 -3 37 -78 49 -78 3 0 17 16 30 35 13 19 28 35 33 35
5 0 0 -14 -12 -31 -12 -16 -19 -33 -15 -37 4 -4 10 -2 12 5 10 29 95 -39 119
-97 9 -19 24 -53 34 -75 10 -22 22 -51 25 -64 4 -14 16 -38 26 -55 13 -22 15
-34 8 -48 -6 -11 -8 -24 -5 -31 3 -8 5 -6 5 3 1 19 51 44 51 27 0 -7 5 -4 11
6 6 9 14 15 19 12 4 -3 11 13 15 35 4 22 10 42 15 45 14 9 -13 53 -29 47 -9
-3 -12 -1 -7 6 4 7 2 12 -5 12 -8 0 -9 10 -4 33 18 84 25 99 42 93 11 -5 14
-1 10 13 -2 10 -1 24 3 31 10 17 40 5 40 -16 0 -23 37 -68 43 -52 2 7 4 1 3
-14 0 -16 -4 -28 -8 -28 -15 0 -5 -100 12 -120 17 -19 17 -19 45 10 16 17 34
30 41 30 7 0 25 11 40 24 52 47 64 56 74 56 6 0 10 11 10 24 0 36 11 61 20 46
4 -7 13 -9 19 -6 16 10 14 26 -4 26 -8 0 -15 9 -15 20 0 12 -7 20 -16 20 -10
0 -14 -6 -11 -14 4 -10 -4 -15 -28 -18 -30 -3 -32 -2 -24 14 7 14 6 18 -6 18
-8 0 -15 5 -15 11 0 6 -8 8 -17 5 -21 -7 -37 3 -46 27 -3 9 -13 17 -21 17 -7
0 -17 7 -20 16 -8 21 -26 8 -26 -19 0 -20 -1 -20 -22 6 -19 23 -24 25 -37 13
-10 -9 -27 -12 -43 -9 -22 4 -28 12 -33 44 -4 25 -12 39 -22 39 -10 0 -13 -6
-9 -16 5 -14 4 -15 -8 -5 -12 10 -20 7 -43 -19 l-28 -31 -35 35 c-19 20 -40
36 -46 36 -17 0 -36 87 -28 124 6 28 28 55 47 56 4 0 12 -12 17 -26 13 -33 27
-23 35 26 5 30 11 40 26 40 12 0 21 -9 25 -25 10 -39 24 -30 24 15 0 22 3 39
8 39 23 -4 31 5 37 44 4 23 12 48 17 55 6 6 14 27 17 45 5 23 16 36 40 48 18
9 42 27 52 40 19 24 20 24 34 5 15 -19 15 -19 15 1 0 13 8 23 21 26 18 5 19 9
9 27 -6 12 -9 24 -6 28 3 3 6 0 6 -8 0 -10 3 -10 15 0 11 9 13 15 5 20 -9 5
-7 16 5 40 14 28 15 32 2 27 -8 -3 -24 1 -36 9 -11 8 -34 16 -50 17 -16 1 -27
5 -25 8 2 3 -9 12 -24 19 -19 9 -23 14 -12 18 23 8 50 46 38 53 -37 23 -198
-15 -198 -46 0 -11 -39 -39 -46 -32 -3 2 0 16 5 30 7 17 7 28 1 32 -16 10 -12
37 9 59 13 15 17 30 14 54 -3 17 -10 32 -15 32 -6 0 -7 -11 -4 -25z m175 -233
c-12 -18 -14 -19 -36 -5 -25 16 -31 58 -10 66 6 2 22 -6 35 -19 20 -19 21 -25
11 -42z m-74 -21 c3 -6 -4 -15 -15 -21 -22 -12 -23 -10 -14 14 7 18 20 21 29
7z m-35 -51 c0 -5 5 -9 12 -7 6 1 17 -9 24 -23 9 -17 20 -24 34 -22 16 3 20
-2 20 -27 0 -23 -4 -29 -15 -25 -11 5 -13 2 -9 -11 6 -15 4 -15 -29 -2 -19 9
-38 13 -41 10 -12 -12 -28 47 -22 81 6 32 26 52 26 26z m-325 -20 c3 -5 13 -7
23 -4 14 5 15 4 2 -5 -28 -20 -84 -8 -63 13 9 9 31 7 38 -4z m575 -26 c0 -2
-12 -4 -27 -4 -21 0 -24 3 -14 9 13 8 41 5 41 -5z m-494 -71 c-10 -10 -19 5
-10 18 6 11 8 11 12 0 2 -7 1 -15 -2 -18z m2 -13 c7 0 12 -6 11 -12 -3 -17 11
-70 23 -84 5 -7 2 -16 -7 -24 -8 -7 -15 -18 -15 -24 0 -6 5 -4 10 4 7 12 12
12 22 2 12 -12 12 -12 -34 -16 -7 -1 -16 -5 -19 -9 -10 -13 -39 22 -46 54 -3
16 -11 29 -18 29 -7 0 -11 12 -10 33 1 19 6 31 13 30 7 -2 12 4 12 13 0 12 6
15 23 10 12 -3 28 -6 35 -6z m-333 -24 c17 -17 7 -30 -12 -15 -13 12 -18 29
-7 29 3 0 12 -6 19 -14z m243 -136 c19 0 76 -61 64 -69 -15 -9 -7 -119 11
-139 18 -19 12 -65 -9 -83 -12 -9 -14 -4 -14 30 0 22 -4 41 -10 41 -16 0 -32
41 -34 89 -1 37 -4 45 -18 43 -9 -1 -19 6 -23 17 -3 10 -16 22 -28 25 -17 4
-23 13 -24 40 -2 29 1 35 20 38 12 2 29 -5 38 -14 9 -10 21 -18 27 -18z m142
-336 c0 -3 -6 -12 -14 -20 -11 -10 -17 -11 -22 -3 -3 6 0 15 7 20 16 10 29 12
29 3z m448 -105 c-2 -6 -8 -10 -13 -10 -5 0 -11 4 -13 10 -2 6 4 11 13 11 9 0
15 -5 13 -11z"/>
<path d="M680 2850 c0 -5 5 -10 10 -10 6 0 10 5 10 10 0 6 -4 10 -10 10 -5 0
-10 -4 -10 -10z"/>
<path d="M2728 3223 c7 -3 16 -2 19 1 4 3 -2 6 -13 5 -11 0 -14 -3 -6 -6z"/>
<path d="M2818 3223 c12 -2 32 -2 45 0 12 2 2 4 -23 4 -25 0 -35 -2 -22 -4z"/>
<path d="M2774 3179 c-1 -20 2 -26 7 -17 11 16 12 48 2 48 -5 0 -8 -14 -9 -31z"/>
<path d="M2400 3181 c0 -17 15 -19 35 -5 18 13 18 14 -8 14 -15 0 -27 -4 -27
-9z"/>
<path d="M2490 3178 c0 -4 4 -8 9 -8 6 0 12 4 15 8 3 5 -1 9 -9 9 -8 0 -15 -4
-15 -9z"/>
<path d="M740 3171 c0 -5 5 -13 10 -16 6 -3 10 -2 10 4 0 5 -4 13 -10 16 -5 3
-10 2 -10 -4z"/>
<path d="M315 3150 c3 -5 13 -10 21 -10 8 0 14 5 14 10 0 6 -9 10 -21 10 -11
0 -17 -4 -14 -10z"/>
<path d="M220 3089 c0 -5 5 -7 10 -4 6 3 10 8 10 11 0 2 -4 4 -10 4 -5 0 -10
-5 -10 -11z"/>
<path d="M2340 3071 c0 -6 4 -13 10 -16 6 -3 7 1 4 9 -7 18 -14 21 -14 7z"/>
<path d="M1168 3013 c7 -3 16 -2 19 1 4 3 -2 6 -13 5 -11 0 -14 -3 -6 -6z"/>
<path d="M1054 2992 c-9 -14 -9 -24 2 -43 12 -22 13 -22 14 -4 1 19 2 18 10
-2 6 -15 15 -21 25 -17 8 3 15 1 15 -5 0 -9 5 -9 20 -1 10 6 17 17 14 24 -3 8
1 16 10 18 11 2 13 7 6 18 -7 11 -14 12 -27 5 -24 -14 -63 -7 -63 11 0 19 -13
18 -26 -4z"/>
<path d="M6180 3000 c0 -5 4 -10 9 -10 6 0 13 5 16 10 3 6 -1 10 -9 10 -9 0
-16 -4 -16 -10z"/>
<path d="M2400 2960 c6 -11 13 -20 16 -20 2 0 0 9 -6 20 -6 11 -13 20 -16 20
-2 0 0 -9 6 -20z"/>
<path d="M2147 2926 c4 -20 8 -22 18 -13 9 8 10 16 3 25 -17 19 -26 14 -21
-12z"/>
<path d="M2435 2920 c-3 -5 -2 -17 3 -26 8 -14 10 -12 10 9 0 29 -3 33 -13 17z"/>
<path d="M2591 2828 c2 -77 6 -69 11 20 2 28 0 52 -4 52 -5 0 -7 -33 -7 -72z"/>
<path d="M2621 2824 c0 -11 3 -14 6 -6 3 7 2 16 -1 19 -3 4 -6 -2 -5 -13z"/>
<path d="M1625 2810 c3 -5 11 -10 16 -10 6 0 7 5 4 10 -3 6 -11 10 -16 10 -6
0 -7 -4 -4 -10z"/>
<path d="M2034 2788 l-19 -23 23 19 c21 18 27 26 19 26 -2 0 -12 -10 -23 -22z"/>
<path d="M1592 2774 c-7 -8 -8 -14 -3 -14 10 0 25 19 20 25 -2 1 -10 -3 -17
-11z"/>
<path d="M2621 2774 c0 -11 3 -14 6 -6 3 7 2 16 -1 19 -3 4 -6 -2 -5 -13z"/>
<path d="M2592 2705 c0 -16 2 -22 5 -12 2 9 2 23 0 30 -3 6 -5 -1 -5 -18z"/>
<path d="M2159 2493 c-13 -16 -12 -17 4 -4 9 7 17 15 17 17 0 8 -8 3 -21 -13z"/>
<path d="M2130 2450 c-6 -11 -8 -20 -6 -20 3 0 10 9 16 20 6 11 8 20 6 20 -3
0 -10 -9 -16 -20z"/>
<path d="M2079 2373 c-18 -27 -26 -42 -16 -35 16 14 60 82 52 82 -2 0 -19 -21
-36 -47z"/>
<path d="M2023 2316 c3 -7 -3 -29 -14 -47 l-20 -34 30 35 c35 41 37 46 15 54
-11 4 -15 2 -11 -8z"/>
<path d="M2123 2311 c0 -11 5 -18 9 -15 4 3 5 11 1 19 -7 21 -12 19 -10 -4z"/>
<path d="M2416 2297 c3 -10 9 -15 12 -12 3 3 0 11 -7 18 -10 9 -11 8 -5 -6z"/>
<path d="M850 2290 c0 -5 5 -10 10 -10 6 0 10 5 10 10 0 6 -4 10 -10 10 -5 0
-10 -4 -10 -10z"/>
<path d="M880 2275 c0 -8 5 -15 10 -15 6 0 10 7 10 15 0 8 -4 15 -10 15 -5 0
-10 -7 -10 -15z"/>
<path d="M6450 2260 c0 -5 5 -10 10 -10 6 0 10 5 10 10 0 6 -4 10 -10 10 -5 0
-10 -4 -10 -10z"/>
<path d="M1108 2209 c-10 -11 -13 -21 -7 -24 5 -4 7 -11 4 -16 -4 -5 4 -9 16
-9 17 0 19 -3 10 -14 -6 -7 -9 -21 -5 -30 4 -12 2 -15 -9 -11 -8 4 -17 -1 -21
-11 -7 -20 2 -33 12 -18 4 6 15 14 25 17 10 4 17 13 14 20 -2 6 3 18 12 25 11
9 13 15 4 18 -7 3 -9 12 -6 20 3 8 -1 14 -10 14 -8 0 -18 -6 -20 -12 -4 -9 -6
-8 -6 3 -1 8 4 20 10 26 6 6 7 13 2 15 -4 3 -16 -3 -25 -13z"/>
<path d="M1160 2220 c0 -5 5 -10 10 -10 6 0 10 5 10 10 0 6 -4 10 -10 10 -5 0
-10 -4 -10 -10z"/>
<path d="M6449 2183 c-13 -16 -12 -17 4 -4 16 13 21 21 13 21 -2 0 -10 -8 -17
-17z"/>
<path d="M6410 2160 c-9 -6 -10 -10 -3 -10 6 0 15 5 18 10 8 12 4 12 -15 0z"/>
<path d="M7348 2083 c7 -3 16 -2 19 1 4 3 -2 6 -13 5 -11 0 -14 -3 -6 -6z"/>
<path d="M2346 1988 c3 -5 10 -6 15 -3 13 9 11 12 -6 12 -8 0 -12 -4 -9 -9z"/>
<path d="M2145 1894 c-9 -14 -15 -27 -13 -30 2 -2 12 10 22 26 21 37 15 40 -9
4z"/>
<path d="M2100 1835 c-8 -9 -8 -15 -2 -15 12 0 26 19 19 26 -2 2 -10 -2 -17
-11z"/>
<path d="M2065 1784 c-9 -15 -12 -23 -6 -20 11 7 35 46 28 46 -3 0 -12 -12
-22 -26z"/>
<path d="M2028 1731 c-13 -18 -18 -21 -39 -21 -5 0 -7 -4 -4 -10 3 -5 2 -10
-4 -10 -6 0 -8 -7 -5 -15 3 -8 -7 -32 -23 -52 -37 -48 -52 -74 -27 -48 18 18
100 132 118 163 11 19 -1 14 -16 -7z"/>
<path d="M2019 1603 c-13 -16 -12 -17 4 -4 9 7 17 15 17 17 0 8 -8 3 -21 -13z"/>
<path d="M1980 1570 c-9 -6 -10 -10 -3 -10 6 0 15 5 18 10 8 12 4 12 -15 0z"/>
<path d="M1914 1509 c-19 -22 -19 -22 4 -8 12 8 22 17 22 21 0 12 -6 9 -26
-13z"/>
<path d="M1618 1483 c7 -3 16 -2 19 1 4 3 -2 6 -13 5 -11 0 -14 -3 -6 -6z"/>
<path d="M1660 1460 c0 -6 7 -10 15 -10 8 0 15 2 15 4 0 2 -7 6 -15 10 -8 3
-15 1 -15 -4z"/>
<path d="M1628 1443 c7 -3 16 -2 19 1 4 3 -2 6 -13 5 -11 0 -14 -3 -6 -6z"/>
<path d="M1614 1412 c3 -5 0 -13 -6 -15 -9 -4 -10 -6 -1 -6 17 -1 25 16 12 25
-7 4 -9 3 -5 -4z"/>
<path d="M1570 1364 c0 -15 3 -23 8 -18 4 5 10 11 13 14 4 3 1 11 -7 18 -12
11 -14 8 -14 -14z"/>
<path d="M2203 1363 c9 -2 23 -2 30 0 6 3 -1 5 -18 5 -16 0 -22 -2 -12 -5z"/>
<path d="M2258 1363 c6 -2 18 -2 25 0 6 3 1 5 -13 5 -14 0 -19 -2 -12 -5z"/>
<path d="M1585 1335 c-18 -14 -18 -16 -2 -32 9 -10 17 -13 18 -8 0 6 2 20 3
33 2 12 2 22 2 22 -1 0 -10 -7 -21 -15z"/>
<path d="M2602 1250 c0 -14 2 -19 5 -12 2 6 2 18 0 25 -3 6 -5 1 -5 -13z"/>
<path d="M2259 1223 c-13 -17 -13 -17 6 -3 11 8 22 16 24 17 2 2 0 3 -6 3 -6
0 -17 -8 -24 -17z"/>
<path d="M1650 1224 c0 -7 9 -22 21 -35 16 -19 18 -20 10 -4 -17 34 -31 51
-31 39z"/>
<path d="M1711 1164 c0 -11 3 -14 6 -6 3 7 2 16 -1 19 -3 4 -6 -2 -5 -13z"/>
<path d="M2325 1153 c98 -153 99 -154 108 -131 5 14 4 24 -3 26 -5 2 -8 7 -5
12 3 4 -2 10 -10 14 -8 3 -15 0 -15 -6 0 -7 -18 16 -40 50 -22 34 -43 62 -46
62 -4 0 2 -12 11 -27z"/>
<path d="M1638 1143 c11 -18 42 -27 42 -11 0 6 -7 8 -15 4 -9 -3 -15 0 -15 9
0 8 -5 15 -10 15 -7 0 -8 -6 -2 -17z"/>
<path d="M2088 1133 c7 -3 16 -2 19 1 4 3 -2 6 -13 5 -11 0 -14 -3 -6 -6z"/>
<path d="M935 1120 c-3 -5 -1 -10 4 -10 6 0 11 5 11 10 0 6 -2 10 -4 10 -3 0
-8 -4 -11 -10z"/>
<path d="M1090 1094 c0 -2 9 -8 20 -14 11 -6 20 -7 20 -2 0 6 -9 12 -20 15
-11 3 -20 3 -20 1z"/>
<path d="M1440 1050 c-9 -6 -10 -10 -3 -10 6 0 15 5 18 10 8 12 4 12 -15 0z"/>
<path d="M1395 1030 c3 -5 8 -10 11 -10 2 0 4 5 4 10 0 6 -5 10 -11 10 -5 0
-7 -4 -4 -10z"/>
<path d="M1186 1015 c-9 -26 -7 -32 5 -12 6 10 9 21 6 23 -2 3 -7 -2 -11 -11z"/>
<path d="M1430 1020 c0 -5 5 -10 10 -10 6 0 10 5 10 10 0 6 -4 10 -10 10 -5 0
-10 -4 -10 -10z"/>
<path d="M1125 1000 c-3 -5 -1 -10 4 -10 6 0 11 5 11 10 0 6 -2 10 -4 10 -3 0
-8 -4 -11 -10z"/>
<path d="M1208 993 c7 -3 16 -2 19 1 4 3 -2 6 -13 5 -11 0 -14 -3 -6 -6z"/>
<path d="M2625 990 c-3 -5 -1 -10 4 -10 6 0 11 5 11 10 0 6 -2 10 -4 10 -3 0
-8 -4 -11 -10z"/>
<path d="M5916 972 c-3 -5 -1 -14 3 -20 6 -10 10 -10 20 1 9 12 8 16 -3 20 -9
4 -17 3 -20 -1z"/>
<path d="M1995 890 c-3 -5 -2 -10 4 -10 5 0 13 5 16 10 3 6 2 10 -4 10 -5 0
-13 -4 -16 -10z"/>
<path d="M2107 889 c7 -7 15 -10 18 -7 3 3 -2 9 -12 12 -14 6 -15 5 -6 -5z"/>
<path d="M550 881 c0 -6 4 -13 10 -16 6 -3 7 1 4 9 -7 18 -14 21 -14 7z"/>
<path d="M588 883 c7 -3 16 -2 19 1 4 3 -2 6 -13 5 -11 0 -14 -3 -6 -6z"/>
<path d="M410 870 c0 -5 4 -10 9 -10 6 0 13 5 16 10 3 6 -1 10 -9 10 -9 0 -16
-4 -16 -10z"/>
<path d="M514 845 c-10 -8 -14 -15 -8 -15 6 0 17 7 24 15 16 19 9 19 -16 0z"/>
<path d="M1992 818 c-7 -7 -12 -19 -12 -27 0 -19 23 1 26 24 3 18 1 18 -14 3z"/>
<path d="M2743 753 c9 -2 23 -2 30 0 6 3 -1 5 -18 5 -16 0 -22 -2 -12 -5z"/>
<path d="M2873 733 c-16 -3 -23 -12 -23 -27 0 -12 -9 -41 -20 -64 -11 -22 -20
-45 -20 -49 0 -11 58 93 63 115 3 12 5 11 6 -5 0 -13 5 -23 10 -23 4 0 8 13 7
30 -1 16 -1 29 -1 29 0 -1 -10 -4 -22 -6z"/>
<path d="M2701 644 c0 -11 3 -14 6 -6 3 7 2 16 -1 19 -3 4 -6 -2 -5 -13z"/>
<path d="M2917 625 c9 -19 18 -33 20 -32 5 6 -21 67 -29 67 -4 0 0 -16 9 -35z"/>
<path d="M2796 565 c-9 -26 -7 -32 5 -12 6 10 9 21 6 23 -2 3 -7 -2 -11 -11z"/>
<path d="M3141 554 c0 -11 3 -14 6 -6 3 7 2 16 -1 19 -3 4 -6 -2 -5 -13z"/>
<path d="M5195 550 c-3 -5 -2 -10 4 -10 5 0 13 5 16 10 3 6 2 10 -4 10 -5 0
-13 -4 -16 -10z"/>
<path d="M2823 503 c9 -2 25 -2 35 0 9 3 1 5 -18 5 -19 0 -27 -2 -17 -5z"/>
<path d="M4583 483 c15 -2 39 -2 55 0 15 2 2 4 -28 4 -30 0 -43 -2 -27 -4z"/>
<path d="M290 470 c0 -5 7 -10 16 -10 8 0 12 5 9 10 -3 6 -10 10 -16 10 -5 0
-9 -4 -9 -10z"/>
<path d="M235 450 c-3 -5 -1 -10 4 -10 6 0 11 5 11 10 0 6 -2 10 -4 10 -3 0
-8 -4 -11 -10z"/>
<path d="M5655 375 l-30 -14 26 -1 c15 0 29 7 33 15 3 8 4 15 3 14 -1 0 -15
-7 -32 -14z"/>
<path d="M3570 226 c0 -2 7 -7 16 -10 8 -3 12 -2 9 4 -6 10 -25 14 -25 6z"/>
<path d="M3514 195 c-8 -19 2 -45 17 -45 9 0 9 3 0 14 -6 7 -9 21 -5 30 3 9 3
16 0 16 -4 0 -9 -7 -12 -15z"/>
<path d="M5060 190 c0 -5 7 -7 15 -4 8 4 15 8 15 10 0 2 -7 4 -15 4 -8 0 -15
-4 -15 -10z"/>
<path d="M3270 159 c0 -5 5 -7 10 -4 6 3 10 8 10 11 0 2 -4 4 -10 4 -5 0 -10
-5 -10 -11z"/>
<path d="M3464 159 c-3 -6 -1 -16 5 -22 8 -8 11 -5 11 11 0 24 -5 28 -16 11z"/>
<path d="M3461 94 c0 -11 3 -14 6 -6 3 7 2 16 -1 19 -3 4 -6 -2 -5 -13z"/>
<path d="M3370 90 c0 -5 5 -10 10 -10 6 0 10 5 10 10 0 6 -4 10 -10 10 -5 0
-10 -4 -10 -10z"/>
<path d="M3400 78 c0 -9 -8 -19 -17 -21 -14 -4 -13 -5 4 -6 26 -1 40 16 24 32
-8 8 -11 7 -11 -5z"/>
<path d="M3937 56 c-16 -13 -16 -14 5 -19 25 -7 44 5 34 22 -9 14 -17 13 -39
-3z"/>
<path d="M4088 64 c6 -3 12 -12 12 -21 0 -8 6 -13 13 -11 22 8 13 33 -13 35
-14 1 -19 0 -12 -3z"/>
<path d="M4157 63 c-4 -3 -7 -11 -7 -17 0 -6 5 -5 12 2 6 6 9 14 7 17 -3 3 -9
2 -12 -2z"/>
<path d="M4248 63 c7 -3 16 -2 19 1 4 3 -2 6 -13 5 -11 0 -14 -3 -6 -6z"/>
<path d="M3430 45 c0 -9 -6 -12 -15 -9 -9 4 -15 0 -15 -10 0 -22 -13 -20 -28
5 -11 17 -16 19 -25 9 -9 -10 -9 -14 1 -17 6 -3 10 -8 7 -12 -2 -5 9 -8 25 -9
17 0 30 4 30 9 0 5 18 9 41 9 25 0 38 4 34 10 -4 6 -16 8 -28 5 -12 -2 -16 -2
-9 1 17 8 15 24 -3 24 -8 0 -15 -7 -15 -15z"/>
<path d="M3526 43 c-4 -13 -12 -23 -17 -23 -5 0 -9 -4 -9 -10 0 -5 7 -10 15
-10 8 0 15 4 15 10 0 5 8 6 18 3 14 -5 15 -4 6 8 -6 8 -13 21 -16 29 -4 11 -7
9 -12 -7z"/>
<path d="M3740 40 c0 -5 5 -10 10 -10 6 0 10 5 10 10 0 6 -4 10 -10 10 -5 0
-10 -4 -10 -10z"/>
<path d="M5033 37 c3 -10 2 -17 -4 -17 -6 0 -7 -5 -4 -10 9 -15 48 -12 71 5
16 13 17 16 4 25 -8 5 -22 9 -30 9 -10 0 -11 -2 -2 -6 19 -8 14 -33 -8 -33
-12 0 -17 5 -14 14 3 8 0 17 -7 22 -9 5 -10 2 -6 -9z"/>
<path d="M4216 21 c-3 -5 1 -11 9 -15 9 -3 15 0 15 9 0 16 -16 20 -24 6z"/>
<path d="M3688 13 c7 -3 16 -2 19 1 4 3 -2 6 -13 5 -11 0 -14 -3 -6 -6z"/>
<path d="M3720 11 c0 -6 9 -9 19 -8 11 0 17 5 15 9 -7 11 -34 10 -34 -1z"/>
<path d="M3770 16 c0 -2 7 -7 16 -10 8 -3 12 -2 9 4 -6 10 -25 14 -25 6z"/>
<path d="M3870 10 c0 -5 5 -10 11 -10 5 0 7 5 4 10 -3 6 -8 10 -11 10 -2 0 -4
-4 -4 -10z"/>
<path d="M4020 10 c0 -13 11 -13 30 0 12 8 11 10 -7 10 -13 0 -23 -4 -23 -10z"/>
<path d="M3838 3 c7 -3 16 -2 19 1 4 3 -2 6 -13 5 -11 0 -14 -3 -6 -6z"/>
<path d="M4968 3 c6 -2 18 -2 25 0 6 3 1 5 -13 5 -14 0 -19 -2 -12 -5z"/>
</g>
</svg>
