<?xml version="1.0" standalone="no"?>
<!DOCTYPE svg PUBLIC "-//W3C//DTD SVG 20010904//EN"
 "http://www.w3.org/TR/2001/REC-SVG-20010904/DTD/svg10.dtd">
<svg version="1.0" xmlns="http://www.w3.org/2000/svg"
 width="960.000000pt" height="684.000000pt" viewBox="0 0 960.000000 684.000000"
 preserveAspectRatio="xMidYMid meet">
<metadata>
Created by potrace 1.16, written by Peter Selinger 2001-2019
</metadata>
<g transform="translate(0.000000,684.000000) scale(0.100000,-0.100000)"
fill="#000000" stroke="none">
<path d="M1 6778 c1 -62 1 -62 9 -21 5 23 14 51 20 63 9 17 8 20 -10 20 -18 0
-20 -6 -19 -62z"/>
<path d="M9575 6813 c4 -16 11 -44 15 -63 7 -30 8 -26 9 28 1 51 -2 62 -15 62
-13 0 -15 -6 -9 -27z"/>
<path d="M1307 5714 c-4 -4 -7 -149 -7 -321 l0 -314 43 3 42 3 5 155 c3 97 10
163 18 177 28 50 111 68 153 34 23 -19 24 -24 27 -195 l3 -176 44 0 43 0 7
104 c19 275 -21 371 -155 371 -48 0 -129 -30 -132 -49 -1 -6 -4 38 -7 99 l-6
109 -35 4 c-20 1 -39 0 -43 -4z"/>
<path d="M1409 4556 c-20 -7 -52 -27 -70 -44 -19 -18 -37 -32 -41 -32 -3 0 -4
-10 0 -22 3 -13 1 -19 -5 -15 -13 8 -23 -47 -23 -124 0 -181 134 -289 291
-234 94 33 142 119 142 250 -1 78 -23 165 -44 165 -4 0 -19 11 -32 24 -44 44
-145 58 -218 32z m131 -86 c0 -5 7 -10 15 -10 24 0 55 -78 55 -136 0 -64 -15
-111 -48 -146 -21 -23 -34 -28 -75 -28 -40 0 -53 5 -77 28 -51 51 -60 142 -24
230 8 19 20 32 31 32 15 0 16 2 3 10 -13 8 -13 10 0 14 8 3 35 7 60 9 25 2 48
4 53 5 4 1 7 -2 7 -8z"/>
<path d="M5654 4542 c-29 -24 -44 -66 -44 -120 0 -49 -11 -72 -62 -127 -15
-16 -28 -34 -28 -39 0 -5 -6 -14 -14 -20 -8 -6 -31 -42 -50 -81 -45 -86 -55
-103 -81 -130 -31 -32 -55 -72 -55 -91 0 -10 -7 -25 -15 -34 -20 -22 -31 -122
-16 -158 24 -57 177 -98 211 -57 7 8 18 15 24 15 6 0 33 23 61 50 27 28 53 50
58 50 5 0 28 14 52 30 24 17 46 30 48 30 2 0 25 21 51 46 l46 47 63 -5 c78 -7
126 -37 220 -142 38 -42 74 -76 82 -76 7 0 26 -15 42 -33 15 -19 58 -53 95
-77 50 -32 71 -53 78 -76 6 -18 17 -38 25 -44 19 -16 65 -99 65 -117 0 -17 66
-108 104 -143 37 -34 76 -123 81 -185 2 -29 8 -63 14 -76 5 -13 12 -105 15
-203 4 -99 11 -187 15 -195 5 -9 11 -62 14 -118 5 -91 4 -104 -13 -126 -11
-14 -20 -32 -20 -41 0 -9 -26 -41 -57 -72 -31 -31 -62 -66 -68 -77 -6 -12 -19
-24 -30 -26 -11 -2 -33 -13 -50 -25 -16 -11 -40 -27 -54 -33 -28 -16 -206 -17
-336 -3 -59 6 -163 6 -300 -1 -115 -5 -289 -11 -386 -12 -153 -2 -178 -4 -193
-20 -11 -11 -26 -15 -37 -12 -13 4 -19 2 -19 -9 0 -9 0 -19 0 -23 0 -4 17 -8
38 -10 121 -6 174 -14 237 -33 73 -22 114 -23 1080 -19 72 0 536 -2 1033 -6
834 -6 907 -5 957 11 50 15 57 15 89 0 19 -9 52 -16 75 -16 34 0 41 3 41 20 0
12 9 22 24 26 14 3 32 14 42 25 15 16 27 18 103 13 85 -6 87 -6 129 26 38 27
43 35 37 57 -12 51 37 111 73 89 11 -7 22 40 22 92 0 19 -9 49 -19 66 -25 40
-38 149 -46 376 -7 180 -15 229 -41 251 -9 7 -23 30 -31 51 -8 21 -24 45 -35
52 -29 20 -108 163 -124 224 -16 60 -18 118 -5 126 10 6 101 -96 101 -113 0
-6 10 -21 22 -33 25 -25 88 -116 88 -127 0 -15 43 -96 54 -103 7 -4 32 -39 57
-78 52 -84 145 -190 167 -190 8 0 29 -13 46 -30 61 -58 114 -100 125 -100 7 0
25 -7 41 -15 l30 -16 0 74 c0 69 -2 75 -25 85 -14 6 -25 16 -25 21 0 6 -19 32
-43 59 -24 26 -49 62 -56 80 -7 17 -29 40 -47 52 -24 14 -44 38 -63 80 -16 33
-33 66 -39 73 -6 6 -11 17 -12 22 -1 6 -6 19 -10 31 -4 11 -13 59 -18 106 -6
47 -21 112 -32 144 -26 72 -43 138 -59 224 -23 124 -32 150 -72 230 -52 105
-86 141 -157 173 -32 14 -69 38 -82 52 -13 14 -29 25 -35 25 -13 0 -102 37
-176 75 -84 42 -148 54 -286 56 -72 1 -146 -3 -164 -9 -19 -6 -69 -16 -112
-22 -43 -5 -86 -14 -95 -19 -9 -4 -48 -14 -87 -20 -38 -7 -125 -24 -192 -38
-162 -33 -399 -36 -454 -5 -78 44 -152 62 -250 62 -88 0 -101 3 -165 34 -38
18 -92 36 -121 40 -28 4 -68 13 -87 21 -19 8 -53 15 -74 15 -27 0 -44 6 -58
23 -31 35 -59 81 -56 94 5 24 -28 28 -226 28 -178 0 -205 2 -216 17 -6 9 -28
19 -46 22 -19 3 -46 8 -60 10 -14 2 -45 14 -70 25 -57 26 -146 28 -176 3z
m2626 -1191 c0 -5 9 -13 21 -16 22 -7 131 -167 168 -245 12 -25 53 -78 91
-117 39 -40 70 -81 70 -91 0 -10 9 -36 20 -57 12 -22 35 -74 53 -115 32 -74
32 -76 30 -225 -3 -174 -22 -271 -65 -326 -15 -20 -28 -40 -28 -45 0 -16 -77
-74 -106 -80 -17 -3 -46 -19 -63 -34 -38 -35 -107 -48 -168 -31 -24 6 -92 11
-151 11 -79 0 -122 6 -165 20 -47 16 -78 18 -170 15 -110 -4 -300 -18 -404
-31 -31 -4 -58 -2 -65 4 -21 16 -183 33 -308 31 -63 -1 -124 1 -135 3 -33 8
-31 58 6 117 29 48 31 57 25 109 -23 201 -24 256 -4 381 10 68 17 140 13 160
-13 84 31 346 63 372 27 21 198 31 328 18 134 -13 382 -13 474 1 92 14 167 37
199 61 13 11 32 19 42 19 33 0 109 41 130 71 16 24 28 29 60 29 21 0 39 -4 39
-9z m660 -936 c4 -78 1 -107 -10 -100 -5 3 -10 45 -10 93 1 92 16 98 20 7z"/>
<path d="M519 4538 c-11 -12 -35 -13 -124 -7 -110 7 -124 3 -125 -28 0 -24
-140 -28 -148 -4 -2 6 -28 11 -63 11 -56 0 -59 -1 -59 -25 0 -18 5 -25 20 -25
11 0 20 -4 20 -10 0 -6 27 -10 60 -10 33 0 60 -4 60 -10 0 -5 9 -10 20 -10 11
0 20 5 20 10 0 6 9 10 20 10 13 0 20 -7 20 -20 0 -11 7 -20 15 -20 8 0 15 -9
15 -20 0 -13 -5 -18 -15 -14 -8 4 -15 1 -15 -5 0 -6 -7 -11 -15 -11 -18 0 -20
-21 -4 -37 12 -12 59 3 59 19 0 4 9 8 20 8 11 0 20 5 20 10 0 6 25 10 55 10
47 0 55 -3 55 -19 0 -10 7 -22 16 -25 28 -11 54 -6 54 9 0 12 13 15 58 15 46
0 60 4 72 20 12 16 26 20 78 20 70 0 92 13 92 54 0 22 -4 26 -30 26 -27 0 -30
3 -30 30 0 23 -5 30 -19 30 -11 0 -21 5 -23 12 -6 18 -161 24 -179 6z"/>
<path d="M210 4530 c0 -5 7 -10 15 -10 8 0 15 5 15 10 0 6 -7 10 -15 10 -8 0
-15 -4 -15 -10z"/>
<path d="M1290 4504 c0 -8 5 -12 10 -9 6 4 8 11 5 16 -9 14 -15 11 -15 -7z"/>
<path d="M2340 4480 c0 -5 5 -10 10 -10 6 0 10 5 10 10 0 6 -4 10 -10 10 -5 0
-10 -4 -10 -10z"/>
<path d="M1535 3546 c-17 -7 -37 -21 -45 -31 -14 -17 -15 -16 -20 6 -5 20 -13
25 -48 27 l-42 3 2 -233 3 -233 40 0 40 0 5 150 c3 91 10 159 18 172 17 31 52
53 83 53 35 0 51 21 47 62 -2 27 -8 33 -28 35 -14 2 -39 -3 -55 -11z"/>
<path d="M1912 3510 c-50 -30 -68 -100 -26 -100 9 0 29 14 44 30 41 43 120 37
120 -10 0 -24 -9 -30 -64 -35 -93 -10 -140 -43 -140 -100 0 -90 86 -133 173
-87 34 18 35 18 53 0 23 -23 57 -20 72 5 9 14 7 21 -11 35 -20 15 -22 26 -22
115 -1 54 -5 107 -11 117 -26 49 -130 65 -188 30z m138 -185 c0 -37 -42 -75
-83 -75 -36 0 -57 15 -57 41 0 25 21 38 81 48 30 5 55 9 57 10 1 0 2 -10 2
-24z"/>
<path d="M2264 3516 c-51 -23 -76 -68 -82 -149 -6 -83 11 -125 62 -152 32 -18
100 -18 140 0 16 7 17 5 11 -16 -16 -54 -33 -69 -78 -69 -31 0 -45 5 -55 20
-17 28 -72 28 -72 0 0 -29 45 -68 86 -76 54 -10 119 4 143 30 32 34 38 72 40
249 2 140 0 158 -15 164 -9 3 -25 1 -36 -6 -13 -8 -24 -9 -31 -2 -22 17 -81
21 -113 7z m112 -77 c25 -28 29 -97 7 -139 -25 -48 -64 -61 -100 -33 -75 55
-40 208 44 196 18 -3 39 -13 49 -24z"/>
<path d="M2582 3503 c-52 -34 -72 -75 -72 -148 0 -65 16 -102 62 -140 29 -24
38 -27 92 -23 55 4 62 8 93 43 19 22 32 46 31 54 -6 28 -39 24 -69 -8 -21 -23
-37 -31 -62 -31 -36 0 -73 30 -79 65 -3 19 4 20 107 25 l110 5 -2 47 c-2 58
-31 103 -80 123 -51 22 -84 19 -131 -12z m131 -65 c34 -39 23 -48 -58 -48 -77
0 -84 4 -64 41 22 42 88 45 122 7z"/>
<path d="M2871 3266 c-7 -8 -11 -25 -9 -38 2 -18 10 -24 36 -26 33 -3 33 -3
30 35 -2 30 -8 39 -24 41 -11 2 -26 -4 -33 -12z"/>
<path d="M1433 2684 c-8 -4 -13 -27 -13 -64 0 -57 -1 -59 -27 -62 -25 -3 -28
-7 -28 -38 0 -31 3 -35 28 -38 l27 -3 0 -168 c0 -153 2 -171 20 -194 21 -27
74 -41 114 -31 22 5 26 12 26 40 0 28 -4 35 -27 40 -16 4 -31 12 -35 18 -4 6
-8 75 -8 154 l0 142 35 0 c34 0 35 1 35 40 0 39 -1 40 -35 40 l-34 0 -3 63
c-3 61 -3 62 -33 64 -16 1 -36 0 -42 -3z"/>
<path d="M1 63 c-1 -57 1 -63 19 -63 21 0 26 10 11 25 -5 6 -14 30 -19 55
l-10 45 -1 -62z"/>
<path d="M9587 83 c-3 -21 -9 -48 -13 -60 -5 -17 -2 -23 10 -23 13 0 16 11 16
60 0 69 -5 77 -13 23z"/>
</g>
</svg>
