<?xml version="1.0" standalone="no"?>
<!DOCTYPE svg PUBLIC "-//W3C//DTD SVG 20010904//EN"
 "http://www.w3.org/TR/2001/REC-SVG-20010904/DTD/svg10.dtd">
<svg version="1.0" xmlns="http://www.w3.org/2000/svg"
 width="840.000000pt" height="859.000000pt" viewBox="0 0 840.000000 859.000000"
 preserveAspectRatio="xMidYMid meet">
<metadata>
Created by potrace 1.16, written by Peter Selinger 2001-2019
</metadata>
<g transform="translate(0.000000,859.000000) scale(0.100000,-0.100000)"
fill="#000000" stroke="none">
<path d="M3719 6763 l-504 -1508 -1590 -5 -1590 -5 70 -51 c136 -99 1822
-1307 1965 -1409 52 -37 554 -397 558 -400 2 -2 -63 -198 -143 -436 -163 -482
-326 -966 -526 -1559 -73 -217 -181 -539 -240 -715 -59 -176 -106 -321 -105
-322 3 -3 565 401 1766 1268 415 300 776 560 802 578 l47 34 148 -110 c267
-198 1302 -963 1573 -1162 723 -531 862 -632 867 -628 3 3 -223 686 -501 1517
-278 832 -506 1518 -506 1525 0 7 71 64 158 127 261 190 962 697 1442 1043
151 109 307 221 345 250 39 28 194 141 345 251 l275 199 -1579 5 -1579 5 -18
55 c-10 30 -79 244 -154 475 -311 957 -437 1344 -460 1410 -13 39 -96 293
-185 565 -89 272 -166 499 -170 503 -4 5 -234 -670 -511 -1500z m580 235 c59
-180 312 -958 446 -1373 64 -198 137 -423 162 -499 41 -125 44 -142 32 -162
-14 -23 -358 -469 -558 -723 -58 -74 -111 -142 -118 -150 -10 -13 -12 308 -13
1507 0 837 2 1522 4 1522 2 0 22 -55 45 -122z m-826 -2090 c65 -75 667 -841
664 -845 -2 -1 -70 18 -152 43 -83 25 -186 56 -230 69 -44 12 -156 46 -250 75
-93 29 -345 105 -560 170 -214 65 -644 196 -955 290 -311 95 -612 186 -670
204 -88 26 -100 32 -75 36 17 3 514 7 1106 9 l1076 3 46 -54z m3762 -17 c-11
-10 -168 -125 -350 -256 -181 -131 -393 -284 -470 -340 -117 -85 -374 -270
-909 -656 l-79 -57 -91 33 c-50 18 -188 69 -306 113 -118 44 -323 119 -455
167 -132 49 -244 92 -249 96 -9 8 96 42 584 193 594 183 1692 523 2005 621
182 57 332 104 335 104 2 1 -4 -7 -15 -18z m-3198 -1108 c-135 -188 -753
-1043 -1206 -1668 -123 -170 -276 -382 -339 -470 -135 -187 -182 -250 -182
-242 0 4 336 1006 644 1917 l72 214 530 193 c291 106 538 197 549 202 48 23
38 2 -68 -146z m715 -568 c266 -374 626 -878 798 -1120 173 -242 357 -501 410
-575 117 -163 140 -199 120 -184 -8 6 -238 175 -510 374 -272 200 -542 398
-600 441 -58 42 -154 114 -215 158 -60 45 -199 147 -307 227 l-198 146 0 616
c0 343 4 612 9 607 4 -6 226 -316 493 -690z"/>
</g>
</svg>
