<?xml version="1.0" standalone="no"?>
<!DOCTYPE svg PUBLIC "-//W3C//DTD SVG 20010904//EN"
 "http://www.w3.org/TR/2001/REC-SVG-20010904/DTD/svg10.dtd">
<svg version="1.0" xmlns="http://www.w3.org/2000/svg"
 width="750.000000pt" height="525.000000pt" viewBox="0 0 750.000000 525.000000"
 preserveAspectRatio="xMidYMid meet">
<metadata>
Created by potrace 1.16, written by Peter Selinger 2001-2019
</metadata>
<g transform="translate(0.000000,525.000000) scale(0.100000,-0.100000)"
fill="#000000" stroke="none">
<path d="M5355 4799 c-104 -16 -233 -37 -285 -48 -52 -11 -115 -23 -140 -27
-25 -3 -105 -26 -178 -50 -113 -36 -152 -55 -255 -120 -67 -43 -156 -103 -197
-133 -80 -58 -200 -177 -200 -198 0 -7 1 -13 3 -13 1 0 43 38 92 85 50 48 131
115 180 150 99 69 350 199 417 215 24 6 69 17 101 25 66 15 87 12 87 -16 0
-21 -31 -44 -73 -54 -26 -7 -26 -8 -10 -21 26 -18 7 -45 -46 -65 -37 -13 -40
-17 -27 -28 33 -28 10 -50 -69 -67 -68 -14 -69 -14 -46 -31 12 -8 21 -20 21
-27 0 -16 -72 -36 -131 -36 l-41 0 23 -19 c18 -14 21 -23 13 -31 -16 -16 -78
-22 -108 -11 -18 7 -28 6 -36 -5 -7 -7 -20 -14 -30 -14 -13 0 -34 -31 -71
-105 -56 -112 -58 -136 -11 -143 16 -3 23 3 28 25 3 15 7 33 8 38 2 6 12 -11
24 -38 25 -56 49 -70 70 -39 14 21 14 20 46 -21 41 -54 64 -59 73 -17 3 17 12
34 19 37 7 2 40 -8 74 -23 68 -30 85 -24 76 28 l-5 26 77 -5 c64 -5 80 -3 91
11 11 13 11 22 2 42 -6 14 -11 26 -11 28 0 2 24 -1 53 -5 48 -8 152 2 166 17
3 3 -7 17 -23 30 -30 27 -30 42 1 26 28 -15 194 -53 204 -46 35 21 -17 86
-110 135 -39 20 -47 27 -26 22 17 -3 46 -13 65 -21 19 -8 61 -20 93 -27 51
-10 57 -10 55 4 -2 8 -29 29 -61 45 -31 16 -55 31 -53 33 2 2 42 -6 89 -19 70
-18 89 -20 111 -10 14 6 26 16 26 21 0 14 -84 62 -144 82 -61 21 -44 22 104 9
126 -12 230 -4 230 17 0 25 -71 46 -172 51 -124 6 -119 24 6 21 50 -2 132 3
181 10 50 7 102 14 118 16 39 3 42 11 13 30 -45 30 -127 45 -248 45 -196 0
-132 17 90 23 204 7 262 12 262 26 0 11 -77 47 -140 66 -56 17 -226 21 -355 9
-113 -10 -34 13 120 36 231 33 271 47 209 70 -45 17 -224 8 -419 -21z"/>
<path d="M1480 4709 c-142 -16 -180 -50 -120 -108 43 -41 94 -57 228 -71 162
-18 197 -30 62 -22 -261 16 -399 2 -502 -50 -40 -20 -44 -28 -28 -58 14 -27
44 -41 115 -56 80 -18 160 -17 365 2 165 15 279 15 155 1 -108 -13 -563 -97
-590 -109 -53 -24 -22 -87 56 -113 72 -24 158 -22 280 8 57 14 133 28 169 31
l65 5 -60 -20 c-33 -10 -95 -28 -138 -40 -43 -11 -123 -38 -178 -61 -113 -47
-119 -57 -65 -116 l35 -37 133 1 c128 0 137 2 254 41 126 42 184 58 184 50 0
-3 -30 -15 -67 -28 -127 -41 -363 -194 -363 -235 0 -43 123 -43 252 1 43 15
125 56 184 92 120 72 224 127 230 120 3 -2 -35 -29 -83 -60 -98 -62 -208 -157
-218 -188 -4 -11 -1 -27 6 -36 19 -22 122 -12 191 19 63 29 230 139 305 200
55 46 130 93 103 65 -8 -8 -55 -47 -105 -87 -120 -95 -195 -168 -195 -189 1
-29 26 -51 59 -51 42 0 122 20 116 29 -2 4 11 14 30 21 19 8 35 17 35 22 0 4
6 8 13 8 8 0 53 34 101 75 96 82 122 97 61 35 -32 -33 -36 -41 -25 -55 7 -9
28 -15 52 -15 36 0 39 -2 36 -27 -3 -25 1 -28 29 -31 28 -3 32 -7 35 -35 3
-28 8 -33 40 -41 29 -7 38 -15 40 -35 2 -20 9 -27 31 -29 27 -3 28 -6 23 -35
-7 -39 1 -52 36 -60 24 -6 26 -10 21 -47 l-6 -40 47 0 c25 0 46 -2 46 -4 0 -3
-11 -17 -25 -32 -14 -15 -25 -35 -25 -45 0 -15 8 -19 40 -19 44 0 46 -3 25
-40 -23 -40 -19 -69 10 -76 14 -3 35 -4 46 -1 22 6 25 13 -27 -68 -23 -35 -11
-59 25 -52 l28 6 -13 -37 c-26 -74 -6 -102 46 -63 16 11 32 21 35 21 11 0 111
87 156 135 25 28 65 79 89 115 24 36 56 80 72 99 16 18 34 45 40 60 28 69 49
221 31 221 -5 0 -28 -29 -53 -63 -87 -120 -150 -176 -150 -132 0 8 18 42 40
76 35 55 55 100 32 74 -8 -10 -83 -106 -89 -114 -7 -10 -14 10 -22 57 -7 47
-6 54 16 73 27 26 32 50 5 26 -10 -10 -28 -17 -40 -17 -30 0 -30 49 -1 76 12
10 28 32 36 49 13 26 9 24 -35 -19 l-50 -48 -17 52 -17 52 28 29 c37 38 24 49
-18 14 l-33 -28 -3 32 c-3 25 4 40 32 72 51 56 44 71 -9 19 -24 -24 -46 -42
-48 -39 -12 12 -27 50 -27 64 0 9 16 31 35 49 46 44 46 67 0 27 -46 -40 -65
-40 -65 -1 0 22 10 39 40 66 52 47 44 56 -12 15 -64 -47 -76 -42 -62 27 4 22
14 32 33 37 58 16 -5 16 -90 0 -50 -9 -93 -14 -95 -12 -12 12 13 38 49 51 56
19 25 20 -103 1 -107 -16 -160 -13 -160 10 0 8 20 15 56 20 31 4 72 13 92 21
36 14 35 14 -28 6 -80 -9 -219 -8 -244 1 -33 13 0 35 63 42 99 11 87 22 -26
21 -87 -1 -117 3 -151 18 -23 10 -42 23 -42 27 0 11 60 27 135 35 l60 7 -107
13 c-58 7 -116 18 -128 24 -30 16 -24 62 10 71 39 11 119 10 141 -2 11 -5 27
-9 36 -7 9 2 -12 17 -48 36 -73 37 -159 98 -159 112 0 15 18 13 147 -19 146
-36 287 -58 418 -65 243 -14 317 -55 444 -251 172 -267 293 -392 464 -484 78
-42 105 -27 147 79 29 74 86 143 111 135 32 -11 11 22 -22 34 -16 5 -29 17
-29 25 0 9 -9 16 -21 16 -11 0 -37 11 -57 25 -37 25 -72 33 -72 16 0 -8 93
-71 106 -71 2 0 16 -7 29 -16 l25 -16 -30 -34 c-16 -19 -45 -68 -64 -109 -26
-57 -40 -75 -55 -75 -11 0 -22 4 -25 9 -3 4 -20 11 -37 15 -44 8 -169 106
-245 191 -83 92 -125 148 -186 248 -77 124 -137 194 -200 233 -63 39 -94 44
-378 64 -128 10 -194 20 -295 47 -71 18 -155 38 -185 43 -30 4 -100 16 -155
25 -309 49 -545 68 -675 54z"/>
<path d="M4673 4531 c-113 -52 -192 -119 -285 -244 -68 -91 -109 -173 -136
-272 l-18 -66 -22 26 c-13 14 -22 39 -22 58 -1 46 -26 157 -39 170 -16 16 -24
-16 -18 -66 5 -36 5 -39 -5 -17 -49 112 -96 196 -130 235 -22 25 -44 45 -49
45 -5 0 -9 -16 -9 -35 0 -26 16 -62 57 -128 111 -182 126 -208 119 -214 -4 -4
-25 12 -48 34 -32 33 -39 45 -30 55 6 8 7 19 3 26 -6 10 -11 10 -21 -3 -11
-13 -16 -11 -47 16 -40 35 -80 52 -101 44 -20 -7 -2 -27 68 -75 30 -21 72 -55
94 -75 21 -20 52 -39 70 -42 17 -4 37 -14 44 -24 7 -10 21 -16 32 -14 16 3 26
-7 44 -43 13 -26 26 -67 29 -91 5 -39 3 -46 -24 -68 -16 -14 -29 -32 -29 -41
0 -10 -5 -34 -11 -55 -10 -37 -11 -38 -29 -22 -10 9 -35 48 -55 86 -34 66 -48
76 -87 70 -13 -2 -9 28 8 60 8 17 13 33 10 36 -9 10 -46 -62 -46 -90 0 -18 -4
-26 -11 -21 -9 5 -10 -7 -4 -42 9 -59 18 -79 60 -124 48 -53 75 -106 75 -151
0 -43 5 -47 32 -22 17 15 18 15 18 -6 0 -12 -9 -31 -20 -43 -11 -12 -20 -36
-20 -53 0 -17 -7 -40 -15 -51 -14 -18 -15 -16 -9 20 8 46 -11 43 -21 -4 -6
-28 -25 -43 -25 -20 0 20 -15 9 -38 -25 -21 -34 -21 -35 -3 -35 11 0 23 5 26
10 3 6 17 7 29 4 18 -4 28 1 40 17 16 23 16 22 16 -28 0 -70 -18 -149 -37
-165 -14 -11 -14 -8 1 20 9 18 15 41 13 50 -4 14 -6 13 -12 -5 -4 -13 -11 -21
-15 -18 -4 2 -26 -18 -50 -46 -28 -33 -63 -60 -103 -80 -78 -37 -99 -37 -27 1
67 35 118 76 108 86 -5 4 -16 0 -25 -8 -20 -17 -126 -78 -136 -78 -4 0 -4 7
-1 15 7 18 4 18 -30 5 -22 -8 -26 -7 -26 9 0 29 -12 32 -37 9 l-23 -21 0 31
c0 32 -14 43 -23 20 -3 -7 -6 -5 -6 6 -1 18 -3 17 -21 -4 -18 -21 -20 -21 -20
-4 -1 13 -7 7 -21 -18 -23 -44 -27 -46 -38 -16 -8 22 -9 22 -25 -10 -20 -39
-30 -40 -44 -4 -27 71 -25 69 -31 32 -7 -39 -12 -34 -31 25 -11 33 -14 37 -20
20 -14 -37 -22 9 -12 66 6 30 9 55 8 56 -10 10 -47 -14 -52 -34 -8 -29 3 -44
16 -23 7 10 10 -3 10 -43 0 -61 12 -97 33 -97 7 0 20 -11 29 -24 16 -22 15
-27 -19 -117 -32 -84 -60 -219 -34 -164 8 17 10 13 11 -20 1 -38 2 -39 12 -15
l11 25 5 -25 c6 -39 22 -49 23 -14 1 25 3 22 16 -20 8 -27 20 -55 27 -62 6 -7
25 -31 41 -54 28 -39 85 -89 85 -75 0 3 -5 16 -11 28 -6 12 17 -7 50 -43 45
-48 60 -60 61 -46 0 17 2 18 13 5 12 -15 82 -59 94 -59 3 0 -1 8 -9 18 -33 38
-28 42 20 15 61 -34 75 -26 34 19 -17 18 -30 34 -28 35 2 2 23 -6 47 -16 38
-17 44 -18 47 -5 2 8 19 42 38 75 18 33 35 72 36 87 l3 27 -87 3 c-72 2 -88 6
-92 20 -5 16 -45 228 -60 315 -6 31 -4 37 11 37 12 0 14 -3 7 -10 -10 -10 22
-193 53 -308 l8 -34 37 54 c53 78 92 162 122 263 15 50 34 95 42 101 26 21 46
89 51 174 3 54 12 100 24 126 13 27 19 62 19 109 0 107 50 257 90 270 11 3 20
11 20 16 0 6 -9 8 -19 4 -18 -5 -19 -3 -10 27 12 44 12 105 -2 129 -14 28 14
154 57 248 65 141 191 279 342 374 34 22 62 41 62 43 0 6 -1 5 -47 -15z m-611
-768 c8 -10 21 -34 28 -52 17 -43 67 -101 87 -101 12 0 14 -8 8 -37 -13 -70
-55 -129 -55 -77 0 31 -29 82 -82 143 -21 24 -38 48 -38 52 0 16 25 9 43 -11
10 -12 22 -18 26 -15 10 5 -15 65 -27 65 -4 0 -16 7 -27 16 -17 13 -18 16 -5
24 21 13 25 13 42 -7z m174 -39 c-4 -9 -9 -15 -11 -12 -3 3 -3 13 1 22 4 9 9
15 11 12 3 -3 3 -13 -1 -22z"/>
<path d="M4120 3583 c0 -14 19 -38 25 -32 8 8 -5 39 -16 39 -5 0 -9 -3 -9 -7z"/>
<path d="M3785 4030 c-7 -12 15 -26 73 -45 62 -20 62 -23 13 -127 -41 -86 -15
-66 33 26 23 43 51 83 63 90 22 11 22 12 4 23 -10 6 -27 10 -37 7 -11 -3 -47
4 -82 14 -34 11 -64 16 -67 12z"/>
<path d="M3640 3530 c-8 -5 -11 -12 -7 -16 4 -4 13 -2 19 4 15 15 7 24 -12 12z"/>
<path d="M3576 3505 c-16 -12 -17 -15 -4 -15 8 0 21 7 28 15 16 19 1 19 -24 0z"/>
<path d="M3821 3303 c-2 -22 11 -42 25 -36 8 3 14 10 14 15 0 6 -6 8 -14 5 -9
-4 -17 1 -19 11 -3 9 -5 12 -6 5z"/>
<path d="M3915 3276 c-33 -17 -36 -21 -20 -24 11 -3 23 -9 27 -15 8 -13 60 8
84 34 25 27 8 37 -19 11 -29 -28 -46 -29 -22 -2 24 26 4 25 -50 -4z"/>
<path d="M3288 3063 c-69 -88 -86 -133 -50 -133 10 0 23 5 30 12 9 9 12 5 12
-20 0 -41 30 -44 59 -4 32 42 25 14 -22 -89 -54 -120 -110 -219 -136 -243 -21
-19 -21 -19 -21 12 0 19 18 61 45 108 25 42 44 81 42 87 -4 12 -82 -109 -152
-235 -54 -97 -86 -134 -109 -125 -17 7 -22 56 -8 73 5 5 19 27 31 49 l23 40
-49 -51 c-58 -62 -137 -119 -152 -110 -6 4 -11 26 -11 50 0 36 6 47 41 81 22
22 45 49 51 60 6 11 -23 -12 -64 -52 -77 -74 -117 -95 -143 -73 -31 25 -16 54
70 140 46 46 82 86 80 88 -2 3 -36 -23 -74 -57 -56 -50 -76 -62 -98 -59 -31 3
-38 22 -29 73 5 25 20 42 67 75 69 48 73 65 6 26 -52 -31 -67 -32 -67 -8 0 32
111 121 237 190 86 48 96 74 12 31 -94 -47 -176 -105 -251 -177 -84 -81 -125
-139 -110 -154 8 -8 18 -6 37 6 37 24 43 13 12 -23 -29 -35 -62 -125 -52 -142
7 -11 45 -8 77 6 17 7 17 5 3 -21 -17 -32 -20 -130 -5 -139 15 -9 48 12 109
69 32 30 51 43 47 31 -5 -11 -10 -48 -13 -82 -5 -60 -5 -63 16 -63 12 0 44 21
71 46 42 39 50 43 50 26 0 -91 72 -59 159 71 26 38 36 46 46 37 10 -8 19 -8
33 -1 38 20 178 262 213 366 7 22 20 51 29 65 31 49 41 80 30 100 -5 10 -10
32 -10 49 0 16 -7 36 -15 45 -8 8 -15 19 -15 25 0 23 -17 7 -82 -76z"/>
<path d="M4650 2955 c-25 -14 -21 -19 13 -16 9 1 17 -3 17 -9 0 -6 19 -29 42
-51 33 -31 42 -47 40 -67 -3 -28 49 -122 68 -122 23 0 8 -27 -22 -40 -18 -7
-36 -15 -39 -17 -3 -2 -9 18 -13 44 -3 26 -18 81 -33 122 -24 67 -28 72 -40
55 -10 -14 -14 -46 -13 -114 3 -128 5 -121 -27 -114 -16 4 -29 7 -30 8 -1 1 7
26 17 56 15 45 26 152 21 208 -1 15 -99 -32 -175 -85 -93 -66 -330 -251 -391
-306 -79 -72 -64 -86 17 -15 167 145 495 388 524 388 9 0 12 -9 9 -27 -2 -16
-7 -54 -10 -85 -3 -31 -10 -69 -17 -85 -10 -26 -12 -142 -2 -153 6 -6 46 38
79 88 24 37 26 46 16 65 -7 13 -11 47 -9 77 l3 55 23 -64 c12 -36 22 -80 22
-98 0 -19 5 -34 13 -35 6 0 19 -2 27 -2 16 -1 19 -35 6 -73 -4 -14 -3 -23 3
-23 16 0 50 64 63 119 11 47 10 54 -5 62 -15 9 -67 87 -67 101 0 4 23 -1 50
-10 41 -13 50 -20 50 -38 0 -13 7 -27 16 -32 13 -7 16 -19 11 -51 -3 -22 -2
-41 3 -41 18 0 32 32 41 95 10 63 10 68 -12 91 -17 18 -33 24 -65 24 -24 0
-54 4 -68 10 -37 14 -106 80 -106 101 0 22 -16 24 -50 4z m275 -157 l28 -33
-24 -5 c-14 -4 -25 -1 -27 6 -2 6 -19 20 -38 30 -33 18 -34 19 -12 26 40 11
46 9 73 -24z m-95 -167 c0 -6 -4 -13 -10 -16 -5 -3 -10 1 -10 9 0 9 5 16 10
16 6 0 10 -4 10 -9z m-186 -36 c-4 -8 -8 -15 -10 -15 -2 0 -4 7 -4 15 0 8 4
15 10 15 5 0 7 -7 4 -15z"/>
<path d="M4549 2907 c-30 -18 -108 -70 -174 -116 -66 -45 -164 -113 -217 -149
-90 -62 -112 -82 -89 -82 9 0 -4 -9 306 204 127 87 234 162 240 167 21 20 -14
7 -66 -24z"/>
<path d="M3730 2333 c0 -31 85 -402 94 -411 20 -19 14 28 -22 180 -22 95 -44
190 -48 211 -8 45 -24 59 -24 20z"/>
<path d="M3813 2247 c6 -67 41 -273 53 -306 3 -9 8 -11 13 -5 5 5 1 49 -10 99
-10 50 -24 134 -30 188 -14 114 -35 134 -26 24z"/>
<path d="M4730 2034 c-25 -20 -56 -46 -70 -58 -14 -12 -44 -28 -68 -35 -49
-14 -115 -69 -139 -115 -26 -49 -20 -147 11 -201 14 -24 26 -52 26 -63 0 -25
-48 -67 -95 -82 -31 -10 -34 -14 -29 -38 10 -43 23 -49 30 -14 7 36 10 38 30
17 13 -12 12 -16 -8 -26 -14 -8 -18 -14 -10 -17 7 -2 32 8 57 23 33 19 45 32
45 49 0 13 14 41 31 62 l31 39 -36 15 c-30 13 -36 20 -36 46 0 20 -9 39 -25
54 -31 29 -32 47 -1 71 16 13 22 26 19 39 -4 15 0 20 13 21 14 1 13 3 -6 9
-24 8 -24 8 -3 9 16 1 21 6 17 16 -5 11 1 15 19 15 17 0 33 10 47 30 14 19 30
30 45 30 14 0 29 9 35 20 11 21 40 28 40 10 0 -15 26 -12 40 5 9 11 10 19 1
28 -8 10 -4 19 20 36 17 13 33 20 36 17 7 -7 -37 -78 -59 -94 -10 -7 -25 -26
-33 -42 -14 -27 -13 -29 13 -50 l27 -21 -25 5 c-14 3 -35 6 -48 6 -21 0 -22 3
-16 35 7 37 -1 45 -20 21 -6 -8 -31 -25 -56 -38 -48 -26 -50 -29 -58 -101 -3
-28 -11 -51 -18 -54 -8 -3 -14 -9 -14 -14 0 -4 7 -6 16 -2 16 6 49 -31 49 -57
1 -8 6 -14 12 -13 13 3 33 -49 33 -87 0 -44 -19 -85 -48 -106 -34 -25 -85 -46
-103 -43 -8 1 -31 -5 -51 -14 -46 -21 -68 -23 -50 -5 18 18 14 73 -7 92 -14
13 -24 14 -45 6 -15 -5 -38 -10 -52 -10 -24 0 -23 3 28 76 51 73 53 79 52 138
-1 80 -29 135 -91 177 -68 47 -112 59 -237 66 -89 5 -123 2 -171 -12 -104 -30
-224 -116 -261 -188 -38 -72 -22 -203 31 -259 35 -38 102 -81 156 -102 54 -19
234 -34 209 -17 -8 6 -28 11 -45 11 -62 0 -195 40 -244 72 -62 41 -88 80 -101
148 -19 101 31 191 143 261 34 21 47 25 47 14 0 -19 6 -22 78 -30 57 -6 62 -6
62 13 0 33 38 72 71 72 17 0 29 -5 29 -13 0 -7 14 -23 30 -36 17 -12 28 -26
25 -31 -12 -19 33 -15 82 8 48 21 54 22 81 8 24 -12 28 -20 24 -44 -3 -25 1
-33 27 -48 33 -20 40 -34 16 -34 -8 0 -15 -4 -15 -10 0 -5 9 -10 20 -10 21 0
29 -33 10 -45 -5 -3 -10 -16 -10 -28 0 -42 -73 -137 -105 -137 -22 0 -85 30
-85 40 0 6 16 10 35 10 19 0 35 4 35 9 0 5 10 7 23 4 19 -4 20 -3 5 6 -14 10
-15 17 -6 44 6 17 14 37 18 42 5 6 0 30 -9 54 -13 36 -25 49 -61 68 -96 49
-224 40 -320 -23 -55 -36 -70 -36 -70 0 0 13 -8 33 -17 45 -17 19 -20 20 -49
5 -74 -37 -90 -81 -45 -132 l19 -23 36 22 c20 12 39 20 41 17 2 -2 2 -21 -2
-42 -4 -26 -9 -34 -16 -27 -17 17 -24 13 -36 -20 -18 -52 -14 -69 15 -69 14 0
34 -5 45 -10 12 -7 19 -7 19 -1 0 6 7 8 15 5 10 -4 15 -20 15 -45 0 -38 1 -39
34 -39 29 0 33 3 29 19 -3 10 0 22 6 25 17 11 13 26 -6 27 -12 1 -10 3 6 8 32
9 39 30 9 29 -69 -4 -96 2 -113 28 -16 25 -16 29 1 73 19 49 76 115 95 109 6
-2 25 -44 41 -93 31 -96 30 -127 -4 -170 l-20 -26 25 -33 c30 -38 73 -61 136
-71 l43 -7 -4 36 c-5 44 8 48 17 6 5 -24 12 -30 33 -30 15 0 38 -12 54 -27 27
-26 28 -26 28 -5 0 11 5 24 10 27 6 3 11 18 11 33 1 17 3 21 6 10 3 -12 14
-18 34 -18 23 0 29 -4 29 -21 0 -17 4 -20 24 -15 14 3 65 15 115 27 50 11 105
31 123 43 82 54 92 184 20 259 -23 24 -27 37 -27 87 0 47 4 63 23 83 31 33 60
40 72 17 5 -10 26 -21 47 -25 21 -4 52 -16 70 -26 l32 -20 11 21 c6 12 9 28 6
35 -7 20 58 31 90 16 35 -16 49 -14 34 4 -9 10 -9 15 -1 15 6 0 11 5 11 11 0
7 -11 8 -29 4 -40 -9 -177 -9 -191 0 -18 11 28 53 69 65 25 7 37 6 42 -2 5 -8
11 -3 18 15 11 28 6 57 -10 57 -5 0 -14 11 -19 25 -13 34 -36 31 -90 -11z m93
-30 c3 -4 -1 -13 -9 -21 -18 -18 -27 -13 -18 11 6 17 16 20 27 10z m-704 -260
c42 -17 61 -47 61 -98 0 -38 -40 -82 -87 -95 -27 -8 -35 -5 -57 18 -25 26 -86
160 -86 189 0 12 11 14 66 8 36 -4 82 -14 103 -22z m-163 -61 c21 -43 37 -83
36 -89 -3 -14 92 -104 110 -104 7 -1 2 -7 -12 -14 -21 -12 -27 -12 -49 5 -30
24 -51 24 -51 0 0 -15 -7 -19 -32 -17 -26 1 -33 -3 -38 -24 -5 -20 -7 -22 -12
-8 -4 9 -1 22 7 28 26 21 26 74 0 171 -29 108 -31 129 -11 129 8 0 31 -35 52
-77z m-279 5 c-3 -8 -6 -5 -6 6 -1 11 2 17 5 13 3 -3 4 -12 1 -19z m590 -243
c34 0 65 -3 69 -7 4 -5 -4 -8 -18 -8 -17 0 -27 -7 -31 -20 -7 -26 -33 -26 -47
1 -7 11 -18 18 -25 15 -7 -2 -21 5 -32 16 -18 21 -18 21 2 12 11 -5 48 -9 82
-9z m-303 -1 c22 -8 20 -21 -4 -27 -15 -4 -20 0 -20 14 0 21 1 22 24 13z m167
-14 c-2 -8 -3 -23 -3 -32 1 -27 -16 -21 -33 12 -20 39 -19 42 13 38 18 -2 26
-8 23 -18z"/>
<path d="M3961 1876 c-9 -10 -9 -16 -1 -21 6 -4 9 -13 6 -21 -6 -16 10 -19 20
-3 3 6 2 15 -4 21 -6 6 -8 17 -5 24 7 18 -1 18 -16 0z"/>
<path d="M3926 1834 c-9 -22 3 -32 14 -14 12 19 12 30 1 30 -5 0 -12 -7 -15
-16z"/>
<path d="M4010 1824 c0 -8 5 -12 10 -9 6 3 10 10 10 16 0 5 -4 9 -10 9 -5 0
-10 -7 -10 -16z"/>
<path d="M4180 1820 c0 -5 5 -10 10 -10 6 0 10 5 10 10 0 6 -4 10 -10 10 -5 0
-10 -4 -10 -10z"/>
<path d="M3785 1790 c-3 -5 -1 -10 4 -10 6 0 11 5 11 10 0 6 -2 10 -4 10 -3 0
-8 -4 -11 -10z"/>
<path d="M3840 1780 c0 -5 4 -10 9 -10 6 0 13 5 16 10 3 6 -1 10 -9 10 -9 0
-16 -4 -16 -10z"/>
<path d="M4185 1780 c3 -5 13 -10 21 -10 8 0 14 5 14 10 0 6 -9 10 -21 10 -11
0 -17 -4 -14 -10z"/>
<path d="M2922 1740 c-104 -53 -148 -135 -123 -230 16 -58 51 -94 130 -132 80
-38 171 -48 233 -25 24 8 60 18 81 21 50 7 69 23 61 50 -6 18 -5 19 10 7 14
-11 16 -11 16 2 0 18 -42 35 -48 19 -2 -8 -11 -8 -29 -1 -19 7 -35 6 -58 -5
-97 -46 -187 -40 -250 15 -30 26 -35 38 -35 73 0 50 35 91 93 107 53 14 104
-3 194 -66 160 -111 231 -143 367 -160 38 -5 47 -4 44 7 -3 8 -29 15 -74 19
-87 7 -165 43 -303 137 -114 78 -162 97 -223 87 -49 -9 -114 -64 -123 -106 -8
-36 9 -90 36 -115 13 -12 16 -20 8 -25 -8 -4 -4 -11 11 -19 18 -10 24 -9 31 1
6 11 13 9 30 -10 l22 -24 -39 7 c-58 11 -103 42 -97 66 4 16 -1 21 -26 26 -25
5 -30 10 -25 26 3 10 -2 30 -11 44 -9 14 -15 27 -13 28 2 1 16 7 31 14 26 11
28 16 25 60 l-3 47 36 3 c27 2 39 9 47 28 14 30 34 30 72 3 l28 -22 37 23 c20
12 37 21 39 19 2 -2 9 -15 16 -28 10 -19 10 -25 -1 -32 -15 -9 27 -6 73 6 23
6 29 3 37 -16 5 -16 5 -26 -2 -31 -19 -11 -1 -20 55 -27 49 -6 54 -8 62 -38 9
-30 13 -32 55 -31 38 0 48 -4 70 -31 41 -49 73 -38 46 17 -12 22 -24 31 -53
36 -36 5 -127 61 -175 107 -12 12 -56 38 -97 58 -62 29 -88 36 -150 39 -68 3
-81 0 -138 -28z m337 -341 c-16 -10 -23 -4 -14 10 3 6 11 8 17 5 6 -4 5 -9 -3
-15z m-64 1 c3 -5 2 -10 -4 -10 -5 0 -13 5 -16 10 -3 6 -2 10 4 10 5 0 13 -4
16 -10z m-149 -37 c-10 -10 -19 5 -10 18 6 11 8 11 12 0 2 -7 1 -15 -2 -18z
m44 12 c0 -8 -6 -15 -13 -15 -8 0 -14 7 -14 15 0 8 6 15 14 15 7 0 13 -7 13
-15z m48 3 c-7 -19 -38 -22 -38 -4 0 10 9 16 21 16 12 0 19 -5 17 -12z"/>
<path d="M3765 1760 c-3 -5 -1 -10 4 -10 6 0 11 5 11 10 0 6 -2 10 -4 10 -3 0
-8 -4 -11 -10z"/>
<path d="M3800 1759 c0 -5 5 -7 10 -4 6 3 10 8 10 11 0 2 -4 4 -10 4 -5 0 -10
-5 -10 -11z"/>
<path d="M2900 1661 c0 -5 7 -11 14 -14 10 -4 13 -1 9 9 -6 15 -23 19 -23 5z"/>
<path d="M3195 1640 c3 -5 8 -10 11 -10 2 0 4 5 4 10 0 6 -5 10 -11 10 -5 0
-7 -4 -4 -10z"/>
<path d="M3606 1612 c-3 -6 1 -13 10 -16 23 -9 28 -2 10 13 -8 7 -17 8 -20 3z"/>
<path d="M3650 1600 c0 -5 7 -10 16 -10 8 0 12 5 9 10 -3 6 -10 10 -16 10 -5
0 -9 -4 -9 -10z"/>
<path d="M3290 1580 c0 -5 5 -10 10 -10 6 0 10 5 10 10 0 6 -4 10 -10 10 -5 0
-10 -4 -10 -10z"/>
<path d="M4210 1580 c0 -5 5 -10 11 -10 5 0 7 5 4 10 -3 6 -8 10 -11 10 -2 0
-4 -4 -4 -10z"/>
<path d="M3328 1573 c7 -3 16 -2 19 1 4 3 -2 6 -13 5 -11 0 -14 -3 -6 -6z"/>
<path d="M3586 1571 c-3 -5 1 -11 9 -15 15 -6 29 7 18 18 -9 9 -21 8 -27 -3z"/>
<path d="M3635 1560 c-3 -5 1 -10 9 -10 9 0 16 5 16 10 0 6 -4 10 -9 10 -6 0
-13 -4 -16 -10z"/>
<path d="M3064 1509 c14 -17 26 -36 27 -42 0 -7 4 -1 10 11 6 16 5 30 -1 40
-9 14 -10 12 -5 -8 l7 -25 -26 28 c-36 37 -44 34 -12 -4z"/>
<path d="M2714 1510 c1 -14 7 -34 14 -45 l11 -20 0 20 c0 11 -6 31 -14 45
l-14 25 3 -25z"/>
<path d="M3440 1520 c0 -5 7 -10 16 -10 8 0 12 5 9 10 -3 6 -10 10 -16 10 -5
0 -9 -4 -9 -10z"/>
<path d="M3410 1510 c0 -5 5 -10 10 -10 6 0 10 5 10 10 0 6 -4 10 -10 10 -5 0
-10 -4 -10 -10z"/>
<path d="M4158 1513 c7 -3 16 -2 19 1 4 3 -2 6 -13 5 -11 0 -14 -3 -6 -6z"/>
<path d="M2640 1499 c-19 -3 -27 -7 -17 -8 10 0 15 -5 12 -11 -3 -5 -1 -10 4
-10 6 0 11 -4 11 -10 0 -5 -14 -7 -32 -3 -40 7 -30 -6 16 -22 31 -11 35 -10
39 6 3 11 1 22 -4 25 -12 7 -11 24 1 24 6 0 13 -13 16 -30 8 -37 25 -29 22 10
-1 16 -6 26 -11 23 -5 -3 -12 -2 -16 3 -3 5 -22 7 -41 3z"/>
<path d="M3455 1489 c7 -11 35 -12 35 -1 0 4 -9 8 -20 9 -11 1 -18 -2 -15 -8z"/>
<path d="M3662 1483 c-6 -2 -10 -9 -7 -13 7 -11 35 -2 35 11 0 10 -8 10 -28 2z"/>
<path d="M4665 1449 c-9 -17 -14 -33 -11 -36 8 -9 36 5 36 18 0 8 -5 7 -17 -2
-15 -13 -15 -11 1 19 9 17 14 32 12 32 -3 0 -13 -14 -21 -31z"/>
<path d="M3750 1460 c0 -5 7 -7 15 -4 8 4 15 8 15 10 0 2 -7 4 -15 4 -8 0 -15
-4 -15 -10z"/>
<path d="M4720 1450 c-11 -11 -20 -29 -20 -39 0 -17 4 -17 49 7 27 15 48 28
46 31 -2 2 -22 -6 -45 -18 -45 -23 -51 -18 -18 16 26 28 16 31 -12 3z"/>
<path d="M2453 1433 c9 -2 25 -2 35 0 9 3 1 5 -18 5 -19 0 -27 -2 -17 -5z"/>
<path d="M2570 1430 c0 -5 5 -10 11 -10 5 0 7 5 4 10 -3 6 -8 10 -11 10 -2 0
-4 -4 -4 -10z"/>
<path d="M3731 1424 c0 -11 3 -14 6 -6 3 7 2 16 -1 19 -3 4 -6 -2 -5 -13z"/>
<path d="M4780 1410 c-8 -5 -10 -10 -5 -10 6 0 17 5 25 10 8 5 11 10 5 10 -5
0 -17 -5 -25 -10z"/>
<path d="M4848 1413 c7 -3 16 -2 19 1 4 3 -2 6 -13 5 -11 0 -14 -3 -6 -6z"/>
<path d="M4823 1393 c9 -2 23 -2 30 0 6 3 -1 5 -18 5 -16 0 -22 -2 -12 -5z"/>
<path d="M4230 1350 c0 -5 9 -10 20 -10 11 0 20 5 20 10 0 6 -9 10 -20 10 -11
0 -20 -4 -20 -10z"/>
<path d="M551 881 c-18 -12 -26 -102 -12 -130 7 -11 21 -21 31 -21 16 0 20 7
20 34 0 19 5 38 10 41 6 4 10 -35 10 -109 0 -71 -4 -116 -10 -116 -5 0 -10
-11 -10 -25 0 -23 4 -25 50 -27 28 -1 57 -2 66 -2 9 -1 22 7 28 17 9 14 7 21
-6 31 -15 11 -18 30 -18 127 0 77 3 109 10 99 5 -8 10 -25 10 -36 0 -26 27
-39 46 -23 8 6 14 29 14 50 0 22 5 39 10 39 13 0 13 -247 0 -255 -12 -7 -14
-45 -2 -46 4 0 36 -1 72 -2 60 -2 65 0 68 21 2 13 -3 25 -12 28 -22 9 -23 104
-1 104 11 0 14 -7 9 -25 -3 -14 -4 -35 0 -48 9 -36 52 -77 80 -77 47 0 78 82
36 93 -11 3 -20 14 -20 25 0 11 -7 25 -15 32 -20 17 -19 37 5 67 26 34 25 66
-3 99 -21 24 -32 27 -117 34 -52 3 -99 4 -105 1 -11 -6 -113 -4 -185 4 -25 3
-51 1 -59 -4z m389 -101 c0 -29 -4 -40 -15 -40 -11 0 -15 11 -15 40 0 29 4 40
15 40 11 0 15 -11 15 -40z"/>
<path d="M1077 872 c-8 -10 -7 -19 3 -35 8 -13 15 -65 18 -132 4 -94 2 -112
-12 -124 -21 -18 -20 -38 2 -49 9 -4 56 -8 103 -7 109 0 119 8 119 86 0 33 -4
59 -9 59 -25 0 -41 -15 -51 -46 -8 -23 -18 -34 -31 -34 -28 0 -25 38 4 42 20
3 22 9 25 74 3 67 4 72 23 67 25 -7 39 11 39 52 0 53 -9 57 -120 59 -74 1
-105 -3 -113 -12z m162 -66 c9 -11 6 -15 -14 -18 -19 -4 -25 -1 -25 13 0 22
23 25 39 5z"/>
<path d="M1590 882 c-13 -5 -13 -39 0 -47 13 -8 13 -252 1 -259 -26 -16 -40 9
-56 102 -9 53 -22 120 -28 147 -12 48 -13 50 -49 53 -34 3 -39 0 -52 -30 -8
-18 -25 -86 -37 -150 -15 -83 -26 -118 -35 -118 -8 0 -14 -10 -14 -25 0 -22 4
-25 38 -26 20 -1 42 0 47 1 6 1 17 2 25 1 8 -1 42 -1 75 -1 33 0 67 0 75 0 62
-2 186 2 192 6 21 13 59 98 65 142 8 73 -3 118 -43 162 -34 38 -36 39 -115 42
-44 2 -84 2 -89 0z m140 -176 c0 -66 -4 -117 -10 -121 -6 -4 -10 37 -10 114 0
74 4 121 10 121 6 0 10 -45 10 -114z m-291 -23 c1 -7 -6 -13 -15 -13 -11 0
-14 5 -10 16 3 9 6 25 7 37 1 20 2 20 9 -3 4 -14 8 -31 9 -37z m11 -87 c0 -19
-14 -28 -34 -20 -25 10 -19 34 9 34 15 0 25 -6 25 -14z"/>
<path d="M2030 883 c-49 -19 -100 -116 -100 -189 0 -47 24 -102 62 -141 59
-61 129 -36 174 61 28 60 29 89 9 160 -23 79 -91 130 -145 109z m50 -168 c0
-58 0 -108 0 -112 1 -5 -8 -9 -20 -11 -19 -3 -20 1 -20 112 0 109 1 116 20
116 19 0 20 -7 20 -105z"/>
<path d="M2190 875 c-11 -13 -4 -45 11 -45 5 0 9 -56 9 -125 0 -69 -4 -125 -9
-125 -16 0 -20 -29 -7 -43 20 -20 100 -8 104 16 2 9 -4 20 -12 23 -12 5 -16
20 -16 63 l1 56 25 -77 c15 -47 32 -82 44 -88 24 -13 79 -2 89 19 4 9 9 75 10
146 1 72 7 132 12 133 14 5 11 49 -3 54 -7 3 -32 3 -55 0 -37 -4 -43 -7 -43
-28 0 -13 5 -24 10 -24 6 0 10 -25 9 -57 l-1 -58 -23 74 c-13 40 -28 78 -34
84 -16 16 -108 17 -121 2z"/>
<path d="M2571 871 c-15 -15 -18 -29 -14 -67 9 -83 45 -102 59 -31 7 35 9 25
12 -68 2 -73 -1 -118 -9 -133 -9 -16 -9 -26 -2 -33 9 -9 80 -14 131 -10 14 1
17 51 2 51 -6 0 -10 45 -9 118 1 96 3 111 11 82 18 -63 58 -63 58 0 0 56 16
58 24 3 12 -87 7 -190 -9 -203 -18 -15 -20 -36 -4 -46 6 -3 37 -6 68 -5 31 1
79 1 106 0 46 -2 62 -1 98 2 6 0 48 -2 92 -5 93 -7 140 5 149 37 9 35 7 95 -4
102 -20 12 -47 -6 -56 -38 -12 -41 -54 -52 -54 -14 0 18 5 23 23 23 20 -1 22
4 27 69 5 67 6 70 30 70 17 0 26 6 28 20 7 46 12 51 28 31 21 -29 20 -241 -1
-250 -8 -3 -15 -14 -15 -25 0 -19 25 -35 40 -26 10 6 127 7 218 2 52 -3 65 -1
72 14 7 12 5 21 -5 29 -21 18 -22 245 0 266 27 28 7 44 -56 44 -69 0 -88 -19
-90 -90 l-1 -45 -13 59 c-7 33 -21 65 -30 72 -14 10 -60 12 -127 5 -5 -1 -8
-9 -8 -18 0 -15 -2 -15 -14 2 -12 16 -27 19 -115 18 -56 0 -104 -3 -108 -7 -3
-3 -11 -2 -17 3 -15 12 -126 1 -126 -13 0 -8 -2 -8 -8 0 -8 13 -121 24 -128
13 -2 -4 -19 -6 -37 -4 -17 2 -69 7 -115 9 -71 5 -85 3 -101 -13z m389 -76 c0
-25 -4 -45 -10 -45 -11 0 -14 73 -3 83 11 12 13 8 13 -38z m158 -86 c2 -109 0
-127 -14 -133 -9 -3 -20 -4 -25 0 -10 6 -12 247 -2 258 4 4 14 5 23 4 12 -3
15 -25 18 -129z m149 95 c2 -6 -8 -14 -22 -16 -20 -4 -25 -1 -25 14 0 14 6 19
22 16 12 -2 23 -8 25 -14z m-302 -179 c0 -30 -5 -50 -12 -52 -10 -4 -13 11
-13 52 0 41 3 56 13 53 7 -3 12 -23 12 -53z m582 -32 c-3 -10 -5 -2 -5 17 0
19 2 27 5 18 2 -10 2 -26 0 -35z"/>
<path d="M3790 882 c-13 -5 -13 -52 0 -52 6 0 10 -48 10 -125 0 -77 -4 -125
-10 -125 -11 0 -14 -50 -2 -51 194 -15 222 -7 222 63 l0 42 30 -47 c37 -58 67
-74 118 -61 30 7 43 19 69 64 27 43 33 65 33 109 0 43 3 52 12 43 22 -22 35
-13 45 31 9 37 11 29 12 -71 1 -73 -3 -119 -11 -132 -8 -13 -9 -23 -3 -29 9
-8 95 -16 133 -12 14 1 17 51 2 51 -6 0 -10 45 -9 118 1 81 3 107 9 83 9 -38
27 -54 49 -41 10 5 21 -1 36 -23 12 -19 38 -38 65 -48 34 -12 46 -23 52 -44 9
-34 3 -45 -23 -45 -32 0 -59 19 -59 41 0 25 -25 35 -45 19 -20 -17 -20 -94 0
-110 12 -10 18 -10 30 0 12 10 21 10 41 1 59 -27 103 -5 130 64 16 43 16 47
-1 86 -18 40 -61 79 -87 79 -20 0 -35 13 -42 38 -6 18 -4 22 16 22 27 0 39 -8
54 -35 28 -51 66 -17 55 50 -6 35 -10 40 -36 42 -17 2 -48 6 -71 9 -36 5 -43
3 -66 -24 -24 -29 -25 -29 -34 -8 -8 19 -20 22 -114 27 -59 4 -113 3 -122 -2
-14 -8 -18 -23 -19 -67 l0 -57 -17 45 c-33 84 -124 114 -174 57 -32 -37 -60
-107 -61 -153 0 -38 -3 -44 -18 -39 -20 7 -39 -20 -39 -54 0 -16 -6 -21 -25
-21 l-25 0 0 113 c0 100 2 114 20 130 40 34 19 52 -62 52 -32 0 -62 -1 -68 -3z
m370 -177 c0 -106 -1 -115 -19 -115 -27 0 -31 18 -31 131 0 99 0 99 25 99 l25
0 0 -115z"/>
<path d="M5268 852 c-21 -23 -42 -60 -48 -84 -6 -24 -13 -49 -15 -55 -9 -26
30 -118 66 -155 46 -48 77 -50 125 -5 40 37 52 89 22 95 -12 2 -21 -5 -27 -21
-9 -24 -29 -37 -57 -37 -11 0 -14 22 -14 115 l0 115 26 0 c19 0 28 -7 35 -30
11 -31 32 -39 45 -19 4 8 12 2 21 -15 19 -36 47 -31 51 9 2 17 8 34 13 39 5 6
9 -35 9 -107 0 -71 -4 -117 -10 -117 -11 0 -14 -50 -2 -51 55 -4 110 -3 125 4
21 10 22 36 2 43 -12 5 -15 27 -15 115 0 66 4 109 10 109 6 0 10 -13 10 -29 0
-32 24 -48 46 -30 8 6 14 29 14 50 0 22 5 39 10 39 6 0 10 -40 10 -100 0 -112
10 -141 60 -184 36 -29 59 -32 99 -12 42 22 54 59 59 184 2 61 8 112 12 112
14 0 21 32 10 46 -11 13 -87 13 -109 0 -6 -4 -11 -3 -11 2 0 7 -120 9 -140 1
-10 -3 -136 2 -181 7 -35 4 -50 1 -63 -11 -9 -9 -16 -11 -16 -5 0 6 -15 10
-32 9 -18 0 -49 2 -68 6 -33 6 -39 4 -72 -33z m596 -18 c13 -5 16 -24 16 -109
0 -116 -4 -135 -30 -135 -26 0 -30 19 -30 135 0 73 4 105 13 108 6 3 13 6 14
6 1 1 8 -2 17 -5z"/>
<path d="M6232 872 c-2 -7 1 -23 7 -35 14 -27 11 -259 -4 -264 -25 -7 -37 22
-59 143 -31 164 -30 164 -72 164 -46 0 -58 -22 -84 -165 -15 -84 -28 -125 -41
-138 -41 -38 -17 -51 91 -47 8 1 89 -1 180 -3 135 -4 169 -2 189 10 18 11 25
12 31 3 4 -7 43 -13 95 -16 114 -6 135 6 135 74 0 56 -14 76 -42 61 -11 -6
-18 -21 -18 -39 0 -25 -4 -30 -25 -30 l-25 0 0 120 c0 100 3 120 15 120 18 0
21 46 3 52 -24 9 -129 1 -140 -10 -7 -7 -6 -17 6 -33 23 -33 24 -254 1 -263
-12 -4 -15 4 -15 38 0 29 -5 46 -15 50 -20 7 -45 -20 -45 -50 0 -19 -5 -24
-25 -24 l-25 0 0 113 c0 100 2 114 20 130 41 35 20 51 -69 52 -43 0 -65 -4
-69 -13z m-156 -200 c-13 -12 -17 8 -10 40 l9 33 3 -33 c2 -19 1 -36 -2 -40z
m24 -76 c0 -8 -6 -16 -12 -19 -18 -6 -50 12 -43 24 10 15 55 11 55 -5z"/>
<path d="M6710 882 c-14 -5 -12 -33 3 -51 25 -29 48 -104 54 -173 5 -59 3 -71
-12 -82 -34 -24 -12 -43 57 -48 35 -3 69 -3 76 0 17 6 15 39 -3 46 -24 9 -20
126 5 176 11 22 20 45 20 52 0 8 9 21 20 31 39 33 14 60 -42 48 -21 -5 -39 -6
-42 -4 -6 6 -121 10 -136 5z m149 -69 c0 -16 -4 -37 -8 -48 -7 -17 -9 -14 -13
15 -3 19 -3 41 -1 48 9 22 23 13 22 -15z"/>
<path d="M5046 865 c-8 -9 -18 -32 -22 -53 -25 -145 -46 -227 -59 -235 -8 -4
-15 -17 -15 -27 0 -21 -2 -21 115 -22 127 -1 145 1 145 22 0 10 -6 23 -13 27
-8 5 -23 64 -36 138 -13 72 -28 138 -33 148 -11 21 -61 23 -82 2z m23 -177 c1
-10 -3 -18 -9 -18 -5 0 -10 17 -9 38 0 30 2 33 9 17 5 -11 9 -28 9 -37z m18
-94 c5 -14 -22 -25 -42 -18 -8 4 -15 13 -15 21 0 17 51 14 57 -3z"/>
<path d="M4766 594 c-20 -19 -20 -24 -1 -52 11 -15 14 -32 9 -57 -8 -46 7 -45
34 4 28 49 29 97 3 111 -25 13 -27 13 -45 -6z"/>
</g>
</svg>
