<?xml version="1.0" standalone="no"?>
<!DOCTYPE svg PUBLIC "-//W3C//DTD SVG 20010904//EN"
 "http://www.w3.org/TR/2001/REC-SVG-20010904/DTD/svg10.dtd">
<svg version="1.0" xmlns="http://www.w3.org/2000/svg"
 width="1199.000000pt" height="909.000000pt" viewBox="0 0 1199.000000 909.000000"
 preserveAspectRatio="xMidYMid meet">
<metadata>
Created by potrace 1.16, written by Peter Selinger 2001-2019
</metadata>
<g transform="translate(0.000000,909.000000) scale(0.100000,-0.100000)"
fill="#000000" stroke="none">
<path d="M1621 9027 c-16 -92 -14 -215 6 -299 9 -40 16 -90 16 -110 -1 -21 3
-35 8 -32 5 3 9 -4 9 -15 0 -10 7 -32 14 -48 12 -23 27 -61 27 -70 0 -2 26
-51 84 -159 25 -47 218 -244 239 -244 7 0 19 -7 26 -15 7 -8 41 -29 76 -46 35
-16 64 -34 64 -39 0 -4 14 -11 31 -15 17 -4 32 -12 35 -18 2 -7 21 -13 41 -14
19 -1 41 -7 46 -12 6 -6 23 -11 38 -11 15 0 31 -4 34 -10 3 -5 17 -10 31 -10
13 0 24 -4 24 -10 0 -5 -8 -10 -17 -10 -13 0 -15 -3 -5 -8 9 -6 5 -12 -15 -23
-16 -8 -34 -20 -41 -26 -7 -7 -24 -16 -38 -19 -13 -3 -24 -12 -24 -20 0 -8 -6
-14 -14 -14 -8 0 -32 -15 -55 -32 -22 -18 -66 -53 -97 -78 -82 -65 -233 -224
-256 -270 -7 -14 -15 -27 -18 -30 -26 -25 -83 -111 -100 -150 -6 -13 -14 -27
-18 -30 -4 -3 -16 -25 -27 -50 -10 -25 -24 -51 -29 -59 -6 -7 -18 -34 -26 -60
-15 -45 -50 -71 -50 -37 0 9 -5 26 -12 39 -24 48 -28 57 -28 77 0 11 -3 20 -8
20 -9 0 -42 74 -42 94 0 8 -7 17 -16 20 -8 3 -12 10 -9 16 3 5 2 10 -3 10 -6
0 -12 10 -16 23 -3 12 -14 32 -26 44 -11 12 -20 25 -20 29 0 4 -7 14 -15 23
-31 34 -75 89 -75 95 0 8 -58 63 -100 94 -19 15 -47 39 -63 54 -15 16 -31 28
-36 28 -5 0 -16 6 -23 14 -8 7 -50 30 -94 51 -43 20 -86 41 -94 46 -48 29 -83
39 -265 75 -99 19 -364 9 -420 -16 -11 -5 -40 -14 -65 -21 -25 -6 -50 -15 -56
-20 -7 -5 -16 -9 -20 -7 -5 1 -19 -3 -30 -10 -12 -6 -24 -8 -28 -5 -3 3 -6 1
-6 -5 0 -7 -6 -12 -14 -12 -8 0 -16 -7 -20 -15 -3 -8 -12 -15 -21 -15 -13 0
-15 -111 -15 -1028 l0 -1027 28 -23 c28 -23 69 -47 132 -78 19 -9 42 -20 50
-25 8 -5 22 -12 30 -15 39 -15 67 -28 92 -41 36 -18 440 -14 475 5 12 7 34 14
50 16 15 2 41 8 56 15 16 6 34 11 42 11 8 0 16 4 20 10 3 5 12 7 19 4 8 -3 17
-1 21 5 3 6 15 11 26 11 10 0 19 4 19 8 0 8 65 40 113 55 9 4 17 11 17 17 0 5
6 10 13 10 7 0 24 11 39 25 15 14 32 25 37 25 13 0 201 186 201 199 0 5 13 24
30 42 21 24 30 29 34 18 10 -30 18 -75 18 -99 0 -14 6 -32 13 -40 7 -8 16 -38
20 -67 4 -29 13 -57 20 -63 7 -6 16 -29 20 -51 4 -21 10 -39 14 -39 11 0 42
-81 35 -91 -3 -5 -1 -9 4 -9 5 0 12 -8 15 -17 6 -19 38 -74 48 -83 3 -3 18
-30 33 -60 15 -30 33 -59 40 -65 7 -5 23 -29 36 -52 13 -24 27 -43 32 -43 4 0
8 -5 8 -11 0 -6 7 -17 16 -26 8 -9 13 -22 10 -29 -3 -8 -1 -14 5 -14 13 0 105
-100 102 -111 -2 -5 1 -9 6 -9 5 0 68 -58 140 -130 72 -71 135 -130 141 -130
5 0 18 -8 28 -17 9 -10 44 -36 77 -57 33 -22 61 -43 63 -47 2 -4 27 -20 55
-35 93 -48 160 -98 193 -144 18 -25 33 -50 33 -57 1 -7 9 -17 19 -22 10 -5 24
-22 32 -38 8 -15 23 -34 33 -41 9 -7 23 -28 31 -46 7 -18 24 -44 37 -59 13
-14 44 -53 68 -86 24 -34 47 -61 52 -61 5 0 9 -6 9 -13 0 -14 22 -45 56 -82
12 -13 24 -29 27 -37 4 -7 25 -38 48 -68 22 -30 49 -70 61 -87 11 -18 23 -33
27 -33 5 0 16 -16 27 -37 10 -20 30 -48 44 -63 14 -15 34 -42 45 -61 35 -58
40 -65 55 -82 8 -8 35 -43 60 -76 24 -34 48 -61 52 -61 5 0 8 -6 8 -13 0 -8
11 -24 25 -37 14 -13 25 -28 25 -35 0 -6 11 -24 25 -40 64 -77 135 -182 135
-201 0 -11 -9 -29 -20 -39 -11 -10 -20 -23 -20 -28 0 -5 -14 -33 -31 -61 -35
-55 -74 -154 -93 -228 -6 -25 -14 -50 -19 -54 -4 -4 -7 -19 -7 -33 0 -15 -6
-35 -13 -46 -7 -11 -14 -49 -15 -85 -2 -36 -7 -78 -12 -95 -5 -16 -10 -43 -11
-60 0 -16 -6 -55 -12 -87 -11 -56 -11 -56 -60 -72 -27 -9 -53 -14 -57 -11 -4
3 -13 -2 -20 -10 -7 -8 -16 -13 -20 -10 -4 3 -13 -2 -20 -9 -6 -8 -25 -18 -41
-21 -16 -4 -32 -13 -36 -20 -5 -8 -19 -15 -33 -17 -14 -2 -41 -14 -60 -26 -19
-12 -40 -22 -47 -22 -6 0 -18 -9 -26 -20 -7 -11 -29 -26 -48 -34 -19 -8 -43
-24 -53 -35 -11 -12 -24 -21 -30 -21 -6 0 -22 -12 -35 -25 -12 -14 -27 -22
-32 -19 -5 3 -9 0 -9 -6 0 -6 -4 -8 -10 -5 -5 3 -10 0 -10 -8 0 -8 -16 -22
-36 -33 -20 -10 -51 -32 -68 -47 -29 -27 -82 -71 -190 -162 -46 -38 -88 -76
-181 -166 -22 -22 -44 -39 -48 -39 -4 0 -18 -11 -31 -25 -13 -14 -28 -25 -35
-25 -6 0 -11 -4 -11 -10 0 -5 -8 -10 -17 -10 -13 0 -14 -3 -6 -8 9 -6 6 -12
-9 -22 -12 -8 -57 -50 -101 -92 -43 -43 -81 -78 -86 -78 -4 0 -37 -29 -73 -64
-35 -35 -84 -79 -109 -98 -24 -19 -75 -64 -113 -101 -38 -36 -73 -64 -78 -61
-4 3 -8 -3 -9 -13 -1 -13 -3 -11 -9 7 l-8 25 -1 -28 c-1 -16 -5 -26 -10 -23
-4 3 -13 -5 -18 -17 -11 -25 -113 -107 -131 -107 -7 0 -12 -4 -12 -10 0 -13
-41 -52 -73 -69 -15 -8 -27 -19 -27 -26 0 -6 -13 -19 -30 -28 -16 -10 -30 -22
-30 -28 0 -5 -6 -9 -14 -9 -8 0 -21 -6 -28 -14 -26 -26 -128 -106 -135 -106
-5 -1 -26 -19 -48 -40 -22 -22 -48 -40 -57 -40 -10 0 -18 -6 -18 -14 0 -8 -12
-18 -28 -24 -15 -5 -37 -19 -50 -30 -12 -11 -38 -30 -57 -43 -19 -13 -35 -27
-35 -31 0 -5 36 -8 80 -8 74 0 82 2 113 30 19 16 40 30 47 30 12 0 39 22 85
68 12 12 29 22 37 22 7 0 32 18 53 40 21 22 43 40 47 40 9 0 15 4 61 45 15 14
32 25 36 25 4 0 33 25 65 55 31 30 59 55 63 55 3 0 23 16 44 35 22 19 43 35
47 35 5 0 14 11 20 25 6 14 19 25 28 25 9 0 36 19 59 42 23 24 69 66 101 95
33 29 93 84 134 122 41 39 77 71 80 71 3 0 33 26 66 58 34 31 91 84 128 117
37 33 89 80 116 105 84 78 122 110 130 110 4 0 24 18 44 40 20 22 39 40 42 40
3 0 34 24 67 53 34 30 77 62 96 73 18 10 47 31 63 46 31 29 152 111 208 142
19 10 58 33 85 51 66 42 202 105 226 105 10 0 19 4 19 8 0 13 136 56 155 48
15 -5 13 -11 -14 -38 -17 -17 -31 -37 -31 -44 0 -7 -3 -14 -8 -16 -4 -2 -20
-19 -35 -38 -43 -52 -119 -140 -147 -170 -14 -15 -42 -46 -62 -71 -20 -24 -53
-61 -72 -83 -20 -21 -36 -45 -36 -52 0 -8 -7 -14 -15 -14 -8 0 -15 -6 -15 -13
0 -7 -8 -22 -18 -33 -10 -10 -32 -40 -50 -66 -18 -27 -37 -48 -42 -48 -6 0
-10 -7 -10 -16 0 -9 -10 -26 -23 -38 -13 -12 -22 -27 -20 -32 2 -6 -3 -17 -12
-24 -8 -7 -15 -20 -15 -29 0 -10 -7 -26 -15 -37 -8 -10 -15 -33 -15 -50 0 -35
-76 -157 -116 -187 -13 -10 -24 -24 -24 -31 0 -10 -21 -36 -97 -121 -10 -11
-43 -50 -73 -86 -89 -107 -263 -303 -277 -312 -7 -4 -13 -14 -13 -22 0 -8 -12
-22 -27 -32 -16 -10 -32 -24 -37 -33 -5 -8 -29 -35 -53 -59 -24 -24 -43 -48
-43 -53 0 -4 229 -8 510 -8 l510 0 17 27 c10 16 33 44 53 64 19 19 57 60 83
90 117 133 151 168 158 163 4 -2 10 4 13 14 6 17 23 18 226 19 225 1 432 20
545 49 76 20 235 84 235 95 0 5 6 9 14 9 30 0 186 176 186 210 0 6 7 13 15 16
8 4 13 10 10 14 -6 9 65 68 107 89 14 7 32 10 39 6 7 -5 10 -4 6 2 -9 14 101
44 161 44 46 0 75 -4 113 -16 20 -7 27 -49 9 -60 -6 -3 -10 -20 -10 -36 0 -20
-4 -28 -12 -23 -6 4 -8 3 -5 -3 4 -6 0 -27 -8 -46 -8 -19 -12 -37 -10 -39 3
-2 -4 -23 -15 -45 -17 -37 -39 -112 -40 -138 0 -6 19 -20 43 -32 39 -20 57
-25 131 -40 45 -9 54 -22 43 -60 -6 -18 -14 -33 -18 -33 -4 0 -10 -11 -13 -25
-4 -14 -11 -25 -16 -25 -6 0 -10 -7 -10 -16 0 -14 -46 -101 -60 -114 -11 -10
-40 -72 -40 -86 0 -8 -4 -14 -10 -14 -5 0 -10 -7 -10 -15 0 -8 -4 -15 -9 -15
-5 0 -11 -7 -15 -15 -5 -13 42 -15 383 -15 l389 0 7 23 c4 12 8 28 10 35 2 7
12 25 21 40 10 15 19 30 19 34 0 3 4 10 8 14 4 5 28 49 53 99 80 159 105 203
122 210 18 8 59 18 137 34 28 6 68 18 90 27 22 9 49 20 60 24 185 72 195 97
195 483 1 304 6 341 49 378 17 14 31 29 31 33 0 4 16 27 35 50 19 24 35 48 35
55 0 6 5 11 10 11 6 0 10 6 10 13 0 7 8 22 19 33 10 11 26 38 36 60 10 21 24
46 31 54 7 8 13 18 13 23 2 24 14 57 22 57 5 0 9 6 9 14 0 12 48 30 77 29 7 0
11 2 8 6 -2 4 21 20 52 36 30 16 58 35 60 43 4 9 21 11 67 6 33 -4 72 -11 85
-16 13 -4 52 -5 88 -2 68 7 91 25 98 76 5 43 15 61 61 113 14 16 29 35 32 41
18 28 115 85 158 91 26 3 40 9 34 13 -7 4 7 10 31 12 24 3 48 1 54 -3 5 -5 17
-9 27 -9 10 0 18 -4 18 -10 0 -5 7 -10 15 -10 8 0 15 -4 15 -10 0 -5 7 -10 15
-10 8 0 39 -15 68 -33 28 -18 66 -40 82 -49 78 -43 242 -134 257 -143 9 -5 47
-26 85 -45 37 -19 70 -37 73 -41 3 -3 13 -8 23 -12 11 -4 15 -12 11 -18 -4 -7
-3 -9 4 -5 14 8 83 -24 76 -36 -3 -5 -2 -7 3 -6 15 4 73 -21 73 -32 0 -6 4 -9
8 -6 5 3 18 -1 30 -9 41 -30 153 -85 170 -85 9 0 30 7 46 15 15 8 34 15 40 15
6 0 19 8 27 18 26 28 68 62 79 62 6 0 10 4 10 9 0 14 82 106 92 103 4 -1 8 6
8 17 0 10 11 30 25 45 14 15 25 33 25 40 0 8 7 19 15 26 31 25 17 49 -43 78
-31 15 -87 47 -124 70 -37 24 -69 43 -73 43 -9 -2 -35 26 -35 38 0 6 -6 8 -13
5 -16 -6 -117 42 -117 56 0 6 -8 10 -18 10 -10 0 -28 9 -39 19 -12 11 -23 17
-26 14 -3 -3 -19 4 -35 16 -17 12 -35 21 -41 21 -14 0 -14 37 0 45 6 4 8 13 5
21 -10 25 47 16 110 -18 32 -17 61 -34 64 -38 3 -3 34 -20 70 -38 36 -17 90
-46 120 -63 30 -17 67 -38 83 -46 15 -8 27 -18 27 -23 0 -4 20 -13 44 -19 70
-17 140 3 184 53 32 38 114 156 116 169 2 7 8 26 15 42 51 125 32 207 -56 246
-18 7 -33 17 -33 21 0 5 -6 8 -14 8 -8 0 -16 3 -18 8 -1 4 -31 20 -65 36 -35
16 -63 33 -63 37 0 4 -8 9 -17 13 -26 8 -125 65 -143 81 -9 8 -23 15 -31 16
-8 0 -36 13 -64 29 -27 16 -63 35 -80 43 -47 22 -60 43 -46 73 18 40 13 71
-16 99 -15 14 -33 25 -39 25 -6 0 -17 7 -24 15 -7 8 -19 15 -28 15 -18 0 -62
49 -62 70 0 8 -11 44 -24 80 -23 61 -26 65 -53 62 -15 -2 -29 -8 -31 -13 -2
-5 -11 -9 -20 -9 -9 0 -36 -7 -59 -15 -48 -17 -74 -11 -66 13 4 13 3 14 -5 4
-8 -12 -13 -12 -31 -1 -23 15 -27 39 -10 56 8 8 12 65 13 170 0 158 -7 230
-25 248 -5 5 -9 17 -9 27 0 10 -5 18 -11 18 -5 0 -7 5 -4 10 3 6 2 10 -4 10
-6 0 -20 19 -32 43 -23 45 -107 137 -126 137 -6 0 -25 12 -42 26 -17 14 -31
23 -31 19 0 -4 -16 3 -36 14 -21 13 -44 19 -55 16 -11 -4 -33 1 -51 9 -17 9
-37 16 -45 16 -7 0 -13 5 -13 10 0 6 -9 10 -20 10 -10 0 -23 6 -27 14 -14 25
-136 156 -145 156 -5 0 -26 16 -46 35 -20 19 -50 41 -67 50 -16 8 -43 26 -59
40 -16 14 -38 25 -49 25 -10 0 -31 8 -45 18 -15 10 -61 30 -102 43 -65 21 -94
24 -216 24 -79 0 -152 -5 -165 -11 -44 -20 -89 -32 -89 -24 0 13 -111 45 -155
44 -65 0 -123 -8 -118 -16 2 -5 -2 -8 -10 -8 -8 0 -20 -7 -27 -15 -7 -8 -20
-15 -29 -15 -10 0 -27 -9 -39 -20 -23 -22 -42 -25 -57 -11 -6 5 -32 12 -60 15
-71 7 -169 21 -415 57 -36 5 -89 12 -117 16 -29 3 -58 12 -64 19 -9 11 -8 14
5 14 10 0 14 5 11 11 -4 6 14 29 39 53 25 23 46 47 46 54 0 7 4 12 9 12 5 0
16 15 25 33 9 17 21 39 26 47 18 28 58 125 64 155 4 17 12 50 18 75 7 25 11
108 11 185 -1 126 -5 160 -29 258 -5 21 0 36 22 65 15 20 33 42 39 47 20 18
60 89 74 130 7 22 19 47 26 55 8 8 14 26 14 40 2 55 13 126 23 147 7 13 9 64
5 135 -8 183 -57 303 -150 366 -24 16 -61 32 -82 35 -21 3 -41 10 -44 15 -10
14 -133 6 -172 -11 -66 -29 -169 -145 -169 -189 0 -10 -4 -18 -10 -18 -5 0
-10 -6 -10 -13 0 -7 -6 -19 -12 -25 -14 -14 -39 -112 -40 -152 0 -14 -4 -28
-10 -31 -6 -4 -10 -53 -10 -118 0 -61 -5 -114 -10 -117 -5 -3 -21 -3 -35 0
-25 7 -25 7 -17 79 4 40 7 83 7 97 -6 91 -24 275 -33 325 -5 33 -16 93 -23
133 -6 40 -17 76 -23 80 -6 4 -14 21 -17 37 -14 75 -30 131 -42 145 -7 8 -17
36 -24 62 -6 26 -20 62 -31 80 -11 18 -26 49 -35 68 -9 19 -20 37 -25 40 -5 3
-11 15 -13 25 -1 11 -16 38 -32 61 -17 22 -39 58 -50 79 -11 21 -32 51 -47 67
-15 16 -35 42 -43 58 -9 17 -20 30 -24 30 -5 0 -19 16 -31 35 -12 19 -28 35
-35 35 -8 0 -17 8 -20 18 -4 9 -37 44 -75 77 -75 67 -85 75 -190 151 -41 29
-80 58 -87 64 -7 5 -19 10 -26 10 -8 0 -20 7 -27 15 -7 8 -20 15 -30 15 -10 0
-23 7 -30 15 -7 8 -18 15 -24 15 -6 0 -32 11 -58 25 -26 14 -56 25 -68 25 -11
0 -20 5 -20 10 0 6 -8 10 -19 10 -10 0 -32 7 -47 15 -16 8 -38 15 -49 16 -11
0 -14 3 -7 6 6 2 12 9 12 14 0 6 -9 5 -21 -2 -15 -8 -28 -8 -43 -1 -30 15
-109 30 -339 64 -63 9 -67 12 -61 31 4 12 29 42 55 66 27 25 49 49 49 54 0 5
16 32 35 58 19 27 35 53 35 57 0 4 9 14 19 21 11 8 17 19 15 26 -3 6 9 37 26
69 16 32 30 67 30 77 0 10 4 19 9 19 6 0 13 21 16 48 4 26 11 61 16 79 6 17
12 60 15 95 2 34 9 75 15 91 9 20 8 34 0 55 -7 16 -12 53 -13 82 0 29 -5 62
-11 72 -11 17 -58 18 -1153 18 l-1142 0 -11 -63z m2294 -1152 c39 -14 106 -47
149 -73 130 -77 337 -293 461 -482 42 -64 47 -73 74 -124 27 -50 57 -83 68
-73 3 4 7 53 8 109 2 141 15 246 30 252 16 6 135 -117 135 -139 0 -8 -3 -15
-8 -15 -10 0 -30 -47 -38 -90 l-7 -35 42 38 c23 21 50 37 58 35 26 -5 134
-202 179 -323 10 -27 29 -66 42 -86 21 -33 57 -149 69 -224 2 -16 8 -39 13
-50 18 -45 30 -172 34 -388 l6 -228 -35 -15 c-48 -20 -59 -18 -51 9 24 81 38
265 34 442 -5 191 -13 250 -49 332 -11 24 -19 48 -19 54 0 27 -67 98 -105 113
-49 19 -57 19 -89 5 -39 -18 -71 -77 -85 -154 -13 -75 -11 -632 3 -690 3 -16
12 -55 18 -85 7 -30 24 -80 40 -110 15 -30 28 -59 28 -65 0 -6 -24 -29 -54
-53 -67 -52 -276 -252 -276 -263 0 -18 25 -8 74 29 28 21 74 51 101 66 28 15
59 36 71 47 11 10 25 19 31 19 6 0 13 3 15 8 3 9 257 162 267 162 4 0 26 9 48
20 35 17 54 19 142 13 56 -3 105 -11 109 -17 4 -6 19 -38 32 -71 72 -183 173
-248 310 -200 23 8 48 15 55 15 32 0 54 -189 36 -315 -25 -176 -108 -343 -230
-465 -76 -76 -163 -141 -241 -180 -36 -17 -81 -40 -101 -51 -20 -10 -44 -19
-53 -19 -9 0 -24 -4 -34 -9 -44 -23 -263 -73 -362 -83 -163 -16 -529 -21 -590
-8 -153 32 -413 175 -558 305 -171 154 -333 354 -423 522 -63 117 -139 274
-139 286 0 7 -4 17 -9 23 -12 13 -81 207 -81 229 0 15 6 16 48 10 26 -3 77
-22 115 -41 37 -19 69 -34 72 -34 15 0 -1 24 -54 79 -76 79 -150 115 -241 115
-70 0 -105 -13 -173 -67 -40 -31 -93 -105 -83 -115 3 -3 25 4 48 15 81 39 155
59 174 45 14 -9 22 -37 45 -162 42 -228 50 -295 44 -370 -23 -297 -14 -538 26
-743 23 -115 46 -163 108 -223 66 -64 136 -100 229 -118 76 -14 87 -14 167 3
48 11 112 32 143 47 62 29 145 83 150 96 2 4 8 8 13 8 6 0 22 11 37 25 15 14
39 25 53 25 73 0 209 -14 209 -22 0 -5 -12 -14 -27 -21 -16 -6 -30 -14 -33
-18 -7 -8 -190 -129 -195 -129 -3 0 -33 -19 -68 -42 -94 -64 -96 -65 -186
-110 -154 -75 -259 -86 -353 -37 -10 5 -24 9 -31 9 -21 0 -107 58 -161 109
-83 79 -140 161 -201 291 -20 41 -40 82 -44 90 -5 9 -12 31 -16 50 -4 19 -10
40 -14 45 -10 17 -31 79 -31 95 -1 25 -26 51 -44 44 -18 -7 -22 -86 -7 -138
28 -93 31 -111 17 -124 -12 -12 -20 -12 -52 -1 -22 7 -51 21 -66 31 -14 10
-29 18 -32 18 -10 0 -137 85 -171 115 -16 14 -55 47 -85 72 -92 78 -339 333
-409 422 -23 30 -60 92 -83 138 -23 46 -45 86 -50 89 -4 3 -8 12 -8 21 0 8 -9
27 -19 42 -26 36 -50 178 -46 271 9 228 82 402 221 529 114 104 254 173 441
215 145 34 243 33 353 -3 14 -5 45 -14 70 -22 25 -7 49 -16 54 -21 6 -4 18 -8
28 -8 10 0 18 -4 18 -8 0 -4 17 -14 38 -21 20 -8 39 -17 42 -20 6 -7 129 -81
136 -81 2 0 12 -7 21 -14 10 -8 52 -39 93 -68 84 -60 89 -64 207 -166 68 -58
88 -71 99 -61 7 6 12 14 10 18 -9 17 -93 203 -107 236 -29 70 -79 217 -79 230
0 8 -4 23 -9 33 -14 29 -31 87 -31 110 0 11 -4 24 -10 27 -5 3 -10 21 -10 40
0 19 -4 36 -9 39 -4 3 -11 25 -14 48 -3 24 -13 86 -22 138 -18 105 -22 421 -6
462 5 12 15 50 22 83 13 63 96 238 130 273 10 12 19 24 19 26 0 11 93 90 143
123 48 31 57 33 137 33 66 0 101 -6 155 -25z m1109 -1022 c13 -10 29 -31 36
-48 7 -16 21 -48 30 -70 34 -78 50 -201 50 -392 0 -100 -3 -188 -6 -197 -13
-34 -24 -1 -24 71 0 61 -4 81 -22 106 -63 91 -115 102 -180 37 -22 -22 -43
-40 -45 -40 -7 0 5 343 15 425 9 78 27 122 51 129 26 7 70 -2 95 -21z m770
-458 c52 -39 70 -133 45 -229 -42 -163 -51 -189 -83 -233 -35 -48 -60 -54 -99
-22 -39 30 -49 82 -41 217 8 153 33 230 88 274 29 24 52 22 90 -7z m930 -1761
c13 -5 13 -8 1 -20 -7 -8 -22 -14 -32 -14 -11 0 -23 -4 -28 -9 -6 -4 -41 -25
-80 -46 -38 -20 -79 -45 -90 -55 -11 -10 -53 -34 -94 -54 -40 -20 -79 -40 -86
-46 -28 -23 -26 11 2 43 99 117 330 230 407 201z m546 -55 c36 -13 67 -27 68
-31 2 -5 12 -8 22 -8 10 0 20 -3 22 -7 2 -5 28 -21 58 -37 85 -46 158 -102
245 -192 83 -84 175 -210 175 -238 0 -9 4 -16 10 -16 5 0 10 28 12 63 l3 62
50 -51 c28 -28 55 -57 60 -65 19 -25 55 -121 55 -145 0 -12 5 -26 10 -29 14
-9 12 -207 -2 -255 -13 -41 -28 -53 -53 -44 -18 7 -20 43 -4 78 9 18 8 34 -4
68 -12 36 -16 40 -22 23 -16 -45 -31 -68 -56 -86 -27 -19 -28 -19 -61 -1 -32
18 -33 21 -40 98 -7 86 -23 133 -62 179 l-25 30 -1 -63 c0 -34 -4 -70 -9 -80
-5 -9 -15 -30 -22 -46 -20 -43 -68 -87 -125 -115 -96 -48 -173 -142 -235 -286
-4 -11 -10 -60 -13 -110 -7 -124 -14 -163 -39 -214 -58 -118 -189 -180 -290
-137 -72 30 -197 186 -197 245 0 12 -5 41 -12 65 -17 64 10 171 64 250 31 46
37 60 26 67 -19 12 -22 11 -44 -13 -79 -89 -116 -257 -82 -372 7 -22 25 -65
40 -95 15 -29 28 -57 28 -62 0 -5 -26 -29 -57 -54 -49 -38 -65 -45 -103 -45
-28 0 -58 8 -80 21 -71 43 -87 66 -125 188 -37 115 -49 150 -66 183 -5 10 -9
25 -9 33 0 8 -4 23 -9 33 -34 66 -36 79 -35 198 1 68 -2 122 -6 119 -18 -11
-44 -126 -44 -195 -1 -70 22 -166 46 -195 4 -5 8 -17 8 -27 0 -11 9 -38 20
-60 11 -23 20 -47 20 -54 0 -7 9 -34 20 -59 33 -76 1 -91 -91 -43 -40 21 -159
129 -159 145 0 6 -7 16 -16 24 -23 19 -67 107 -81 164 -18 74 -15 225 6 347
19 104 64 253 82 273 5 5 9 17 9 27 0 10 4 18 8 18 5 0 15 12 23 28 16 31 112
175 143 214 25 31 131 118 144 118 5 0 16 8 25 18 14 15 182 104 232 122 39
14 160 50 185 54 14 3 86 3 160 1 112 -2 146 -7 200 -26z m-1057 -139 c-3 -11
-9 -20 -14 -20 -5 0 -9 -5 -9 -10 0 -6 -9 -23 -20 -38 -30 -41 -60 -131 -60
-182 0 -30 -11 -67 -34 -115 -19 -38 -44 -96 -57 -127 -14 -34 -30 -58 -39
-58 -8 1 -35 12 -60 25 -25 13 -64 34 -87 45 -49 23 -55 48 -23 82 11 12 20
30 20 40 0 10 5 18 10 18 6 0 10 7 10 15 0 8 5 15 10 15 6 0 10 7 10 16 0 19
34 53 180 174 62 52 123 105 134 116 27 28 35 29 29 4z m-848 -340 c4 -6 11
-8 16 -5 14 10 99 -6 93 -17 -4 -6 8 -7 30 -3 24 5 36 3 36 -4 0 -6 19 -11 47
-11 30 0 53 -6 65 -17 15 -14 21 -14 27 -4 7 10 9 9 14 -3 3 -8 2 -18 -3 -21
-6 -4 -10 -17 -10 -30 0 -18 7 -26 24 -31 14 -3 32 -14 42 -25 9 -10 23 -19
31 -19 12 0 52 -19 63 -30 3 -3 31 -18 63 -35 l59 -30 -5 -53 c-3 -29 -11 -59
-17 -67 -6 -8 -8 -29 -4 -54 4 -28 3 -41 -5 -41 -6 0 -11 4 -11 9 0 5 -8 12
-17 15 -33 13 -63 31 -63 38 0 4 -15 15 -32 23 -46 21 -120 66 -136 82 -7 7
-24 16 -38 19 -13 3 -24 10 -24 15 0 5 -3 8 -7 7 -9 -2 -50 17 -77 34 -30 20
-95 92 -96 105 0 6 -4 13 -8 15 -4 2 -23 23 -42 48 -19 25 -38 47 -41 50 -3 3
-8 15 -11 28 -5 17 -2 22 12 22 11 0 22 -5 25 -10z m2557 -544 c64 -36 120
-66 125 -66 5 0 42 -20 82 -45 40 -25 75 -45 77 -45 2 0 64 -34 139 -75 74
-41 140 -75 145 -75 6 0 10 -3 10 -8 0 -4 31 -23 70 -42 38 -19 70 -38 70 -42
0 -5 6 -8 14 -8 17 0 41 -28 32 -38 -4 -3 -22 2 -39 12 -84 50 -121 66 -149
66 -35 0 -87 -29 -136 -74 -41 -39 -115 -166 -131 -227 -17 -61 -17 -153 -2
-183 13 -23 116 -89 214 -136 30 -15 47 -30 47 -42 0 -26 -36 -22 -95 12 -27
16 -70 40 -95 53 -25 13 -63 34 -85 47 -22 13 -65 36 -95 53 -30 16 -75 41
-100 55 -25 15 -58 34 -75 43 -66 35 -146 80 -260 144 -66 37 -147 81 -180 98
-33 18 -72 42 -87 55 -23 21 -25 28 -17 55 5 18 9 64 9 104 0 87 19 149 70
223 50 73 79 99 174 153 l79 45 36 -23 c20 -12 89 -52 153 -89z m-2500 -36
c112 0 127 -2 121 -16 -4 -12 -14 -14 -42 -10 -82 14 -221 18 -221 7 0 -8 -15
-10 -49 -5 -34 4 -68 1 -108 -11 -32 -9 -74 -21 -94 -27 -20 -6 -42 -8 -47 -4
-6 3 -43 1 -81 -5 -58 -10 -69 -14 -60 -25 9 -11 8 -14 0 -14 -9 0 -9 -5 -1
-20 6 -11 18 -20 26 -20 19 0 15 -42 -4 -46 -7 -1 -8 0 -2 3 17 8 -9 43 -33
43 -13 0 -32 7 -43 15 -10 8 -36 15 -57 15 -43 0 -48 23 -6 28 13 2 29 8 34
12 6 5 38 11 72 14 34 2 75 12 93 21 20 10 60 17 115 18 46 1 79 5 73 8 -6 4
20 10 58 14 38 3 74 8 79 10 6 2 19 2 30 0 11 -3 77 -5 147 -5z m251 -28 c9
-1 17 -7 17 -13 0 -8 -15 -10 -45 -7 -25 3 -45 1 -45 -4 0 -5 -4 -6 -10 -3 -5
3 -10 12 -10 20 0 12 18 14 93 7z m47 -27 c0 -8 5 -15 11 -15 5 0 7 5 4 10 -3
6 3 10 14 10 20 0 20 -1 4 -19 -12 -15 -21 -17 -35 -10 -19 10 -25 39 -8 39 6
0 10 -7 10 -15z m240 -40 c0 -83 36 -192 87 -268 26 -37 26 -39 10 -73 -10
-19 -17 -40 -16 -47 0 -7 39 -46 85 -87 47 -41 91 -80 97 -85 75 -67 228 -137
336 -155 80 -13 139 -9 215 17 l50 16 65 -34 c36 -19 68 -36 71 -39 6 -6 29
-19 146 -81 96 -52 144 -97 144 -136 0 -11 -19 -54 -42 -94 -80 -143 -81 -144
-138 -157 -98 -23 -332 -6 -406 30 -12 5 -30 8 -40 6 -14 -3 -6 -11 31 -30 97
-50 179 -78 264 -90 47 -6 87 -13 89 -14 5 -3 -18 -46 -35 -64 -49 -54 -92
-94 -115 -108 -16 -9 -28 -20 -28 -24 0 -4 -7 -8 -15 -8 -8 0 -15 -3 -15 -7 0
-5 -10 -13 -23 -19 -125 -63 -157 -77 -206 -86 -47 -8 -152 -6 -236 6 -11 2
-14 1 -7 -1 6 -3 12 -8 12 -12 0 -4 23 -14 51 -21 27 -8 52 -18 55 -22 3 -4
25 -8 49 -8 54 0 75 -8 75 -27 0 -21 -85 -98 -135 -121 -77 -37 -96 -42 -164
-42 -93 0 -152 19 -228 75 -52 37 -57 60 -10 50 63 -13 129 -17 138 -8 8 8
-40 21 -183 50 -16 3 -28 9 -28 14 0 5 -9 9 -20 9 -22 0 -113 43 -180 84 -91
57 -197 158 -262 247 -47 65 -123 219 -136 274 -6 28 -18 73 -27 100 l-15 50
6 -83 c3 -46 12 -105 19 -130 8 -26 11 -50 7 -54 -11 -11 -61 28 -110 86 -196
231 -167 564 66 769 18 15 34 27 36 27 3 0 26 14 51 31 32 22 50 28 57 21 11
-11 1 -72 -12 -72 -10 0 -19 -48 -45 -222 -7 -53 8 -47 24 10 16 53 14 49 66
152 52 102 77 141 125 191 45 47 60 45 42 -4 -15 -41 -15 -57 -2 -57 6 0 10 5
10 11 0 7 16 34 35 60 19 27 35 53 35 57 0 17 192 192 211 192 16 0 19 -7 19
-45z m-257 -16 c11 -8 1 -29 -13 -29 -5 0 -6 7 -3 17 4 11 3 14 -5 9 -7 -4
-20 -2 -29 3 -16 9 -16 10 5 11 12 0 22 6 23 13 0 7 3 6 6 -3 3 -8 10 -18 16
-21z m-1033 -9 c0 -5 -5 -10 -11 -10 -5 0 -7 5 -4 10 3 6 8 10 11 10 2 0 4 -4
4 -10z m370 0 c0 -5 -18 -10 -40 -10 -33 0 -40 -3 -40 -20 0 -13 -7 -20 -18
-20 -32 0 -34 13 -5 37 29 23 103 33 103 13z m80 -15 c0 -15 -6 -25 -14 -25
-24 0 -30 22 -11 37 25 17 25 17 25 -12z m270 21 c0 -2 -7 -6 -15 -10 -8 -3
-15 -1 -15 4 0 6 7 10 15 10 8 0 15 -2 15 -4z m-753 -12 c-3 -3 -12 -4 -19 -1
-8 3 -5 6 6 6 11 1 17 -2 13 -5z m996 -1 c-7 -2 -19 -2 -25 0 -7 3 -2 5 12 5
14 0 19 -2 13 -5z m2916 -23 c14 -42 -8 -40 -78 6 -11 8 15 24 39 24 22 0 30
-6 39 -30z m-3852 4 c-3 -3 -12 -4 -19 -1 -8 3 -5 6 6 6 11 1 17 -2 13 -5z
m930 -10 c-3 -3 -12 -4 -19 -1 -8 3 -5 6 6 6 11 1 17 -2 13 -5z m-852 -24 c3
-5 -1 -10 -9 -10 -9 0 -16 5 -16 10 0 6 4 10 9 10 6 0 13 -4 16 -10z m835 0
c11 -7 3 -10 -30 -10 -33 0 -41 3 -30 10 8 5 22 10 30 10 8 0 22 -5 30 -10z
m-675 -17 c-11 -3 -23 -10 -26 -15 -4 -6 -13 -7 -20 -3 -15 10 13 24 46 23
l20 0 -20 -5z m185 -18 c0 -19 -5 -25 -22 -24 -13 0 -32 4 -43 8 -18 8 -16 10
15 24 48 21 50 21 50 -8z m383 18 c-7 -2 -19 -2 -25 0 -7 3 -2 5 12 5 14 0 19
-2 13 -5z m-501 -35 c-16 -16 -15 -35 1 -41 6 -2 -1 -2 -18 1 -16 2 -32 7 -35
11 -3 4 -16 12 -30 19 -25 12 -25 12 5 7 17 -2 41 2 55 9 28 16 40 12 22 -6z
m118 -45 c0 -5 -14 -9 -30 -10 -17 -1 -30 2 -30 7 0 6 14 10 30 10 17 0 30 -3
30 -7z m237 -9 c-3 -3 -12 -4 -19 -1 -8 3 -5 6 6 6 11 1 17 -2 13 -5z m-62
-44 c3 -5 1 -10 -4 -10 -6 0 -11 5 -11 10 0 6 2 10 4 10 3 0 8 -4 11 -10z
m-25 -40 c0 -5 -7 -10 -15 -10 -8 0 -15 5 -15 10 0 6 7 10 15 10 8 0 15 -4 15
-10z m3325 -61 c22 -12 60 -33 85 -47 130 -73 184 -102 191 -102 5 0 9 -4 9
-8 0 -4 12 -13 28 -19 15 -6 55 -27 89 -47 34 -19 113 -63 175 -98 153 -85
168 -101 168 -182 0 -71 -31 -144 -94 -221 -35 -41 -104 -85 -136 -85 -21 0
-70 58 -69 81 0 11 2 11 6 -1 32 -81 151 -36 212 80 62 116 51 220 -23 220
-40 0 -109 -47 -131 -89 -8 -16 -19 -33 -25 -36 -8 -5 -186 78 -200 94 -8 10
-63 41 -102 59 -21 9 -38 20 -38 24 0 5 -5 8 -11 8 -9 0 -73 34 -232 123 -12
6 -24 14 -27 17 -10 10 -76 38 -108 44 -17 4 -32 13 -32 21 0 20 83 128 116
150 61 42 92 44 149 14z m-1129 -127 c38 -21 146 -82 239 -134 294 -164 319
-178 355 -196 19 -9 37 -20 40 -23 3 -3 19 -12 35 -21 58 -29 190 -100 200
-108 12 -10 72 -43 145 -83 30 -16 69 -37 85 -47 17 -10 50 -29 75 -42 45 -25
123 -70 148 -86 11 -7 10 -17 -6 -53 -74 -164 -94 -297 -52 -339 11 -11 26
-20 33 -20 29 1 95 40 127 77 54 62 63 74 103 146 22 40 39 56 53 50 23 -8 17
-30 -27 -96 -60 -90 -165 -189 -217 -206 -48 -16 -45 -17 -177 59 -38 22 -81
46 -95 52 -14 7 -27 15 -30 18 -3 3 -27 17 -54 30 -55 28 -62 40 -46 70 17 32
3 59 -46 82 -44 20 -45 20 -65 2 -21 -19 -21 -19 -18 11 4 27 -1 33 -44 55
l-48 25 -24 -27 c-32 -37 -36 -35 -29 10 5 35 3 38 -35 60 -47 26 -69 28 -77
7 -4 -8 -12 -15 -20 -15 -17 0 -17 5 -4 30 15 29 2 48 -47 66 l-46 18 -23 -27
c-24 -28 -43 -34 -59 -18 -12 11 -60 38 -165 94 -41 22 -95 51 -120 64 -25 13
-70 39 -100 58 -30 19 -80 46 -110 61 -30 15 -86 46 -125 69 -38 23 -86 49
-105 59 -82 41 -236 126 -273 152 -17 11 -16 14 19 48 l36 35 42 -27 c92 -62
203 -89 254 -63 9 5 31 15 47 22 36 16 95 61 95 72 0 4 10 23 23 42 26 42 35
41 133 -13z m-1184 -18 c44 -22 61 -26 109 -21 55 5 57 4 105 -40 27 -24 64
-51 82 -60 35 -17 42 -33 15 -32 -31 1 -131 24 -139 32 -4 4 -16 7 -27 7 -10
0 -31 8 -45 18 -15 10 -39 24 -53 31 -30 15 -118 90 -106 91 4 0 31 -12 59
-26z m-2410 -76 c-9 -9 -15 -9 -24 0 -9 9 -7 12 12 12 19 0 21 -3 12 -12z m74
-39 c-2 -14 -6 -32 -8 -39 -2 -9 6 -16 20 -18 12 -2 22 -7 22 -11 0 -10 -49
-56 -54 -50 -9 9 -24 103 -19 117 3 7 0 17 -6 22 -7 4 1 7 19 6 28 -1 31 -4
26 -27z m-96 13 c0 -4 -5 -13 -11 -19 -13 -13 9 -53 29 -53 7 0 10 -4 7 -10
-11 -18 -35 -10 -35 11 0 18 -3 19 -15 9 -8 -6 -20 -10 -27 -7 -8 3 -6 6 5 6
10 1 16 5 13 10 -8 13 11 61 24 61 5 0 10 -4 10 -8z m183 -39 c-7 -2 -19 -2
-25 0 -7 3 -2 5 12 5 14 0 19 -2 13 -5z m134 -29 c-3 -3 -12 -4 -19 -1 -8 3
-5 6 6 6 11 1 17 -2 13 -5z m43 -19 c0 -8 -4 -15 -10 -15 -5 0 -10 7 -10 15 0
8 5 15 10 15 6 0 10 -7 10 -15z m-30 -45 c-8 -5 -17 -7 -19 -4 -3 3 1 9 9 14
8 5 17 7 19 4 3 -3 -1 -9 -9 -14z m165 0 c4 -6 -7 -10 -27 -9 -27 0 -30 2 -13
9 27 12 33 12 40 0z m-249 -20 c10 0 14 -12 14 -40 0 -36 3 -40 25 -40 23 0
25 4 25 40 0 22 5 40 10 40 6 0 10 -18 10 -40 0 -22 -4 -40 -10 -40 -6 0 -10
-33 -10 -80 0 -47 4 -80 10 -80 6 0 10 -18 10 -40 0 -22 -4 -40 -10 -40 -5 0
-10 -18 -10 -40 l0 -40 -120 0 -120 0 0 80 c0 79 0 80 -25 80 -22 0 -25 4 -25
40 0 36 3 40 25 40 23 0 25 4 25 40 l0 40 40 0 c22 0 40 -4 40 -10 0 -5 18
-10 40 -10 22 0 40 5 40 10 0 6 -7 10 -15 10 -11 0 -15 11 -15 35 0 34 21 74
28 54 2 -5 10 -9 18 -9z m156 2 c-7 -2 -12 -21 -12 -43 0 -21 -4 -39 -10 -39
-5 0 -10 18 -10 39 0 22 -6 42 -12 45 -7 4 -3 4 10 2 12 -2 22 0 22 6 0 5 5 6
12 2 9 -6 9 -9 0 -12z m-494 -29 c-3 -21 -8 -47 -12 -58 -5 -12 -4 -15 1 -8 5
7 8 -3 8 -28 0 -21 -3 -39 -7 -39 -5 0 -8 6 -8 14 0 32 -16 22 -17 -10 -1 -19
3 -34 7 -34 4 0 10 -13 12 -30 5 -32 4 -33 -30 -24 -22 6 -22 7 -5 26 14 16
15 21 4 28 -8 4 -11 15 -8 25 4 9 3 14 -3 10 -16 -10 -12 8 20 86 16 41 30 75
30 77 0 1 3 2 6 2 3 0 4 -17 2 -37z m705 0 c-7 -2 -19 -2 -25 0 -7 3 -2 5 12
5 14 0 19 -2 13 -5z m-643 -15 c0 -7 -5 -20 -10 -28 -9 -13 -11 -13 -20 0 -16
24 -12 40 10 40 11 0 20 -6 20 -12z m640 -8 c0 -5 -11 -10 -24 -10 -14 0 -28
5 -31 10 -4 6 7 10 24 10 17 0 31 -4 31 -10z m98 -10 c15 0 15 -2 2 -10 -8 -5
-31 -9 -50 -8 -23 0 -28 2 -12 5 13 3 19 9 16 15 -5 8 -1 9 10 5 10 -4 25 -7
34 -7z m-721 -142 c-2 -24 -4 -5 -4 42 0 47 2 66 4 43 2 -24 2 -62 0 -85z
m763 92 c0 -5 -2 -10 -4 -10 -3 0 -8 5 -11 10 -3 6 -1 10 4 10 6 0 11 -4 11
-10z m-200 -26 c0 -13 13 -15 90 -13 49 2 92 0 96 -4 4 -4 -45 -7 -109 -7 -64
0 -117 4 -117 8 0 10 22 32 32 32 4 0 8 -7 8 -16z m334 1 c8 -8 22 -15 31 -15
14 0 13 -4 -6 -20 l-24 -20 28 -25 c26 -23 26 -25 8 -25 -14 0 -26 -11 -35
-32 l-14 -33 -1 33 c-1 17 -5 32 -11 32 -5 0 -10 6 -10 14 0 7 -7 19 -15 26
-18 15 -20 40 -4 40 7 0 18 -8 25 -17 12 -17 13 -16 14 5 0 18 -5 22 -30 22
-26 0 -29 2 -18 15 17 19 43 19 62 0z m-431 -22 c-13 -2 -33 -2 -45 0 -13 2
-3 4 22 4 25 0 35 -2 23 -4z m587 -23 c13 -9 13 -11 0 -20 -12 -8 -8 -10 15
-11 l30 -2 -28 -4 c-15 -2 -25 -9 -22 -14 4 -5 1 -9 -5 -9 -6 0 -10 6 -9 13 5
37 -2 46 -38 50 l-38 4 40 1 c22 1 47 -3 55 -8z m-1209 -47 c-9 -16 -10 -14
-11 12 0 21 3 26 11 18 8 -8 8 -16 0 -30z m1309 -27 c1 -19 2 -19 15 4 13 22
14 23 15 5 0 -11 7 -29 15 -39 8 -10 12 -23 9 -27 -3 -5 0 -9 6 -9 6 0 8 -4 5
-10 -3 -6 -17 1 -31 15 -14 14 -29 25 -33 25 -5 0 -13 13 -19 28 -8 23 -7 29
4 29 8 0 14 -10 14 -21z m-750 -26 c0 -22 -4 -40 -10 -40 -5 0 -10 18 -10 40
0 22 5 40 10 40 6 0 10 -18 10 -40z m-561 -17 c1 -7 -3 -13 -9 -13 -5 0 -10
15 -9 33 0 27 2 29 9 12 5 -11 9 -26 9 -32z m1236 15 c7 -6 3 -14 -9 -24 -11
-8 -14 -14 -8 -14 8 0 12 -25 12 -80 0 -64 -3 -80 -15 -80 -11 0 -15 -11 -15
-40 l0 -40 55 0 55 0 0 -40 c0 -36 3 -40 25 -40 23 0 25 -4 25 -40 l0 -40 40
0 c40 0 40 0 40 -39 0 -22 5 -41 11 -43 6 -2 8 -14 4 -28 -6 -24 -8 -25 -90
-22 -82 3 -85 4 -85 28 0 13 5 24 10 24 6 0 10 18 10 40 l0 40 -75 0 -75 0 0
80 c0 64 -3 80 -15 80 -12 0 -15 16 -15 80 l0 80 40 0 40 0 0 40 c0 38 -2 40
-30 40 -36 0 -37 6 -8 37 22 23 50 24 73 1z m2509 -4 c23 -9 20 -31 -6 -39
-24 -8 -88 -64 -88 -77 0 -5 -8 -18 -18 -29 -19 -19 -26 -33 -57 -102 -20 -46
-31 -107 -19 -107 5 0 15 13 22 28 6 16 21 38 32 50 11 12 20 24 20 26 0 17
111 126 164 162 42 29 67 30 89 6 16 -18 15 -19 -10 -31 -169 -77 -224 -128
-288 -268 l-29 -63 -88 0 c-48 0 -88 4 -88 8 0 5 9 27 20 50 11 22 20 53 20
67 0 30 -2 29 38 9 38 -18 44 -15 70 33 33 65 64 117 83 145 11 14 19 28 19
31 0 3 14 28 31 56 31 50 48 59 83 45z m-3707 -30 c-3 -3 -12 -4 -19 -1 -8 3
-5 6 6 6 11 1 17 -2 13 -5z m-61 -51 c-11 -11 -19 6 -11 24 8 17 8 17 12 0 3
-10 2 -21 -1 -24z m1391 -5 c-3 -8 -6 -5 -6 6 -1 11 2 17 5 13 3 -3 4 -12 1
-19z m25 -17 c-4 -30 15 -61 37 -61 6 0 11 -4 11 -10 0 -16 -23 -11 -48 10
-19 16 -21 25 -16 59 4 22 10 39 14 36 3 -2 5 -18 2 -34z m-1316 -8 c-10 -10
-19 5 -10 18 6 11 8 11 12 0 2 -7 1 -15 -2 -18z m1364 -38 c0 -3 -9 -1 -20 5
-11 6 -20 18 -20 27 0 14 3 13 20 -5 11 -12 20 -24 20 -27z m-76 4 c3 -17 4
-35 1 -39 -3 -5 4 -6 15 -3 24 6 39 -22 21 -40 -10 -9 -15 -8 -25 6 -9 11 -28
18 -57 18 -30 2 -35 3 -16 6 24 4 27 8 27 44 0 48 24 54 34 8z m-1386 -11 c-4
-27 -28 -36 -28 -10 0 20 8 32 22 32 5 0 8 -10 6 -22z m1534 10 c27 -26 94
-75 118 -88 14 -8 20 -15 13 -17 -19 -7 -84 35 -122 78 -32 37 -37 53 -9 27z
m9 -99 c15 -15 25 -30 22 -33 -11 -11 -23 -6 -23 9 0 8 -7 15 -15 15 -8 0 -15
-4 -15 -10 0 -5 -5 -10 -10 -10 -7 0 -7 7 1 21 9 18 8 24 -4 31 -10 5 -14 15
-10 24 5 14 7 14 16 -2 5 -11 22 -31 38 -45z m-1534 -11 c-2 -13 -4 -3 -4 22
0 25 2 35 4 23 2 -13 2 -33 0 -45z m-26 -8 c5 0 8 -21 7 -47 l-1 -48 -7 45
c-6 42 -6 43 -12 15 -3 -18 -5 -7 -5 30 0 33 2 48 4 33 2 -16 9 -28 14 -28z
m1509 20 c0 -5 -7 -7 -15 -4 -8 4 -15 8 -15 10 0 2 7 4 15 4 8 0 15 -4 15 -10z
m-1310 -110 c0 -64 -3 -80 -15 -80 -11 0 -15 11 -15 40 0 22 5 40 10 40 6 0
10 18 10 40 0 22 2 40 5 40 3 0 5 -36 5 -80z m240 40 c0 -22 -4 -40 -10 -40
-15 0 -13 -157 2 -162 9 -3 7 -14 -5 -41 -21 -44 -33 -46 -49 -9 l-12 27 -4
-27 c-3 -25 -7 -28 -43 -28 -39 0 -39 0 -39 -40 l0 -40 -40 0 c-29 0 -40 -4
-40 -15 0 -11 11 -15 40 -15 l40 0 0 -80 0 -80 120 0 c100 0 120 3 120 15 0
11 11 15 40 15 22 0 40 -4 40 -10 0 -5 18 -10 40 -10 33 0 40 -3 40 -20 0 -17
-7 -20 -40 -20 l-40 0 0 -75 0 -75 -160 0 -160 0 0 25 c0 16 -6 25 -15 25 -11
0 -15 11 -15 40 0 29 4 40 15 40 8 0 15 7 15 15 0 12 -16 15 -80 15 l-80 0 0
74 0 74 32 11 c30 11 31 12 13 31 -18 19 -17 20 3 20 19 0 22 6 22 40 0 38 2
40 30 40 l30 0 0 80 c0 64 3 80 15 80 12 0 15 16 15 80 l0 80 80 0 80 0 0 -40z
m1202 20 c6 0 8 -7 4 -15 -4 -12 3 -15 31 -15 36 0 36 -1 20 -17 -13 -13 -20
-15 -25 -6 -10 16 -48 21 -44 6 3 -16 -10 -17 -26 -1 -9 9 -15 9 -24 0 -15
-15 -38 -16 -38 -2 0 6 9 10 20 10 11 0 20 5 20 10 0 6 -4 10 -10 10 -5 0 -10
4 -10 9 0 11 38 20 58 15 8 -2 18 -4 24 -4z m28 -81 c0 -6 -4 -7 -10 -4 -5 3
-10 11 -10 16 0 6 5 7 10 4 6 -3 10 -11 10 -16z m142 -22 c87 -137 266 -271
425 -318 24 -7 50 -23 60 -37 10 -14 28 -36 41 -49 12 -13 22 -27 22 -31 0 -8
83 -62 122 -79 35 -15 35 -19 -4 -39 -35 -18 -98 -13 -135 11 -24 16 -79 48
-135 78 -21 12 -38 24 -38 29 0 4 -5 8 -10 8 -6 0 -29 11 -51 26 -22 14 -55
33 -72 43 -18 10 -61 37 -97 59 -36 23 -89 55 -117 72 -29 17 -62 45 -74 61
-35 50 -29 138 14 197 14 19 20 15 49 -31z m-1802 -100 c-14 -42 -13 -57 5
-51 17 7 20 -13 5 -36 -8 -13 -10 -12 -10 3 0 9 -2 17 -5 17 -13 0 -45 -42
-45 -60 0 -11 -4 -20 -10 -20 -5 0 -10 -8 -10 -17 -1 -16 -2 -16 -12 1 -8 14
-8 24 1 38 6 10 9 23 6 28 -4 6 1 10 10 10 16 0 39 45 32 64 -3 6 -1 40 3 76
l7 65 2 -64 c1 -82 14 -72 14 11 l0 63 9 -49 c6 -32 5 -59 -2 -79z m27 -9 c-3
-7 -5 -2 -5 12 0 14 2 19 5 13 2 -7 2 -19 0 -25z m80 -70 c-2 -13 -4 -3 -4 22
0 25 2 35 4 23 2 -13 2 -33 0 -45z m1432 45 c0 -17 -17 -64 -18 -53 -1 3 -5
20 -10 38 -9 28 -7 32 10 32 12 0 19 -7 18 -17z m18 -5 c-3 -8 -6 -5 -6 6 -1
11 2 17 5 13 3 -3 4 -12 1 -19z m33 -20 c0 -32 -3 -39 -10 -28 -13 20 -13 70
0 70 6 0 10 -19 10 -42z m30 -18 c0 -11 -4 -20 -10 -20 -5 0 -10 9 -10 20 0
11 5 20 10 20 6 0 10 -9 10 -20z m-70 -85 c0 -8 8 -15 19 -15 10 0 24 -7 31
-15 11 -13 8 -17 -18 -27 -17 -7 -33 -19 -36 -28 -2 -8 -4 4 -5 28 -1 41 -2
42 -36 42 -24 0 -35 5 -35 15 0 11 11 15 40 15 29 0 40 -4 40 -15z m-1637 -54
c-5 -20 -3 -22 16 -16 12 3 21 2 21 -4 0 -5 17 -12 38 -14 20 -2 10 -3 -23 -1
-53 4 -62 2 -74 -18 l-14 -22 -9 23 c-6 17 -2 33 14 62 23 41 43 36 31 -10z
m1804 -4 c-2 -25 -60 -20 -65 6 -3 14 3 17 31 15 27 -2 35 -7 34 -21z m81 -37
c2 -14 -1 -20 -5 -14 -4 6 -15 14 -23 17 -11 4 -10 6 5 7 l20 1 -20 10 -20 9
20 -3 c13 -1 21 -11 23 -27z m-1943 -29 c-3 -5 -1 -12 5 -16 12 -8 13 -65 1
-65 -16 0 -56 38 -48 46 4 5 12 2 17 -6 7 -11 10 -6 10 18 0 17 5 32 11 32 5
0 8 -4 4 -9z m1455 -36 c0 -11 -11 -15 -40 -15 -29 0 -40 4 -40 15 0 11 11 15
40 15 29 0 40 -4 40 -15z m573 -5 c3 -11 2 -20 -2 -20 -3 0 -12 9 -19 20 -10
16 -10 20 2 20 7 0 16 -9 19 -20z m-133 0 c10 -7 -7 -9 -55 -8 -65 1 -67 1
-25 8 25 4 50 8 55 8 6 1 17 -3 25 -8z m87 4 c-3 -3 -12 -4 -19 -1 -8 3 -5 6
6 6 11 1 17 -2 13 -5z m90 -10 c-3 -3 -12 -4 -19 -1 -8 3 -5 6 6 6 11 1 17 -2
13 -5z m-617 -34 c0 -17 -7 -20 -40 -20 -33 0 -40 3 -40 20 0 17 7 20 40 20
33 0 40 -3 40 -20z m-1492 -48 c-16 -2 -28 -9 -28 -17 0 -7 -10 -15 -22 -17
-27 -4 -39 -48 -14 -48 9 0 16 5 16 10 0 20 16 10 17 -11 1 -16 -3 -20 -15
-16 -61 20 -61 20 -73 -7 -12 -26 -20 -31 -32 -20 -6 6 21 49 58 89 11 13 28
34 38 49 18 26 18 26 50 9 l32 -18 -27 -3z m1332 13 c0 -10 10 -15 30 -15 37
0 38 -12 2 -42 -27 -23 -28 -26 -22 -83 4 -33 5 -64 2 -70 -11 -17 -9 -45 2
-45 6 0 4 -5 -4 -10 -8 -5 -10 -10 -5 -11 13 -1 -26 -17 -43 -18 -7 -1 -10 4
-7 9 3 6 -4 11 -17 11 -17 1 -18 3 -5 6 22 6 25 93 3 93 -10 0 -16 -22 -21
-77 -6 -60 -11 -80 -29 -94 -23 -20 -46 -25 -46 -10 0 5 7 12 16 15 15 6 16
24 12 163 -4 103 -10 159 -17 161 -6 2 -11 10 -11 18 0 11 18 14 80 14 64 0
80 -3 80 -15z m448 5 c30 0 32 -2 32 -35 0 -34 1 -35 40 -35 29 0 40 -4 40
-15 0 -11 -11 -15 -40 -15 -36 0 -40 -2 -40 -25 0 -22 -4 -25 -40 -25 -22 0
-40 5 -40 10 0 6 -18 10 -40 10 l-40 0 0 64 c0 63 1 65 28 69 15 2 36 3 47 1
11 -2 35 -4 53 -4z m337 -10 c27 -7 25 -8 -17 -9 -27 0 -48 4 -48 9 0 11 21
11 65 0z m68 3 c-7 -2 -19 -2 -25 0 -7 3 -2 5 12 5 14 0 19 -2 13 -5z m-2063
-53 c0 -33 -3 -40 -20 -40 -17 0 -20 7 -20 40 0 33 3 40 20 40 17 0 20 -7 20
-40z m2130 15 c8 -9 8 -15 2 -15 -18 0 -42 12 -42 21 0 14 26 10 40 -6z m733
8 c-7 -2 -13 -11 -13 -19 0 -8 -4 -14 -8 -14 -4 0 -8 9 -8 20 0 14 7 20 21 19
11 0 14 -3 8 -6z m-686 -35 c-3 -8 -6 -5 -6 6 -1 11 2 17 5 13 3 -3 4 -12 1
-19z m600 6 c-3 -3 -12 -4 -19 -1 -8 3 -5 6 6 6 11 1 17 -2 13 -5z m-1887 -49
l0 -45 -40 0 -40 0 0 45 0 45 40 0 40 0 0 -45z m1310 15 c-8 -5 -19 -9 -25 -9
-5 0 -4 3 3 6 6 2 12 12 12 21 0 13 3 13 12 4 10 -10 10 -15 -2 -22z m40 9 c0
-6 -4 -7 -10 -4 -5 3 -10 11 -10 16 0 6 5 7 10 4 6 -3 10 -11 10 -16z m553 4
c-7 -2 -19 -2 -25 0 -7 3 -2 5 12 5 14 0 19 -2 13 -5z m-680 -10 c-18 -3 -23
-11 -23 -34 0 -27 -2 -29 -40 -29 -39 0 -40 1 -40 35 l0 35 63 -1 c34 -1 52
-4 40 -6z m687 -16 c0 -14 -35 -39 -44 -30 -11 11 -6 23 9 23 8 0 15 5 15 10
0 6 5 10 10 10 6 0 10 -6 10 -13z m-1395 -48 c8 -25 -21 -62 -33 -43 -4 6 -12
13 -18 15 -8 3 -9 12 -3 27 11 28 45 29 54 1z m930 -1 c7 -7 1 -8 -20 -4 -16
4 -34 12 -40 18 -7 7 -1 8 20 4 17 -4 35 -12 40 -18z m-1025 -53 c-17 -20 -50
-19 -50 2 0 9 8 24 18 33 16 16 18 16 30 -2 11 -15 11 -22 2 -33z m1433 16
c-7 -25 -48 -51 -72 -44 -11 3 -21 10 -21 15 0 6 9 8 20 5 15 -4 22 1 26 19 3
13 12 24 20 24 8 0 14 6 14 13 0 9 3 8 9 -2 5 -7 7 -21 4 -30z m-136 23 c-3
-3 -12 -4 -19 -1 -8 3 -5 6 6 6 11 1 17 -2 13 -5z m-2597 -65 c0 -59 -1 -61
-22 -55 -13 3 -30 6 -38 6 -8 1 -1 7 15 15 l30 13 -32 1 c-32 1 -33 3 -33 41
l0 40 40 0 40 0 0 -61z m1503 54 c-13 -2 -33 -2 -45 0 -13 2 -3 4 22 4 25 0
35 -2 23 -4z m-1783 -65 c0 -4 -6 -8 -14 -8 -8 0 -16 -5 -18 -12 -3 -7 -12 -4
-26 10 -13 13 -27 20 -32 17 -15 -9 -12 11 4 24 11 9 15 6 20 -14 9 -36 23
-31 18 6 l-5 31 27 -23 c14 -12 26 -26 26 -31z m1700 37 c0 -8 -2 -15 -4 -15
-2 0 -6 7 -10 15 -3 8 -1 15 4 15 6 0 10 -7 10 -15z m1012 4 c47 -9 138 -45
138 -54 0 -2 -9 -1 -20 2 -11 3 -20 0 -20 -6 0 -6 -11 -11 -25 -11 -20 0 -25
5 -25 25 0 17 -6 25 -17 25 -16 0 -18 -10 -15 -93 3 -82 1 -96 -17 -118 -16
-19 -23 -21 -29 -11 -6 9 -24 13 -48 11 -22 -1 -49 4 -61 12 -21 12 -23 22
-23 91 0 88 5 92 73 63 51 -21 57 -19 57 20 0 34 -1 35 -40 35 -22 0 -40 5
-40 10 0 13 46 13 112 -1z m-1069 -51 c-4 -7 -6 -21 -5 -31 3 -16 1 -17 -18
-5 l-21 13 22 18 c25 20 33 22 22 5z m1307 1 c13 -9 13 -10 -2 -6 -9 3 -24 -3
-33 -13 -15 -17 -15 -19 2 -29 15 -9 11 -11 -22 -10 -74 0 -85 -1 -85 -11 0
-6 -11 -10 -25 -10 -14 0 -25 5 -25 10 0 6 11 10 25 10 18 0 25 5 25 20 0 11
7 20 15 20 8 0 15 -4 15 -8 0 -4 12 -7 28 -6 39 3 39 3 17 21 -19 15 -19 15 8
9 16 -4 27 -2 27 4 0 13 11 13 30 -1z m-2113 -61 c-2 -13 -4 -3 -4 22 0 25 2
35 4 23 2 -13 2 -33 0 -45z m113 23 c0 -22 -4 -41 -9 -43 -4 -1 -10 -24 -13
-51 -5 -39 -3 -45 8 -36 7 6 21 9 31 6 16 -4 15 -6 -4 -12 -13 -4 -23 -14 -23
-22 0 -12 -9 -14 -47 -8 -27 3 -57 12 -68 20 -12 7 -66 18 -120 24 -55 5 -101
14 -103 19 -1 5 -23 7 -47 4 -27 -3 -51 0 -59 7 -14 12 -216 13 -216 1 0 -11
-180 -21 -198 -11 -13 7 -12 10 7 21 13 6 25 9 28 6 4 -3 13 0 21 6 11 10 17
9 27 -5 13 -18 31 -24 20 -7 -9 14 8 13 23 -2 9 -9 21 -9 50 0 49 15 286 16
277 2 -3 -5 -2 -10 4 -10 5 0 13 5 16 10 9 14 67 12 87 -4 10 -7 15 -16 11
-19 -3 -4 1 -7 10 -7 10 0 17 5 17 10 0 6 8 5 20 -2 16 -10 24 -10 39 -1 12 8
21 9 23 2 2 -6 15 -5 37 2 25 9 35 9 41 0 5 -9 16 -8 43 5 36 17 37 19 37 76
0 45 3 58 15 58 11 0 15 -11 15 -39z m325 29 c-72 -12 -115 -11 -115 0 0 6 33
9 83 9 77 -2 79 -2 32 -9z m685 0 c0 -5 -18 -10 -40 -10 -22 0 -40 5 -40 10 0
6 18 10 40 10 22 0 40 -4 40 -10z m557 -52 c-2 -13 -4 -3 -4 22 0 25 2 35 4
23 2 -13 2 -33 0 -45z m560 -15 c0 -32 4 -110 8 -173 l8 -115 -21 18 c-27 24
-36 65 -20 85 9 11 10 16 2 19 -8 3 -8 14 1 41 8 23 10 44 4 60 -5 13 -9 38
-9 55 l-1 32 -14 -25 c-8 -14 -14 -21 -15 -17 0 5 -16 -1 -36 -12 -20 -12 -39
-19 -42 -17 -9 10 20 36 40 36 10 0 16 5 13 10 -3 6 3 10 14 10 12 0 21 5 21
11 0 11 28 38 40 39 3 0 6 -26 7 -57z m-3207 32 c0 -8 -9 -15 -20 -15 -20 0
-26 11 -13 23 12 13 33 7 33 -8z m330 -9 c0 -8 6 -17 13 -19 7 -4 6 -6 -5 -6
-9 -1 -23 -4 -32 -7 -19 -7 -22 16 -4 34 16 16 28 15 28 -2z m1220 4 c0 -5 -4
-10 -10 -10 -5 0 -10 5 -10 10 0 6 5 10 10 10 6 0 10 -4 10 -10z m189 -29 c-3
-6 -10 -7 -18 -2 -7 5 -10 14 -6 21 9 14 29 -2 24 -19z m1281 3 c0 -8 -5 -12
-10 -9 -6 4 -8 11 -5 16 9 14 15 11 15 -7z m-1460 -8 c0 -20 -47 -66 -79 -77
-17 -6 -32 -18 -34 -27 -3 -12 -5 -10 -6 6 -1 12 -7 22 -16 22 -8 0 -15 4 -15
9 0 13 28 33 38 27 13 -8 94 33 87 44 -4 6 1 10 9 10 9 0 16 -6 16 -14z
m-1492 -8 c-3 -7 -15 -13 -28 -13 -13 0 -25 6 -27 13 -3 8 6 12 27 12 21 0 30
-4 28 -12z m345 5 c-7 -2 -19 -2 -25 0 -7 3 -2 5 12 5 14 0 19 -2 13 -5z
m2578 -3 c6 0 7 -4 4 -10 -10 -16 -45 -12 -45 6 0 11 5 14 16 10 9 -3 20 -6
25 -6z m-2184 -6 c-3 -3 -12 -4 -19 -1 -8 3 -5 6 6 6 11 1 17 -2 13 -5z m-877
-31 c0 -22 -2 -25 -10 -13 -8 13 -11 12 -24 -5 -21 -28 -20 -35 9 -35 14 0 25
5 25 10 0 6 6 10 14 10 9 0 12 -7 9 -19 -4 -16 -11 -18 -39 -14 -26 4 -34 2
-34 -10 0 -14 -32 -28 -71 -32 -9 -1 -21 -5 -28 -9 -6 -4 -11 -2 -11 4 0 6 8
14 17 17 10 4 28 20 41 35 13 15 30 28 38 28 8 0 14 5 14 11 0 10 37 49 47 49
1 0 3 -12 3 -27z m218 6 c-12 -7 -24 -7 -35 0 -15 9 -12 10 17 10 29 0 32 -1
18 -10z m1532 4 c-1 -15 -30 -46 -37 -40 -3 4 2 16 12 27 19 21 25 24 25 13z
m1258 -30 c2 -8 -5 -13 -17 -13 -18 0 -20 -7 -24 -82 l-3 -83 -2 98 c-2 96 -1
98 20 95 12 -2 23 -9 26 -15z m122 -4 c0 -5 -4 -7 -10 -4 -6 3 -7 -1 -4 -9 3
-9 1 -16 -5 -16 -6 0 -11 9 -11 20 0 11 7 20 15 20 8 0 15 -5 15 -11z m-1053
-6 c-6 -9 56 -8 165 2 56 5 78 4 83 -5 6 -9 4 -11 -4 -5 -7 4 -43 4 -79 0 -45
-5 -60 -10 -48 -15 18 -6 18 -7 -5 -13 -13 -4 -61 -7 -106 -7 -82 0 -83 0 -83
25 0 23 4 25 41 25 22 0 38 -3 36 -7z m-1881 -13 c-16 -5 -33 -7 -37 -5 -4 3
-20 -2 -35 -10 -34 -17 -60 -19 -69 -5 -13 21 7 27 87 28 63 1 76 -1 54 -8z
m2297 3 c-7 -2 -21 -2 -30 0 -10 3 -4 5 12 5 17 0 24 -2 18 -5z m94 1 c-3 -3
-12 -4 -19 -1 -8 3 -5 6 6 6 11 1 17 -2 13 -5z m133 -13 c0 -24 43 -53 66 -44
14 5 16 3 11 -11 -4 -10 -7 -27 -7 -37 0 -11 -4 -17 -10 -14 -5 3 -10 15 -10
26 0 10 -4 19 -10 19 -5 0 -10 -18 -10 -40 0 -22 -4 -40 -8 -40 -5 0 -14 18
-21 40 -6 22 -17 40 -24 40 -7 0 -5 7 5 16 15 15 15 19 1 40 -14 22 -14 24 1
24 9 0 16 -8 16 -19z m-256 -6 c15 -8 40 -14 55 -14 22 1 21 3 -9 9 -32 7 -31
7 18 9 33 1 51 -3 47 -9 -3 -5 -1 -10 6 -10 8 0 9 -3 4 -9 -10 -10 -278 5
-305 17 -8 3 12 9 45 12 100 11 109 10 139 -5z m-1184 -5 c0 -5 -2 -10 -4 -10
-3 0 -8 5 -11 10 -3 6 -1 10 4 10 6 0 11 -4 11 -10z m273 -8 c-6 -4 -13 -16
-16 -27 -4 -16 -5 -14 -6 7 0 14 5 28 12 31 16 6 24 -2 10 -11z m154 2 c3 -8
15 -14 27 -13 91 7 84 -20 -10 -38 -38 -7 -70 -17 -72 -23 -4 -10 -32 -14 -32
-4 0 11 25 31 36 27 6 -2 22 1 35 6 l24 10 -22 7 c-14 4 -23 14 -23 25 0 23
28 25 37 3z m208 4 c6 -1 24 2 40 6 24 6 28 5 18 -5 -18 -18 -105 -18 -111 0
-4 11 1 12 19 7 13 -4 29 -8 34 -8z m-672 -31 c42 -2 41 -1 26 -28 -9 -19 -12
-19 -33 -6 -12 9 -33 17 -46 19 -13 1 -25 8 -27 15 -5 13 29 23 38 10 3 -4 22
-9 42 -10z m227 -18 c0 -10 5 -21 10 -24 6 -3 10 1 10 9 0 9 5 16 10 16 6 0
10 -9 10 -20 0 -11 -4 -20 -10 -20 -5 0 -10 -11 -10 -24 0 -14 -4 -28 -10 -31
-5 -3 -10 -15 -10 -26 0 -10 -4 -19 -9 -19 -5 0 -13 -12 -18 -27 l-10 -28 -28
43 c-15 23 -31 42 -36 42 -4 0 -24 16 -45 35 -20 19 -41 35 -45 35 -5 0 -6 7
-3 15 8 20 21 19 41 -5 10 -11 27 -20 39 -20 12 0 32 -9 45 -21 17 -15 19 -19
7 -15 -25 8 -22 -7 7 -34 18 -17 25 -20 26 -9 1 8 3 21 4 29 1 8 3 22 4 30 1
13 2 13 11 0 7 -11 10 -7 10 17 0 17 -7 38 -15 47 -8 8 -15 22 -15 32 0 13 3
14 15 4 8 -7 15 -21 15 -31z m1189 22 c20 -16 22 -22 14 -47 -8 -24 -16 -30
-46 -32 -21 -2 -35 -7 -32 -13 4 -5 2 -9 -4 -9 -5 0 -13 5 -16 10 -4 6 -59 9
-138 8 -108 -1 -120 -3 -67 -8 l65 -7 -73 -1 c-47 -1 -71 2 -67 8 4 6 -7 10
-27 10 l-33 0 25 -20 c31 -24 23 -25 -30 -4 -23 9 -38 20 -33 25 4 4 82 10
173 13 150 5 257 17 281 32 12 7 -15 34 -36 34 -9 0 -13 5 -10 10 9 15 27 12
54 -9z m-1292 -13 c-3 -8 -6 -5 -6 6 -1 11 2 17 5 13 3 -3 4 -12 1 -19z m-272
-79 c5 -5 17 -9 27 -9 10 0 18 -4 18 -10 0 -5 16 -17 35 -26 19 -9 35 -20 35
-25 0 -16 -31 -10 -57 11 -14 11 -33 20 -41 20 -9 0 -23 6 -31 14 -12 11 -46
15 -121 17 l-105 1 2 -41 c2 -44 -20 -59 -32 -21 -3 11 -13 20 -21 20 -11 0
-13 -6 -8 -22 6 -21 6 -21 -11 -4 -17 17 -17 19 -2 28 9 5 17 14 17 20 0 6 7
20 16 29 15 17 30 18 143 13 69 -3 130 -9 136 -15z m1625 -24 c0 -38 -10 -44
-34 -19 -19 19 -20 26 -4 42 23 23 38 13 38 -23z m-160 0 c0 -8 -7 -15 -15
-15 -8 0 -15 7 -15 15 0 8 7 15 15 15 8 0 15 -7 15 -15z m-218 -22 c17 -15 19
-15 37 1 13 11 27 15 40 11 31 -9 26 -19 -20 -39 -35 -16 -45 -16 -65 -5 -13
7 -24 18 -24 25 0 7 -6 15 -12 17 -7 3 -4 6 6 6 11 1 28 -6 38 -16z m-1438
-14 c-8 -14 -24 -10 -24 6 0 9 6 12 15 9 8 -4 12 -10 9 -15z m1269 10 c20 -5
37 -14 37 -19 0 -5 8 -11 18 -13 9 -2 6 -3 -8 -1 -14 1 -34 6 -45 9 -16 6 -17
5 -5 -4 10 -7 11 -11 3 -11 -7 0 -13 -11 -13 -25 0 -18 -5 -25 -18 -25 -30 0
-34 13 -10 32 19 15 20 18 6 18 -10 0 -18 5 -18 10 0 15 -47 12 -53 -2 -4 -9
-6 -8 -6 3 -2 37 40 48 112 28z m347 2 c0 -5 -9 -11 -20 -14 -13 -3 -20 0 -20
9 0 8 9 14 20 14 11 0 20 -4 20 -9z m-1370 -31 c0 -5 -4 -10 -10 -10 -5 0 -10
5 -10 10 0 6 5 10 10 10 6 0 10 -4 10 -10z m2065 0 c3 -5 1 -10 -4 -10 -6 0
-11 5 -11 10 0 6 2 10 4 10 3 0 8 -4 11 -10z m-2455 -20 c0 -11 -4 -20 -9 -20
-5 0 -11 9 -14 20 -3 13 0 20 9 20 8 0 14 -9 14 -20z m518 -25 c-8 -8 -48 8
-42 16 3 5 14 4 25 -2 12 -6 19 -12 17 -14z m802 6 c0 -6 -4 -13 -10 -16 -5
-3 -10 1 -10 9 0 9 5 16 10 16 6 0 10 -4 10 -9z m240 0 c0 -9 -80 -19 -100
-13 -6 2 -8 8 -4 13 7 12 104 12 104 0z m-1080 -21 c0 -5 -4 -10 -10 -10 -5 0
-10 5 -10 10 0 6 5 10 10 10 6 0 10 -4 10 -10z m-527 -17 c-5 -11 -3 -14 6 -8
10 6 11 3 1 -15 -6 -12 -9 -28 -6 -36 6 -16 -3 -18 -24 -4 -13 9 -12 12 4 25
11 8 16 18 12 22 -4 4 -11 1 -16 -7 -5 -8 -12 -11 -16 -7 -8 7 24 47 37 47 5
0 5 -7 2 -17z m591 -16 c7 -6 6 -7 -4 -4 -8 2 -16 12 -17 23 -2 13 -1 15 4 4
3 -8 11 -19 17 -23z m748 -17 c-5 -32 -22 -42 -22 -12 0 14 17 42 25 42 1 0 0
-13 -3 -30z m25 8 c-3 -8 -6 -5 -6 6 -1 11 2 17 5 13 3 -3 4 -12 1 -19z m1068
2 c3 -5 -1 -10 -9 -10 -9 0 -16 5 -16 10 0 6 4 10 9 10 6 0 13 -4 16 -10z
m125 -2 c0 -9 4 -8 11 2 8 11 9 6 6 -22 -7 -46 -57 -104 -98 -112 -17 -3 -28
-10 -25 -14 7 -11 -66 -52 -93 -52 -11 0 -21 -4 -21 -9 0 -5 -17 -11 -37 -15
-90 -13 -113 -19 -113 -27 0 -5 -16 -9 -36 -9 -19 0 -43 -4 -52 -9 -25 -12
-244 -23 -237 -11 4 6 -14 9 -47 8 -50 -1 -51 -2 -10 -5 60 -6 52 -23 -10 -22
-57 1 -174 15 -145 18 9 0 17 6 17 11 0 6 43 10 110 10 67 0 110 -4 110 -10 0
-5 9 -10 20 -10 11 0 20 5 20 10 0 6 35 11 83 12 l82 2 -95 6 c-88 6 -90 6
-30 9 85 3 194 12 199 17 2 2 -2 10 -8 18 -10 12 -10 20 3 38 l16 23 -5 -30
c-8 -46 5 -59 46 -46 19 6 51 13 72 16 20 3 37 10 37 15 0 6 11 10 23 10 13 0
27 3 31 8 4 4 12 7 17 7 5 0 9 3 9 8 0 4 0 12 0 17 0 6 -18 10 -40 10 -33 0
-40 3 -40 20 0 17 7 20 40 20 29 0 40 4 40 15 0 17 36 20 60 5 11 -7 9 -11
-13 -19 -16 -6 -33 -11 -38 -11 -5 0 -9 -7 -9 -15 0 -21 22 -19 76 6 45 22 64
48 64 91 0 14 -5 18 -15 15 -8 -4 -17 -2 -20 3 -4 6 5 10 19 10 14 0 26 -6 26
-12z m-2610 -12 c0 -3 -4 -8 -10 -11 -5 -3 -10 -1 -10 4 0 6 5 11 10 11 6 0
10 -2 10 -4z m690 -6 c0 -6 11 -20 25 -32 l24 -21 -25 -24 c-15 -13 -33 -23
-42 -21 -14 3 -13 7 6 26 25 25 29 47 7 39 -18 -7 -27 6 -19 27 7 18 24 22 24
6z m1850 1 c0 -5 10 -12 23 -15 21 -7 21 -7 2 -15 -13 -5 -22 -4 -24 3 -2 6
-11 16 -20 23 -14 11 -14 12 2 13 9 0 17 -4 17 -9z m-1113 -23 c-3 -8 -6 -5
-6 6 -1 11 2 17 5 13 3 -3 4 -12 1 -19z m87 -10 c6 -4 7 -10 3 -15 -10 -9 -27
16 -26 37 1 13 1 13 6 0 3 -8 11 -18 17 -22z m-1489 -7 c17 -11 15 -11 -18 -6
-30 5 -37 3 -31 -6 5 -9 2 -10 -10 -6 -10 4 -20 7 -24 7 -3 0 2 6 12 13 22 16
44 15 71 -2z m573 -4 c6 -7 9 -23 6 -34 -3 -12 -1 -30 5 -40 10 -17 10 -17 11
0 0 9 5 17 10 17 14 0 13 -23 -2 -38 -14 -14 -57 -15 -78 -2 -12 8 -11 10 7
10 13 0 24 8 28 20 8 24 -2 60 -16 60 -6 0 -7 5 -4 10 8 14 20 13 33 -3z m49
7 c-3 -3 -12 -4 -19 -1 -8 3 -5 6 6 6 11 1 17 -2 13 -5z m714 -64 c-9 -24 -10
-24 -10 7 -1 17 2 40 7 50 6 15 7 14 10 -7 2 -14 -2 -37 -7 -50z m44 60 c3 -5
1 -10 -4 -10 -6 0 -11 5 -11 10 0 6 2 10 4 10 3 0 8 -4 11 -10z m255 -20 c0
-5 -4 -10 -10 -10 -5 0 -10 5 -10 10 0 6 5 10 10 10 6 0 10 -4 10 -10z m-1715
-21 c-11 -17 6 -31 21 -18 10 8 14 8 14 0 0 -6 -3 -12 -7 -12 -5 -1 -17 -3
-28 -4 -11 -2 -33 -6 -50 -10 l-30 -6 27 17 c15 10 29 26 32 37 2 10 10 16 15
12 6 -3 9 -11 6 -16z m1465 12 c0 -6 -4 -13 -10 -16 -5 -3 -10 1 -10 9 0 9 5
16 10 16 6 0 10 -4 10 -9z m-1248 -73 c-9 -9 -15 -9 -24 0 -9 9 -7 12 12 12
19 0 21 -3 12 -12z m181 5 c-7 -2 -21 -2 -30 0 -10 3 -4 5 12 5 17 0 24 -2 18
-5z m169 -2 c7 11 11 11 15 2 2 -7 11 -13 19 -13 26 0 5 -18 -28 -24 -18 -3
-44 -9 -58 -12 -14 -3 -37 -8 -52 -11 -16 -3 -28 -9 -28 -13 0 -4 -21 -10 -47
-13 -67 -9 -98 -14 -120 -21 -10 -3 -111 -8 -226 -11 -204 -4 -207 -4 -197 15
9 16 20 20 63 18 l52 -1 -45 -7 c-44 -7 -44 -7 18 -8 40 -1 61 2 57 8 -4 6 19
9 62 8 l68 -1 -50 -7 c-49 -7 -48 -7 20 -7 39 0 62 1 53 4 -10 2 -18 9 -18 15
0 6 11 8 26 4 33 -9 168 4 157 15 -4 4 -21 9 -37 11 -16 2 -31 9 -34 16 -6 18
59 15 87 -4 17 -12 25 -14 30 -5 6 8 15 9 34 2 28 -11 106 -3 87 9 -17 10 3
21 40 22 17 1 30 6 31 12 0 6 3 5 6 -3 5 -11 7 -11 15 0z m986 -72 c-8 -5 11
-9 46 -9 33 0 57 -2 55 -5 -7 -6 -159 -9 -165 -2 -8 8 37 57 53 57 7 0 14 10
15 23 1 12 3 4 5 -17 3 -25 0 -42 -9 -47z m245 67 c8 -20 -2 -26 -45 -26 -31
0 -38 3 -38 20 0 17 7 20 39 20 24 0 41 -5 44 -14z m397 -1 c0 -16 -52 -21
-84 -9 -32 12 -15 24 34 24 38 0 50 -4 50 -15z m165 7 c14 -10 17 -32 5 -32
-5 0 -10 4 -10 8 0 5 -10 14 -22 20 -21 10 -22 11 -3 11 11 0 25 -3 30 -7z
m121 1 c-10 -11 -86 -12 -80 -1 3 4 24 8 46 8 23 0 38 -3 34 -7z m-2550 -40
c-10 -10 -19 5 -10 18 6 11 8 11 12 0 2 -7 1 -15 -2 -18z m99 17 c4 -6 -5 -10
-19 -10 -14 0 -26 5 -26 10 0 6 9 10 19 10 11 0 23 -4 26 -10z m-125 -17 c0
-5 -5 -15 -10 -23 -8 -12 -10 -11 -10 8 0 12 5 22 10 22 6 0 10 -3 10 -7z
m1545 -24 c-4 -5 -1 -9 6 -9 7 0 10 -2 7 -5 -3 -3 -18 0 -33 7 -24 11 -25 13
-8 19 21 8 36 2 28 -12z m413 -15 c-8 -9 -24 -14 -34 -11 -17 3 -16 5 6 15 36
16 47 14 28 -4z m75 -11 c-13 -2 -33 -2 -45 0 -13 2 -3 4 22 4 25 0 35 -2 23
-4z m-2113 -23 c0 -5 -5 -10 -11 -10 -5 0 -7 5 -4 10 3 6 8 10 11 10 2 0 4 -4
4 -10z m1868 3 c-15 -2 -42 -2 -60 0 -18 2 -6 4 27 4 33 0 48 -2 33 -4z"/>
<path d="M3963 7681 c-17 -11 -45 -41 -63 -66 -29 -42 -33 -55 -36 -134 -2
-47 -1 -77 2 -66 3 11 10 24 15 30 5 5 9 21 9 37 0 40 20 78 65 120 56 54 89
57 159 18 31 -18 59 -30 61 -28 8 8 -76 89 -102 99 -38 14 -75 11 -110 -10z"/>
<path d="M4231 7117 c-52 -16 -127 -101 -168 -187 -53 -112 -52 -110 -69 -185
-61 -280 -32 -594 76 -805 29 -57 109 -135 153 -150 40 -13 94 -7 131 13 64
36 135 143 184 277 72 197 78 579 13 745 -31 78 -56 129 -83 169 -24 36 -85
99 -108 111 -39 20 -91 25 -129 12z m100 -51 c34 -14 72 -51 98 -97 52 -88 91
-179 91 -212 0 -10 4 -25 9 -35 14 -27 31 -155 31 -233 0 -139 -44 -369 -71
-369 -5 0 -9 20 -9 45 0 25 -4 45 -10 45 -5 0 -10 9 -10 19 0 27 -36 88 -79
134 -60 64 -132 92 -179 68 -104 -52 -138 -77 -161 -120 -5 -7 -13 -11 -20 -7
-17 11 -14 267 5 367 18 99 30 140 55 192 11 22 19 45 19 53 0 8 5 14 10 14 6
0 10 6 10 13 0 19 68 96 104 118 37 23 62 24 107 5z"/>
<path d="M6864 4480 c-45 -6 -84 -31 -129 -81 -31 -35 -67 -100 -60 -108 3 -2
23 17 46 43 40 46 163 126 193 126 22 0 29 17 8 22 -9 2 -35 1 -58 -2z"/>
<path d="M7068 4417 c-80 -45 -146 -110 -188 -185 -9 -15 -26 -43 -38 -62 -24
-38 -32 -89 -9 -59 52 67 75 95 96 113 13 12 29 26 35 31 27 25 157 115 166
115 5 0 25 9 45 20 20 11 46 20 58 20 29 0 51 15 43 29 -4 6 -37 11 -79 11
-63 0 -79 -4 -129 -33z"/>
<path d="M7310 4248 c-26 -12 -59 -39 -77 -62 -30 -40 -80 -153 -70 -162 2 -2
21 23 42 56 40 63 113 136 153 151 23 9 31 40 10 38 -7 0 -33 -10 -58 -21z"/>
<path d="M6346 3713 c-6 -14 -5 -15 5 -6 7 7 10 15 7 18 -3 3 -9 -2 -12 -12z"/>
<path d="M8070 3400 c0 -5 11 -26 25 -46 56 -82 57 -141 6 -242 -49 -96 -66
-136 -81 -187 -7 -22 -16 -48 -21 -57 -15 -29 -10 -48 11 -48 12 0 25 10 32
25 6 14 15 25 20 25 4 0 8 6 8 13 0 7 9 23 20 35 11 12 20 26 20 32 0 10 20
51 31 60 5 5 21 40 54 115 22 51 51 66 148 72 85 6 100 20 42 43 -19 8 -35 17
-35 22 0 4 -5 8 -11 8 -7 0 -33 13 -58 29 -26 15 -58 32 -72 36 -13 4 -38 18
-54 31 -37 28 -85 47 -85 34z"/>
<path d="M4772 3423 c-15 -6 -6 -23 14 -23 8 0 14 7 14 15 0 15 -6 17 -28 8z"/>
<path d="M5770 2716 c0 -27 50 -83 95 -107 31 -17 162 -45 171 -37 2 3 -10 11
-28 18 -93 35 -137 61 -196 118 -19 17 -36 32 -38 32 -2 0 -4 -11 -4 -24z"/>
<path d="M5642 2567 c8 -103 94 -196 228 -247 30 -12 63 -26 72 -31 10 -5 28
-9 41 -9 13 0 28 -5 34 -11 6 -6 26 -9 44 -7 l34 3 -54 28 c-30 15 -58 27 -63
27 -31 0 -248 171 -248 196 0 8 -4 14 -9 14 -5 0 -22 20 -38 45 -15 25 -32 45
-37 45 -5 0 -6 -24 -4 -53z"/>
<path d="M5560 2326 c0 -2 10 -22 22 -45 15 -28 35 -47 65 -61 24 -11 48 -18
53 -15 4 3 10 0 12 -6 2 -7 11 -10 19 -7 9 4 2 11 -22 21 -20 9 -59 39 -87 66
-46 46 -62 58 -62 47z"/>
<path d="M5248 2088 c9 -9 15 -9 24 0 9 9 7 12 -12 12 -19 0 -21 -3 -12 -12z"/>
<path d="M4760 1240 c0 -5 7 -10 15 -10 8 0 15 5 15 10 0 6 -7 10 -15 10 -8 0
-15 -4 -15 -10z"/>
<path d="M5980 1180 c-13 -8 -12 -10 3 -10 9 0 17 5 17 10 0 12 -1 12 -20 0z"/>
<path d="M4650 1110 c-8 -5 -12 -12 -9 -15 8 -8 39 5 39 16 0 11 -11 11 -30
-1z"/>
<path d="M4013 943 c9 -2 25 -2 35 0 9 3 1 5 -18 5 -19 0 -27 -2 -17 -5z"/>
<path d="M3928 503 c7 -3 16 -2 19 1 4 3 -2 6 -13 5 -11 0 -14 -3 -6 -6z"/>
<path d="M6102 8513 c-1 -13 -6 -23 -12 -23 -14 0 -6 -108 10 -123 10 -10 11
-9 5 3 -6 12 -5 13 6 3 7 -7 38 -13 70 -13 54 0 58 2 78 34 23 36 20 86 -5
107 -12 9 -14 4 -14 -32 l0 -44 -62 2 -63 1 -6 54 c-3 29 -6 43 -7 31z"/>
<path d="M5443 8497 c-18 -39 -18 -625 0 -648 30 -38 144 -49 315 -29 97 11
159 36 202 82 40 43 81 111 83 137 1 12 5 21 9 21 5 0 5 12 2 27 -7 25 -6 26
8 12 12 -11 16 -40 17 -120 2 -117 11 -140 62 -155 44 -12 78 -7 108 15 l24
18 0 220 c1 190 -2 223 -16 243 -16 23 -17 13 -17 -203 l0 -227 -65 0 -65 0 0
213 c0 119 -5 219 -10 227 -8 12 -10 9 -10 -13 0 -16 -4 -26 -10 -22 -5 3 -7
0 -4 -9 3 -8 1 -23 -5 -33 -9 -16 -10 -14 -11 10 0 16 -4 26 -10 22 -6 -3 -10
4 -10 17 0 23 -35 108 -44 108 -7 0 4 -32 18 -49 5 -7 12 -56 14 -108 6 -139
-15 -211 -83 -280 -73 -72 -115 -83 -322 -83 l-163 0 -2 317 c-3 263 -5 312
-15 290z m624 -364 c-3 -10 -5 -4 -5 12 0 17 2 24 5 18 2 -7 2 -21 0 -30z"/>
<path d="M11017 8460 c-13 -46 -8 -100 8 -100 16 0 19 53 6 100 l-7 25 -7 -25z"/>
<path d="M10856 8439 c-10 -52 -7 -79 9 -79 12 0 15 13 15 55 0 60 -14 74 -24
24z"/>
<path d="M5604 8389 c3 -13 5 -104 5 -202 1 -138 4 -178 14 -174 9 3 11 38 9
140 -3 108 0 137 10 137 10 0 10 2 -1 9 -13 8 -13 12 -1 26 12 14 26 16 73 12
68 -6 104 -27 122 -70 20 -49 25 -137 9 -176 -20 -49 -12 -48 16 1 31 54 33
172 6 231 -31 63 -66 81 -173 85 l-93 4 4 -23z"/>
<path d="M6975 8340 c-4 -6 -11 -8 -16 -5 -5 4 -9 -3 -9 -14 0 -27 4 -26 24 4
9 14 14 25 12 25 -3 0 -8 -5 -11 -10z"/>
<path d="M7814 8329 c3 -14 3 -29 -1 -33 -4 -4 -6 -26 -5 -49 l2 -42 -13 34
c-6 19 -17 36 -24 38 -8 3 -7 -6 4 -27 8 -18 18 -61 21 -96 l5 -64 -167 0
-166 0 0 -25 c0 -29 44 -75 69 -74 12 0 11 2 -3 8 -18 7 -18 8 5 14 36 10 79
8 79 -3 0 -5 -5 -10 -12 -10 -6 0 -9 -3 -6 -6 7 -6 46 13 66 33 14 13 132 19
132 6 0 -17 -51 -90 -77 -109 -59 -43 -153 -56 -236 -33 -54 15 -122 83 -138
139 -16 55 -15 170 1 200 10 18 9 21 -2 18 -7 -3 -15 -20 -18 -38 -10 -64 -39
-41 -44 34 0 13 -4 22 -8 20 -3 -2 -9 9 -13 26 -4 16 -11 30 -16 30 -4 0 -3
-12 3 -27 6 -16 13 -111 16 -215 l4 -188 -71 0 -71 0 0 163 c0 190 -6 207 -70
207 -90 0 -100 -23 -100 -220 l0 -150 -65 0 -65 0 -1 203 c0 201 -8 272 -23
214 -4 -17 -11 -25 -18 -21 -7 5 -8 3 -3 -7 12 -18 14 -49 3 -49 -4 0 -8 -5
-8 -11 0 -5 3 -8 8 -6 6 5 9 -75 4 -133 -3 -24 -3 -24 -17 -6 -14 18 -15 16
-15 -31 0 -99 -64 -154 -189 -161 -121 -7 -199 26 -237 100 -8 16 -19 26 -24
23 -17 -10 -11 -70 8 -91 10 -10 21 -26 24 -34 3 -9 23 -24 44 -35 22 -11 41
-22 44 -25 3 -3 48 -7 100 -8 107 -4 150 9 202 58 17 16 34 28 38 25 4 -2 5 6
3 19 -5 26 11 43 23 25 4 -8 3 -9 -4 -5 -13 8 -17 -6 -5 -18 4 -3 8 -16 10
-27 6 -39 23 -58 59 -65 41 -8 103 1 118 16 15 15 26 141 20 230 -5 83 3 102
47 113 48 12 56 -12 62 -171 6 -158 16 -188 64 -194 40 -5 92 8 114 28 15 13
19 31 19 75 0 48 3 57 15 53 8 -4 15 -11 15 -18 0 -6 11 -24 24 -39 14 -16 26
-32 28 -36 6 -13 66 -51 82 -51 9 0 16 -4 16 -9 0 -5 45 -9 100 -9 55 0 98 3
95 8 -3 4 6 10 18 14 31 7 105 81 113 112 3 13 3 31 0 40 -8 20 13 90 31 105
17 15 17 29 -2 29 -11 0 -15 11 -15 43 l0 42 20 -30 c11 -16 23 -45 26 -63 3
-18 10 -35 15 -38 5 -3 9 -11 9 -18 0 -8 8 -31 17 -52 9 -22 16 -45 14 -52 -1
-7 5 -19 14 -28 8 -8 15 -21 15 -27 0 -7 -4 -6 -10 3 -5 8 -10 10 -10 4 0 -6
7 -17 16 -25 14 -12 14 -14 -2 -26 -25 -19 -3 -16 24 3 12 8 22 23 22 33 0 24
-149 420 -168 446 -14 19 -14 19 -8 -6z"/>
<path d="M9756 8342 c-2 -4 -1 -14 5 -22 7 -12 9 -10 9 8 0 23 -5 28 -14 14z"/>
<path d="M10141 8331 c-13 -10 -22 -25 -20 -33 3 -10 11 -5 26 18 12 19 21 34
20 34 -1 0 -13 -9 -26 -19z"/>
<path d="M10307 8343 c-4 -3 -7 -27 -7 -52 l0 -46 -43 0 c-103 0 -127 -42
-127 -226 l0 -129 -65 0 -65 0 -2 210 c-2 129 -7 211 -13 213 -16 4 -19 -444
-2 -466 27 -38 127 -38 158 -1 10 12 16 58 19 147 6 126 6 130 33 153 33 28
73 32 81 7 2 -10 5 -47 5 -83 0 -66 22 -140 42 -140 5 0 7 -5 3 -11 -9 -15 38
-53 104 -85 46 -23 63 -26 131 -23 65 3 85 9 127 34 31 20 56 45 69 70 11 22
23 41 27 43 4 2 2 11 -4 21 -8 14 -7 26 6 52 14 27 16 48 10 107 -6 68 -5 72
12 66 38 -13 44 -34 44 -154 0 -180 29 -222 160 -234 60 -5 120 14 120 38 0
24 19 29 45 12 77 -51 94 -56 183 -56 75 0 96 4 141 26 85 43 122 120 100 210
-17 70 -25 72 -21 6 6 -105 -57 -162 -187 -170 -128 -7 -204 28 -242 113 -10
22 -19 32 -19 23 0 -10 -6 -18 -12 -19 -7 0 -4 -4 7 -9 17 -7 17 -9 3 -9 -14
-1 -18 -10 -18 -45 0 -42 -1 -44 -35 -49 -53 -9 -146 9 -170 33 -18 19 -20 35
-23 185 l-3 165 -40 0 c-37 0 -39 2 -39 31 0 17 -4 28 -10 24 -5 -3 -10 -15
-10 -26 0 -11 -4 -18 -9 -15 -5 4 -7 -3 -4 -14 3 -11 0 -20 -6 -20 -6 0 -11 5
-11 12 0 6 -2 9 -5 7 -2 -3 2 -23 10 -44 8 -22 14 -61 15 -87 l0 -48 -165 0
c-156 0 -165 -1 -165 -19 0 -33 11 -51 41 -66 36 -19 49 -19 23 -1 -17 13 -13
14 43 13 53 -1 60 -4 50 -16 -10 -12 -9 -13 11 -2 13 7 26 19 29 27 4 10 23
14 69 14 35 0 64 -4 64 -8 0 -4 -13 -29 -29 -54 -74 -116 -267 -134 -367 -34
-66 65 -87 185 -50 285 9 24 13 48 9 54 -4 6 -8 22 -9 35 -3 28 -8 35 -17 25z
m-20 -185 c-3 -8 -6 -5 -6 6 -1 11 2 17 5 13 3 -3 4 -12 1 -19z"/>
<path d="M7410 8330 c-9 -6 -10 -10 -3 -10 6 0 15 5 18 10 8 12 4 12 -15 0z"/>
<path d="M7980 8330 c0 -6 17 -61 37 -123 21 -61 40 -123 44 -137 5 -22 7 -20
19 20 7 25 26 85 42 133 16 49 27 94 25 100 -2 7 -19 -34 -38 -91 -19 -57 -39
-104 -44 -104 -6 0 -16 22 -24 49 -7 26 -17 57 -22 68 -4 11 -13 37 -19 58
-11 36 -20 48 -20 27z"/>
<path d="M8292 8311 c-7 -17 -53 -136 -102 -266 -48 -130 -96 -247 -105 -261
-23 -36 -74 -54 -150 -54 l-65 0 0 39 c0 22 -5 43 -12 47 -6 4 -8 3 -4 -4 3
-6 2 -14 -4 -17 -6 -4 -10 -27 -8 -53 2 -48 20 -75 55 -84 31 -8 145 11 163
27 9 8 20 15 23 15 10 0 42 33 43 45 2 21 17 55 23 55 4 0 13 24 20 53 8 28
20 64 27 79 8 15 14 36 14 48 0 13 4 18 11 14 6 -4 10 1 8 12 -2 11 7 41 19
68 12 26 20 52 17 56 -3 5 -1 11 4 14 5 3 19 37 31 74 17 51 20 76 14 96 l-9
26 -13 -29z"/>
<path d="M8720 8308 c0 -34 2 -34 18 -1 9 17 9 22 -3 27 -11 4 -15 -2 -15 -26z"/>
<path d="M8900 8291 l0 -46 -48 -1 c-56 -1 -96 -25 -112 -68 -5 -16 -10 -87
-10 -157 l0 -129 -65 0 -65 0 0 198 c0 198 -4 242 -22 242 -5 0 -7 -4 -3 -9 3
-5 1 -12 -3 -15 -5 -3 -8 -101 -8 -219 1 -239 5 -253 66 -266 42 -9 100 5 117
28 8 10 13 53 13 116 1 81 14 205 19 171 0 -4 9 1 19 13 9 12 30 23 47 24 l30
2 5 -103 c4 -72 9 -105 19 -111 7 -5 10 -14 7 -20 -4 -6 -2 -11 3 -11 6 0 11
-8 11 -17 0 -9 3 -14 6 -10 3 3 17 -7 31 -23 41 -49 105 -71 200 -69 46 1 83
6 83 10 0 5 8 9 19 9 10 0 34 15 54 34 20 18 39 31 43 27 4 -3 4 0 0 7 -5 8
-1 21 9 32 13 15 16 29 11 59 -11 70 20 63 48 -11 9 -25 23 -52 31 -58 8 -6
11 -19 8 -27 -4 -10 -2 -14 5 -9 6 3 13 2 17 -4 3 -5 25 -10 48 -10 33 0 46
-5 63 -27 20 -25 25 -26 43 -15 12 6 37 14 57 17 31 4 34 2 24 -11 -7 -8 -11
-17 -8 -20 3 -3 17 9 32 26 20 25 26 42 26 80 l0 49 -24 -24 c-69 -69 -214
-48 -274 39 -34 49 -49 144 -34 214 14 68 9 78 -10 20 -8 -24 -20 -43 -27 -43
-7 0 -21 18 -32 40 -11 22 -17 31 -13 20 3 -11 8 -48 11 -82 l6 -63 -167 0
c-157 0 -166 -1 -166 -19 0 -11 3 -27 6 -36 7 -18 63 -50 72 -41 3 3 0 6 -6 6
-7 0 -12 4 -12 10 0 6 15 8 35 4 24 -3 35 -1 35 7 0 8 7 6 19 -5 18 -17 20
-17 40 3 16 16 34 21 76 21 65 0 70 -13 29 -74 -49 -71 -170 -105 -275 -76
-53 15 -115 73 -135 127 -32 83 -15 233 30 266 7 6 4 7 -6 3 -14 -4 -18 0 -18
23 0 18 -5 28 -15 28 -11 0 -15 -12 -15 -46z"/>
<path d="M9481 8323 c-7 -8 -11 -16 -8 -19 2 -2 10 2 17 11 17 20 9 27 -9 8z"/>
<path d="M11110 8305 l0 -35 -50 0 -50 0 0 -123 c0 -109 2 -126 19 -141 12
-11 21 -14 26 -7 3 6 1 11 -5 11 -13 0 -12 132 1 168 7 19 15 23 41 20 21 -2
33 -8 33 -18 0 -8 4 -21 8 -27 5 -7 6 -17 2 -22 -3 -6 11 -26 30 -45 27 -28
44 -36 70 -36 23 0 35 -5 35 -13 0 -15 31 -47 45 -47 4 0 1 8 -6 17 -12 15
-12 16 6 8 11 -4 33 -10 48 -13 19 -3 26 -9 23 -18 -6 -17 -4 -17 28 -3 59 27
38 72 -42 94 -165 46 -193 60 -211 104 -9 19 -9 40 -2 71 11 50 8 58 -14 40
-15 -13 -19 -4 -18 38 1 6 -3 12 -8 12 -5 0 -9 -16 -9 -35z"/>
<path d="M9300 8322 c0 -12 19 -26 26 -19 2 2 -2 10 -11 17 -9 8 -15 8 -15 2z"/>
<path d="M9900 8104 c0 -138 -4 -234 -11 -255 -35 -105 -169 -159 -304 -124
-61 16 -119 59 -131 98 -6 18 -7 18 -21 -3 -14 -19 -13 -25 9 -67 17 -35 36
-53 76 -74 29 -16 53 -28 55 -28 1 1 26 -2 55 -6 88 -12 192 22 249 82 12 13
19 23 16 23 -3 0 3 12 13 28 17 24 19 52 22 267 3 203 1 243 -12 260 -14 18
-15 0 -16 -201z"/>
<path d="M6326 8287 c3 -8 -2 -31 -10 -51 -15 -37 -12 -106 6 -106 5 0 6 -5 3
-10 -12 -19 57 -70 93 -70 28 0 35 -5 43 -30 6 -17 18 -30 27 -30 15 0 15 2 2
10 -27 17 -4 20 38 6 22 -8 43 -12 47 -8 3 3 3 -1 -1 -11 -6 -16 -4 -16 19 -6
58 26 40 72 -36 93 -28 9 -65 18 -82 22 -54 12 -123 53 -131 76 -4 13 -6 44
-5 70 1 26 -3 49 -9 53 -5 3 -7 0 -4 -8z"/>
<path d="M10335 8290 c4 -6 11 -8 16 -5 14 9 11 15 -7 15 -8 0 -12 -5 -9 -10z"/>
<path d="M6737 8268 c3 -13 10 -29 16 -35 7 -10 -6 -13 -62 -13 -41 0 -71 4
-71 10 0 39 -84 65 -131 40 -45 -25 -5 -78 49 -66 15 4 22 3 15 -2 -7 -5 20
-17 73 -31 46 -13 87 -27 90 -32 7 -11 54 44 54 62 0 26 -21 89 -30 89 -4 0
-6 -10 -3 -22z"/>
<path d="M11560 8271 c23 -43 14 -51 -55 -51 -50 0 -65 3 -65 14 0 24 -42 46
-86 46 -75 0 -89 -56 -19 -77 22 -6 78 -22 124 -36 82 -25 84 -25 104 -6 11
10 20 31 20 46 0 41 -12 83 -24 83 -6 0 -6 -6 1 -19z"/>
<path d="M7499 8241 c-51 -51 -41 -62 55 -60 46 1 89 -2 94 -5 18 -11 21 9 6
41 -29 59 -107 71 -155 24z"/>
<path d="M9069 8241 c-50 -51 -42 -59 67 -63 53 -2 97 -1 99 2 2 3 -4 21 -12
39 -29 59 -106 70 -154 22z m94 -48 c-7 -2 -21 -2 -30 0 -10 3 -4 5 12 5 17 0
24 -2 18 -5z"/>
<path d="M9607 8246 c-33 -30 -41 -61 -35 -133 4 -47 10 -60 34 -79 30 -25 46
-25 21 0 -8 8 -17 12 -21 9 -3 -4 -7 5 -8 18 -5 85 18 129 67 129 36 0 71 -31
62 -55 -4 -8 -1 -15 5 -15 6 0 8 -3 5 -7 -4 -3 -3 -11 3 -18 6 -8 0 -23 -21
-48 -39 -47 -28 -48 17 -2 30 31 34 42 34 86 0 84 -42 139 -106 139 -19 0 -41
-9 -57 -24z"/>
<path d="M10469 8241 c-52 -52 -42 -61 70 -61 90 0 99 2 94 18 -19 72 -111 96
-164 43z"/>
<path d="M6740 8121 c0 -6 4 -13 10 -16 6 -3 7 1 4 9 -7 18 -14 21 -14 7z"/>
<path d="M6649 7433 c-6 -36 -2 -103 6 -103 5 0 3 -5 -5 -10 -10 -6 -11 -10
-2 -10 6 0 12 -8 13 -17 0 -15 2 -15 9 2 5 11 9 15 9 8 1 -8 24 -13 64 -15 57
-3 63 -1 75 21 17 33 15 106 -3 121 -13 11 -15 6 -15 -31 l0 -44 -65 0 -65 0
0 43 c0 23 -4 42 -10 42 -5 0 -11 -3 -11 -7z"/>
<path d="M7444 7415 c-9 -31 -13 -544 -4 -604 5 -34 29 -58 65 -61 111 -11
124 8 129 192 3 113 6 138 22 156 20 24 40 27 64 12 12 -7 16 -41 20 -165 4
-124 8 -158 20 -165 8 -5 11 -10 5 -11 -28 -2 36 -18 75 -18 37 0 104 16 77
18 -5 1 -1 8 7 17 9 8 16 24 16 35 0 26 15 24 34 -6 10 -15 22 -23 29 -19 7 4
9 4 5 -1 -13 -14 33 -44 79 -51 25 -4 70 -3 101 1 32 5 96 7 144 6 78 -2 89 0
109 20 14 14 18 24 11 27 -8 2 -9 9 -3 20 5 9 7 34 5 55 -2 22 1 35 6 32 6 -4
10 -15 10 -25 0 -10 6 -21 13 -23 9 -4 9 -6 0 -6 -22 -2 81 -88 119 -100 43
-14 157 -15 211 -2 45 11 104 54 119 87 6 13 14 22 17 20 3 -2 7 25 9 60 2 38
-1 64 -7 64 -5 0 -12 10 -14 23 -2 12 -5 -1 -6 -29 -2 -103 -79 -164 -206
-164 -120 0 -184 31 -225 109 -16 31 -19 33 -20 13 0 -21 -2 -22 -15 -8 -12
11 -15 40 -15 124 0 74 -5 121 -15 143 -13 31 -14 20 -15 -149 0 -108 4 -191
10 -203 10 -18 7 -19 -58 -19 -62 0 -70 2 -75 21 l-6 21 -29 -22 c-37 -27
-142 -38 -195 -21 -20 7 -48 26 -62 42 -21 26 -25 41 -26 97 l-1 67 -12 -40
c-9 -32 -13 -36 -19 -22 -11 29 -9 49 6 41 9 -6 9 -4 -1 8 -7 9 -15 38 -16 65
-3 44 -23 133 -30 133 -1 0 0 -88 2 -195 l5 -195 -72 0 -71 0 0 163 c0 190 -6
207 -70 207 -90 0 -100 -23 -100 -220 l0 -150 -67 0 -68 0 3 288 c1 160 -2
299 -7 313 l-9 24 -8 -30z"/>
<path d="M7600 7337 l0 -108 24 28 c14 15 20 30 15 31 -6 3 -5 10 2 18 9 11 9
13 -2 9 -11 -4 -13 5 -11 42 2 32 -2 55 -12 68 -14 18 -15 11 -16 -88z"/>
<path d="M6913 7402 c-5 -51 -11 -83 -16 -89 -9 -9 2 -23 19 -23 11 0 14 14
14 59 0 33 -4 62 -8 65 -4 2 -8 -3 -9 -12z"/>
<path d="M7061 7353 c-1 -57 1 -63 19 -63 14 0 20 7 20 21 0 11 -4 18 -8 15
-5 -3 -6 8 -4 25 2 16 0 29 -6 29 -6 0 -13 8 -15 18 -3 9 -5 -11 -6 -45z"/>
<path d="M8778 7303 c7 -3 16 -2 19 1 4 3 -2 6 -13 5 -11 0 -14 -3 -6 -6z"/>
<path d="M11278 7303 c7 -3 16 -2 19 1 4 3 -2 6 -13 5 -11 0 -14 -3 -6 -6z"/>
<path d="M8075 7290 c-3 -5 -1 -10 4 -10 6 0 11 5 11 10 0 6 -2 10 -4 10 -3 0
-8 -4 -11 -10z"/>
<path d="M11457 7279 c7 -7 15 -10 18 -7 3 3 -2 9 -12 12 -14 6 -15 5 -6 -5z"/>
<path d="M9320 7270 c-9 -6 -10 -10 -3 -10 6 0 15 5 18 10 8 12 4 12 -15 0z"/>
<path d="M10457 7273 c-4 -3 -7 -13 -7 -22 1 -13 3 -13 11 2 11 19 8 33 -4 20z"/>
<path d="M6829 7255 c0 -11 -3 -14 -6 -7 -17 42 -23 -11 -23 -208 l0 -220 -65
0 -65 0 0 222 c0 178 -2 219 -12 209 -10 -9 -13 -73 -15 -242 l-2 -229 22 0
c16 0 18 -3 8 -9 -23 -14 7 -25 68 -23 84 2 85 5 91 202 3 97 9 174 15 179 8
8 18 6 34 -5 21 -15 22 -22 20 -115 -2 -54 0 -102 4 -105 4 -4 7 -12 7 -18 0
-6 -5 -4 -10 4 -14 21 -12 9 5 -40 19 -54 53 -86 108 -101 49 -13 135 -5 154
14 11 11 16 58 13 120 -2 35 -20 16 -20 -22 0 -36 -2 -39 -32 -45 -58 -10
-150 10 -175 39 -22 25 -23 35 -23 186 l0 159 -40 0 c-35 0 -40 3 -40 23 0 12
-5 29 -10 37 -8 12 -10 12 -11 -5z"/>
<path d="M10710 7251 c0 -5 5 -13 10 -16 6 -3 10 -2 10 4 0 5 -4 13 -10 16 -5
3 -10 2 -10 -4z"/>
<path d="M11007 7249 c7 -7 15 -10 18 -7 3 3 -2 9 -12 12 -14 6 -15 5 -6 -5z"/>
<path d="M7160 7225 c0 -23 -3 -25 -50 -25 l-50 0 0 -119 c0 -100 3 -122 18
-142 15 -17 21 -19 27 -9 5 8 4 11 -2 7 -7 -4 -11 23 -12 78 -1 85 10 115 43
115 35 0 65 84 39 109 -10 9 -13 7 -13 -14z"/>
<path d="M8897 7232 c3 -12 9 -25 14 -28 5 -3 9 -16 9 -30 0 -23 -3 -24 -65
-24 -37 0 -65 4 -65 10 0 22 -41 50 -72 50 -61 0 -79 -10 -76 -39 2 -17 11
-28 28 -33 14 -4 65 -20 114 -34 48 -15 102 -38 120 -53 l31 -25 -24 27 c-21
23 -22 27 -7 27 9 0 14 5 11 10 -3 6 0 10 8 10 8 0 17 7 21 15 3 8 1 15 -4 15
-6 0 -10 17 -10 38 0 21 -9 48 -20 62 -19 24 -19 24 -13 2z"/>
<path d="M9280 7230 c-6 -11 -9 -20 -8 -20 2 0 11 9 21 20 9 11 13 20 7 20 -5
0 -14 -9 -20 -20z"/>
<path d="M10296 7234 c-3 -9 -6 -46 -6 -84 0 -70 -6 -100 -20 -100 -4 0 -10
19 -14 42 -4 23 -11 47 -15 53 -5 5 -11 19 -15 30 -3 11 -3 7 -1 -10 15 -98
16 -127 5 -179 -10 -47 -20 -67 -58 -106 -53 -54 -95 -70 -186 -70 -110 0
-191 61 -222 167 -20 68 -14 147 15 206 11 22 19 43 17 44 -2 2 -15 -18 -29
-46 -13 -28 -27 -47 -31 -44 -3 4 -6 -14 -6 -40 0 -25 -4 -57 -10 -71 -5 -14
-6 -26 -1 -26 5 0 7 -10 3 -22 -5 -20 -6 -21 -12 -3 -7 21 -13 15 -29 -37 -14
-41 -67 -93 -117 -114 -49 -21 -147 -18 -199 6 -110 50 -161 182 -120 316 17
58 17 57 7 50 -4 -3 -14 -28 -22 -55 -7 -28 -16 -51 -19 -51 -8 0 -5 -151 4
-175 17 -46 41 -87 58 -96 10 -6 15 -14 12 -19 -3 -6 1 -7 9 -4 9 4 18 0 22
-9 10 -26 80 -47 157 -47 96 0 159 30 205 97 17 27 32 54 32 60 0 28 21 21 39
-14 20 -40 67 -88 114 -117 56 -34 220 -33 267 2 63 49 80 66 103 105 13 23
28 65 32 92 11 71 23 33 24 -73 1 -60 6 -92 18 -113 16 -26 22 -29 73 -29 92
0 98 8 99 152 2 150 7 184 34 203 28 20 57 3 57 -33 0 -16 4 -32 9 -37 4 -6 4
-47 -2 -93 -8 -66 -7 -86 3 -92 9 -5 9 -9 1 -14 -6 -4 -8 -13 -4 -19 4 -7 8
-19 10 -27 4 -26 36 -40 95 -40 43 0 60 4 64 15 4 8 10 12 15 9 11 -6 11 7 9
145 -2 159 30 232 82 184 16 -14 18 -34 18 -155 0 -90 4 -138 11 -138 5 0 7
-5 4 -11 -15 -23 27 -49 80 -49 78 0 95 18 104 110 l8 75 22 -47 c50 -108 141
-155 277 -145 101 8 157 44 198 131 14 30 15 40 6 46 -7 4 -9 13 -6 19 4 6 4
11 -1 11 -4 -1 -21 -21 -37 -47 -51 -79 -166 -114 -279 -82 -52 14 -112 71
-133 125 -18 48 -24 142 -11 189 11 37 -4 24 -18 -16 -16 -47 -28 -38 -42 30
-7 36 -14 66 -16 67 -2 2 -1 -86 1 -196 l5 -200 -72 0 -71 0 0 163 c0 189 -6
207 -69 207 -78 0 -96 -56 -89 -268 l3 -102 -67 0 -68 0 0 163 c0 187 -6 207
-66 207 -81 0 -94 -31 -94 -226 l0 -144 -65 0 -65 0 0 215 c0 195 -6 246 -24
199z"/>
<path d="M9660 7235 c0 -5 5 -17 10 -25 5 -8 10 -10 10 -5 0 6 -5 17 -10 25
-5 8 -10 11 -10 5z"/>
<path d="M8500 7211 c-5 -11 -11 -28 -13 -38 -2 -10 -7 -29 -11 -43 -8 -28 14
-89 38 -110 9 -7 16 -20 16 -29 0 -14 2 -14 10 -1 6 10 10 11 10 3 0 -8 14
-13 36 -13 28 0 37 -5 41 -20 4 -14 14 -20 32 -20 21 0 67 -5 91 -9 3 -1 -2
-6 -10 -11 -12 -8 -11 -10 6 -10 31 0 61 37 48 58 -10 16 -37 26 -175 66 -31
9 -68 28 -83 42 -30 31 -43 87 -28 126 12 32 8 37 -8 9z"/>
<path d="M8148 7193 c-8 -10 -18 -26 -21 -35 -5 -15 -18 -18 -71 -18 -61 0
-89 11 -66 25 5 3 10 11 10 17 0 17 -27 -10 -33 -32 -3 -11 -1 -20 4 -20 6 0
9 -6 8 -12 -3 -28 2 -38 21 -38 20 0 20 -1 3 -27 l-17 -28 25 23 c16 13 52 28
90 36 45 9 65 18 67 29 3 13 13 17 40 16 l37 -1 -30 -8 -30 -8 30 -1 c35 -1
75 23 75 45 0 8 -9 23 -20 34 -26 26 -100 28 -122 3z"/>
<path d="M11126 7193 c-6 -14 -5 -15 5 -6 7 7 10 15 7 18 -3 3 -9 -2 -12 -12z"/>
<path d="M9422 7184 c-68 -47 -71 -202 -6 -255 15 -11 14 -7 -4 22 -22 36 -29
65 -14 55 5 -3 8 3 8 12 0 65 5 79 29 90 40 18 55 15 97 -23 36 -34 43 -36 96
-33 48 3 58 7 68 27 11 21 13 22 17 5 3 -11 5 -1 6 21 0 25 -7 49 -19 65 l-19
25 6 -40 5 -40 -66 3 c-50 3 -66 7 -66 18 0 8 -12 26 -26 39 -31 29 -79 33
-112 9z"/>
<path d="M9939 7185 c-15 -8 -32 -29 -38 -46 -17 -50 -13 -139 9 -179 13 -23
19 -29 20 -17 0 10 -4 26 -9 36 -12 22 4 99 27 124 10 11 25 17 39 14 13 -2
23 0 23 6 0 25 49 -38 55 -71 3 -21 9 -45 12 -56 3 -12 1 -16 -6 -12 -7 4 -11
-1 -11 -13 0 -11 -8 -27 -17 -37 -13 -13 -14 -16 -3 -12 8 2 25 19 38 38 24
37 30 123 12 177 -20 55 -95 79 -151 48z"/>
<path d="M11294 7190 c-24 -9 -54 -47 -54 -67 0 -9 15 -13 45 -13 25 0 45 5
45 10 0 6 7 10 16 10 8 0 12 -4 9 -10 -3 -5 -1 -10 4 -10 6 0 11 6 11 13 0 8
3 9 8 1 7 -11 62 -26 62 -17 0 3 -7 20 -15 38 -24 48 -77 67 -131 45z"/>
<path d="M11555 7161 c8 -24 15 -65 15 -92 l0 -49 -165 0 -165 0 0 -24 c0 -26
42 -76 62 -75 10 0 10 2 0 6 -6 2 -10 9 -6 14 7 13 102 11 106 -1 2 -6 13 -1
26 10 19 18 33 21 87 19 36 -1 68 1 71 4 24 24 -3 188 -35 220 -7 7 -5 -6 4
-32z"/>
<path d="M11072 7110 c0 -14 2 -19 5 -12 2 6 2 18 0 25 -3 6 -5 1 -5 -13z"/>
<path d="M8212 7025 c-34 -7 -71 -20 -82 -30 -33 -30 -20 -86 20 -84 12 0 12
2 1 6 -9 4 -2 10 19 19 42 18 70 18 70 -1 0 -8 -5 -15 -12 -15 -6 0 -9 -3 -6
-6 4 -3 15 -1 25 5 26 14 59 123 36 120 -5 -1 -36 -7 -71 -14z"/>
<path d="M9536 6971 c-4 -7 -5 -15 -2 -18 9 -9 19 4 14 18 -4 11 -6 11 -12 0z"/>
<path d="M9510 6930 c-9 -6 -10 -10 -3 -10 6 0 15 5 18 10 8 12 4 12 -15 0z"/>
<path d="M8650 6920 c8 -5 22 -9 30 -9 10 0 8 3 -5 9 -27 12 -43 12 -25 0z"/>
<path d="M9458 6913 c7 -3 16 -2 19 1 4 3 -2 6 -13 5 -11 0 -14 -3 -6 -6z"/>
<path d="M10912 6367 c-12 -77 -13 -95 -3 -101 6 -4 11 -16 11 -26 0 -16 9
-18 75 -18 76 0 76 0 82 29 3 16 9 29 13 29 4 0 4 17 -2 38 -5 20 -10 42 -10
49 -3 30 -18 -2 -18 -38 l0 -39 -65 0 -65 0 0 39 c0 37 -14 66 -18 38z"/>
<path d="M10530 6268 c0 -97 1 -100 18 -85 19 17 21 63 7 145 -12 75 -25 45
-25 -60z"/>
<path d="M10377 6353 c-4 -3 -7 -26 -7 -50 0 -27 -5 -43 -12 -43 -9 0 -9 -3 0
-12 18 -18 16 -59 -3 -52 -12 5 -15 -2 -15 -30 l0 -36 -50 0 -50 0 0 -119 c0
-102 3 -122 19 -142 11 -13 23 -20 27 -16 5 4 2 12 -5 16 -10 7 -12 28 -7 92
3 45 9 86 13 90 5 4 22 10 39 13 25 6 33 3 38 -11 12 -29 4 -175 -10 -202 -8
-14 -14 -43 -14 -63 0 -32 -4 -39 -26 -44 -14 -4 -56 -2 -92 4 -51 9 -72 17
-89 37 -22 25 -23 35 -23 186 l0 159 -40 0 -40 0 -1 43 c-1 23 -4 33 -6 22 -3
-11 -9 -25 -14 -31 -18 -22 3 -75 37 -97 l34 -22 1 -130 c1 -71 1 -134 0 -139
-1 -4 7 -16 18 -26 12 -9 18 -19 16 -22 -13 -12 37 -39 91 -49 68 -13 119 -7
145 17 18 16 20 16 37 1 26 -24 112 -23 143 2 23 18 24 25 27 152 1 74 7 146
13 161 19 47 72 48 89 2 11 -29 14 -222 4 -248 -5 -14 -4 -17 4 -12 8 5 12 -1
12 -17 0 -39 29 -57 92 -57 44 0 59 4 76 23 12 13 19 26 16 30 -4 3 1 13 10
22 12 12 13 21 6 35 -6 10 -10 73 -10 139 0 67 -4 129 -9 139 -5 9 -14 37 -21
60 -15 57 -20 50 -10 -13 5 -27 9 -121 9 -207 l1 -158 -69 0 -69 0 -2 162 c-1
190 -7 208 -69 208 -91 0 -101 -23 -101 -220 l0 -150 -65 0 -65 0 0 293 c0
269 -5 329 -23 310z"/>
<path d="M8976 6291 c-4 -28 -12 -51 -18 -51 -18 0 0 -13 22 -17 18 -3 20 3
20 45 0 70 -16 85 -24 23z"/>
<path d="M9137 6327 c-4 -10 -7 -39 -7 -63 0 -36 3 -44 19 -44 14 0 18 6 16
28 -1 15 -5 34 -8 42 -3 8 -7 24 -9 35 -3 19 -4 19 -11 2z"/>
<path d="M10089 6309 c-6 -12 -12 -37 -13 -55 -1 -26 3 -34 16 -34 15 0 18 9
18 55 0 60 -3 66 -21 34z"/>
<path d="M10240 6270 c0 -43 3 -50 20 -50 16 0 19 6 15 40 -8 77 -35 84 -35
10z"/>
<path d="M10922 6193 c-1 -12 -8 -23 -14 -26 -10 -3 -13 -48 -13 -180 0 -231
3 -261 26 -286 27 -29 120 -30 148 -2 26 26 34 109 29 301 -3 122 -8 161 -21
185 -16 29 -17 21 -17 -202 l0 -233 -65 0 -65 0 -3 233 c-1 127 -3 222 -5 210z"/>
<path d="M8903 6171 c-20 -31 -5 -85 28 -105 35 -20 42 -45 37 -124 -1 -33 1
-58 6 -55 4 3 5 -5 1 -17 -22 -68 12 -148 73 -177 52 -25 153 -24 181 1 12 11
21 25 21 31 0 7 10 20 23 29 14 10 16 14 5 10 -10 -4 -18 -1 -18 5 0 20 24 12
47 -16 13 -14 23 -29 23 -33 0 -4 27 -18 60 -30 80 -30 198 -25 254 9 20 13
33 27 30 33 -4 6 -3 8 3 5 28 -17 103 126 103 195 0 55 -25 153 -46 181 -15
20 -16 20 -9 2 59 -158 -3 -328 -132 -364 -129 -36 -252 9 -304 111 -25 49
-36 155 -20 199 8 23 8 35 1 37 -5 2 -10 14 -10 26 0 12 -7 31 -15 42 -14 18
-14 18 -15 -8 0 -27 -2 -28 -50 -28 l-50 0 0 -112 c0 -136 5 -158 34 -158 11
0 17 4 11 8 -6 4 -9 44 -7 94 4 92 5 94 59 102 8 1 19 9 25 17 7 10 8 9 3 -6
-5 -11 -10 -33 -13 -50 -3 -16 -11 -35 -18 -43 -8 -7 -14 -19 -13 -25 0 -9 2
-8 6 1 11 28 19 9 13 -33 -5 -34 -4 -45 7 -45 7 0 13 -4 13 -10 0 -5 -4 -10
-8 -10 -5 0 -8 -25 -8 -55 l1 -54 -35 -6 c-61 -9 -152 11 -177 40 -22 25 -23
35 -23 186 l0 159 -39 0 c-37 0 -40 2 -43 30 -3 29 -4 29 -15 11z"/>
<path d="M11160 6169 c0 -5 5 -7 10 -4 6 3 10 8 10 11 0 2 -4 4 -10 4 -5 0
-10 -5 -10 -11z"/>
<path d="M11145 6133 c-3 -10 -10 -38 -15 -63 -7 -37 -5 -52 12 -87 12 -24 26
-43 30 -43 5 0 7 -4 3 -9 -6 -10 59 -27 83 -23 6 2 12 -3 12 -11 0 -17 48 -63
57 -54 3 4 1 7 -5 7 -7 0 -12 8 -12 17 0 13 3 14 12 5 15 -15 42 -16 33 -2 -4
6 5 5 20 -2 18 -8 22 -14 13 -20 -9 -5 -6 -8 9 -8 24 0 53 24 53 45 0 21 -43
43 -131 65 -46 12 -98 31 -116 41 -37 23 -55 71 -46 124 6 37 0 47 -12 18z"/>
<path d="M9285 6129 c-4 -6 -5 -12 -2 -15 2 -3 7 2 10 11 7 17 1 20 -8 4z"/>
<path d="M11308 6129 c-27 -15 -22 -48 10 -61 36 -15 46 -16 54 -3 5 6 8 5 8
-3 0 -7 5 -10 10 -7 6 3 10 2 10 -3 0 -5 21 -15 48 -21 26 -7 62 -21 80 -32
40 -23 49 -24 32 -4 -10 11 -9 18 4 30 9 9 16 22 17 28 3 30 -4 73 -12 82 -6
6 -7 -3 -3 -23 l7 -32 -67 0 c-37 0 -66 4 -66 10 0 6 -9 19 -20 30 -22 22 -82
27 -112 9z"/>
<path d="M9460 6123 c-65 -19 -85 -199 -28 -249 21 -19 21 -19 9 3 -6 12 -8
29 -4 39 4 12 3 15 -6 10 -9 -6 -11 1 -6 31 9 50 35 85 71 95 25 7 33 4 57
-22 22 -25 27 -39 27 -84 0 -47 -4 -57 -26 -75 -15 -12 -22 -21 -16 -21 6 0
24 11 39 24 27 23 28 28 28 111 0 85 -1 87 -33 116 -31 28 -68 35 -112 22z"/>
<path d="M11578 5915 c3 -51 0 -65 -20 -94 -37 -55 -79 -74 -173 -79 -120 -6
-192 25 -231 100 -19 36 -37 26 -32 -18 2 -19 -1 -36 -7 -38 -5 -2 -2 -5 8 -5
9 -1 17 -5 17 -10 0 -20 48 -61 95 -81 73 -31 210 -29 269 5 71 39 86 51 81
64 -3 8 0 18 7 22 18 11 16 115 -3 159 l-16 35 5 -60z m2 -159 c0 -3 -4 -8
-10 -11 -5 -3 -10 -1 -10 4 0 6 5 11 10 11 6 0 10 -2 10 -4z"/>
<path d="M8325 1850 c-3 -5 -1 -10 4 -10 6 0 11 5 11 10 0 6 -2 10 -4 10 -3 0
-8 -4 -11 -10z"/>
</g>
</svg>
