<?xml version="1.0" standalone="no"?>
<!DOCTYPE svg PUBLIC "-//W3C//DTD SVG 20010904//EN"
 "http://www.w3.org/TR/2001/REC-SVG-20010904/DTD/svg10.dtd">
<svg version="1.0" xmlns="http://www.w3.org/2000/svg"
 width="941.000000pt" height="718.000000pt" viewBox="0 0 941.000000 718.000000"
 preserveAspectRatio="xMidYMid meet">
<metadata>
Created by potrace 1.16, written by Peter Selinger 2001-2019
</metadata>
<g transform="translate(0.000000,718.000000) scale(0.100000,-0.100000)"
fill="#000000" stroke="none">
<path d="M0 3590 l0 -3590 4705 0 4705 0 0 3590 0 3590 -1274 0 -1275 0 5
-127 c3 -70 3 -125 1 -123 -5 6 -16 138 -17 203 l0 47 -325 0 c-282 0 -325 -2
-325 -15 0 -8 4 -15 9 -15 6 0 5 -15 -1 -36 -5 -20 -7 -53 -4 -73 l5 -36 -16
38 c-9 20 -21 37 -29 37 -7 0 -15 6 -17 13 -4 7 -6 6 -6 -5 -1 -21 -59 -42
-76 -28 -9 8 -17 3 -29 -15 -15 -22 -23 -25 -79 -25 -35 0 -68 -5 -75 -12 -8
-8 -14 -5 -22 16 -8 22 -14 26 -31 21 -14 -5 -19 -3 -15 3 3 6 2 13 -3 16 -5
3 -12 -2 -15 -11 -4 -9 -1 -20 6 -24 7 -4 9 -11 5 -15 -3 -4 -13 -1 -21 5 -12
10 -20 10 -37 0 -22 -11 -22 -12 -4 -25 10 -8 14 -14 8 -14 -7 0 -14 -9 -18
-19 -5 -16 -12 -19 -42 -14 -36 6 -36 6 -30 -25 4 -18 3 -32 -2 -32 -11 0 -21
25 -21 51 0 10 -5 19 -11 19 -8 0 -8 4 0 14 9 11 8 17 -4 30 -11 10 -13 24 -9
42 5 19 4 25 -5 20 -6 -4 -14 0 -17 9 -5 12 -14 15 -30 11 -14 -4 -24 -2 -24
4 0 5 10 10 23 10 21 1 22 1 3 15 -11 8 -28 15 -38 15 -15 0 -17 3 -8 19 5 11
10 22 10 25 0 3 -734 6 -1630 6 l-1630 0 0 -30 c0 -23 -8 -35 -34 -52 -35 -23
-66 -65 -66 -90 0 -8 -30 -33 -67 -57 -51 -33 -68 -39 -75 -29 -8 10 -9 9 -5
-3 7 -21 -8 -43 -22 -35 -27 17 -81 196 -81 271 l0 25 -960 0 -960 0 0 -3590z
m5479 3543 c11 3 25 -1 31 -8 8 -9 5 -14 -9 -18 -22 -5 -61 18 -61 36 0 8 3 7
9 -2 5 -8 18 -12 30 -8z m-39 -38 c-7 -9 -15 -13 -19 -10 -3 3 1 10 9 15 21
14 24 12 10 -5z m-3211 -44 c-20 -27 -21 -39 -17 -109 5 -70 -2 -115 -16 -102
-4 5 -9 116 -7 162 1 15 47 78 57 78 3 0 -5 -13 -17 -29z m3922 -34 c-13 -13
-26 -3 -16 12 3 6 11 8 17 5 6 -4 6 -10 -1 -17z m100 7 c12 -14 11 -16 -5 -13
-11 2 -21 10 -24 17 -5 17 13 15 29 -4z m39 -24 c0 -5 -5 -10 -11 -10 -5 0 -7
5 -4 10 3 6 8 10 11 10 2 0 4 -4 4 -10z m-1940 -10 c0 -5 -7 -7 -15 -4 -8 4
-15 8 -15 10 0 2 7 4 15 4 8 0 15 -4 15 -10z m-35 -20 c3 -11 13 -20 21 -20
11 0 13 -13 8 -72 -6 -77 -10 -90 -23 -69 -7 10 -16 7 -40 -16 -43 -41 -40
-87 7 -101 28 -9 32 -8 32 9 0 10 5 19 10 19 6 0 10 -29 10 -66 0 -65 0 -66
-24 -60 -27 7 -39 -4 -31 -27 4 -8 16 -13 31 -11 l24 2 0 -167 c0 -97 -5 -181
-11 -200 -7 -21 -8 -36 -1 -44 14 -18 25 -287 17 -430 l-8 -125 -31 -6 c-17
-4 -128 -9 -246 -13 l-215 -5 -2 163 c-1 90 -6 340 -10 554 -5 215 -5 446 -2
515 3 69 6 108 7 88 2 -32 5 -38 25 -38 15 0 30 -12 46 -39 l25 -39 29 59 c26
53 32 59 58 57 16 -1 29 -8 29 -16 0 -7 6 -19 13 -26 10 -12 15 -12 27 -1 8 7
41 15 73 18 48 5 57 3 57 -10 0 -33 15 0 16 35 1 25 8 41 23 50 12 8 21 23 21
33 0 25 27 24 35 -1z m1280 10 c3 -5 -1 -10 -10 -10 -9 0 -13 5 -10 10 3 6 8
10 10 10 2 0 7 -4 10 -10z m-1155 -10 c12 -8 10 -10 -8 -10 -34 0 -22 -24 14
-28 36 -4 91 -28 101 -46 16 -27 63 -49 92 -43 44 9 54 -10 52 -109 -1 -48 -4
-91 -7 -95 -8 -13 -34 2 -34 20 0 28 -21 41 -66 41 -33 0 -53 8 -89 36 -26 19
-58 39 -71 44 -13 5 -24 15 -25 22 0 7 -4 4 -9 -7 -10 -24 -13 105 -4 154 7
32 25 39 54 21z m-463 -16 c-3 -3 -12 -4 -19 -1 -8 3 -5 6 6 6 11 1 17 -2 13
-5z m563 -26 c25 -13 28 -17 10 -12 -14 4 -41 15 -60 26 -25 13 -28 17 -10 12
14 -4 41 -15 60 -26z m1024 -14 c4 -10 1 -14 -6 -12 -15 5 -23 28 -10 28 5 0
13 -7 16 -16z m133 -16 c-3 -7 -5 -2 -5 12 0 14 2 19 5 13 2 -7 2 -19 0 -25z
m-1057 -8 c0 -5 -4 -10 -9 -10 -6 0 -13 5 -16 10 -3 6 1 10 9 10 9 0 16 -4 16
-10z m980 6 c0 -2 3 -13 6 -23 5 -17 5 -17 -6 0 -6 9 -15 15 -21 12 -5 -4 -9
-1 -9 4 0 6 7 11 15 11 8 0 15 -2 15 -4z m-2891 -32 c125 -28 222 -98 286
-208 36 -62 38 -150 5 -216 l-22 -44 -19 48 c-25 67 -63 119 -111 152 l-40 28
24 18 c20 15 21 18 5 18 -27 0 -83 -46 -97 -81 -20 -47 -43 -53 -69 -19 -25
34 -50 41 -27 8 44 -62 -2 -88 -112 -64 -123 27 -195 16 -222 -33 -17 -33 -11
-36 18 -9 24 24 82 48 82 35 0 -2 -7 -22 -16 -43 -22 -54 -15 -190 15 -265 26
-68 89 -142 142 -169 69 -36 155 -23 196 28 7 9 16 13 19 10 8 -9 -33 -219
-46 -232 -8 -7 -84 -10 -232 -9 -133 2 -228 -1 -239 -8 -21 -11 -49 -59 -49
-85 0 -10 7 -26 17 -36 24 -26 220 -25 363 2 129 25 137 25 120 5 -7 -8 -22
-15 -33 -15 -32 0 -182 -48 -292 -93 -141 -58 -219 -56 -249 7 -42 89 7 205
109 259 31 16 57 21 113 20 73 -1 97 13 42 24 -22 4 -32 13 -37 32 -11 47 -67
148 -71 127 -2 -10 1 -23 7 -29 28 -28 11 -36 -124 -67 -63 -14 -160 -12 -212
6 -70 24 -119 69 -156 143 -90 184 -6 418 221 610 43 36 178 100 267 126 152
44 283 50 424 19z m1070 -224 c0 -102 5 -282 10 -400 6 -118 13 -317 16 -442
l7 -226 -54 -6 c-29 -3 -114 -7 -189 -8 l-136 -3 -6 110 c-13 240 21 955 45
955 4 0 8 -6 8 -14 0 -11 6 -11 35 2 19 9 35 21 35 27 0 5 5 3 10 -5 9 -13 10
-13 10 0 0 15 52 70 66 70 16 0 44 34 44 54 0 49 77 121 92 87 3 -9 7 -99 7
-201z m2105 195 c-4 -10 -15 -12 -35 -8 -24 4 -29 2 -30 -13 0 -18 -1 -18 -9
1 -14 33 -11 37 20 33 17 -3 33 -1 36 4 8 13 24 -1 18 -17z m138 -4 c13 -24
13 -29 2 -24 -8 3 -14 12 -14 20 0 10 -8 13 -27 11 -14 -2 -28 2 -30 7 -2 6 9
12 24 13 22 1 32 -5 45 -27z m-419 12 c-7 -2 -19 -2 -25 0 -7 3 -2 5 12 5 14
0 19 -2 13 -5z m334 -35 c-3 -8 -6 -5 -6 6 -1 11 2 17 5 13 3 -3 4 -12 1 -19z
m890 -15 c-3 -10 -5 -4 -5 12 0 17 2 24 5 18 2 -7 2 -21 0 -30z m-853 -4 c9
13 26 15 26 2 0 -5 -9 -11 -20 -14 -12 -3 -20 -14 -20 -26 0 -12 -4 -21 -10
-21 -13 0 -13 27 0 35 5 3 7 13 4 23 -5 13 -4 14 4 3 7 -9 12 -10 16 -2z
m-479 -34 c1 -30 -18 -55 -40 -55 -8 0 -20 -9 -28 -20 -9 -13 -22 -19 -38 -17
-23 4 -40 27 -20 27 6 0 11 7 11 15 0 8 7 15 16 15 9 0 18 8 21 18 5 20 52 53
68 48 6 -1 10 -15 10 -31z m365 31 c0 -2 -9 -6 -20 -9 -11 -3 -20 -1 -20 4 0
5 9 9 20 9 11 0 20 -2 20 -4z m260 -16 c0 -5 -2 -10 -4 -10 -3 0 -8 5 -11 10
-3 6 -1 10 4 10 6 0 11 -4 11 -10z m810 -25 c0 -8 -4 -15 -10 -15 -5 0 -10 7
-10 15 0 8 5 15 10 15 6 0 10 -7 10 -15z m-2573 -122 c-2 -16 -4 -3 -4 27 0
30 2 43 4 28 2 -16 2 -40 0 -55z m2467 -17 c-6 -61 -21 -64 -18 -4 4 83 4 85
14 63 4 -11 6 -38 4 -59z m-1396 5 c69 -18 101 -39 102 -68 0 -13 -17 -26 -38
-29 -50 -8 -56 -31 -8 -30 21 1 32 5 29 12 -6 16 14 27 22 14 4 -6 -1 -20 -10
-30 -15 -17 -15 -19 4 -25 12 -3 21 -10 21 -15 0 -5 7 -7 15 -4 9 4 19 -3 26
-20 7 -14 16 -26 21 -26 4 0 8 -7 8 -15 0 -8 -4 -15 -9 -15 -6 0 -9 -9 -8 -20
1 -11 8 -20 17 -20 13 0 13 -1 0 -10 -11 -7 -11 -10 -2 -10 7 0 10 -4 7 -10
-3 -5 -1 -10 5 -10 20 0 6 -44 -19 -56 -13 -7 -28 -22 -35 -35 -18 -38 -91
-68 -164 -68 -60 -1 -66 1 -99 34 -19 19 -41 35 -49 35 -8 0 -14 4 -14 9 0 4
10 6 23 4 18 -4 23 0 24 19 1 14 -1 18 -6 10 -5 -8 -20 -10 -47 -6 -45 7 -58
14 -26 14 15 0 22 6 22 20 0 11 -4 20 -10 20 -5 0 -10 5 -10 11 0 5 5 7 10 4
6 -3 10 2 10 11 0 10 3 15 6 11 8 -8 34 18 34 34 0 6 -8 17 -17 24 -15 11 -16
16 -4 41 12 28 20 65 25 128 1 16 11 35 22 43 11 8 18 23 16 34 -3 16 1 20 15
15 10 -3 51 -14 91 -25z m1332 -21 c0 -22 -2 -40 -4 -40 -2 0 -6 18 -8 40 -2
22 0 40 4 40 5 0 8 -18 8 -40z m-2352 -17 c-3 -21 -2 -47 3 -58 6 -15 8 -11 8
18 1 35 2 37 36 37 19 0 46 -5 60 -12 20 -9 34 -9 61 1 19 7 48 10 64 6 l29
-6 3 -160 c3 -156 2 -160 -17 -155 -11 3 -58 14 -105 25 -47 11 -110 28 -140
39 l-55 19 -3 124 c-1 79 1 119 7 110 14 -21 44 5 36 30 -4 11 -1 19 6 19 8 0
10 -12 7 -37z m-1563 -1 c59 -40 107 -139 113 -237 3 -48 0 -86 -8 -105 -15
-36 -14 -36 -50 -10 -16 11 -45 27 -64 35 -29 12 -37 23 -46 57 -17 65 -31 97
-67 149 -31 46 -32 49 -14 59 28 15 28 15 62 -45 17 -30 34 -55 37 -55 4 0 15
7 25 15 18 13 17 16 -15 82 -18 37 -34 71 -36 76 -7 15 25 5 63 -21z m3838 11
c-4 -11 -8 -13 -11 -5 -2 7 -9 9 -14 6 -7 -4 -8 -2 -4 4 12 19 36 15 29 -5z
m-1117 -49 c-3 -8 -11 -14 -18 -13 -10 0 -10 2 0 6 6 2 13 17 13 31 1 18 3 21
6 9 3 -10 2 -25 -1 -33z m713 16 c-25 -4 -60 -15 -76 -24 -30 -15 -31 -15 -36
9 -4 25 -4 25 77 24 73 -1 77 -2 35 -9z m401 0 c0 -5 -7 -10 -15 -10 -8 0 -15
5 -15 10 0 6 7 10 15 10 8 0 15 -4 15 -10z m-4134 -70 c13 -5 34 -35 53 -74
29 -60 34 -65 52 -55 30 16 33 33 10 84 -17 40 -18 47 -5 52 43 16 115 -121
122 -232 6 -101 -10 -155 -59 -200 -44 -39 -93 -46 -152 -21 -42 17 -113 97
-140 156 -37 83 -34 248 6 298 11 13 67 9 113 -8z m522 -350 c1 -93 -1 -111
-11 -96 -7 11 -31 49 -55 85 -40 61 -43 69 -33 101 5 19 11 55 13 80 1 26 16
73 35 110 18 36 34 72 35 80 3 29 16 -247 16 -360z m2542 330 c0 -5 -4 -10
-10 -10 -5 0 -10 5 -10 10 0 6 5 10 10 10 6 0 10 -4 10 -10z m-361 -123 c1 -5
-3 -5 -9 -2 -5 3 -10 16 -9 28 0 21 1 21 9 2 5 -11 9 -24 9 -28z m-769 -77
c36 -10 93 -27 128 -37 l62 -18 3 -302 c2 -295 2 -302 -18 -307 -11 -3 -84 -6
-162 -6 l-142 0 0 351 0 351 32 -6 c18 -3 61 -15 97 -26z m2370 20 c0 -5 -5
-10 -11 -10 -5 0 -7 5 -4 10 3 6 8 10 11 10 2 0 4 -4 4 -10z m-3965 -74 c78
-54 145 -158 180 -280 13 -44 16 -86 14 -170 -4 -101 -7 -118 -34 -171 -36
-71 -75 -97 -144 -97 -156 0 -204 134 -141 394 11 48 23 120 25 160 4 77 14
164 21 186 5 17 37 8 79 -22z m5442 -12 c-3 -3 -12 -4 -19 -1 -8 3 -5 6 6 6
11 1 17 -2 13 -5z m-1027 -93 c34 -24 48 -96 48 -241 0 -123 -8 -180 -21 -147
-4 10 -11 15 -17 12 -6 -4 -2 -21 10 -45 33 -64 23 -65 -40 -7 -80 74 -133 92
-254 84 -68 -5 -96 -11 -117 -26 -32 -24 -53 -27 -47 -8 4 13 74 51 146 80 24
10 41 21 37 26 -3 5 -23 2 -45 -6 -22 -9 -43 -13 -46 -10 -17 17 108 153 178
195 36 21 36 36 1 27 -27 -6 -27 -6 -9 14 11 12 16 24 13 27 -10 11 -37 -17
-52 -52 -11 -26 -18 -31 -35 -27 -31 8 -44 38 -24 58 69 68 209 92 274 46z
m-1203 -403 c-2 -29 -3 -6 -3 52 0 58 1 81 3 53 2 -29 2 -77 0 -105z m2653
117 c0 -8 -4 -15 -10 -15 -5 0 -10 7 -10 15 0 8 5 15 10 15 6 0 10 -7 10 -15z
m-6121 -21 l93 6 -7 -28 c-3 -15 -10 -30 -14 -34 -9 -10 -84 -26 -187 -40 -77
-11 -83 -10 -118 11 -35 22 -72 74 -62 89 2 4 49 4 103 -1 54 -4 140 -6 192
-3z m3843 -13 c26 -16 51 -38 57 -49 10 -18 12 -18 78 -2 37 10 107 21 155 25
l88 7 -6 -31 c-4 -20 -2 -31 5 -31 43 0 -58 -100 -192 -190 -86 -58 -213 -110
-237 -95 -5 3 -10 34 -10 68 0 47 7 76 28 121 l28 60 -33 49 c-32 47 -40 76
-26 90 10 11 16 9 65 -22z m-3349 -98 c-3 -43 -9 -85 -13 -93 -5 -9 -2 -26 6
-40 7 -14 13 -19 14 -12 0 6 12 12 26 12 21 0 25 -3 18 -17 -4 -10 -8 -52 -10
-93 -2 -41 -1 -67 2 -57 9 30 24 19 24 -18 0 -19 5 -35 10 -35 17 0 11 -16
-15 -44 -14 -15 -25 -21 -25 -15 0 10 -3 10 -12 0 -10 -11 -10 -14 0 -18 27
-10 12 -33 -23 -33 -35 0 -35 0 -36 48 0 26 -1 109 -2 184 -1 76 1 138 4 138
4 0 7 10 7 23 -1 24 11 114 18 135 9 31 12 6 7 -65z m39 25 c-10 -22 -11 -21
-11 12 -1 26 2 31 11 22 8 -8 8 -17 0 -34z m4763 32 c8 -13 -15 -50 -68 -107
-22 -24 -37 -47 -33 -51 4 -4 14 2 22 12 13 18 15 17 33 -25 51 -115 54 -333
7 -474 -45 -133 -135 -269 -191 -289 -17 -6 -12 -11 30 -34 56 -31 63 -51 22
-65 -22 -7 -44 -4 -93 12 -76 25 -80 25 -65 7 9 -11 4 -15 -26 -20 -53 -8
-126 -7 -141 2 -10 7 -8 19 9 57 20 46 22 48 36 29 14 -18 15 -17 9 11 -28
135 -28 159 -2 290 6 29 6 29 -10 -5 -16 -34 -17 -34 -27 -12 -12 26 -48 30
-70 7 -9 -8 -36 -46 -62 -84 -25 -39 -66 -88 -91 -110 -48 -42 -129 -85 -144
-76 -5 3 -18 26 -30 51 -18 43 -19 48 -4 77 21 40 79 123 113 160 24 26 24 28
9 55 -21 35 -12 52 47 86 25 15 45 30 45 34 0 4 10 18 21 32 l20 25 -7 -25
c-3 -14 -12 -32 -20 -40 -12 -15 -44 -120 -44 -147 0 -7 3 -13 8 -13 4 0 13
27 19 60 14 74 55 136 115 175 26 17 47 33 47 38 1 9 -75 -29 -84 -43 -3 -5
-10 -10 -15 -10 -19 0 26 83 66 120 24 22 37 40 30 40 -16 0 -63 -43 -88 -80
l-17 -25 0 51 c-1 64 15 111 39 119 16 5 20 18 22 83 l3 77 37 -1 c20 -1 44
-4 54 -8 16 -6 16 -8 4 -16 -9 -6 17 -7 71 -3 120 8 195 -2 202 -28 5 -19 10
-16 44 22 52 58 130 88 148 59z m-826 -12 c-6 -49 0 -56 45 -56 25 0 54 -3 65
-7 17 -5 20 -3 14 12 -4 13 3 9 25 -11 18 -16 30 -32 27 -34 -3 -3 2 -16 11
-29 11 -17 14 -36 9 -63 -6 -38 -7 -38 -33 -24 -15 8 -35 14 -44 14 -11 0 -24
14 -32 34 -36 86 -128 88 -202 3 -17 -18 -36 -49 -43 -68 -7 -18 -17 -42 -22
-51 -10 -19 2 -87 22 -131 14 -30 48 -47 94 -47 24 0 38 -6 45 -20 6 -11 22
-23 35 -26 14 -3 22 -10 19 -15 -8 -13 -48 -1 -132 39 -114 54 -141 92 -142
196 0 20 4 27 14 23 9 -4 13 0 12 11 -4 23 -59 28 -80 7 -18 -19 -12 -39 10
-31 11 4 14 -5 14 -37 1 -56 30 -118 72 -150 18 -14 71 -44 118 -65 47 -22 94
-47 105 -55 20 -15 20 -15 -2 -39 -12 -13 -42 -55 -67 -93 l-45 -70 -12 30
c-6 17 -19 48 -28 70 -28 71 -82 149 -120 176 -39 29 -115 54 -131 44 -20 -12
-9 -22 46 -39 80 -25 121 -71 173 -192 70 -162 119 -259 142 -280 l22 -19 -5
28 c-5 24 -1 29 37 46 54 24 171 134 197 185 21 43 56 86 69 86 5 0 16 -14 25
-31 12 -24 15 -53 12 -128 -3 -81 -8 -105 -32 -156 -16 -33 -33 -61 -38 -63
-4 -2 -8 -9 -8 -16 0 -19 -77 -125 -124 -172 -62 -62 -71 -65 -179 -55 -99 10
-121 17 -148 48 -15 16 -89 217 -144 388 -27 84 -101 241 -146 310 -18 28 -61
79 -96 115 -61 63 -62 65 -40 77 12 7 28 12 35 13 48 1 225 116 317 206 101
98 112 105 161 113 75 13 105 13 103 -1z m-1449 -12 c0 -3 -4 -8 -10 -11 -5
-3 -10 -1 -10 4 0 6 5 11 10 11 6 0 10 -2 10 -4z m-2940 -68 c0 -33 23 -90 47
-119 32 -38 95 -68 140 -69 48 0 110 28 138 63 13 17 25 29 27 27 2 -3 2 -80
0 -172 l-3 -166 -82 -6 c-265 -19 -590 -37 -704 -39 -110 -2 -135 1 -148 14
-15 15 -12 22 47 92 279 335 263 321 413 363 93 26 125 29 125 12z m3390 -93
c0 -56 -2 -64 -17 -58 -11 4 -12 8 -5 11 7 2 12 25 12 58 0 30 2 54 5 54 3 0
5 -29 5 -65z m3010 61 c0 -3 -4 -8 -10 -11 -5 -3 -10 -1 -10 4 0 6 5 11 10 11
6 0 10 -2 10 -4z m-1956 -49 c58 -78 -8 -245 -106 -266 -45 -10 -74 5 -94 47
-30 65 6 180 73 231 41 31 99 25 127 -12z m-4831 -76 c-32 -38 -105 -125 -163
-194 -58 -69 -109 -124 -115 -123 -21 5 -16 49 12 89 15 23 30 44 33 47 10 9
116 155 131 179 13 21 109 66 147 70 8 0 -13 -30 -45 -68z m3685 32 c-10 -2
-28 -2 -40 0 -13 2 -5 4 17 4 22 1 32 -1 23 -4z m-3824 -41 c-9 -16 -25 -39
-36 -53 -16 -20 -16 -16 4 21 20 39 36 59 46 60 2 0 -4 -13 -14 -28z m3633 12
c-3 -3 -12 -4 -19 -1 -8 3 -5 6 6 6 11 1 17 -2 13 -5z m1445 -11 c13 -12 18
-30 18 -68 0 -94 -81 -183 -149 -165 -41 10 -49 36 -20 59 32 25 76 106 82
151 3 19 6 36 6 38 4 9 48 -1 63 -15z m1044 6 c8 -6 14 -16 14 -21 0 -6 -6 -5
-15 2 -11 9 -25 9 -64 -1 -28 -7 -48 -16 -45 -21 3 -4 -4 -8 -14 -8 -11 0 -23
-7 -26 -16 -4 -9 -9 -14 -12 -11 -13 12 19 48 58 65 51 22 86 26 104 11z m322
-57 c2 -19 11 -36 23 -42 29 -16 25 -58 -7 -72 -24 -11 -29 -9 -50 15 -18 21
-24 40 -24 77 0 48 9 61 40 57 9 -1 16 -15 18 -35z m-5385 11 c-7 -2 -19 -2
-25 0 -7 3 -2 5 12 5 14 0 19 -2 13 -5z m-1158 -99 c-21 -27 -42 -51 -49 -53
-7 -2 -7 1 2 10 6 7 12 20 12 28 0 9 12 26 27 38 14 13 23 23 19 23 -4 0 -4 5
0 11 4 7 10 7 16 1 6 -6 -3 -27 -27 -58z m6272 14 c127 -73 164 -136 171 -293
3 -84 1 -107 -16 -145 -26 -59 -85 -120 -144 -149 -41 -21 -56 -23 -119 -17
-40 3 -89 14 -108 24 -68 32 -126 153 -138 282 -5 49 -1 63 30 125 56 108 97
142 219 180 58 18 61 18 105 -7z m-6391 -150 c-21 -16 -26 -28 -26 -62 0 -23
4 -46 10 -52 5 -5 6 -15 0 -23 -6 -10 -11 -4 -19 25 -6 21 -11 48 -11 59 0 25
63 102 69 84 2 -7 -8 -21 -23 -31z m54 -63 c0 -6 -10 -16 -22 -24 -21 -12 -22
-12 -7 4 16 17 14 70 -2 59 -11 -6 -12 10 -2 20 7 7 32 -37 33 -59z m1070 15
c19 -17 43 -30 55 -31 20 0 20 0 0 -9 -18 -7 -18 -8 8 -15 25 -7 1437 0 1497
7 l25 3 3 -489 2 -489 -282 6 c-271 7 -501 24 -618 47 -61 12 -144 22 -430 50
-317 31 -390 40 -485 60 -104 22 -239 40 -304 40 l-45 0 32 29 c37 35 40 53
12 81 -23 23 -63 25 -156 9 -108 -19 -115 -11 -42 43 96 71 138 116 138 148 0
29 -30 73 -104 155 -25 28 -46 58 -46 68 0 10 -48 68 -107 128 -60 61 -109
116 -111 123 -2 10 30 14 135 19 76 4 206 12 288 18 156 11 404 25 465 27 25
1 45 -7 70 -28z m-980 -24 c0 -5 -7 -3 -15 4 -8 6 -20 9 -27 5 -7 -4 -4 1 6 9
16 13 22 13 28 3 4 -6 8 -16 8 -21z m-216 8 c9 -25 -3 -54 -22 -54 -16 1 -16
2 1 14 23 18 22 36 -3 36 -12 0 -29 -13 -41 -32 -17 -28 -19 -29 -14 -8 4 14
8 25 9 26 0 0 12 8 26 17 31 21 36 21 44 1z m96 12 c0 -3 -4 -8 -10 -11 -5 -3
-10 -1 -10 4 0 6 5 11 10 11 6 0 10 -2 10 -4z m6826 -67 c-14 -17 -26 -25 -26
-17 0 7 9 19 20 26 11 7 20 20 21 30 0 10 3 12 6 4 2 -6 -7 -26 -21 -43z
m-4683 34 c-7 -2 -21 -2 -30 0 -10 3 -4 5 12 5 17 0 24 -2 18 -5z m-2042 -30
c-8 -15 -10 -15 -11 -2 0 17 10 32 18 25 2 -3 -1 -13 -7 -23z m229 -224 c0 -6
-4 -7 -10 -4 -5 3 -7 0 -4 -8 3 -8 1 -18 -5 -22 -7 -3 -11 3 -12 17 -1 13 -2
28 -3 33 -2 18 -117 125 -128 119 -5 -4 -3 -13 6 -23 21 -23 21 -71 1 -71 -18
0 -39 46 -31 67 3 8 -3 24 -14 35 -22 24 -26 38 -10 38 6 0 15 -10 20 -22 l9
-23 0 22 c1 12 -3 25 -9 28 -5 3 -10 11 -10 16 0 6 45 -35 100 -91 55 -55 100
-105 100 -111z m-314 176 c-3 -9 -11 -13 -16 -10 -8 5 -7 11 1 21 14 18 24 11
15 -11z m41 3 c-3 -8 -6 -5 -6 6 -1 11 2 17 5 13 3 -3 4 -12 1 -19z m-297 -3
c-7 -8 -17 -15 -22 -15 -6 0 -5 7 2 15 7 8 17 15 22 15 6 0 5 -7 -2 -15z m170
-20 c10 -13 9 -15 -11 -15 -18 0 -20 -3 -10 -9 12 -8 12 -12 -2 -26 -16 -15
-17 -14 -17 18 0 48 16 61 40 32z m42 -17 c-7 -7 -12 -8 -12 -2 0 14 12 26 19
19 2 -3 -1 -11 -7 -17z m6822 -17 c-7 -9 -34 10 -34 24 0 13 3 12 18 -2 10
-10 17 -20 16 -22z m-6742 1 c-7 -2 -12 -8 -12 -13 0 -6 4 -8 9 -5 4 3 6 -7 3
-22 -3 -17 -7 -21 -10 -12 -3 8 -8 20 -13 26 -5 6 -1 20 8 34 12 17 18 20 21
10 3 -8 0 -16 -6 -18z m-337 -2 c3 -5 0 -16 -7 -23 -10 -12 -15 -12 -26 -1 -7
8 -10 18 -7 24 8 13 32 13 40 0z m116 -23 l-23 -22 17 28 c10 15 20 25 23 22
3 -3 -5 -16 -17 -28z m-917 3 c32 -11 77 -29 100 -39 160 -77 419 -171 469
-171 22 0 49 13 86 41 56 42 82 44 89 6 4 -18 -94 -97 -142 -113 -58 -21 -197
0 -513 78 -82 20 -93 25 -93 45 0 35 -18 36 -25 1 -19 -90 -130 -224 -226
-271 -40 -21 -68 -27 -115 -27 -119 0 -152 39 -86 99 47 43 63 69 86 136 65
195 200 274 370 215z m1193 -7 c0 -15 9 -33 19 -40 10 -7 14 -16 10 -20 -9
-10 -45 36 -46 58 0 12 8 29 14 29 1 0 2 -12 3 -27z m-233 -18 c-4 -8 -11 -12
-16 -9 -6 4 -5 10 3 15 19 12 19 11 13 -6z m-246 -35 c4 0 13 -10 21 -21 l13
-22 -31 22 c-17 12 -36 19 -42 15 -8 -5 -9 -3 -5 5 5 7 15 10 23 7 8 -3 18 -6
21 -6z m215 -41 c-6 -6 -7 3 -4 23 4 28 6 29 9 9 2 -13 0 -27 -5 -32z m400 28
c-2 -4 -3 -11 -3 -17 0 -5 -7 -10 -15 -10 -8 0 -15 9 -15 19 0 13 6 18 18 17
9 -2 16 -6 15 -9z m-663 -40 c0 -5 -4 -5 -10 -2 -5 3 -10 14 -10 23 0 15 2 15
10 2 5 -8 10 -19 10 -23z m160 -20 c-18 -28 -20 -29 -14 -7 4 14 11 27 15 28
5 2 9 11 10 20 0 11 2 12 6 4 2 -7 -5 -27 -17 -45z m307 -54 c-2 -21 -4 -4 -4
37 0 41 2 58 4 38 2 -21 2 -55 0 -75z m59 78 c18 -39 107 -131 126 -131 11 0
29 5 40 11 17 9 25 6 54 -22 19 -18 34 -38 34 -43 0 -15 -243 -177 -251 -168
-4 4 -12 62 -18 129 -18 203 -13 283 15 224z m82 -32 c2 -13 2 -22 0 -19 -1 3
-14 18 -28 33 l-24 28 24 -9 c15 -6 26 -19 28 -33z m-338 -19 c0 -11 -4 -20
-9 -20 -5 0 -12 -18 -16 -41 -10 -60 -18 -40 -10 25 5 38 12 56 21 56 8 0 14
-9 14 -20z m569 -55 c33 -36 64 -77 67 -91 9 -33 -18 -61 -169 -175 -105 -80
-123 -90 -155 -87 -29 2 -37 8 -43 31 -6 24 -2 31 34 60 23 19 78 58 122 87
44 29 90 62 103 73 l22 21 -46 47 c-47 47 -47 48 -30 73 9 14 20 26 25 26 5 0
36 -29 70 -65z m5536 41 c41 -10 50 -17 57 -41 10 -38 1 -43 -135 -74 -26 -6
-77 -25 -112 -43 -57 -27 -67 -36 -77 -69 -14 -49 -27 -59 -118 -94 -41 -15
-105 -43 -141 -62 l-66 -33 -44 25 c-24 13 -54 25 -66 25 -38 0 -34 15 21 73
29 31 70 86 90 122 l38 64 58 -6 c31 -3 86 0 122 6 43 7 81 8 114 2 91 -17
135 31 74 83 -47 39 -31 50 59 42 42 -4 99 -13 126 -20z m-5670 -6 c-10 -11
-30 -19 -44 -19 -21 1 -22 2 -6 6 11 3 29 12 40 19 27 20 31 17 10 -6z m-2210
-20 c33 -5 118 -17 190 -25 148 -17 235 -34 235 -47 0 -4 -24 -32 -54 -62 -64
-63 -65 -86 -5 -116 27 -14 58 -20 106 -19 81 0 143 28 226 101 l53 47 114
-30 c259 -68 380 -97 451 -109 41 -6 148 -25 239 -41 91 -16 181 -32 200 -35
19 -3 78 -14 130 -24 228 -46 311 -61 400 -70 303 -32 441 -52 594 -86 60 -14
161 -29 225 -34 291 -23 419 -39 636 -80 72 -13 169 -20 345 -24 135 -4 309
-9 388 -12 l142 -6 0 -79 0 -79 -102 0 c-57 0 -155 5 -218 10 -63 5 -216 14
-340 20 -204 9 -336 20 -795 65 -82 8 -258 24 -390 35 -759 62 -899 79 -1865
219 -244 36 -542 90 -695 125 -60 14 -149 31 -197 38 l-88 12 0 158 c0 87 3
158 8 158 4 0 34 -5 67 -10z m8025 1 c0 -5 -7 -11 -14 -14 -10 -4 -13 -1 -9 9
6 15 23 19 23 5z m-6410 -5 c0 -3 -4 -8 -10 -11 -5 -3 -10 -1 -10 4 0 6 5 11
10 11 6 0 10 -2 10 -4z m6710 -70 c-15 -15 -34 9 -26 31 7 17 8 17 22 -1 9
-13 11 -23 4 -30z m-370 -6 c-11 -20 -30 -28 -30 -12 0 11 22 32 32 32 5 0 4
-9 -2 -20z m-6234 -115 c-7 -49 -14 -76 -15 -58 -1 42 22 194 26 168 2 -11 -3
-60 -11 -110z m268 36 c5 -58 4 -81 -3 -76 -6 3 -11 40 -11 87 0 45 2 79 4 77
2 -2 7 -42 10 -88z m6451 59 c3 -5 1 -10 -4 -10 -6 0 -11 5 -11 10 0 6 2 10 4
10 3 0 8 -4 11 -10z m-87 -44 c2 -10 -1 -23 -6 -28 -12 -12 -36 27 -27 43 10
15 29 5 33 -15z m-6348 -139 c0 -7 -4 -6 -10 3 -8 12 -10 11 -10 -6 0 -12 -7
-24 -15 -28 -8 -3 -15 -1 -15 4 0 6 4 10 9 10 5 0 11 9 14 21 6 21 27 18 27
-4z m-201 -3 c2 -2 -12 -4 -32 -4 -20 0 -38 4 -42 9 -5 9 64 4 74 -5z m5747
-84 c-12 -41 -33 -120 -46 -175 -13 -55 -28 -104 -35 -110 -33 -28 -47 -114
-25 -155 6 -12 6 -56 -2 -129 l-11 -112 -41 -24 -41 -25 -6 38 c-4 20 -7 136
-7 257 0 194 -10 332 -27 376 -4 11 25 29 102 65 114 54 157 73 160 70 1 -1
-8 -35 -21 -76z m-5673 63 c-7 -2 -21 -2 -30 0 -10 3 -4 5 12 5 17 0 24 -2 18
-5z m134 -35 c-3 -8 -6 -5 -6 6 -1 11 2 17 5 13 3 -3 4 -12 1 -19z m471 6 c21
-6 13 -33 -15 -51 -16 -10 -34 -23 -41 -30 -16 -15 -15 -15 -71 -2 -25 5 -51
19 -58 29 -8 11 -20 17 -29 13 -12 -4 -15 -1 -12 13 2 13 13 20 33 22 23 3 27
1 18 -8 -20 -21 -3 -40 37 -40 25 0 43 7 56 21 14 16 16 23 6 26 -6 3 -10 9
-7 14 5 7 47 4 83 -7z m-2353 -189 c28 -8 59 -14 70 -14 31 0 106 -18 148 -36
21 -8 42 -13 47 -10 5 3 30 -1 56 -10 25 -8 50 -12 56 -9 5 4 20 2 31 -4 12
-6 36 -15 52 -21 25 -9 20 -10 -34 -6 -36 3 -67 9 -70 14 -3 4 -22 8 -41 8
-19 0 -61 5 -93 12 -33 7 -61 10 -64 8 -8 -9 176 -45 372 -72 55 -8 145 -23
200 -34 55 -11 134 -24 175 -30 41 -6 134 -19 205 -31 72 -11 207 -29 300 -40
94 -11 233 -29 310 -40 77 -11 174 -20 215 -19 68 1 63 3 -65 16 -156 16 -212
37 -80 30 114 -6 337 -37 355 -49 11 -6 5 -8 -20 -3 -22 3 -31 2 -25 -4 13
-13 281 -36 400 -34 50 0 82 -2 72 -6 -9 -3 15 -6 55 -6 75 -1 274 -18 409
-35 41 -6 136 -13 210 -16 74 -3 161 -12 194 -20 33 -8 143 -21 245 -29 509
-41 717 -61 760 -73 20 -6 26 -15 28 -45 l3 -37 -1223 -1 c-673 0 -1244 0
-1269 1 l-46 1 -2 -52 c-2 -72 -11 -76 -11 -6 l0 57 -299 0 c-230 0 -300 -3
-304 -12 -4 -10 -7 -10 -18 0 -17 16 -52 16 -47 0 3 -7 15 -15 28 -18 20 -5
21 -7 6 -19 -8 -7 -13 -18 -9 -25 3 -6 2 -8 -2 -3 -5 4 -15 1 -24 -6 -9 -8
-36 -22 -61 -31 -42 -17 -45 -17 -57 0 -7 10 -13 23 -13 28 0 6 4 5 9 -3 11
-17 32 -6 25 13 -3 7 6 20 20 30 35 22 24 46 -21 46 -30 0 -35 -3 -30 -20 3
-11 1 -21 -4 -21 -5 -1 -15 -2 -21 -3 -20 -2 -22 -46 -2 -60 23 -17 12 -46
-14 -39 -11 2 -23 0 -26 -6 -4 -6 -26 -11 -50 -11 -23 0 -47 -5 -54 -12 -8 -8
-14 -5 -22 16 -9 23 -13 26 -25 16 -8 -7 -15 -20 -15 -29 0 -13 -2 -13 -9 -2
-7 11 -11 10 -19 -4 -9 -17 -10 -17 -16 3 -8 25 -19 28 -35 8 -8 -9 -8 -16 -2
-20 17 -11 -10 -58 -28 -50 -9 3 -22 7 -28 7 -7 0 -13 4 -13 9 0 4 -23 8 -51
8 -27 0 -48 4 -45 8 3 5 20 7 38 5 31 -4 32 -3 14 11 -11 9 -23 16 -28 16 -14
0 -9 28 7 34 8 3 15 10 15 16 0 6 -5 8 -10 5 -6 -3 -13 1 -16 9 -3 9 -16 16
-28 17 -20 0 -20 1 -1 8 19 8 19 8 -2 19 -27 15 -53 15 -53 2 0 -16 -46 -12
-60 5 -7 9 -10 18 -6 22 3 3 6 1 6 -6 0 -23 61 -7 76 19 10 19 13 21 14 8 0
-22 30 -24 30 -3 0 17 -2 17 140 17 120 -1 116 2 -30 18 -58 6 -134 15 -170
20 -36 5 -103 14 -150 20 -47 6 -141 22 -210 35 -69 13 -163 31 -210 40 -133
25 -176 42 -189 73 -22 58 -32 153 -29 287 2 116 6 140 18 140 8 0 16 6 16 13
1 6 2 14 3 16 3 7 119 -6 166 -19z m585 -125 c12 -8 10 -10 -10 -9 -14 1 -36
5 -50 9 -23 7 -22 8 10 9 19 0 42 -4 50 -9z m485 -79 c34 -7 35 -9 10 -9 -16
0 -43 4 -60 8 -42 11 -1 11 50 1z m103 -18 c-10 -2 -28 -2 -40 0 -13 2 -5 4
17 4 22 1 32 -1 23 -4z m182 -24 c22 -13 -10 -10 -95 7 l-70 14 75 -6 c41 -3
82 -10 90 -15z m193 -26 c-7 -2 -21 -2 -30 0 -10 3 -4 5 12 5 17 0 24 -2 18
-5z m6082 -33 c13 -6 15 -9 5 -9 -8 0 -22 4 -30 9 -18 12 -2 12 25 0z m-4470
-50 c-17 -7 -17 -9 -2 -9 9 -1 17 -5 17 -10 0 -5 25 -12 55 -16 80 -10 57 -25
-38 -25 -65 0 -88 4 -112 20 -29 20 -30 20 -7 26 12 4 22 10 22 15 0 5 19 9
43 8 32 0 37 -2 22 -9z m4505 -18 c0 -7 16 -20 35 -28 19 -8 35 -18 35 -22 0
-4 15 -14 34 -20 38 -14 68 -42 45 -42 -26 0 -149 39 -204 64 -58 26 -72 41
-29 30 23 -6 25 -5 16 13 -10 17 -7 19 29 18 25 0 39 -5 39 -13z m100 -16 c8
-4 -1 -4 -20 -1 -19 3 -39 10 -44 15 -10 10 19 3 64 -14z m-7726 -168 c100 -5
218 -20 311 -38 83 -16 172 -32 198 -36 26 -3 46 -8 43 -11 -4 -4 -738 -5
-742 0 -1 1 -5 28 -9 60 -7 58 -7 59 16 47 12 -7 94 -16 183 -22z m5196 -72
c0 -3 -4 -8 -10 -11 -5 -3 -10 -1 -10 4 0 6 5 11 10 11 6 0 10 -2 10 -4z m75
-6 c-3 -5 1 -10 9 -10 9 0 16 5 16 10 0 6 59 10 156 10 149 0 157 -1 175 -22
l18 -23 1 23 c0 15 6 22 20 22 11 0 20 -4 20 -10 0 -5 9 -10 20 -10 11 0 20 5
20 10 0 6 23 10 50 10 45 0 50 -2 51 -22 l2 -23 4 22 c4 21 10 22 100 22 l95
0 -6 -31 c-3 -17 -6 -37 -6 -44 0 -11 -5 -11 -25 -2 -14 6 -25 15 -25 20 0 13
-30 9 -31 -4 -1 -7 -3 -27 -5 -45 -5 -40 10 -50 29 -22 13 17 19 19 34 10 17
-11 17 -11 -2 -9 -28 4 -26 -24 3 -37 12 -5 22 -13 22 -17 0 -13 -18 -9 -35 8
-15 15 -17 15 -22 -5 -3 -14 -13 -21 -29 -21 -12 0 -26 -4 -29 -10 -3 -5 -2
-10 4 -10 5 0 4 -12 -5 -27 -7 -16 -14 -41 -15 -58 -1 -17 -3 -22 -6 -12 -5
20 -14 22 -32 5 -10 -11 -15 -9 -26 5 -11 15 -17 16 -39 6 -14 -7 -26 -19 -26
-27 0 -8 -6 -12 -15 -9 -8 4 -17 2 -20 -3 -3 -5 -12 -7 -19 -4 -10 4 -12 14
-6 40 6 27 5 34 -7 34 -8 0 -11 -4 -8 -10 3 -5 2 -10 -4 -10 -5 0 -11 6 -13
12 -3 9 -9 8 -21 -4 -20 -19 -22 -48 -4 -48 7 0 5 -5 -5 -10 -9 -6 -14 -18
-11 -29 3 -14 -3 -21 -24 -28 -40 -15 -80 20 -89 77 -6 35 -4 43 15 56 11 8
21 22 21 30 0 8 5 14 10 14 6 0 10 -7 10 -16 0 -8 6 -22 14 -30 18 -17 49 -19
44 -2 -6 16 16 38 37 38 9 0 15 5 13 11 -5 15 -76 39 -80 27 -2 -5 -12 -6 -22
-2 -17 7 -17 8 -2 19 10 8 14 19 10 29 -5 13 -9 14 -20 5 -8 -6 -14 -18 -14
-25 0 -7 -6 -11 -14 -8 -9 4 -16 -3 -19 -18 -3 -20 -5 -19 -12 10 -4 19 -11
30 -17 24 -13 -13 -18 -52 -7 -52 6 0 4 -7 -5 -15 -8 -8 -21 -15 -29 -15 -23
0 -31 -72 -10 -87 32 -24 57 -133 31 -133 -7 0 -24 -3 -37 -7 -20 -5 -23 -3
-18 10 4 10 2 17 -3 17 -6 0 -10 -9 -10 -20 0 -17 -7 -20 -40 -20 -39 0 -40 1
-41 38 0 20 -3 31 -6 25 -2 -7 -15 -13 -28 -13 -13 0 -30 -8 -37 -17 -7 -10
-26 -25 -43 -33 -16 -8 -33 -19 -37 -25 -5 -6 -8 -5 -8 3 0 6 -5 12 -11 12 -6
0 -8 -9 -4 -20 5 -16 2 -20 -14 -20 -31 0 -26 -17 7 -23 65 -13 124 -34 133
-48 5 -8 9 -24 9 -36 0 -13 5 -23 10 -23 18 0 24 32 11 53 -11 17 -11 19 4 13
11 -4 22 0 29 9 9 13 15 13 38 3 31 -14 35 -26 13 -34 -8 -3 -17 -22 -21 -41
-5 -25 -9 -31 -15 -21 -7 10 -9 10 -9 -3 0 -8 5 -20 12 -27 6 -6 8 -15 3 -19
-4 -5 -10 -2 -12 5 -5 13 -33 17 -33 4 0 -5 9 -17 21 -28 15 -14 22 -15 28 -6
10 16 32 12 48 -8 11 -13 12 -13 13 3 0 10 -7 20 -15 23 -20 8 -9 24 16 24 11
0 19 7 19 17 0 9 2 14 5 11 3 -3 0 -35 -8 -72 -11 -53 -11 -66 -1 -66 23 0 26
-21 4 -27 -18 -5 -21 -11 -16 -34 4 -19 1 -29 -11 -33 -9 -4 -13 -9 -11 -12 3
-3 -7 -19 -23 -37 -16 -17 -29 -38 -29 -45 0 -9 -7 -11 -19 -7 -11 3 -21 0
-24 -9 -12 -31 -190 -66 -237 -47 -14 5 -20 10 -13 10 8 1 10 8 6 19 -14 35
-53 54 -53 25 0 -15 -2 -15 -19 1 -11 10 -17 25 -14 35 6 23 -16 38 -29 20 -8
-12 -9 -11 -5 1 2 8 13 16 25 18 24 4 31 37 10 45 -9 3 -7 9 6 20 19 14 19 16
4 39 -14 22 -15 27 -3 39 8 8 16 24 18 36 1 11 8 28 15 36 7 8 10 27 6 44 -4
20 -1 33 10 42 12 10 16 11 16 1 0 -10 3 -10 15 0 17 14 9 34 -11 26 -8 -3
-14 1 -14 8 0 8 9 16 21 19 17 5 19 9 9 26 -9 18 -8 21 10 21 12 0 19 4 15 10
-10 17 6 59 21 53 8 -3 14 0 14 6 0 6 6 11 14 11 7 0 16 14 20 31 4 22 10 30
21 25 9 -3 19 3 25 14 6 11 17 20 26 20 8 0 26 8 41 17 14 10 35 19 46 20 27
4 31 9 23 29 -5 13 -9 15 -18 6 -18 -18 -27 -14 -21 8 3 12 2 20 -3 19 -20 -3
-34 2 -34 12 0 6 7 8 16 5 17 -6 44 9 44 25 0 5 -7 9 -15 9 -17 0 -20 27 -4
32 9 3 9 9 1 24 -6 12 -7 26 -2 34 11 18 3 30 -21 30 -24 0 -25 15 -1 30 13 8
9 9 -22 5 -21 -3 -42 -7 -46 -10 -10 -6 -50 24 -49 38 0 9 2 9 6 0 2 -7 14
-13 25 -13 15 0 19 5 15 20 -6 22 8 28 17 8 4 -10 9 -8 18 5 13 18 34 24 23 7z
m1319 -58 c-7 -79 -14 -78 -14 2 0 41 4 65 10 61 5 -3 7 -30 4 -63z m-5276 5
c4 -19 -6 -21 -27 -8 -16 10 -5 34 12 28 7 -2 13 -11 15 -20z m3689 -9 c-3 -8
-6 -5 -6 6 -1 11 2 17 5 13 3 -3 4 -12 1 -19z m163 -13 c-7 -9 -15 -13 -19
-10 -3 3 1 10 9 15 21 14 24 12 10 -5z m1575 5 c3 -5 1 -10 -4 -10 -6 0 -11 5
-11 10 0 6 2 10 4 10 3 0 8 -4 11 -10z m-6265 -25 c-7 -9 -15 -13 -19 -10 -3
3 1 10 9 15 21 14 24 12 10 -5z m6155 5 c-3 -5 -10 -10 -16 -10 -5 0 -9 5 -9
10 0 6 7 10 16 10 8 0 12 -4 9 -10z m-5386 -78 c1 -7 -3 -10 -9 -7 -5 3 -10
18 -9 33 0 24 1 25 9 7 5 -11 9 -26 9 -33z m-29 33 c0 -3 -9 -14 -20 -25 -11
-11 -22 -20 -25 -20 -9 0 -5 21 8 35 11 14 37 20 37 10z m689 -72 c-1 -90 -5
-87 -12 10 -3 37 -1 67 4 67 5 0 9 -35 8 -77z m4688 -30 c-2 -21 -4 -6 -4 32
0 39 2 55 4 38 2 -18 2 -50 0 -70z m-5309 69 c2 -7 -3 -12 -12 -12 -9 0 -16 7
-16 16 0 17 22 14 28 -4z m42 -22 c0 -5 -5 -10 -11 -10 -5 0 -7 5 -4 10 3 6 8
10 11 10 2 0 4 -4 4 -10z m-433 -6 c-3 -3 -12 -4 -19 -1 -8 3 -5 6 6 6 11 1
17 -2 13 -5z m4572 -88 c-9 -8 -10 -7 -5 7 3 10 7 24 7 30 1 7 3 4 6 -7 3 -10
-1 -23 -8 -30z m-4766 12 c4 -12 4 -24 1 -27 -6 -7 -24 20 -24 37 0 21 17 13
23 -10z m-95 -7 c3 -8 -1 -12 -9 -9 -7 2 -15 10 -17 17 -3 8 1 12 9 9 7 -2 15
-10 17 -17z m129 -13 c-3 -7 -5 -2 -5 12 0 14 2 19 5 13 2 -7 2 -19 0 -25z
m140 3 c2 -22 -25 -37 -40 -22 -7 7 -6 15 3 26 17 21 35 19 37 -4z m-217 -5
c0 -2 3 -13 6 -23 5 -17 5 -17 -6 0 -6 9 -15 15 -21 12 -5 -4 -9 -1 -9 4 0 6
7 11 15 11 8 0 15 -2 15 -4z m5024 -11 c3 -8 1 -15 -4 -15 -6 0 -10 7 -10 15
0 8 2 15 4 15 2 0 6 -7 10 -15z m899 -107 c-5 -142 -12 -203 -23 -192 -13 13
11 304 24 304 2 0 1 -51 -1 -112z m-5646 70 c-3 -8 -6 -5 -6 6 -1 11 2 17 5
13 3 -3 4 -12 1 -19z m-41 -3 c17 -13 17 -14 2 -15 -26 0 -24 -40 2 -40 18 0
25 11 21 33 -1 5 3 6 9 2 15 -9 -5 -41 -30 -48 -17 -4 -22 0 -27 24 -3 16 -9
29 -14 29 -5 0 -9 7 -9 15 0 19 21 19 46 0z m191 -20 c12 -19 20 -35 17 -35
-9 0 -34 28 -34 38 0 14 -28 23 -35 11 -4 -5 -11 -6 -17 -3 -6 4 -5 10 3 15
25 16 44 8 66 -26z m4600 18 c9 -25 25 -34 39 -22 9 7 15 5 22 -6 5 -10 17
-15 27 -14 18 4 18 5 1 22 -18 18 -11 23 12 8 20 -12 10 -46 -13 -47 -11 0
-25 3 -30 7 -16 12 -37 -6 -33 -26 2 -10 -3 -20 -9 -22 -8 -3 -13 4 -13 16 0
12 -7 24 -15 27 -8 4 -15 11 -15 16 0 6 7 5 15 -2 9 -7 18 -10 21 -7 8 8 -19
47 -34 47 -7 0 -10 5 -7 10 10 15 25 12 32 -7z m193 -5 c0 -23 -5 -23 -30 2
-20 20 -20 20 5 18 17 -2 25 -8 25 -20z m-3993 -35 c-3 -10 -5 -4 -5 12 0 17
2 24 5 18 2 -7 2 -21 0 -30z m-890 5 c-3 -8 -6 -5 -6 6 -1 11 2 17 5 13 3 -3
4 -12 1 -19z m4649 -15 c-10 -10 -19 5 -10 18 6 11 8 11 12 0 2 -7 1 -15 -2
-18z m215 17 c21 -12 27 -44 7 -37 -7 2 -13 9 -13 16 0 6 -7 16 -15 21 -20 13
-4 13 21 0z m-44 -32 c-3 -7 -5 -2 -5 12 0 14 2 19 5 13 2 -7 2 -19 0 -25z
m-4757 12 c0 -4 -9 -10 -20 -13 -12 -3 -20 -14 -20 -25 0 -12 -4 -24 -10 -27
-10 -6 -14 33 -5 57 6 14 55 21 55 8z m5687 -15 c-19 -19 -27 -19 -27 -1 0 8
8 16 18 18 24 6 27 1 9 -17z m-6191 -24 c2 -29 -3 -35 -35 -49 -20 -8 -44 -15
-53 -13 -19 2 -25 -14 -8 -22 6 -3 5 -4 -2 -3 -7 2 -23 -1 -36 -5 -20 -8 -21
-7 -12 11 6 11 15 20 20 20 6 0 10 7 10 15 0 8 4 15 9 15 5 0 25 16 45 36 42
42 60 40 62 -5z m5059 29 c-3 -5 -21 -10 -38 -9 -31 1 -31 1 -7 9 36 11 52 11
45 0z m1073 -25 c-4 -33 21 -72 30 -47 2 7 8 12 13 12 5 0 4 -9 -3 -19 -7 -12
-29 -23 -50 -26 -21 -4 -38 -11 -38 -16 0 -5 -5 -9 -10 -9 -16 0 -7 63 13 84
9 11 17 27 17 36 0 9 7 17 16 17 12 0 15 -8 12 -32z m-5985 18 c-7 -2 -19 -2
-25 0 -7 3 -2 5 12 5 14 0 19 -2 13 -5z m6062 -13 c3 -5 1 -10 -4 -10 -6 0
-11 5 -11 10 0 6 2 10 4 10 3 0 8 -4 11 -10z m-6078 -16 c-3 -3 -12 -4 -19 -1
-8 3 -5 6 6 6 11 1 17 -2 13 -5z m1190 -41 c-3 -10 -5 -2 -5 17 0 19 2 27 5
18 2 -10 2 -26 0 -35z m3713 37 c0 -5 -2 -10 -4 -10 -3 0 -8 5 -11 10 -3 6 -1
10 4 10 6 0 11 -4 11 -10z m1228 2 c8 -6 10 -16 5 -30 -8 -20 -9 -20 -32 -3
-34 26 -10 56 27 33z m-310 -117 c0 -33 -3 -51 -5 -41 -7 26 -25 44 -41 38 -6
-2 -12 3 -12 11 0 9 10 19 21 22 18 6 20 13 16 49 l-6 41 14 -30 c8 -16 14
-57 13 -90z m-4371 69 c-3 -3 -12 -4 -19 -1 -8 3 -5 6 6 6 11 1 17 -2 13 -5z
m93 -14 c11 -7 -1 -10 -40 -10 -30 0 -80 -9 -110 -20 -30 -10 -56 -17 -58 -15
-8 8 61 36 110 44 73 12 81 12 98 1z m-353 -22 c-3 -8 -6 -5 -6 6 -1 11 2 17
5 13 3 -3 4 -12 1 -19z m5359 -13 c14 -9 37 -42 51 -73 13 -32 34 -74 44 -95
26 -48 22 -79 -12 -91 -21 -7 -33 -4 -59 14 l-32 23 22 17 c16 12 19 19 11 24
-7 4 -19 2 -28 -6 -14 -11 -15 -10 -9 9 4 12 2 24 -4 28 -10 6 -120 -206 -120
-233 0 -24 -14 -4 -26 36 -9 29 -13 33 -19 20 -4 -10 2 -46 14 -84 22 -70 25
-101 15 -128 -11 -29 -21 -17 -21 28 -2 76 -73 188 -150 233 -43 25 -58 28
-135 28 -73 0 -91 -3 -116 -22 -29 -21 -30 -21 -25 -2 8 27 89 68 137 69 15 0
16 3 7 14 -9 11 0 24 45 64 136 121 328 181 410 127z m-6751 -31 c22 -8 46
-14 54 -14 19 0 51 -30 51 -47 0 -16 -25 -44 -37 -43 -19 2 -43 -9 -43 -20 0
-7 7 -10 15 -6 20 7 45 -3 45 -18 0 -16 32 -17 43 -2 5 7 7 2 4 -11 -3 -15 -1
-20 8 -17 7 3 16 1 20 -5 3 -6 19 -11 36 -11 36 0 37 -16 4 -42 -28 -22 -32
-43 -11 -51 7 -3 18 -19 24 -36 10 -29 9 -33 -24 -58 -18 -16 -34 -33 -34 -39
0 -7 -8 -14 -17 -17 -10 -4 -38 -18 -63 -32 -33 -19 -59 -25 -102 -25 -49 0
-61 4 -83 27 -14 15 -25 31 -25 35 0 5 -11 8 -25 8 -18 0 -25 5 -25 20 0 14
-7 20 -22 21 l-23 2 23 4 c22 4 33 43 12 43 -5 0 -10 5 -10 12 0 6 3 9 6 5 3
-3 12 0 19 6 10 9 9 17 -3 37 -16 25 -16 25 4 8 27 -24 36 -23 32 5 -2 14 -9
21 -21 21 -21 -2 -21 -1 -1 38 15 29 27 84 26 121 -1 18 14 24 20 7 2 -5 9 -6
17 -1 17 11 4 34 -15 27 -8 -3 -14 1 -14 8 0 8 9 16 19 19 15 3 18 11 14 27
-6 21 -4 22 28 15 19 -4 52 -13 74 -21z m1334 -16 c-1 -42 -1 -42 -10 -13 -5
17 -7 36 -4 43 9 24 15 11 14 -30z m475 0 c47 -46 71 -105 82 -204 6 -46 4
-53 -13 -58 -27 -9 -69 8 -83 33 -8 17 -7 23 10 33 24 15 27 40 4 31 -14 -5
-15 -3 -4 16 6 13 9 26 5 29 -12 12 -34 -29 -51 -98 -17 -66 -18 -67 -35 -46
-33 40 -29 9 6 -49 39 -66 43 -86 18 -106 -15 -13 -16 -11 -10 10 19 73 -130
192 -259 206 -65 7 -136 -12 -161 -43 -13 -16 -14 -16 -11 2 4 28 57 56 117
63 35 4 51 10 51 20 0 12 -10 14 -50 8 -27 -4 -50 -3 -50 2 0 14 101 108 143
133 66 39 130 59 189 60 54 0 60 -2 102 -42z m4138 -13 c-10 -35 -29 -39 -49
-8 -13 20 -12 23 14 37 35 18 45 10 35 -29z m-4481 -5 c-56 -45 -61 -47 -61
-25 0 8 9 15 20 15 11 0 20 4 20 9 0 9 45 38 63 40 5 1 -14 -17 -42 -39z
m3584 0 c8 0 15 -5 15 -10 0 -7 -6 -7 -19 -1 -10 6 -21 7 -25 4 -3 -3 -6 5 -6
18 1 21 2 22 11 7 5 -10 17 -18 24 -18z m-3795 12 c0 -5 -7 -9 -15 -9 -8 0
-12 4 -9 9 3 4 9 8 15 8 5 0 9 -4 9 -8z m127 -29 c-3 -10 -5 -4 -5 12 0 17 2
24 5 18 2 -7 2 -21 0 -30z m4743 21 c0 -8 -4 -12 -10 -9 -5 3 -10 10 -10 16 0
5 5 9 10 9 6 0 10 -7 10 -16z m-1010 -4 c0 -5 -5 -10 -11 -10 -5 0 -7 5 -4 10
3 6 8 10 11 10 2 0 4 -4 4 -10z m470 0 c26 -2 19 -5 -27 -11 -34 -4 -76 -15
-94 -24 -27 -15 -31 -15 -26 -2 3 9 0 18 -8 21 -8 3 -16 0 -18 -7 -3 -9 -11
-8 -31 3 -51 27 1 32 204 20z m-5430 -16 c0 -23 -18 -52 -40 -64 -16 -9 -20
-8 -20 6 0 9 9 18 21 21 16 4 20 12 16 29 -3 16 0 24 9 24 8 0 14 -7 14 -16z
m690 -18 c-30 -6 -66 -18 -79 -25 -19 -11 -23 -11 -19 1 3 7 -2 18 -11 25 -13
10 1 12 74 12 l90 -1 -55 -12z m400 4 c0 -5 -4 -10 -10 -10 -5 0 -10 5 -10 10
0 6 5 10 10 10 6 0 10 -4 10 -10z m3847 -32 c-3 -7 -5 -2 -5 12 0 14 2 19 5
13 2 -7 2 -19 0 -25z m-4690 -20 c-3 -7 -5 -2 -5 12 0 14 2 19 5 13 2 -7 2
-19 0 -25z m333 -2 c0 -2 -8 -10 -17 -17 -16 -13 -17 -12 -4 4 13 16 21 21 21
13z m-550 -36 c0 -5 -4 -10 -10 -10 -5 0 -10 5 -10 10 0 6 5 10 10 10 6 0 10
-4 10 -10z m3900 -5 c10 -12 10 -15 -4 -15 -9 0 -16 7 -16 15 0 8 2 15 4 15 2
0 9 -7 16 -15z m-24 -33 c-9 -8 -26 10 -26 26 1 15 2 15 15 -2 8 -11 13 -21
11 -24z m-4705 -5 c-10 -9 -11 -8 -5 6 3 10 9 15 12 12 3 -3 0 -11 -7 -18z
m44 13 c3 -5 -1 -10 -9 -10 -9 0 -16 5 -16 10 0 6 4 10 9 10 6 0 13 -4 16 -10z
m2170 -89 c47 -21 116 -75 130 -101 6 -12 7 -70 3 -157 -12 -223 6 -524 42
-698 10 -49 23 -119 30 -155 6 -36 18 -87 25 -115 26 -96 28 -115 11 -115 -9
0 -16 -6 -16 -14 0 -22 18 -28 28 -10 16 28 46 -194 38 -283 -12 -142 -39
-193 -92 -173 -69 26 -122 105 -191 283 -28 72 -32 92 -22 104 10 12 10 16 -2
24 -21 13 -29 12 -129 -21 -107 -35 -130 -37 -161 -11 -77 62 51 240 185 256
121 15 203 -63 260 -248 19 -62 38 -125 41 -141 4 -20 9 -26 16 -19 23 23 -38
235 -93 324 -55 91 -154 135 -252 112 -46 -10 -47 -10 -127 42 -92 61 -221
129 -263 139 -23 6 -27 11 -22 29 3 12 9 47 12 77 3 30 10 65 16 76 7 15 6 28
-2 45 -15 29 -14 28 43 -39 57 -67 141 -118 230 -138 75 -18 148 -12 167 11 7
8 18 15 25 15 7 0 29 21 48 48 38 50 66 139 68 215 2 35 6 47 21 50 28 8 21
27 -9 27 -31 0 -76 28 -81 49 -5 24 36 59 63 53 15 -2 25 0 25 7 0 11 -13 15
-39 11 -11 -1 -12 2 -4 12 15 19 17 142 2 186 -16 50 -46 88 -79 102 -37 15
-93 3 -121 -26 l-22 -23 -32 27 c-18 15 -40 32 -51 38 -16 9 -12 13 31 29 62
23 67 27 59 49 -5 13 -13 16 -31 11 -23 -5 -24 -5 -7 20 9 14 28 28 43 31 14
3 31 7 36 10 20 7 111 -8 150 -25z m4854 -4 c79 -53 136 -165 120 -237 -5 -23
-11 -63 -14 -88 -2 -26 -11 -101 -19 -167 -21 -159 -21 -350 -1 -389 8 -15 15
-33 15 -38 0 -11 99 -238 110 -253 4 -5 22 -54 39 -108 22 -70 31 -117 31
-166 0 -61 -4 -74 -32 -117 -46 -66 -118 -105 -207 -112 -62 -4 -72 -2 -136
31 -59 30 -143 89 -179 126 -65 66 -72 75 -162 209 -22 31 -43 52 -54 52 -32
0 -32 -18 0 -51 16 -18 30 -36 30 -40 0 -5 15 -22 34 -40 19 -17 37 -40 41
-52 17 -55 275 -257 329 -257 45 0 49 -13 22 -83 -13 -36 -32 -77 -41 -91 -16
-23 -16 -26 -1 -26 18 0 41 41 71 130 l22 65 58 7 c32 4 76 19 99 32 44 27 92
68 98 86 6 18 146 -9 214 -42 78 -38 127 -36 132 4 2 19 -5 36 -22 53 l-25 25
27 21 c23 18 35 20 82 14 30 -4 58 -9 62 -11 8 -5 42 -104 37 -108 -2 -1 -29
-7 -59 -13 -30 -6 -85 -26 -122 -43 -60 -28 -69 -36 -79 -71 -15 -49 -28 -59
-119 -94 -100 -38 -235 -106 -345 -173 -49 -31 -121 -70 -160 -88 -38 -18
-131 -67 -205 -108 -74 -42 -175 -92 -225 -111 -105 -41 -202 -92 -375 -197
-200 -121 -269 -157 -358 -188 l-84 -30 -554 0 -554 0 0 389 c0 296 3 392 12
397 23 14 343 133 347 129 2 -3 -5 -31 -15 -62 -27 -82 -27 -232 0 -262 24
-27 76 -36 120 -21 56 18 55 32 -3 24 -77 -10 -98 -1 -112 49 -20 76 18 241
76 326 17 25 46 67 63 93 35 51 152 157 220 202 36 23 50 26 83 21 49 -8 90
-40 83 -63 -5 -13 -4 -14 4 -4 13 20 45 -27 71 -107 26 -76 30 -236 7 -321
-17 -66 -4 -92 19 -37 8 20 15 42 15 48 0 7 3 10 6 7 3 -4 1 -22 -4 -42 -6
-20 -6 -36 -2 -36 14 0 29 68 36 165 7 95 50 262 103 400 42 107 43 109 76
101 63 -16 115 -111 137 -252 15 -95 6 -115 -69 -153 -129 -65 -244 -203 -312
-376 -55 -139 -65 -225 -32 -279 12 -19 31 -38 42 -41 30 -10 104 3 178 31 71
27 91 40 91 60 0 10 -8 9 -32 -6 -45 -26 -155 -60 -197 -60 -55 0 -71 22 -71
99 0 96 58 247 140 366 47 67 153 160 224 195 60 30 79 34 172 38 129 6 176
-9 233 -74 44 -50 61 -104 61 -192 0 -66 -28 -168 -60 -221 -22 -35 -21 -47 5
-37 22 8 63 101 76 172 13 69 5 180 -16 232 -42 100 -121 151 -248 160 -96 6
-79 20 27 21 54 1 79 -4 120 -25 98 -49 139 -111 158 -241 10 -71 9 -87 -11
-167 -12 -48 -28 -98 -37 -111 -10 -15 -11 -25 -5 -29 26 -16 81 153 81 247 0
159 -65 275 -182 327 -68 30 -124 35 -197 16 -34 -9 -64 -16 -66 -16 -2 0 -6
26 -10 58 -4 31 -18 91 -31 133 -27 84 -79 148 -140 174 l-35 14 27 48 c15 27
39 60 52 75 28 30 116 86 186 116 l44 20 21 -24 c14 -16 32 -24 51 -24 45 0
77 -21 146 -92 82 -86 112 -126 178 -243 62 -110 107 -236 131 -365 16 -89 22
-275 9 -324 -5 -22 -4 -27 7 -22 8 3 21 9 31 12 23 8 28 34 28 161 0 127 -26
284 -67 396 -31 87 -106 240 -140 285 -18 24 -20 32 -9 32 8 0 16 -6 19 -12 3
-10 10 -8 23 5 18 16 18 17 -2 17 -17 0 -24 13 -42 79 -12 43 -25 99 -28 125
-4 29 -12 46 -20 46 -17 0 -18 16 -3 26 7 4 -10 27 -45 60 -31 29 -56 60 -56
69 0 25 55 46 102 39 45 -7 117 -43 156 -78 54 -47 142 -209 142 -260 0 -28
24 -51 44 -43 8 3 34 -9 58 -27 24 -19 60 -39 80 -46 21 -6 40 -16 44 -21 9
-14 76 -40 91 -35 7 3 13 17 13 31 0 22 -4 25 -35 25 -32 0 -51 6 -95 32 -8 5
-29 15 -46 23 -17 7 -37 21 -44 30 -7 9 -26 23 -41 30 -19 10 -41 43 -75 112
-35 71 -63 114 -105 156 -51 50 -139 104 -152 91 -2 -3 -7 13 -10 34 -2 22
-12 56 -22 76 -31 66 -4 169 60 225 l38 33 23 -44 c31 -61 48 -73 112 -75 49
-1 56 -4 72 -31 10 -16 28 -36 39 -44 14 -10 19 -21 15 -32 -14 -36 7 -107 43
-147 57 -63 76 -46 23 21 -26 33 -30 46 -30 103 0 57 4 70 27 98 34 40 116 79
166 79 20 0 37 5 37 10 0 6 -4 10 -9 10 -5 0 -6 37 -4 83 9 133 -32 202 -126
214 -25 4 -50 0 -71 -11 -27 -13 -31 -13 -26 -1 3 8 2 14 -2 12 -4 -1 -20 10
-35 24 -27 24 -27 27 -12 43 9 9 28 16 41 16 31 0 50 39 28 56 -8 6 -14 14
-14 17 0 10 45 15 112 13 53 -3 77 -9 107 -29z m-499 -27 c0 -5 -5 -10 -11
-10 -5 0 -7 5 -4 10 3 6 8 10 11 10 2 0 4 -4 4 -10z m224 -116 c30 -31 32 -46
10 -65 -38 -32 -80 -160 -72 -225 4 -31 1 -37 -20 -45 -36 -14 -70 0 -100 39
-24 31 -27 44 -27 106 1 54 6 81 23 113 51 98 131 131 186 77z m-4811 -48 c14
-20 13 -28 -4 -77 -10 -30 -18 -82 -19 -117 0 -61 -1 -63 -35 -79 -45 -22 -81
-10 -112 36 -56 82 -3 256 82 273 30 6 72 -11 88 -36z m200 6 c45 -47 61 -148
34 -217 -50 -126 -149 -164 -207 -78 -22 32 -25 47 -25 117 0 64 5 90 22 122
45 85 124 110 176 56z m4819 -12 c44 -47 58 -120 37 -193 -10 -38 -14 -41 -89
-68 -19 -7 -57 -35 -83 -63 l-48 -51 -24 27 c-71 82 -44 270 50 345 62 50 112
51 157 3z m-2085 -27 c-3 -10 -5 -4 -5 12 0 17 2 24 5 18 2 -7 2 -21 0 -30z
m1090 -75 c-3 -8 -6 -5 -6 6 -1 11 2 17 5 13 3 -3 4 -12 1 -19z m-4690 -20
c-3 -8 -6 -5 -6 6 -1 11 2 17 5 13 3 -3 4 -12 1 -19z m7345 -110 c-7 -7 -12
-8 -12 -2 0 14 12 26 19 19 2 -3 -1 -11 -7 -17z m-6775 -68 c15 0 41 7 57 15
16 9 30 14 31 13 23 -42 42 -62 70 -75 30 -14 38 -14 79 -1 39 13 46 13 51 0
3 -10 0 -12 -10 -9 -8 4 -17 2 -19 -2 -11 -17 -128 -34 -199 -28 -70 6 -167
37 -195 62 -11 10 -7 16 19 33 30 19 36 19 60 6 16 -8 41 -14 56 -14z m4118
-147 c-4 -18 -12 -23 -38 -23 l-32 0 33 20 c29 18 33 25 31 58 -1 20 0 55 2
77 2 25 4 12 6 -35 2 -41 1 -85 -2 -97z m2655 142 c0 -8 -7 -15 -15 -15 -16 0
-20 12 -8 23 11 12 23 8 23 -8z m-7344 -272 c-3 -7 -16 -12 -28 -12 l-23 2 23
4 c21 4 22 8 24 146 l2 142 3 -134 c2 -74 1 -141 -1 -148z m2654 259 c0 -13
-12 -22 -22 -16 -10 6 -1 24 13 24 5 0 9 -4 9 -8z m-2327 -72 c45 -28 48 -29
88 -15 23 8 55 15 71 15 26 0 29 -3 22 -22 -12 -42 -52 -113 -72 -131 -19 -17
-20 -17 -40 8 -11 14 -22 31 -24 37 -3 7 -12 9 -22 5 -16 -6 -17 -15 -11 -63
5 -39 1 -76 -12 -129 -10 -41 -21 -75 -24 -75 -3 0 -14 6 -24 14 -18 13 -18
19 -6 107 7 52 19 112 27 134 11 34 11 41 -1 48 -36 20 -75 61 -75 78 0 29 48
24 103 -11z m5813 14 c128 -27 234 -83 234 -125 0 -23 8 -24 29 -5 60 53 175
84 188 50 7 -18 -36 -66 -87 -96 -19 -12 -36 -23 -38 -24 -2 -1 6 -20 17 -41
38 -75 53 -160 49 -273 -4 -89 -9 -118 -37 -187 -40 -102 -108 -196 -166 -231
-47 -28 -58 -52 -26 -52 22 0 64 -47 55 -61 -14 -24 -101 1 -159 45 -19 15
-37 21 -44 17 -11 -7 -99 3 -107 12 -2 2 1 21 7 43 22 77 -13 223 -98 404
l-34 75 43 37 c48 43 43 52 -8 13 -18 -14 -36 -25 -41 -25 -5 0 -16 21 -26 46
l-17 46 29 41 c16 23 41 53 55 66 14 14 26 28 26 33 0 18 -39 -14 -76 -62
l-39 -51 -6 28 c-4 15 -7 85 -8 155 -1 124 0 127 22 131 54 10 191 6 263 -9z
m-4926 -14 c84 -11 282 -57 373 -86 35 -12 47 -21 47 -35 0 -11 5 -17 10 -14
6 3 10 15 10 26 0 26 91 119 117 119 44 0 38 -52 -13 -129 l-26 -40 21 -43
c29 -61 51 -162 51 -238 0 -114 -48 -287 -109 -393 -37 -64 -106 -141 -120
-133 -5 4 -12 3 -15 -2 -3 -5 22 -21 55 -36 64 -29 71 -39 38 -57 -29 -15 -95
-4 -148 27 -31 17 -48 21 -55 14 -11 -11 -130 -13 -191 -2 l-39 7 -12 108 c-7
59 -17 122 -23 139 -21 61 -16 74 44 103 30 15 55 29 55 32 0 6 -38 -6 -77
-24 -37 -17 -53 -11 -53 22 0 34 45 82 104 112 28 14 45 28 38 30 -16 6 -98
-42 -125 -73 -11 -13 -23 -24 -27 -24 -3 0 -11 36 -18 80 -12 74 -11 82 7 118
11 21 27 44 35 51 9 8 16 18 16 24 0 16 -59 -43 -66 -66 -3 -10 -10 -15 -14
-11 -8 9 -33 194 -45 337 l-7 78 39 -5 c21 -3 76 -10 123 -16z m-1660 -40 c0
-5 -4 -10 -10 -10 -5 0 -10 5 -10 10 0 6 5 10 10 10 6 0 10 -4 10 -10z m5370
-8 c42 -34 -10 -84 -125 -122 -73 -24 -99 -39 -78 -47 15 -6 5 -34 -19 -51
-10 -7 -18 -20 -18 -28 0 -8 -5 -14 -11 -14 -5 0 -7 -5 -3 -11 5 -8 -1 -10
-18 -6 -17 5 -29 1 -42 -15 -18 -20 -18 -21 9 -16 32 7 97 -9 107 -25 4 -7
-22 -26 -65 -49 -40 -21 -91 -60 -115 -85 -69 -74 -162 -283 -202 -453 -20
-86 -22 -88 -35 -40 -31 115 -99 191 -190 210 -27 5 -30 9 -27 40 5 48 57 179
87 220 89 121 194 187 313 197 40 3 72 10 72 14 0 8 -22 13 -42 10 -4 0 -10 9
-14 21 -6 19 -8 20 -18 6 -6 -8 -20 -18 -32 -22 -20 -6 -20 -4 -14 39 10 67
58 117 129 135 24 6 45 9 47 7 2 -1 -3 -26 -10 -55 -16 -60 -3 -70 20 -15 14
32 33 58 97 125 10 10 31 21 47 25 17 3 30 9 30 14 0 17 97 10 120 -9z m96
-47 c-10 -28 5 -45 39 -45 19 0 37 -4 40 -10 3 -5 -1 -10 -10 -10 -9 0 -30 -8
-46 -17 -32 -19 -37 -48 -14 -79 29 -38 19 -51 -55 -69 -93 -23 -171 -17 -205
15 -47 45 -29 85 55 120 63 27 105 54 137 87 25 26 69 32 59 8z m2684 -19 c0
-3 -4 -8 -10 -11 -5 -3 -10 -1 -10 4 0 6 5 11 10 11 6 0 10 -2 10 -4z m-4690
-20 c0 -3 -4 -8 -10 -11 -5 -3 -10 -1 -10 4 0 6 5 11 10 11 6 0 10 -2 10 -4z
m-2959 -127 c68 -48 84 -78 32 -58 -13 5 -29 9 -34 9 -11 0 -59 -43 -127 -114
-75 -78 -129 -91 -152 -36 -18 44 -2 98 44 148 74 81 168 101 237 51z m4219
-133 c0 -2 -7 -7 -16 -10 -8 -3 -12 -2 -9 4 6 10 25 14 25 6z m840 -7 c0 -5
-25 -21 -55 -35 -64 -29 -180 -43 -213 -25 -33 18 -26 32 9 19 44 -15 142 -3
203 26 28 13 52 25 54 25 1 1 2 -4 2 -10z m1628 -11 c6 -6 12 -18 12 -27 0
-13 -11 -16 -61 -16 -46 0 -64 -4 -73 -17 -16 -21 -36 -24 -36 -4 0 24 40 66
73 75 34 9 63 5 85 -11z m-2040 -44 c-121 -63 -160 -101 -218 -214 -27 -52
-50 -91 -50 -87 0 5 23 53 51 108 58 112 102 157 201 207 99 50 113 37 16 -14z
m-2657 26 c10 -6 19 -18 19 -28 0 -14 -10 -17 -59 -17 -42 0 -64 -5 -78 -17
-43 -39 -46 0 -4 43 31 31 83 39 122 19z m3089 -34 c5 -14 11 -43 14 -65 3
-22 12 -53 21 -70 14 -28 14 -31 0 -31 -8 0 -15 4 -15 9 0 5 -28 38 -62 74
l-63 65 40 20 c54 26 54 26 65 -2z m-92 -73 c199 -196 318 -470 335 -768 6
-97 -1 -68 -22 95 -31 240 -169 516 -340 678 -31 28 -50 52 -44 52 7 0 39 -26
71 -57z m2089 38 c6 -10 9 -27 7 -38 -3 -11 2 -25 10 -32 9 -8 16 -26 16 -42
0 -74 -94 -81 -119 -8 -25 74 -3 139 47 139 16 0 32 -8 39 -19z m-4690 -20 c6
-10 9 -27 7 -38 -3 -11 2 -25 10 -32 9 -8 16 -26 16 -42 0 -56 -84 -78 -110
-29 -21 38 -24 108 -6 135 20 31 66 34 83 6z m4498 -29 c-3 -3 -11 0 -18 7 -9
10 -8 11 6 5 10 -3 15 -9 12 -12z m-76 -2 c38 -11 86 -51 106 -90 16 -31 35
-151 35 -220 0 -65 -24 -113 -87 -172 -81 -75 -167 -108 -228 -88 -102 34
-165 126 -173 255 -5 82 5 110 73 215 35 55 55 76 88 90 46 21 131 26 186 10z
m-4690 -20 c38 -11 86 -51 106 -90 15 -29 35 -158 35 -226 0 -58 -27 -109 -87
-166 -81 -75 -167 -108 -228 -88 -101 33 -164 125 -173 251 -4 60 -1 75 26
134 68 144 128 195 232 195 30 0 71 -4 89 -10z m2377 -172 c38 -30 50 -45 78
-98 38 -75 65 -220 46 -250 -11 -18 -10 -21 -16 59 -5 82 -35 182 -69 231 -15
22 -46 48 -68 59 -30 15 -36 21 -21 21 12 0 34 -10 50 -22z m2684 -60 c0 -6
-7 -19 -16 -29 -15 -17 -15 -20 5 -45 28 -36 27 -49 -3 -19 -26 26 -56 96 -33
77 17 -15 42 2 34 23 -4 9 -3 14 3 10 6 -3 10 -11 10 -17z m-4690 -20 c0 -6
-7 -19 -16 -29 -15 -17 -15 -20 5 -45 28 -35 27 -49 -1 -20 -25 25 -56 95 -35
77 17 -14 41 3 34 24 -4 9 -3 14 3 10 6 -3 10 -11 10 -17z m1636 -29 c67 -41
125 -171 123 -272 -1 -30 -4 -39 -6 -22 -20 163 -114 305 -203 305 -11 0 -20
5 -20 11 0 16 67 2 106 -22z m2931 -45 c-3 -3 -12 -4 -19 -1 -8 3 -5 6 6 6 11
1 17 -2 13 -5z m-4690 -20 c-3 -3 -12 -4 -19 -1 -8 3 -5 6 6 6 11 1 17 -2 13
-5z m-595 -74 c24 -64 23 -67 -29 -74 -26 -3 -82 -23 -125 -43 -68 -32 -79
-40 -89 -72 -15 -45 -34 -67 -65 -75 -14 -4 -67 -25 -118 -47 l-94 -40 -34 23
c-18 13 -52 31 -75 42 l-41 18 23 44 c13 24 26 72 30 107 l7 62 137 -1 c107
-1 145 -6 170 -18 53 -28 122 -32 150 -9 31 25 23 46 -24 75 l-36 21 25 26
c26 27 27 27 98 16 l73 -11 17 -44z m4798 -130 c0 -5 -4 -10 -10 -10 -5 0 -10
5 -10 10 0 6 5 10 10 10 6 0 10 -4 10 -10z m-4690 -20 c0 -5 -4 -10 -10 -10
-5 0 -10 5 -10 10 0 6 5 10 10 10 6 0 10 -4 10 -10z m4890 -5 c0 -8 -9 -15
-20 -15 -20 0 -26 11 -13 23 12 13 33 7 33 -8z m-4690 -20 c0 -8 -9 -15 -20
-15 -20 0 -26 11 -13 23 12 13 33 7 33 -8z m4460 -10 c0 -18 -17 -28 -36 -21
-12 4 -12 9 -2 25 12 20 38 18 38 -4z m400 5 c0 -5 -4 -10 -10 -10 -5 0 -10 5
-10 10 0 6 5 10 10 10 6 0 10 -4 10 -10z m-5090 -19 c-1 -17 -20 -33 -34 -28
-13 5 -15 11 -6 26 9 18 40 20 40 2z m400 -1 c0 -5 -4 -10 -10 -10 -5 0 -10 5
-10 10 0 6 5 10 10 10 6 0 10 -4 10 -10z m4540 -35 c0 -29 -34 -36 -44 -9 -8
21 1 34 25 34 14 0 19 -7 19 -25z m-4690 -20 c0 -29 -34 -36 -44 -9 -8 21 1
34 25 34 14 0 19 -7 19 -25z m4076 -21 c-12 -32 -55 -189 -72 -264 -10 -41
-22 -79 -29 -85 -34 -29 -47 -114 -25 -156 8 -13 7 -52 0 -127 -14 -125 -6
-116 -154 -191 l-101 -51 -675 2 -675 3 240 119 c132 65 256 129 275 141 19
12 69 37 110 56 41 18 145 74 230 123 164 95 214 121 350 183 47 21 118 58
159 81 81 47 351 182 365 182 4 0 5 -7 2 -16z m-4697 -40 c-6 -16 -28 -96 -49
-177 -26 -102 -43 -152 -56 -162 -16 -11 -19 -25 -17 -82 5 -133 5 -179 -2
-240 -6 -57 -9 -64 -41 -84 -19 -12 -37 -19 -40 -16 -3 2 3 74 12 158 22 207
23 440 2 497 l-16 43 52 26 c55 28 159 71 164 68 1 -1 -2 -15 -9 -31z m3838
-171 c-3 -10 -5 -4 -5 12 0 17 2 24 5 18 2 -7 2 -21 0 -30z m1048 -313 c13 -6
15 -9 5 -9 -8 0 -22 4 -30 9 -18 12 -2 12 25 0z m-4690 -20 c13 -6 15 -9 5 -9
-8 0 -22 4 -30 9 -18 12 -2 12 25 0z m4680 -31 c-16 -7 -13 -8 13 -4 24 3 32
1 32 -10 0 -8 17 -23 38 -33 87 -44 139 -82 112 -82 -28 0 -139 34 -197 60
-93 42 -80 48 30 13 27 -8 50 -13 53 -10 2 2 -15 10 -38 16 -24 7 -52 19 -63
27 -17 13 -18 16 -5 24 8 5 22 9 30 9 10 0 9 -3 -5 -10z m-4709 -20 c3 -6 19
-9 35 -7 16 3 27 0 26 -6 -1 -6 15 -19 36 -29 20 -10 37 -23 37 -28 0 -5 6 -9
14 -9 17 0 77 -49 61 -50 -23 0 -150 41 -203 66 -53 26 -55 28 -29 32 28 3 28
4 11 23 -9 10 -12 19 -6 19 6 0 14 -5 18 -11z m4823 -5 c13 -12 -8 -10 -29 2
l-25 15 25 -7 c14 -3 27 -8 29 -10z m-4672 -30 c-5 -5 -57 13 -57 20 0 3 14 0
31 -6 16 -6 28 -12 26 -14z"/>
<path d="M4072 6821 c-10 -6 -7 -10 11 -15 14 -3 32 -9 41 -12 11 -4 16 -1 16
10 0 9 -6 16 -14 16 -8 0 -20 2 -28 5 -7 3 -19 1 -26 -4z"/>
<path d="M3975 6619 c-10 -15 1 -23 20 -15 9 3 13 10 10 16 -8 13 -22 13 -30
-1z"/>
<path d="M4397 6854 c-14 -14 -7 -35 11 -32 9 2 17 10 17 17 0 16 -18 25 -28
15z"/>
<path d="M2550 6849 c0 -5 5 -7 10 -4 6 3 10 8 10 11 0 2 -4 4 -10 4 -5 0 -10
-5 -10 -11z"/>
<path d="M2295 6820 c-3 -5 -1 -10 4 -10 6 0 11 5 11 10 0 6 -2 10 -4 10 -3 0
-8 -4 -11 -10z"/>
<path d="M2680 6810 c0 -5 7 -10 15 -10 8 0 15 5 15 10 0 6 -7 10 -15 10 -8 0
-15 -4 -15 -10z"/>
<path d="M2616 6745 c-14 -10 -45 -15 -102 -15 -46 0 -86 -4 -89 -10 -9 -14
158 -13 190 2 14 6 25 17 25 25 0 16 0 16 -24 -2z"/>
<path d="M2718 6736 c-15 -8 -48 -30 -74 -50 l-47 -36 -134 0 c-147 0 -190
-12 -232 -66 -36 -46 -23 -49 23 -6 55 51 74 56 193 50 119 -7 164 3 217 47
23 19 62 43 86 54 37 16 41 20 20 20 -14 1 -37 -5 -52 -13z"/>
<path d="M2207 6713 c-4 -3 -7 -11 -7 -17 0 -6 5 -5 12 2 6 6 9 14 7 17 -3 3
-9 2 -12 -2z"/>
<path d="M2040 6690 c0 -5 5 -10 10 -10 6 0 10 5 10 10 0 6 -4 10 -10 10 -5 0
-10 -4 -10 -10z"/>
<path d="M1940 6510 c0 -5 5 -10 10 -10 6 0 10 5 10 10 0 6 -4 10 -10 10 -5 0
-10 -4 -10 -10z"/>
<path d="M5320 6560 c-10 -6 -11 -13 -5 -19 6 -6 16 -7 25 -1 10 6 11 13 5 19
-6 6 -16 7 -25 1z"/>
<path d="M5487 6453 c-13 -12 -7 -33 8 -33 8 0 15 9 15 20 0 20 -11 26 -23 13z"/>
<path d="M4385 6370 c-7 -12 2 -30 16 -30 5 0 9 9 9 20 0 21 -15 27 -25 10z"/>
<path d="M4557 6194 c-9 -10 4 -34 19 -34 16 0 16 2 8 24 -6 17 -16 20 -27 10z"/>
<path d="M4401 6176 c-12 -14 -5 -26 16 -26 15 0 18 26 4 34 -5 3 -14 0 -20
-8z"/>
<path d="M4390 5961 c0 -11 4 -22 9 -25 12 -8 34 21 26 34 -11 17 -35 11 -35
-9z"/>
<path d="M4386 5803 c-8 -19 8 -38 23 -29 16 10 13 46 -3 46 -8 0 -17 -8 -20
-17z"/>
<path d="M4391 5694 c0 -11 3 -14 6 -6 3 7 2 16 -1 19 -3 4 -6 -2 -5 -13z"/>
<path d="M4390 5640 c0 -11 6 -20 13 -20 19 0 27 10 20 26 -8 21 -33 17 -33
-6z"/>
<path d="M7793 5498 c-75 -80 -117 -184 -138 -348 -20 -161 -28 -320 -16 -320
6 0 11 7 11 15 0 8 12 23 27 32 95 61 168 232 179 417 5 82 3 110 -11 146 -10
25 -17 55 -17 68 0 12 -1 22 -2 22 -1 0 -16 -15 -33 -32z m25 -30 c14 -14 16
-38 4 -38 -18 0 -45 28 -38 38 9 15 19 15 34 0z m-4 -59 c24 -19 26 -27 26
-90 0 -38 -2 -69 -4 -69 -2 0 -20 16 -40 35 -21 19 -43 35 -49 35 -34 1 -38
17 -16 63 26 52 43 58 83 26z m-54 -122 c19 -12 42 -36 52 -54 18 -30 18 -35
3 -95 -9 -35 -20 -67 -25 -72 -5 -4 -17 9 -29 32 -11 22 -34 51 -52 66 -29 25
-31 29 -24 73 12 83 20 88 75 50z m-37 -166 c48 -53 55 -90 26 -141 -25 -44
-35 -49 -44 -21 -3 10 -14 26 -25 36 -13 12 -20 31 -20 54 0 51 11 111 20 111
4 0 23 -17 43 -39z m-33 -171 c10 -24 10 -33 0 -45 -22 -26 -40 -18 -40 19 0
69 17 81 40 26z"/>
<path d="M6998 5703 c7 -3 16 -2 19 1 4 3 -2 6 -13 5 -11 0 -14 -3 -6 -6z"/>
<path d="M6813 5104 c-8 -21 13 -42 28 -27 13 13 5 43 -11 43 -6 0 -13 -7 -17
-16z"/>
<path d="M7387 4883 c-12 -11 -7 -33 7 -33 12 0 26 20 26 36 0 7 -26 5 -33 -3z"/>
<path d="M2613 5267 c1 -16 -3 -22 -15 -21 -10 1 -18 -4 -18 -12 0 -15 18 -18
44 -8 20 8 21 50 1 58 -10 4 -14 -1 -12 -17z"/>
<path d="M7123 5423 c-3 -10 -8 -21 -9 -24 -2 -4 2 -12 10 -18 17 -15 46 10
46 40 0 24 -38 26 -47 2z"/>
<path d="M7232 5378 c-14 -14 -16 -54 -3 -62 11 -7 39 16 41 34 6 40 -12 54
-38 28z"/>
<path d="M8608 5444 c-25 -25 16 -135 43 -118 6 3 3 14 -7 25 -10 11 -20 38
-23 60 -3 23 -9 37 -13 33z"/>
<path d="M8232 5295 c-24 -7 -52 -23 -63 -36 -10 -12 -19 -18 -19 -14 0 5 -17
-25 -37 -66 -33 -65 -38 -83 -37 -144 0 -77 13 -107 73 -160 54 -48 81 -59
151 -58 60 0 68 3 100 34 100 97 126 205 74 304 -15 28 -32 57 -39 65 -7 8
-10 21 -7 29 2 8 0 11 -6 7 -6 -3 -24 7 -40 24 -35 34 -76 38 -150 15z m156
-52 c60 -69 92 -133 92 -187 0 -58 -38 -140 -86 -187 -29 -28 -38 -31 -92 -30
-73 1 -99 10 -137 50 -25 27 -30 41 -33 95 -2 35 1 96 8 136 11 63 14 71 31
67 20 -5 26 7 9 18 -16 10 10 53 41 65 15 7 32 9 38 6 5 -4 13 -1 17 5 14 23
77 2 112 -38z"/>
<path d="M8262 5229 c-9 -22 -16 -137 -13 -191 1 -20 36 -25 47 -7 4 7 24 9
55 6 30 -4 51 -2 55 5 11 17 -18 29 -64 26 -35 -3 -43 0 -49 17 -4 11 -7 22
-6 25 12 82 12 108 -1 125 -14 19 -15 19 -24 -6z"/>
<path d="M8395 5180 c-3 -5 -1 -10 4 -10 6 0 11 5 11 10 0 6 -2 10 -4 10 -3 0
-8 -4 -11 -10z"/>
<path d="M8365 4910 c3 -5 8 -10 11 -10 2 0 4 5 4 10 0 6 -5 10 -11 10 -5 0
-7 -4 -4 -10z"/>
<path d="M8061 4954 c0 -11 3 -14 6 -6 3 7 2 16 -1 19 -3 4 -6 -2 -5 -13z"/>
<path d="M8190 4810 c-13 -8 -12 -10 3 -10 9 0 17 5 17 10 0 12 -1 12 -20 0z"/>
<path d="M215 4200 c17 -4 41 -8 55 -8 l25 0 -25 8 c-14 4 -38 8 -55 8 l-30 0
30 -8z"/>
<path d="M2243 3903 c9 -2 25 -2 35 0 9 3 1 5 -18 5 -19 0 -27 -2 -17 -5z"/>
<path d="M1150 3574 c0 -27 16 -40 24 -19 3 8 12 12 21 9 10 -4 15 0 15 14 0
16 -6 20 -30 20 -24 -1 -30 -5 -30 -24z"/>
<path d="M1250 3586 c0 -21 21 -31 31 -15 14 22 11 29 -11 29 -11 0 -20 -6
-20 -14z"/>
<path d="M1270 3535 c0 -8 5 -15 10 -15 6 0 10 7 10 15 0 8 -4 15 -10 15 -5 0
-10 -7 -10 -15z"/>
<path d="M940 3513 c0 -5 7 -17 15 -27 15 -20 20 -10 9 18 -6 16 -24 22 -24 9z"/>
<path d="M1086 3465 c-3 -9 0 -15 8 -15 7 0 13 7 13 15 0 8 -4 15 -8 15 -4 0
-9 -7 -13 -15z"/>
<path d="M1150 3470 c0 -5 5 -10 10 -10 6 0 10 5 10 10 0 6 -4 10 -10 10 -5 0
-10 -4 -10 -10z"/>
<path d="M7880 3830 c8 -5 22 -9 30 -9 10 0 8 3 -5 9 -27 12 -43 12 -25 0z"/>
<path d="M6013 3569 c-26 -10 -30 -31 -9 -48 12 -10 17 -8 26 9 17 32 9 49
-17 39z"/>
<path d="M6036 3524 c-10 -26 -7 -62 7 -67 25 -8 47 5 47 30 0 19 -4 23 -19
18 -11 -3 -22 -1 -26 5 -3 5 1 10 9 10 9 0 16 5 16 10 0 16 -27 11 -34 -6z"/>
<path d="M6100 3493 c0 -7 7 -13 15 -13 8 0 15 6 15 13 0 8 -7 14 -15 14 -8 0
-15 -6 -15 -14z"/>
<path d="M5588 3369 c-10 -11 -13 -21 -8 -24 6 -4 10 -1 10 4 0 6 7 11 15 11
8 0 15 4 15 9 0 18 -15 18 -32 0z"/>
<path d="M5640 3365 c0 -8 5 -15 11 -15 5 0 7 -5 3 -12 -4 -7 -3 -8 4 -4 17
10 15 46 -3 46 -8 0 -15 -7 -15 -15z"/>
<path d="M5616 3338 c-4 -9 -5 -21 -2 -27 4 -5 -2 -18 -13 -28 -19 -17 -19
-19 -3 -29 9 -5 26 -10 37 -9 16 0 21 8 23 39 3 34 1 38 -12 27 -12 -10 -15
-8 -18 16 -3 22 -6 25 -12 11z"/>
<path d="M5851 3301 c-8 -6 -9 -11 -3 -15 6 -3 14 -1 17 5 9 14 2 20 -14 10z"/>
<path d="M5822 3253 c5 -26 38 -29 38 -4 0 15 -6 21 -21 21 -14 0 -19 -5 -17
-17z"/>
<path d="M5455 2930 c-3 -6 1 -7 9 -4 18 7 21 14 7 14 -6 0 -13 -4 -16 -10z"/>
<path d="M5464 2886 c-8 -22 3 -33 18 -18 9 9 9 15 0 24 -9 9 -13 7 -18 -6z"/>
<path d="M5245 2810 c-7 -12 12 -40 27 -40 13 0 6 43 -9 47 -6 2 -14 -1 -18
-7z"/>
<path d="M776 2873 c-12 -12 -6 -33 9 -33 8 0 15 6 15 14 0 17 -14 28 -24 19z"/>
<path d="M600 2649 c0 -7 -9 -9 -21 -6 -13 3 -19 1 -16 -6 2 -7 12 -13 23 -15
14 -2 20 3 21 18 1 11 0 20 -3 20 -2 0 -4 -5 -4 -11z"/>
<path d="M2222 2708 c-20 -20 -14 -28 40 -53 38 -18 55 -21 65 -13 22 18 15
32 -29 56 -49 25 -59 27 -76 10z"/>
<path d="M2195 2660 c-3 -5 -1 -10 4 -10 6 0 11 5 11 10 0 6 -2 10 -4 10 -3 0
-8 -4 -11 -10z"/>
<path d="M2110 2626 c0 -2 7 -6 15 -10 8 -3 15 -1 15 4 0 6 -7 10 -15 10 -8 0
-15 -2 -15 -4z"/>
<path d="M2351 2424 c0 -11 3 -14 6 -6 3 7 2 16 -1 19 -3 4 -6 -2 -5 -13z"/>
<path d="M2342 1423 c5 -25 28 -28 28 -4 0 12 -6 21 -16 21 -9 0 -14 -7 -12
-17z"/>
<path d="M7102 2718 c-17 -17 -15 -35 6 -50 11 -7 24 -23 31 -35 14 -27 27
-29 48 -7 14 13 14 19 2 42 -15 30 -48 61 -64 62 -6 0 -16 -5 -23 -12z"/>
<path d="M7095 2620 c3 -5 10 -10 16 -10 5 0 9 5 9 10 0 6 -7 10 -16 10 -8 0
-12 -4 -9 -10z"/>
<path d="M6705 2205 c-16 -14 -35 -25 -41 -25 -22 0 -33 -50 -11 -50 6 -1 28
-14 47 -30 35 -30 75 -41 68 -17 -3 6 -15 17 -28 24 l-23 11 23 4 c44 6 35 28
-12 28 -47 1 -49 -4 20 46 12 9 22 21 22 25 0 17 -35 8 -65 -16z"/>
<path d="M6895 1730 c-3 -6 1 -13 10 -16 19 -8 30 0 20 15 -8 14 -22 14 -30 1z"/>
<path d="M6940 1685 c0 -9 5 -15 11 -13 6 2 11 8 11 13 0 5 -5 11 -11 13 -6 2
-11 -4 -11 -13z"/>
<path d="M7297 1644 c-11 -11 -8 -44 3 -44 15 0 24 30 13 41 -5 5 -12 6 -16 3z"/>
<path d="M5200 981 c-15 -28 -13 -33 13 -29 14 2 23 11 25 26 4 28 -23 30 -38
3z"/>
<path d="M6767 2484 c-10 -10 -9 -52 1 -58 15 -9 34 11 30 34 -3 24 -19 36
-31 24z"/>
<path d="M1987 2484 c-12 -12 -8 -51 7 -63 18 -15 39 9 34 41 -3 22 -27 35
-41 22z"/>
<path d="M2111 2448 c-11 -31 -3 -48 24 -48 24 0 38 29 28 56 -8 22 -43 16
-52 -8z"/>
<path d="M6914 2426 c-9 -22 2 -46 21 -46 12 0 15 8 13 27 -3 30 -25 42 -34
19z"/>
<path d="M7761 1884 c-47 -65 -93 -181 -117 -291 -16 -77 -25 -295 -12 -308
10 -11 63 22 92 56 39 45 92 155 110 226 9 35 16 102 16 155 0 81 -4 102 -25
143 -18 36 -21 52 -13 62 7 9 7 13 0 13 -6 0 -29 -25 -51 -56z m47 -11 c6 -10
13 -34 17 -52 l7 -35 -25 17 c-15 9 -33 17 -42 17 -19 0 -19 14 1 45 19 29 30
31 42 8z m20 -111 c13 -16 12 -126 -1 -139 -3 -3 -16 4 -28 16 -12 11 -42 28
-66 37 -48 19 -49 20 -28 71 25 61 32 65 73 47 21 -8 43 -22 50 -32z m-84
-113 c24 -11 52 -29 62 -40 17 -19 17 -22 0 -74 -18 -58 -29 -67 -45 -37 -6
11 -31 34 -56 53 -42 32 -45 36 -39 69 10 59 13 60 78 29z m-20 -139 c25 -27
46 -52 46 -55 0 -3 -9 -24 -21 -46 l-20 -40 -22 28 c-12 15 -32 37 -44 48 -19
17 -21 27 -16 68 3 27 11 47 18 47 7 0 33 -22 59 -50z m-14 -156 c0 -12 -42
-44 -60 -44 -6 0 -10 27 -10 68 l1 67 34 -39 c19 -22 35 -45 35 -52z"/>
<path d="M3083 1938 c-25 -27 -74 -125 -96 -189 -29 -84 -57 -250 -57 -331 0
-64 14 -162 25 -176 2 -2 23 16 48 38 53 49 107 152 132 255 26 105 22 261 -7
353 l-24 73 -21 -23z m31 -65 c9 -26 16 -47 16 -48 0 -1 -20 -1 -45 -1 -25 1
-45 5 -45 9 0 12 44 87 52 87 3 0 13 -21 22 -47z m-7 -69 c19 -5 22 -15 28
-79 4 -40 4 -78 1 -84 -4 -6 -24 1 -53 19 -26 17 -55 30 -64 30 -26 0 -28 10
-12 62 18 53 44 67 100 52z m-29 -163 c53 -37 55 -43 36 -113 -9 -35 -18 -65
-20 -67 -2 -2 -17 13 -34 33 -17 19 -46 44 -64 56 -33 20 -33 21 -25 66 5 25
11 49 14 54 7 12 59 -4 93 -29z m-78 -116 c31 -16 80 -74 80 -94 0 -16 -43
-91 -52 -91 -5 0 -8 4 -8 9 0 5 -16 26 -35 47 -27 29 -35 45 -35 75 0 37 8 69
17 69 2 0 17 -7 33 -15z m-12 -160 c12 -19 22 -39 22 -43 0 -13 -39 -46 -46
-40 -10 10 -17 118 -8 118 5 0 19 -16 32 -35z"/>
<path d="M6200 1920 c0 -5 5 -10 10 -10 6 0 10 5 10 10 0 6 -4 10 -10 10 -5 0
-10 -4 -10 -10z"/>
<path d="M6380 1870 c0 -5 5 -10 10 -10 6 0 10 5 10 10 0 6 -4 10 -10 10 -5 0
-10 -4 -10 -10z"/>
<path d="M8043 1750 c-13 -5 -23 -14 -23 -21 0 -7 7 -8 18 -4 9 3 29 9 44 12
15 3 25 9 22 14 -7 11 -32 11 -61 -1z"/>
<path d="M3353 1730 c-13 -5 -23 -14 -23 -21 0 -7 7 -8 18 -4 9 3 29 9 44 12
15 3 25 9 22 14 -7 11 -32 11 -61 -1z"/>
<path d="M8474 1644 c-10 -39 25 -139 42 -121 4 4 1 19 -7 34 -8 14 -14 46
-13 70 1 47 -12 58 -22 17z"/>
<path d="M3785 1617 c-7 -34 19 -117 36 -117 13 0 11 12 -7 55 -9 22 -13 49
-9 66 4 17 2 29 -4 29 -5 0 -13 -15 -16 -33z"/>
<path d="M8096 1570 c-70 -21 -136 -124 -136 -213 0 -103 38 -180 105 -215 12
-6 49 -14 83 -18 l62 -7 37 39 c73 78 110 202 78 265 -30 58 -66 100 -113 130
-48 30 -67 33 -116 19z m72 -18 c10 -7 9 -18 -6 -53 -23 -54 -48 -207 -36
-218 5 -5 39 -11 75 -15 53 -5 69 -3 79 9 17 21 7 28 -48 35 l-47 5 2 50 c1
28 2 73 3 102 0 29 5 55 11 59 15 9 76 -53 101 -100 15 -30 19 -50 14 -84 -9
-64 -42 -136 -61 -128 -10 4 -14 -1 -12 -15 1 -13 -9 -29 -25 -42 -26 -19 -32
-20 -90 -9 -47 9 -69 18 -86 38 l-24 27 24 19 23 19 -22 -6 c-18 -5 -23 -2
-24 12 -6 74 17 175 52 233 20 32 22 33 35 15 11 -14 14 -15 14 -4 0 8 -5 20
-12 27 -9 9 -6 14 13 21 30 12 31 12 47 3z"/>
<path d="M8070 1440 c0 -5 5 -10 11 -10 5 0 7 5 4 10 -3 6 -8 10 -11 10 -2 0
-4 -4 -4 -10z"/>
<path d="M8280 1370 c-13 -8 -12 -10 3 -10 9 0 17 5 17 10 0 12 -1 12 -20 0z"/>
<path d="M8101 1184 c0 -11 3 -14 6 -6 3 7 2 16 -1 19 -3 4 -6 -2 -5 -13z"/>
<path d="M8170 1176 c0 -9 5 -16 10 -16 6 0 10 4 10 9 0 6 -4 13 -10 16 -5 3
-10 -1 -10 -9z"/>
<path d="M3404 1549 c-102 -29 -164 -200 -117 -321 31 -82 77 -115 173 -125
60 -6 60 -6 97 33 73 78 110 202 78 265 -30 58 -66 100 -113 130 -48 30 -66
33 -118 18z m86 -23 c0 -2 -9 -24 -19 -49 -19 -44 -33 -117 -35 -187 l-1 -35
69 -8 c57 -7 71 -6 84 7 21 21 10 29 -46 36 l-47 5 2 50 c1 28 2 73 3 102 0
29 5 55 11 59 16 9 76 -53 100 -104 24 -49 21 -97 -11 -170 -14 -31 -24 -42
-35 -38 -10 4 -14 -1 -12 -15 1 -13 -9 -29 -25 -42 -26 -19 -32 -20 -90 -9
-47 9 -69 18 -86 38 l-24 27 24 19 23 19 -22 -6 c-18 -5 -23 -2 -24 12 -6 74
17 175 51 231 18 29 23 32 36 21 13 -11 14 -9 9 14 -7 26 -5 27 29 27 20 0 36
-2 36 -4z"/>
<path d="M3380 1420 c0 -5 5 -10 11 -10 5 0 7 5 4 10 -3 6 -8 10 -11 10 -2 0
-4 -4 -4 -10z"/>
<path d="M3590 1350 c-13 -8 -12 -10 3 -10 9 0 17 5 17 10 0 12 -1 12 -20 0z"/>
<path d="M3411 1164 c0 -11 3 -14 6 -6 3 7 2 16 -1 19 -3 4 -6 -2 -5 -13z"/>
<path d="M3480 1156 c0 -9 5 -16 10 -16 6 0 10 4 10 9 0 6 -4 13 -10 16 -5 3
-10 -1 -10 -9z"/>
<path d="M7115 399 c-4 -6 -5 -13 -2 -16 7 -7 27 6 27 18 0 12 -17 12 -25 -2z"/>
<path d="M3170 250 c8 -5 24 -10 34 -10 26 0 18 6 -19 14 -22 5 -26 4 -15 -4z"/>
<path d="M5540 7165 c0 -8 7 -15 15 -15 8 0 15 7 15 15 0 8 -7 15 -15 15 -8 0
-15 -7 -15 -15z"/>
<path d="M5860 7161 c0 -9 4 -22 9 -29 7 -11 9 -11 14 2 4 9 13 13 22 10 10
-4 15 0 15 14 0 16 -6 20 -30 20 -21 -1 -30 -6 -30 -17z"/>
<path d="M5960 7165 c0 -9 7 -18 15 -21 8 -4 13 -10 10 -14 -3 -5 -2 -16 2
-27 6 -14 9 -11 14 17 l6 35 2 -32 c1 -39 18 -51 36 -27 13 18 14 18 15 2 0
-10 6 -18 14 -18 23 0 28 18 9 29 -14 8 -15 11 -3 11 12 0 11 3 -3 11 -10 6
-25 8 -33 5 -8 -3 -14 -1 -14 4 0 6 6 10 14 10 7 0 19 7 26 15 11 13 5 15 -49
15 -48 0 -61 -3 -61 -15z"/>
<path d="M1971 7144 c0 -11 3 -14 6 -6 3 7 2 16 -1 19 -3 4 -6 -2 -5 -13z"/>
<path d="M1982 7080 c0 -14 2 -19 5 -12 2 6 2 18 0 25 -3 6 -5 1 -5 -13z"/>
<path d="M5640 7092 c0 -4 9 -15 20 -25 20 -17 25 -11 14 17 -6 16 -34 23 -34
8z"/>
<path d="M5860 7056 c0 -9 5 -16 10 -16 6 0 10 4 10 9 0 6 -4 13 -10 16 -5 3
-10 -1 -10 -9z"/>
<path d="M1991 7024 c0 -11 3 -14 6 -6 3 7 2 16 -1 19 -3 4 -6 -2 -5 -13z"/>
<path d="M2011 6954 c0 -11 3 -14 6 -6 3 7 2 16 -1 19 -3 4 -6 -2 -5 -13z"/>
</g>
</svg>
